<?xml version="1.0" encoding="UTF-8"?>
<svg width="24px" height="24px" viewBox="0 0 24 24" version="1.1" xmlns="http://www.w3.org/2000/svg" xmlns:xlink="http://www.w3.org/1999/xlink">
    <!-- Generator: Sketch 53.2 (72643) - https://sketchapp.com -->
    <title>Icon/Feather/airplay</title>
    <desc>Created with Sketch.</desc>
    <defs>
        <path d="M5,16 C5.55228475,16 6,16.4477153 6,17 C6,17.5522847 5.55228475,18 5,18 L4,18 C2.34314575,18 1,16.6568542 1,15 L1,5 C1,3.34314575 2.34314575,2 4,2 L20,2 C21.6568542,2 23,3.34314575 23,5 L23,15 C23,16.6568542 21.6568542,18 20,18 L19,18 C18.4477153,18 18,17.5522847 18,17 C18,16.4477153 18.4477153,16 19,16 L20,16 C20.5522847,16 21,15.5522847 21,15 L21,5 C21,4.44771525 20.5522847,4 20,4 L4,4 C3.44771525,4 3,4.44771525 3,5 L3,15 C3,15.5522847 3.44771525,16 4,16 L5,16 Z M12.7682213,14.3598156 L17.7682213,20.3598156 C18.3109937,21.0111425 17.8478376,22 17,22 L7,22 C6.15216235,22 5.68900628,21.0111425 6.23177872,20.3598156 L11.2317787,14.3598156 C11.6315738,13.8800615 12.3684262,13.8800615 12.7682213,14.3598156 Z M9.13504161,20 L14.8649584,20 L12,16.5620499 L9.13504161,20 Z" id="path-1"></path>
    </defs>
    <g id="Icon/Feather/airplay" stroke="none" stroke-width="1" fill="none" fill-rule="evenodd">
        <mask id="mask-2" fill="white">
            <use xlink:href="#path-1"></use>
        </mask>
        <use id="Combined-Shape" fill="#000000" fill-rule="nonzero" xlink:href="#path-1"></use>
        <g id="Color/Neutral/Black" mask="url(#mask-2)" fill="#172B4E" fill-rule="nonzero">
            <rect id="Rectangle" x="0" y="0" width="24" height="24"></rect>
        </g>
    </g>
</svg>