<?xml version="1.0" encoding="UTF-8"?>
<svg width="24px" height="24px" viewBox="0 0 24 24" version="1.1" xmlns="http://www.w3.org/2000/svg" xmlns:xlink="http://www.w3.org/1999/xlink">
    <!-- Generator: Sketch 61.2 (89653) - https://sketch.com -->
    <title>Icon/Feather/next</title>
    <desc>Created with Sketch.</desc>
    <defs>
        <path d="M22.4251808,4.0002 C22.9962056,4.0002 23.4583,4.46229438 23.4583,5.03331919 L23.4583,5.03331919 L23.4583,20.6768764 C23.4583,21.2479012 22.9962056,21.7099956 22.4251808,21.7099956 C21.854156,21.7099956 21.3920616,21.2479012 21.3920616,20.6768764 L21.3920616,20.6768764 L21.3920616,5.03331919 C21.3920616,4.46229438 21.854156,4.0002 22.4251808,4.0002 Z M9.53492636,4.91613297 C9.93854229,4.51251704 10.5921249,4.51251704 10.9957408,4.91613297 L10.9957408,4.91613297 L18.2034958,12.1238879 C18.6082583,12.5275038 18.6082583,13.1810865 18.2034958,13.585849 L18.2034958,13.585849 L10.9957408,20.7947506 C10.7939329,20.9954119 10.5302066,21.0963159 10.2653336,21.0963159 C10.0004606,21.0963159 9.73558769,20.9954119 9.53492636,20.7947506 C9.13131043,20.389988 9.13131043,19.7364054 9.53492636,19.3316429 L9.53492636,19.3316429 L14.9780082,13.888561 L1.03376582,13.888561 C0.462741011,13.888561 -0.0005,13.42532 -0.0005,12.8542951 C-0.0005,12.284417 0.462741011,11.821176 1.03376582,11.821176 L1.03376582,11.821176 L14.9780082,11.821176 L9.53492636,6.37809408 C9.13131043,5.97447815 9.13131043,5.3197489 9.53492636,4.91613297 Z" id="path-1"></path>
    </defs>
    <g id="Icon/Feather/next" stroke="none" stroke-width="1" fill="none" fill-rule="evenodd">
        <mask id="mask-2" fill="white">
            <use xlink:href="#path-1"></use>
        </mask>
        <use id="Fill-2" fill="#1A2C4D" xlink:href="#path-1"></use>
        <g id="Color/Neutral/Darkest" mask="url(#mask-2)" fill="#172B4E" fill-rule="nonzero">
            <rect id="Rectangle" x="0" y="0" width="24" height="24"></rect>
        </g>
    </g>
</svg>