<?xml version="1.0" encoding="UTF-8"?>
<svg width="24px" height="24px" viewBox="0 0 24 24" version="1.1" xmlns="http://www.w3.org/2000/svg" xmlns:xlink="http://www.w3.org/1999/xlink">
    <!-- Generator: Sketch 54.1 (76490) - https://sketchapp.com -->
    <title>Icon/Feather/arrow-up</title>
    <desc>Created with Sketch.</desc>
    <defs>
        <path d="M11,6.41421356 L6.70710678,10.7071068 C6.31658249,11.0976311 5.68341751,11.0976311 5.29289322,10.7071068 C4.90236893,10.3165825 4.90236893,9.68341751 5.29289322,9.29289322 L11.2928932,3.29289322 C11.6834175,2.90236893 12.3165825,2.90236893 12.7071068,3.29289322 L18.7071068,9.29289322 C19.0976311,9.68341751 19.0976311,10.3165825 18.7071068,10.7071068 C18.3165825,11.0976311 17.6834175,11.0976311 17.2928932,10.7071068 L13,6.41421356 L13,20 C13,20.5522847 12.5522847,21 12,21 C11.4477153,21 11,20.5522847 11,20 L11,6.41421356 Z" id="path-1"></path>
    </defs>
    <g id="Icon/Feather/arrow-up" stroke="none" stroke-width="1" fill="none" fill-rule="evenodd">
        <mask id="mask-2" fill="white">
            <use xlink:href="#path-1"></use>
        </mask>
        <use id="Combined-Shape" fill="#000000" fill-rule="nonzero" xlink:href="#path-1"></use>
        <g id="Color/Neutral/Black" mask="url(#mask-2)" fill="#172B4E" fill-rule="nonzero">
            <rect id="Rectangle" x="0" y="0" width="24" height="24"></rect>
        </g>
    </g>
</svg>