<svg width="18" height="18" viewBox="0 0 18 18" fill="none" xmlns="http://www.w3.org/2000/svg">
<path d="M17 9H1V11C1 13.21 2.79 15 5 15H13C15.21 15 17 13.21 17 11V9Z" stroke="#172B4E" stroke-width="1.5"/>
<path d="M15 9C15 7.83333 15 4.4 15 4C15 2.34 13.66 1 12 1C10.6908 1 9.58069 1.83344 9.16992 3" stroke="#172B4E" stroke-width="1.5"/>
<path d="M4 15L3 17" stroke="#172B4E" stroke-width="1.5" stroke-linecap="round" stroke-linejoin="round"/>
<path d="M15 17L14 15" stroke="#172B4E" stroke-width="1.5" stroke-linecap="round" stroke-linejoin="round"/>
<path d="M11 5V5.75C11.4142 5.75 11.75 5.41421 11.75 5H11ZM7 5H6.25C6.25 5.41421 6.58579 5.75 7 5.75V5ZM7.75 5C7.75 4.30964 8.30964 3.75 9 3.75V2.25C7.48122 2.25 6.25 3.48122 6.25 5H7.75ZM9 3.75C9.69036 3.75 10.25 4.30964 10.25 5H11.75C11.75 3.48122 10.5188 2.25 9 2.25V3.75ZM7 5.75H11V4.25H7V5.75Z" fill="#172B4E"/>
</svg>
