<svg width="18" height="18" viewBox="0 0 18 18" fill="none" xmlns="http://www.w3.org/2000/svg">
<path d="M3.75 14.25C4.16421 14.25 4.5 13.9142 4.5 13.5C4.5 13.0858 4.16421 12.75 3.75 12.75V14.25ZM0.75 12H0H0.75ZM4.6425 5.25C5.05671 5.25 5.3925 4.91421 5.3925 4.5C5.3925 4.08579 5.05671 3.75 4.6425 3.75V5.25ZM11.25 3.75C10.8358 3.75 10.5 4.08579 10.5 4.5C10.5 4.91421 10.8358 5.25 11.25 5.25V3.75ZM10.3575 12.75C9.94333 12.75 9.60754 13.0858 9.60754 13.5C9.60754 13.9142 9.94333 14.25 10.3575 14.25V12.75ZM3.75 12.75H2.25V14.25H3.75V12.75ZM2.25 12.75C1.83579 12.75 1.5 12.4142 1.5 12H0C0 13.2426 1.00736 14.25 2.25 14.25V12.75ZM1.5 12V6H0V12H1.5ZM1.5 6C1.5 5.58579 1.83579 5.25 2.25 5.25V3.75C1.00736 3.75 0 4.75736 0 6H1.5ZM2.25 5.25H4.6425V3.75H2.25V5.25ZM11.25 5.25H12.75V3.75H11.25V5.25ZM12.75 5.25C13.1643 5.25 13.5 5.58579 13.5 6H15C15 4.75736 13.9927 3.75 12.75 3.75V5.25ZM13.5 6V12H15V6H13.5ZM13.5 12C13.5 12.4142 13.1643 12.75 12.75 12.75V14.25C13.9927 14.25 15 13.2426 15 12H13.5ZM12.75 12.75H10.3575V14.25H12.75V12.75Z" fill="#172B4E"/>
<path d="M17.25 9.75V8.25" stroke="#172B4E" stroke-width="1.5" stroke-linecap="round" stroke-linejoin="round"/>
<path d="M8.25 4.5L5.25 9H9.75L6.75 13.5" stroke="#172B4E" stroke-width="1.5" stroke-linecap="round" stroke-linejoin="round"/>
</svg>
