<?xml version="1.0" encoding="UTF-8"?>
<svg width="24px" height="24px" viewBox="0 0 24 24" version="1.1" xmlns="http://www.w3.org/2000/svg" xmlns:xlink="http://www.w3.org/1999/xlink">
    <!-- Generator: Sketch 61.2 (89653) - https://sketch.com -->
    <title>Icon/Feather/terrace</title>
    <desc>Created with Sketch.</desc>
    <defs>
        <path d="M3.57141398,9.19831995 C4.96086928,6.06155118 8.09448974,3.97002218 11.6132538,3.97002218 C15.1351661,3.97002218 18.2677372,6.06155118 19.656143,9.19831995 L3.57141398,9.19831995 Z M21.1589376,11.3370736 C21.4895104,11.3370736 21.8011933,11.1838558 22.0047842,10.9214964 C22.2073257,10.6601864 22.2765885,10.3180698 22.1926335,9.99799135 C21.0298567,5.54103016 17.1973109,2.36648163 12.6836801,1.92047068 L12.6836801,1.06937684 C12.6836801,0.478543514 12.2040871,2.98427949e-13 11.6132538,2.98427949e-13 C11.0234699,2.98427949e-13 10.5449264,0.478543514 10.5449264,1.06937684 L10.5449264,1.92047068 C6.03129556,2.36648163 2.19874969,5.53998072 1.03492347,9.99799135 C0.950968471,10.3180698 1.02023135,10.659137 1.22277279,10.9214964 C1.42531424,11.1828063 1.73804662,11.3370736 2.06861944,11.3370736 L10.5449264,11.3370736 L10.5449264,21.7905209 L3.03410197,21.7905209 C2.44431808,21.7905209 1.96472513,22.2690644 1.96472513,22.8598977 C1.96472513,23.4496816 2.44431808,23.9282251 3.03410197,23.9282251 L20.193455,23.9282251 C20.7832389,23.9282251 21.2628319,23.4496816 21.2628319,22.8598977 C21.2628319,22.2690644 20.7832389,21.7905209 20.193455,21.7905209 L12.6836801,21.7905209 L12.6836801,11.3370736 L21.1589376,11.3370736 Z" id="path-1"></path>
    </defs>
    <g id="Icon/Feather/terrace" stroke="none" stroke-width="1" fill="none" fill-rule="evenodd">
        <mask id="mask-2" fill="white">
            <use xlink:href="#path-1"></use>
        </mask>
        <use id="Fill-1" fill="#1A2C4D" xlink:href="#path-1"></use>
        <g id="Color/Neutral/Darkest" mask="url(#mask-2)" fill="#172B4E" fill-rule="nonzero">
            <rect id="Rectangle" x="0" y="0" width="24" height="24"></rect>
        </g>
    </g>
</svg>