<?xml version="1.0" encoding="UTF-8"?>
<svg width="24px" height="24px" viewBox="0 0 24 24" version="1.1" xmlns="http://www.w3.org/2000/svg" xmlns:xlink="http://www.w3.org/1999/xlink">
    <!-- Generator: Sketch 61.2 (89653) - https://sketch.com -->
    <title>Icon/Feather/room</title>
    <desc>Created with Sketch.</desc>
    <defs>
        <path d="M3.07124458,18.1536063 L21.4277386,18.1536063 L21.4277386,12.8946584 L3.07124458,12.8946584 L3.07124458,18.1536063 Z M9.68865239,10.822397 L14.8103308,10.822397 L14.8103308,8.35866323 L9.68865239,8.35866323 L9.68865239,10.822397 Z M4.61781453,6.35656182 C4.61781453,4.54562093 6.09117408,3.07226139 7.90211497,3.07226139 L16.5968682,3.07226139 C18.4078091,3.07226139 19.8821855,4.54562093 19.8821855,6.35656182 L19.8821855,10.822397 L16.8825922,10.822397 L16.8825922,7.32151573 C16.8825922,6.75006779 16.4189262,6.28538503 15.8474783,6.28538503 L8.65252169,6.28538503 C8.08005694,6.28538503 7.616391,6.75006779 7.616391,7.32151573 L7.616391,10.822397 L4.61781453,10.822397 L4.61781453,6.35656182 Z M22.4638693,10.822397 L21.9544469,10.822397 L21.9544469,6.35656182 C21.9544469,3.40272505 19.5517218,1 16.5968682,1 L7.90211497,1 C4.9482782,1 2.54656996,3.40272505 2.54656996,6.35656182 L2.54656996,10.822397 L2.03613069,10.822397 C1.46366594,10.822397 1,11.2860629 1,11.8585277 L1,19.189737 C1,19.7611849 1.46366594,20.2258677 2.03613069,20.2258677 L4.3981833,20.2258677 L4.3981833,22.8309382 C4.3981833,23.4023861 4.86184924,23.8670689 5.43431399,23.8670689 C6.00576193,23.8670689 6.47044469,23.4023861 6.47044469,22.8309382 L6.47044469,20.2258677 L18.4667842,20.2258677 L18.4667842,22.8309382 C18.4667842,23.4023861 18.9304501,23.8670689 19.5029149,23.8670689 C20.0743628,23.8670689 20.5380287,23.4023861 20.5380287,22.8309382 L20.5380287,20.2258677 L22.4638693,20.2258677 C23.0353172,20.2258677 23.5,19.7611849 23.5,19.189737 L23.5,11.8585277 C23.5,11.2860629 23.0353172,10.822397 22.4638693,10.822397 L22.4638693,10.822397 Z" id="path-1"></path>
    </defs>
    <g id="Icon/Feather/room" stroke="none" stroke-width="1" fill="none" fill-rule="evenodd">
        <mask id="mask-2" fill="white">
            <use xlink:href="#path-1"></use>
        </mask>
        <use id="Fill-1" fill="#1A2C4D" xlink:href="#path-1"></use>
        <g id="Color/Neutral/Darkest" mask="url(#mask-2)" fill="#172B4E" fill-rule="nonzero">
            <rect id="Rectangle" x="0" y="0" width="24" height="24"></rect>
        </g>
    </g>
</svg>