<svg width="18" height="18" viewBox="0 0 18 18" fill="none" xmlns="http://www.w3.org/2000/svg">
<path d="M1.5 12C1.08579 12 0.75 12.3358 0.75 12.75C0.75 13.1642 1.08579 13.5 1.5 13.5V12ZM3.75 6.75H3H3.75ZM14.25 6.75H15H14.25ZM10.2975 15.75L10.9463 16.1263C11.0808 15.8943 11.0813 15.6081 10.9474 15.3757C10.8135 15.1432 10.5657 15 10.2975 15V15.75ZM7.70251 15.75V15C7.43429 15 7.18648 15.1432 7.05261 15.3757C6.91874 15.6081 6.91918 15.8943 7.05376 16.1263L7.70251 15.75ZM16.5 12H1.5V13.5H16.5V12ZM1.5 13.5C3.15685 13.5 4.5 12.1569 4.5 10.5H3C3 11.3284 2.32843 12 1.5 12V13.5ZM4.5 10.5V6.75H3V10.5H4.5ZM4.5 6.75C4.5 4.26472 6.51472 2.25 9 2.25V0.75C5.68629 0.75 3 3.43629 3 6.75H4.5ZM9 2.25C11.4853 2.25 13.5 4.26472 13.5 6.75H15C15 3.43629 12.3137 0.75 9 0.75V2.25ZM13.5 6.75V10.5H15V6.75H13.5ZM13.5 10.5C13.5 12.1569 14.8431 13.5 16.5 13.5V12C15.6716 12 15 11.3284 15 10.5H13.5ZM9.64876 15.3737C9.51459 15.605 9.26741 15.7473 9.00001 15.7473V17.2473C9.80222 17.2473 10.5437 16.8202 10.9463 16.1263L9.64876 15.3737ZM9.00001 15.7473C8.73261 15.7473 8.48544 15.605 8.35126 15.3737L7.05376 16.1263C7.45628 16.8202 8.19781 17.2473 9.00001 17.2473V15.7473ZM7.70251 16.5H10.2975V15H7.70251V16.5Z" fill="#172B4E"/>
</svg>
