<svg width="18" height="18" viewBox="0 0 18 18" fill="none" xmlns="http://www.w3.org/2000/svg">
<path d="M6.05141 1.52181C5.69066 1.72536 5.56323 2.18282 5.76679 2.54357C5.97035 2.90431 6.4278 3.03174 6.78855 2.82818L6.05141 1.52181ZM14.25 6.75L13.5 6.74961V6.75H14.25ZM13.5 9.75C13.5 10.1642 13.8358 10.5 14.25 10.5C14.6642 10.5 15 10.1642 15 9.75H13.5ZM12.75 13.5C13.1642 13.5 13.5 13.1642 13.5 12.75C13.5 12.3358 13.1642 12 12.75 12V13.5ZM1.5 12C1.08579 12 0.75 12.3358 0.75 12.75C0.75 13.1642 1.08579 13.5 1.5 13.5V12ZM3.75 6.75H4.5L4.5 6.74905L3.75 6.75ZM5.00143 4.67905C5.19144 4.311 5.04711 3.85859 4.67905 3.66857C4.311 3.47856 3.85859 3.62289 3.66857 3.99095L5.00143 4.67905ZM10.9463 16.1263C11.1541 15.768 11.0321 15.3091 10.6738 15.1012C10.3155 14.8934 9.8566 15.0154 9.64876 15.3737L10.9463 16.1263ZM8.35126 15.3737C8.14342 15.0154 7.68448 14.8934 7.32618 15.1012C6.96789 15.3091 6.84592 15.768 7.05376 16.1263L8.35126 15.3737ZM6.78855 2.82818C8.18217 2.04181 9.88856 2.05466 11.2702 2.86193L12.0269 1.5668C10.1847 0.490444 7.90957 0.473312 6.05141 1.52181L6.78855 2.82818ZM11.2702 2.86193C12.6518 3.6692 13.5008 5.14944 13.5 6.74961L15 6.75038C15.0011 4.61681 13.8691 2.64316 12.0269 1.5668L11.2702 2.86193ZM13.5 6.75V9.75H15V6.75H13.5ZM12.75 12H1.5V13.5H12.75V12ZM1.5 13.5C3.15685 13.5 4.5 12.1569 4.5 10.5H3C3 11.3284 2.32843 12 1.5 12V13.5ZM4.5 10.5V6.75H3V10.5H4.5ZM4.5 6.74905C4.49909 6.02887 4.67105 5.31899 5.00143 4.67905L3.66857 3.99095C3.22807 4.84419 2.99879 5.7907 3 6.75094L4.5 6.74905ZM9.64876 15.3737C9.51459 15.605 9.26741 15.7473 9.00001 15.7473V17.2473C9.80222 17.2473 10.5437 16.8202 10.9463 16.1263L9.64876 15.3737ZM9.00001 15.7473C8.73261 15.7473 8.48544 15.605 8.35126 15.3737L7.05376 16.1263C7.45628 16.8202 8.19781 17.2473 9.00001 17.2473V15.7473Z" fill="#172B4E"/>
<path d="M0.75 0.75L17.25 17.25" stroke="#172B4E" stroke-width="1.5" stroke-linecap="round" stroke-linejoin="round"/>
</svg>
