<svg width="18" height="18" viewBox="0 0 18 18" fill="none" xmlns="http://www.w3.org/2000/svg">
<path d="M2 1H16V17L13.5 15L11.5 17L9 15L6.5 17L4.5 15L2 17V1Z" stroke="#172B4E" stroke-width="1.5" stroke-linecap="round" stroke-linejoin="round"/>
<path d="M10.7647 6H8.41176C7.58824 6 7 6.625 7 7.25C7 7.875 7.58824 8.5 8.41176 8.5H9.58824C10.4118 8.5 11 9.02083 11 9.75C11 10.4792 10.4118 11 9.58824 11H7.23529" stroke="#172B4E" stroke-width="1.5" stroke-miterlimit="10" stroke-linecap="round" stroke-linejoin="round"/>
<path d="M10.7647 6H8.41176C7.58824 6 7 6.625 7 7.25C7 7.875 7.58824 8.5 8.41176 8.5H9.58824C10.4118 8.5 11 9.02083 11 9.75C11 10.4792 10.4118 11 9.58824 11H7.23529" stroke="#172B4E" stroke-width="1.5" stroke-miterlimit="10" stroke-linecap="round" stroke-linejoin="round"/>
<path d="M9 6V5" stroke="#172B4E" stroke-width="1.5" stroke-miterlimit="10" stroke-linecap="round" stroke-linejoin="round"/>
<path d="M9 6V5" stroke="#172B4E" stroke-width="1.5" stroke-miterlimit="10" stroke-linecap="round" stroke-linejoin="round"/>
<path d="M9 12V11" stroke="#172B4E" stroke-width="1.5" stroke-miterlimit="10" stroke-linecap="round" stroke-linejoin="round"/>
<path d="M9 12V11" stroke="#172B4E" stroke-width="1.5" stroke-miterlimit="10" stroke-linecap="round" stroke-linejoin="round"/>
</svg>
