<?xml version="1.0" encoding="UTF-8"?>
<svg width="24px" height="24px" viewBox="0 0 24 24" version="1.1" xmlns="http://www.w3.org/2000/svg" xmlns:xlink="http://www.w3.org/1999/xlink">
    <!-- Generator: Sketch 56.2 (81672) - https://sketch.com -->
    <title>Icon/Service/billboard</title>
    <desc>Created with Sketch.</desc>
    <defs>
        <path d="M20.1,3.8 C21.5,3.8 22.6,5 22.6,6.3 L22.6,14.1 C22.6,15.5 21.5,16.6 20.1,16.6 L19,16.6 L19,21.1 C19,21.7 18.6,22.1 18,22.1 C17.4,22.1 17,21.7 17,21.1 L17,16.6 L7,16.6 L7,21.1 C7,21.7 6.6,22.1 6,22.1 C5.4,22.1 5,21.7 5,21.1 L5,16.6 L3.9,16.6 C2.5,16.6 1.4,15.5 1.4,14.1 L1.4,6.3 C1.4,5 2.5,3.8 3.9,3.8 L20.1,3.8 Z M20.6,14.1 L20.6,6.3 C20.6,6 20.4,5.8 20.1,5.8 L3.9,5.8 C3.6,5.8 3.4,6 3.4,6.3 L3.4,14.1 C3.4,14.4 3.6,14.6 3.9,14.6 L20.1,14.6 C20.4,14.6 20.6,14.4 20.6,14.1 Z" id="path-1"></path>
    </defs>
    <g id="Icon/Service/billboard" stroke="none" stroke-width="1" fill="none" fill-rule="evenodd">
        <mask id="mask-2" fill="white">
            <use xlink:href="#path-1"></use>
        </mask>
        <use id="Combined-Shape" fill="#172B4E" fill-rule="nonzero" xlink:href="#path-1"></use>
        <g id="Color/Neutral/Black" mask="url(#mask-2)" fill="#172B4E" fill-rule="nonzero">
            <rect id="Rectangle" x="0" y="0" width="24" height="24"></rect>
        </g>
    </g>
</svg>