<?xml version="1.0" encoding="UTF-8"?>
<svg width="24px" height="24px" viewBox="0 0 24 24" version="1.1" xmlns="http://www.w3.org/2000/svg" xmlns:xlink="http://www.w3.org/1999/xlink">
    <!-- Generator: Sketch 57.1 (83088) - https://sketch.com -->
    <title>Icon/Service/brand-id</title>
    <desc>Created with Sketch.</desc>
    <defs>
        <path d="M10.3266833,1 C10.765586,1 11.2044888,1.22 11.5336658,1.44 L22.5062344,12.44 C23.1645885,13.1 23.1645885,14.2 22.5062344,14.86 L14.8254364,22.56 C14.3865337,22.89 13.9476309,23 13.5087282,23 C13.0698254,23 12.6309227,22.89 12.3017456,22.56 L1.32917706,11.56 C1.10972569,11.23 1,10.79 1,10.35 L1,4.63 C1,2.65 2.64588529,1 4.62094763,1 L10.3266833,1 Z M10.1072319,3.2 L4.62094763,3.2 C3.85286783,3.2 3.19451372,3.86 3.19451372,4.63 L3.19451372,10.13 L13.6184539,20.58 L20.6408978,13.54 L10.1072319,3.2 Z M10.1428571,5.72815534 C11.2857143,6.69902913 11.2857143,8.25242718 10.1428571,9.32038835 C9.45714286,9.80582524 8.65714286,10 7.85714286,10 C7.05714286,10 6.37142857,9.70873786 5.8,9.22330097 C5.22857143,8.83495146 5,8.15533981 5,7.47572816 C5,6.7961165 5.34285714,6.21359223 5.91428571,5.72815534 C7.05714286,4.75728155 9,4.75728155 10.1428571,5.72815534 Z M7.85714286,6.99029126 C7.74285714,6.99029126 7.51428571,6.99029126 7.4,7.08737864 C7.28571429,7.18446602 7.28571429,7.37864078 7.28571429,7.47572816 C7.28571429,7.66990291 7.28571429,7.76699029 7.4,7.96116505 C7.62857143,8.15533981 8.08571429,8.15533981 8.31428571,7.96116505 C8.54285714,7.76699029 8.54285714,7.37864078 8.31428571,7.18446602 C8.2,6.99029126 8.08571429,6.99029126 7.85714286,6.99029126 Z" id="path-1"></path>
    </defs>
    <g id="Icon/Service/brand-id" stroke="none" stroke-width="1" fill="none" fill-rule="evenodd">
        <mask id="mask-2" fill="white">
            <use xlink:href="#path-1"></use>
        </mask>
        <use id="Combined-Shape" fill="#172B4E" fill-rule="nonzero" xlink:href="#path-1"></use>
        <g id="Color/Neutral/Darkest" mask="url(#mask-2)" fill="#172B4E" fill-rule="nonzero">
            <rect id="Rectangle" x="0" y="0" width="24" height="24"></rect>
        </g>
    </g>
</svg>