<?xml version="1.0" encoding="UTF-8"?>
<svg width="18px" height="22px" viewBox="0 0 18 22" version="1.1" xmlns="http://www.w3.org/2000/svg" xmlns:xlink="http://www.w3.org/1999/xlink">
    <!-- Generator: Sketch 56.2 (81672) - https://sketch.com -->
    <title>Icon/Service/brochure</title>
    <desc>Created with Sketch.</desc>
    <defs>
        <path d="M16,15 L16,2 L3.5,2 C2.7,2 2,2.7 2,3.5 L2,15.3 C2.5,15.1 3,15 3.5,15 L16,15 Z M16,17 L3.5,17 C2.7,17 2,17.7 2,18.5 C2,19.3 2.7,20 3.5,20 L16,20 L16,17 Z M3.5,0 L17,0 C17.6,0 18,0.4 18,1 L18,21 C18,21.6 17.6,22 17,22 L3.5,22 C1.6,22 0,20.4 0,18.5 L0,3.5 C0,1.6 1.6,0 3.5,0 Z" id="path-1"></path>
    </defs>
    <g id="Icon/Service/brochure" stroke="none" stroke-width="1" fill="none" fill-rule="evenodd">
        <mask id="mask-2" fill="white">
            <use xlink:href="#path-1"></use>
        </mask>
        <use id="Shape" fill="#000000" fill-rule="nonzero" xlink:href="#path-1"></use>
        <g id="Color/Neutral/Black" mask="url(#mask-2)" fill="#172B4E" fill-rule="nonzero">
            <rect id="Rectangle" x="0" y="0" width="24" height="24"></rect>
        </g>
    </g>
</svg>