<svg width="18" height="18" viewBox="0 0 18 18" fill="none" xmlns="http://www.w3.org/2000/svg">
<path fill-rule="evenodd" clip-rule="evenodd" d="M5.38275 0.923974C5.52276 0.721117 5.75352 0.600006 6 0.600006H12C12.2465 0.600006 12.4772 0.721117 12.6172 0.923974C12.7573 1.12683 12.7887 1.38553 12.7012 1.616L11.6744 4.32309C14.3176 5.39353 16.25 7.99247 16.25 11.05V15.05C16.25 16.3642 15.2142 17.4 13.9 17.4H4.1C2.78579 17.4 1.75 16.3642 1.75 15.05V11.05L1.75029 11.0291C1.83442 8.0005 3.70952 5.40114 6.32702 4.32689L5.29875 1.616C5.21133 1.38553 5.24274 1.12683 5.38275 0.923974ZM7.77219 3.90741C8.17145 3.83678 8.58168 3.79996 9 3.79996C9.41683 3.79996 9.82724 3.83671 10.2279 3.90725L10.9134 2.10001H7.08662L7.77219 3.90741ZM9.75 7.79996V7.44998C9.75 7.03577 9.41421 6.69998 9 6.69998C8.58579 6.69998 8.25 7.03577 8.25 7.44998V7.81556C7.23248 7.9443 6.5498 8.84863 6.5498 9.74996C6.5498 10.7232 7.34578 11.7 8.4998 11.7H9.4998C9.78559 11.7 9.9498 11.8642 9.9498 12.15C9.9498 12.4357 9.78559 12.6 9.4998 12.6H7.4998C7.08559 12.6 6.7498 12.9357 6.7498 13.35C6.7498 13.7642 7.08559 14.1 7.4998 14.1H8.25V14.35C8.25 14.7642 8.58579 15.1 9 15.1C9.41421 15.1 9.75 14.7642 9.75 14.35V14.0856C10.7368 13.9707 11.4498 13.1791 11.4498 12.15C11.4498 11.0357 10.614 10.2 9.4998 10.2H8.4998C8.37452 10.2 8.26651 10.1489 8.18256 10.06C8.09283 9.96498 8.0498 9.84612 8.0498 9.74996C8.0498 9.65379 8.09283 9.53493 8.18256 9.43993C8.26651 9.35104 8.37452 9.29996 8.4998 9.29996H10.4998C10.914 9.29996 11.2498 8.96417 11.2498 8.54996C11.2498 8.13574 10.914 7.79996 10.4998 7.79996H9.75ZM3.25 15.05V11.0607C3.3444 7.85187 5.92856 5.29996 9 5.29996C12.0933 5.29996 14.75 7.87163 14.75 11.05V15.05C14.75 15.5357 14.3858 15.9 13.9 15.9H4.1C3.61421 15.9 3.25 15.5357 3.25 15.05Z" fill="#172B4E"/>
</svg>
