<?xml version="1.0" encoding="UTF-8"?>
<svg width="24px" height="24px" viewBox="0 0 24 24" version="1.1" xmlns="http://www.w3.org/2000/svg" xmlns:xlink="http://www.w3.org/1999/xlink">
    <!-- Generator: Sketch 61.2 (89653) - https://sketch.com -->
    <title>Icon/Feather/company</title>
    <desc>Created with Sketch.</desc>
    <defs>
        <path d="M19.6787391,1.0002 C20.2611591,1.0002 20.7327,1.47174089 20.7327,2.05294245 L20.7327,2.05294245 L20.7327,20.7366839 C20.7327,22.483944 19.4496701,23.9058773 17.8729934,23.9058773 L17.8729934,23.9058773 L6.85818817,23.9058773 C5.28272986,23.9058773 3.9997,22.483944 3.9997,20.7366839 L3.9997,20.7366839 L3.9997,2.05294245 C3.9997,1.47174089 4.47245934,1.0002 5.05244245,1.0002 L5.05244245,1.0002 Z M18.6259967,3.10568489 L6.10640334,3.10568489 L6.10640334,20.7366839 C6.10640334,21.3130117 6.45000678,21.799174 6.85818817,21.799174 L6.85818817,21.799174 L8.93443021,21.799174 L8.93443021,17.0727991 C8.93443021,16.492816 9.40718955,16.0200566 9.98717266,16.0200566 L9.98717266,16.0200566 L14.7427904,16.0200566 C15.323992,16.0200566 15.7967513,16.492816 15.7967513,17.0727991 L15.7967513,17.0727991 L15.7967513,21.799174 L17.8729934,21.799174 C18.2738641,21.799174 18.6259967,21.3032641 18.6259967,20.7366839 L18.6259967,20.7366839 L18.6259967,3.10568489 Z M13.690048,18.1255415 L11.0399151,18.1255415 L11.0399151,21.799174 L13.690048,21.799174 L13.690048,18.1255415 Z M9.91601507,10.1780671 C10.4984351,10.1780671 10.9687575,10.649608 10.9687575,11.2308096 L10.9687575,11.2308096 L10.9687575,13.1413422 C10.9687575,13.7225437 10.4984351,14.1940846 9.91601507,14.1940846 C9.33481351,14.1940846 8.86327262,13.7225437 8.86327262,13.1413422 L8.86327262,13.1413422 L8.86327262,11.2308096 C8.86327262,10.649608 9.33481351,10.1780671 9.91601507,10.1780671 Z M14.8160194,10.1780671 C15.397221,10.1780671 15.8687618,10.649608 15.8687618,11.2308096 L15.8687618,11.2308096 L15.8687618,13.1413422 C15.8687618,13.7225437 15.397221,14.1940846 14.8160194,14.1940846 C14.2335994,14.1940846 13.763277,13.7225437 13.763277,13.1413422 L13.763277,13.1413422 L13.763277,11.2308096 C13.763277,10.649608 14.2335994,10.1780671 14.8160194,10.1780671 Z M9.91601507,4.66286642 C10.4984351,4.66286642 10.9687575,5.13440731 10.9687575,5.71560887 L10.9687575,5.71560887 L10.9687575,7.62614145 C10.9687575,8.20734301 10.4984351,8.6788839 9.91601507,8.6788839 C9.33481351,8.6788839 8.86327262,8.20734301 8.86327262,7.62614145 L8.86327262,7.62614145 L8.86327262,5.71560887 C8.86327262,5.13440731 9.33481351,4.66286642 9.91601507,4.66286642 Z M14.8160194,4.66286642 C15.397221,4.66286642 15.8687618,5.13440731 15.8687618,5.71560887 L15.8687618,5.71560887 L15.8687618,7.62614145 C15.8687618,8.20734301 15.397221,8.6788839 14.8160194,8.6788839 C14.2335994,8.6788839 13.763277,8.20734301 13.763277,7.62614145 L13.763277,7.62614145 L13.763277,5.71560887 C13.763277,5.13440731 14.2335994,4.66286642 14.8160194,4.66286642 Z" id="path-1"></path>
    </defs>
    <g id="Icon/Feather/company" stroke="none" stroke-width="1" fill="none" fill-rule="evenodd">
        <mask id="mask-2" fill="white">
            <use xlink:href="#path-1"></use>
        </mask>
        <use id="Combined-Shape" fill="#1A2C4D" xlink:href="#path-1"></use>
        <g id="Color/Neutral/Darkest" mask="url(#mask-2)" fill="#172B4E" fill-rule="nonzero">
            <rect id="Rectangle" x="0" y="0" width="24" height="24"></rect>
        </g>
    </g>
</svg>