<?xml version="1.0" encoding="UTF-8"?>
<svg width="24px" height="24px" viewBox="0 0 24 24" version="1.1" xmlns="http://www.w3.org/2000/svg" xmlns:xlink="http://www.w3.org/1999/xlink">
    <!-- Generator: Sketch 53.2 (72643) - https://sketchapp.com -->
    <title>Icon/Feather/camera-off</title>
    <desc>Created with Sketch.</desc>
    <defs>
        <path d="M16.0012727,14.5870591 L23.7071068,22.2928932 C24.0976311,22.6834175 24.0976311,23.3165825 23.7071068,23.7071068 C23.3165825,24.0976311 22.6834175,24.0976311 22.2928932,23.7071068 L20.5857864,22 L3,22 C1.34314575,22 3.33066907e-16,20.6568542 0,19 L0,8 C-2.22044605e-16,6.34314575 1.34314575,5 3,5 L3.58578644,5 L0.292893219,1.70710678 C-0.0976310729,1.31658249 -0.0976310729,0.683417511 0.292893219,0.292893219 C0.683417511,-0.0976310729 1.31658249,-0.0976310729 1.70710678,0.292893219 L10.4129409,8.99872732 C10.4219984,9.00744708 10.4309145,9.01636146 10.4396843,9.02547077 L15.9745292,14.5603156 C15.9836385,14.5690855 15.9925529,14.5780016 16.0012712,14.5870576 Z M15.3236979,16.7379114 C14.1637949,17.7818173 12.5593328,18.2405629 10.9853635,17.9214576 C9.0164907,17.5222899 7.47771009,15.9835093 7.07854238,14.0146365 C6.75943708,12.4406672 7.21818271,10.8362051 8.26208857,9.67630213 L5.58578644,7 L3,7 C2.44771525,7 2,7.44771525 2,8 L2,19 C2,19.5522847 2.44771525,20 3,20 L18.5857864,20 L15.3236979,16.7379114 Z M13.9061455,15.320359 L9.67964097,11.0938545 C9.10241129,11.782546 8.85439969,12.7083674 9.0386644,13.617243 C9.27816503,14.7985666 10.2014334,15.721835 11.382757,15.9613356 C12.2916326,16.1456003 13.217454,15.8975887 13.9061455,15.320359 Z M16.1679497,6.5547002 L14.4648162,4 L9,4 C8.44771525,4 8,3.55228475 8,3 C8,2.44771525 8.44771525,2 9,2 L15,2 C15.3343532,2 15.6465845,2.16710114 15.8320503,2.4452998 L17.5351838,5 L21,5 C22.6568542,5 24,6.34314575 24,8 L24,17.34 C24,17.8922847 23.5522847,18.34 23,18.34 C22.4477153,18.34 22,17.8922847 22,17.34 L22,8 C22,7.44771525 21.5522847,7 21,7 L17,7 C16.6656468,7 16.3534155,6.83289886 16.1679497,6.5547002 Z" id="path-1"></path>
    </defs>
    <g id="Icon/Feather/camera-off" stroke="none" stroke-width="1" fill="none" fill-rule="evenodd">
        <mask id="mask-2" fill="white">
            <use xlink:href="#path-1"></use>
        </mask>
        <use id="Combined-Shape" fill="#000000" fill-rule="nonzero" xlink:href="#path-1"></use>
        <g id="Color/Neutral/Black" mask="url(#mask-2)" fill="#172B4E" fill-rule="nonzero">
            <rect id="Rectangle" x="0" y="0" width="24" height="24"></rect>
        </g>
    </g>
</svg>