<svg width="18" height="18" viewBox="0 0 18 18" fill="none" xmlns="http://www.w3.org/2000/svg">
<path d="M0.75 0.75L17.25 17.25" stroke="#172B4E" stroke-width="1.5" stroke-linecap="round" stroke-linejoin="round"/>
<path d="M15.75 16.5C16.1642 16.5 16.5 16.1642 16.5 15.75C16.5 15.3358 16.1642 15 15.75 15V16.5ZM0.75 14.25H0H0.75ZM4.5 5.25C4.91421 5.25 5.25 4.91421 5.25 4.5C5.25 4.08579 4.91421 3.75 4.5 3.75V5.25ZM6.75 1.5C6.33579 1.5 6 1.83579 6 2.25C6 2.66421 6.33579 3 6.75 3V1.5ZM11.25 2.25L11.874 1.83397C11.7349 1.62533 11.5008 1.5 11.25 1.5V2.25ZM12.75 4.5L12.126 4.91603C12.2651 5.12467 12.4992 5.25 12.75 5.25V4.5ZM16.5 13.005C16.5 13.4192 16.8358 13.755 17.25 13.755C17.6642 13.755 18 13.4192 18 13.005H16.5ZM12.079 11.8835C12.3129 11.5417 12.2254 11.0749 11.8835 10.841C11.5417 10.6071 11.075 10.6946 10.841 11.0365L12.079 11.8835ZM7.71354 7.90897C8.05538 7.67506 8.14288 7.20832 7.90897 6.86647C7.67506 6.52463 7.20832 6.43713 6.86647 6.67104L7.71354 7.90897ZM15.75 15H2.25V16.5H15.75V15ZM2.25 15C1.83579 15 1.5 14.6642 1.5 14.25H0C0 15.4926 1.00736 16.5 2.25 16.5V15ZM1.5 14.25V6H0V14.25H1.5ZM1.5 6C1.5 5.58579 1.83579 5.25 2.25 5.25V3.75C1.00736 3.75 0 4.75736 0 6H1.5ZM2.25 5.25H4.5V3.75H2.25V5.25ZM6.75 3H11.25V1.5H6.75V3ZM10.626 2.66603L12.126 4.91603L13.374 4.08397L11.874 1.83397L10.626 2.66603ZM12.75 5.25H15.75V3.75H12.75V5.25ZM15.75 5.25C16.1642 5.25 16.5 5.58579 16.5 6H18C18 4.75736 16.9926 3.75 15.75 3.75V5.25ZM16.5 6V13.005H18V6H16.5ZM10.841 11.0365C10.3305 11.7825 9.42307 12.1506 8.53707 11.971L8.23903 13.4411C9.71568 13.7405 11.2281 13.127 12.079 11.8835L10.841 11.0365ZM8.53707 11.971C7.65108 11.7914 6.95863 11.0989 6.779 10.2129L5.30891 10.511C5.60829 11.9876 6.76237 13.1417 8.23903 13.4411L8.53707 11.971ZM6.779 10.2129C6.59938 9.32694 6.96746 8.41948 7.71354 7.90897L6.86647 6.67104C5.62301 7.52189 5.00953 9.03433 5.30891 10.511L6.779 10.2129Z" fill="#172B4E"/>
</svg>
