<svg width="18" height="18" viewBox="0 0 18 18" fill="none" xmlns="http://www.w3.org/2000/svg">
<path d="M1.64987 11.3401C1.24401 11.2574 0.8479 11.5193 0.765127 11.9251C0.682355 12.331 0.944268 12.7271 1.35013 12.8099L1.64987 11.3401ZM3.69013 15.1499C3.7729 15.5557 4.16902 15.8176 4.57487 15.7349C4.98073 15.6521 5.24265 15.256 5.15987 14.8501L3.69013 15.1499ZM1.5829 8.29209C1.17123 8.24631 0.800383 8.54292 0.754596 8.95459C0.70881 9.36627 1.00542 9.73711 1.4171 9.7829L1.5829 8.29209ZM6.71709 15.0829C6.76288 15.4946 7.13373 15.7912 7.5454 15.7454C7.95708 15.6996 8.25369 15.3288 8.2079 14.9171L6.71709 15.0829ZM0.75 6C0.75 6.41421 1.08579 6.75 1.5 6.75C1.91421 6.75 2.25 6.41421 2.25 6H0.75ZM10.5 14.25C10.0858 14.25 9.75 14.5858 9.75 15C9.75 15.4142 10.0858 15.75 10.5 15.75V14.25ZM1.35013 12.8099C2.5287 13.0502 3.44977 13.9713 3.69013 15.1499L5.15987 14.8501C4.79933 13.0823 3.41773 11.7007 1.64987 11.3401L1.35013 12.8099ZM1.4171 9.7829C4.20567 10.093 6.40695 12.2943 6.71709 15.0829L8.2079 14.9171C7.82022 11.4314 5.06862 8.67977 1.5829 8.29209L1.4171 9.7829ZM2.25 6V4.5H0.75V6H2.25ZM2.25 4.5C2.25 4.08579 2.58579 3.75 3 3.75V2.25C1.75736 2.25 0.75 3.25736 0.75 4.5H2.25ZM3 3.75H15V2.25H3V3.75ZM15 3.75C15.4142 3.75 15.75 4.08579 15.75 4.5H17.25C17.25 3.25736 16.2426 2.25 15 2.25V3.75ZM15.75 4.5V13.5H17.25V4.5H15.75ZM15.75 13.5C15.75 13.9142 15.4142 14.25 15 14.25V15.75C16.2426 15.75 17.25 14.7426 17.25 13.5H15.75ZM15 14.25H10.5V15.75H15V14.25Z" fill="#172B4E"/>
</svg>
