<?xml version="1.0" encoding="UTF-8"?>
<svg width="24px" height="24px" viewBox="0 0 24 24" version="1.1" xmlns="http://www.w3.org/2000/svg" xmlns:xlink="http://www.w3.org/1999/xlink">
    <!-- Generator: Sketch 54.1 (76490) - https://sketchapp.com -->
    <title>Icon/Feather/chrome</title>
    <desc>Created with Sketch.</desc>
    <defs>
        <path d="M10.8374895,22.9393011 C10.7918425,22.9373977 10.7461291,22.9323486 10.7006737,22.9240666 C5.23790928,22.2812306 1,17.6355237 1,12 C1,9.58665795 1.77717865,7.35483569 3.09491089,5.5411583 C3.12636896,5.48920818 3.16273543,5.43985547 3.20380578,5.39386517 C5.21094092,2.72557205 8.40395599,1 12,1 C16.488086,1 20.3483904,3.68785254 22.059008,7.54165239 C22.0787068,7.57978281 22.0960244,7.61934307 22.1107643,7.66013648 C22.6830456,8.99164398 23,10.4588077 23,12 C23,18.0751322 18.0751322,23 12,23 C11.6073518,23 11.2195086,22.9794273 10.8374895,22.9393011 Z M10.3543637,20.849893 L12.5953131,16.9649283 C12.4001018,16.9880874 12.201442,17 12,17 C10.0741166,17 8.40254647,15.9111558 7.5673115,14.3154894 L3.92670266,8.01779134 C3.33340199,9.21832182 3,10.5702258 3,12 C3,16.4084947 6.16966906,20.0766735 10.3543637,20.849893 Z M12.5875407,20.9811287 C17.2842494,20.6784742 21,16.7731671 21,12 C21,10.9480937 20.8195373,9.93833678 20.4878829,9 L16.0003662,9 C16.6280552,9.83566053 17,10.8743941 17,12 C17,12.983444 16.7160741,13.9005735 16.2257216,14.6738892 L12.5875407,20.9811287 Z M14.5190862,13.6298282 L14.5937781,13.5003405 C14.6072301,13.4770199 14.6214794,13.454446 14.6364719,13.4326336 C14.8682864,13.0069275 15,12.5188454 15,12 C15,10.3431458 13.6568542,9 12,9 C10.3431458,9 9,10.3431458 9,12 C9,12.4905463 9.11773741,12.9535935 9.32649528,13.3624247 L9.4057496,13.4995226 C9.41883538,13.522159 9.43093511,13.5450947 9.44206208,13.56828 C9.96978884,14.4271935 10.9180014,15 12,15 C13.0559433,15 13.9844662,14.4544486 14.5190862,13.6298282 Z M5.15841715,6.15228519 L7.40178234,10.0329649 C8.16572328,8.24947246 9.93694667,7 12,7 L19.484451,7 C17.8699283,4.58802851 15.1204161,3 12,3 C9.26174629,3 6.80910941,4.222871 5.15841715,6.15228519 Z" id="path-1"></path>
    </defs>
    <g id="Icon/Feather/chrome" stroke="none" stroke-width="1" fill="none" fill-rule="evenodd">
        <mask id="mask-2" fill="white">
            <use xlink:href="#path-1"></use>
        </mask>
        <use id="Combined-Shape" fill="#000000" fill-rule="nonzero" xlink:href="#path-1"></use>
        <g id="Color/Neutral/Black" mask="url(#mask-2)" fill="#172B4E" fill-rule="nonzero">
            <rect id="Rectangle" x="0" y="0" width="24" height="24"></rect>
        </g>
    </g>
</svg>