<svg width="18" height="18" viewBox="0 0 18 18" fill="none" xmlns="http://www.w3.org/2000/svg">
<path d="M16.0232 12.2365C15.8617 12.6179 16.0399 13.058 16.4213 13.2196C16.8027 13.3811 17.2429 13.2029 17.4044 12.8215L16.0232 12.2365ZM13.3816 7.50537L13.3816 8.25537L13.3825 8.25537L13.3816 7.50537ZM12.4709 7.50537L11.7439 7.68996C11.8284 8.02252 12.1278 8.25537 12.4709 8.25537V7.50537ZM7.44099 2.42136C7.02838 2.38492 6.66436 2.68986 6.62791 3.10246C6.59146 3.51507 6.8964 3.8791 7.30901 3.91555L7.44099 2.42136ZM4.34792 4.54762C4.71041 4.34719 4.84178 3.89085 4.64135 3.52836C4.44092 3.16587 3.98458 3.03449 3.62209 3.23493L4.34792 4.54762ZM6.87628 14.7336L6.87628 13.9835L6.86419 13.9837L6.87628 14.7336ZM13.3816 14.7336L13.3816 15.4836L13.3825 15.4836L13.3816 14.7336ZM14.8663 15.2217C15.2557 15.0804 15.4568 14.6502 15.3154 14.2608C15.1741 13.8715 14.7439 13.6704 14.3546 13.8117L14.8663 15.2217ZM17.4044 12.8215C17.9756 11.4728 17.8322 9.92765 17.0227 8.70715L15.7727 9.5363C16.304 10.3373 16.3981 11.3514 16.0232 12.2365L17.4044 12.8215ZM17.0227 8.70715C16.2131 7.48666 14.8453 6.75363 13.3807 6.75537L13.3825 8.25537C14.3437 8.25423 15.2414 8.7353 15.7727 9.5363L17.0227 8.70715ZM13.3816 6.75537H12.4709V8.25537H13.3816V6.75537ZM13.1978 7.32078C12.5146 4.63044 10.2059 2.6656 7.44099 2.42136L7.30901 3.91555C9.43907 4.1037 11.2176 5.61738 11.7439 7.68996L13.1978 7.32078ZM3.62209 3.23493C0.997779 4.68599 -0.301535 7.73744 0.471135 10.6349L1.92049 10.2485C1.32524 8.01627 2.3262 5.6655 4.34792 4.54762L3.62209 3.23493ZM0.471135 10.6349C1.2438 13.5325 3.88999 15.5318 6.88836 15.4835L6.86419 13.9837C4.5543 14.0209 2.51574 12.4806 1.92049 10.2485L0.471135 10.6349ZM6.87628 15.4836H13.3816V13.9836H6.87628V15.4836ZM13.3825 15.4836C13.8886 15.483 14.3906 15.3944 14.8663 15.2217L14.3546 13.8117C14.0424 13.925 13.7129 13.9832 13.3808 13.9836L13.3825 15.4836Z" fill="#172B4E"/>
<path d="M1 1L16.902 16.902" stroke="#172B4E" stroke-width="1.5" stroke-linecap="round" stroke-linejoin="round"/>
</svg>
