<svg width="18" height="18" viewBox="0 0 18 18" fill="none" xmlns="http://www.w3.org/2000/svg">
<path d="M13.5 6H14.25C15.0456 6 15.8087 6.31607 16.3713 6.87868C16.9339 7.44129 17.25 8.20435 17.25 9C17.25 9.79565 16.9339 10.5587 16.3713 11.1213C15.8087 11.6839 15.0456 12 14.25 12H13.5" stroke="#172B4E" stroke-width="1.5" stroke-linecap="round" stroke-linejoin="round"/>
<path d="M1.5 6H13.5V12.75C13.5 13.5456 13.1839 14.3087 12.6213 14.8713C12.0587 15.4339 11.2957 15.75 10.5 15.75H4.5C3.70435 15.75 2.94129 15.4339 2.37868 14.8713C1.81607 14.3087 1.5 13.5456 1.5 12.75V6Z" stroke="#172B4E" stroke-width="1.5" stroke-linecap="round" stroke-linejoin="round"/>
<path d="M4.5 0.75V3" stroke="#172B4E" stroke-width="1.5" stroke-linecap="round" stroke-linejoin="round"/>
<path d="M7.5 0.75V3" stroke="#172B4E" stroke-width="1.5" stroke-linecap="round" stroke-linejoin="round"/>
<path d="M10.5 0.75V3" stroke="#172B4E" stroke-width="1.5" stroke-linecap="round" stroke-linejoin="round"/>
</svg>
