<svg width="18" height="18" viewBox="0 0 18 18" fill="none" xmlns="http://www.w3.org/2000/svg">
<path fill-rule="evenodd" clip-rule="evenodd" d="M11.25 17.25C14.5637 17.25 17.25 14.5637 17.25 11.25C17.25 7.93629 14.5637 5.25 11.25 5.25C7.93629 5.25 5.25 7.93629 5.25 11.25C5.25 14.5637 7.93629 17.25 11.25 17.25Z" stroke="#172B4E" stroke-width="1.5" stroke-linecap="round" stroke-linejoin="round"/>
<path fill-rule="evenodd" clip-rule="evenodd" d="M12.75 6.75C12.75 10.0637 10.0637 12.75 6.75 12.75C6.28652 12.75 5.83532 12.6974 5.40202 12.598C5.30255 12.1647 5.25 11.7135 5.25 11.25C5.25 7.93629 7.93629 5.25 11.25 5.25C11.7135 5.25 12.1647 5.30255 12.598 5.40202C12.6974 5.83532 12.75 6.28652 12.75 6.75Z" fill="#172B4E"/>
<path d="M5.40202 12.598L4.67104 12.7658C4.73534 13.0459 4.95408 13.2647 5.23421 13.329L5.40202 12.598ZM12.598 5.40202L13.329 5.23421C13.2647 4.95408 13.0459 4.73534 12.7658 4.67104L12.598 5.40202ZM6.75 13.5C10.4779 13.5 13.5 10.4779 13.5 6.75H12C12 9.6495 9.64949 12 6.75 12V13.5ZM5.23421 13.329C5.72217 13.441 6.22966 13.5 6.75 13.5V12C6.34339 12 5.94847 11.9539 5.56983 11.867L5.23421 13.329ZM4.5 11.25C4.5 11.7703 4.55902 12.2778 4.67104 12.7658L6.13301 12.4302C6.04609 12.0515 6 11.6566 6 11.25H4.5ZM11.25 4.5C7.52208 4.5 4.5 7.52208 4.5 11.25H6C6 8.3505 8.3505 6 11.25 6V4.5ZM12.7658 4.67104C12.2778 4.55902 11.7703 4.5 11.25 4.5V6C11.6566 6 12.0515 6.04609 12.4302 6.13301L12.7658 4.67104ZM13.5 6.75C13.5 6.22966 13.441 5.72217 13.329 5.23421L11.867 5.56983C11.9539 5.94847 12 6.34339 12 6.75H13.5Z" fill="#172B4E"/>
<path fill-rule="evenodd" clip-rule="evenodd" d="M6.75 0C3.02208 0 0 3.02208 0 6.75C0 9.12547 1.22708 11.2143 3.08195 12.4173C3.02794 12.036 3 11.6463 3 11.25C3 10.9841 3.01258 10.7212 3.03717 10.4618C2.08741 9.51177 1.5 8.19948 1.5 6.75C1.5 3.85051 3.8505 1.5 6.75 1.5C8.19948 1.5 9.51176 2.08741 10.4618 3.03717C10.7212 3.01258 10.9841 3 11.25 3C11.6463 3 12.036 3.02794 12.4173 3.08195C11.2143 1.22708 9.12547 0 6.75 0ZM13.2108 4.78921C12.6655 4.62392 12.091 4.52579 11.4969 4.50443C11.8195 5.18525 12 5.94655 12 6.75C12 9.6495 9.64949 12 6.75 12C5.94655 12 5.18525 11.8195 4.50443 11.4969C4.52579 12.091 4.62392 12.6655 4.78921 13.2108C5.40973 13.3989 6.06806 13.5 6.75 13.5C10.4779 13.5 13.5 10.4779 13.5 6.75C13.5 6.06806 13.3989 5.40973 13.2108 4.78921Z" fill="#172B4E"/>
</svg>
