<?xml version="1.0" encoding="UTF-8"?>
<svg width="24px" height="24px" viewBox="0 0 24 24" version="1.1" xmlns="http://www.w3.org/2000/svg" xmlns:xlink="http://www.w3.org/1999/xlink">
    <!-- Generator: Sketch 54.1 (76490) - https://sketchapp.com -->
    <title>Icon/Feather/compass</title>
    <desc>Created with Sketch.</desc>
    <g id="Icon/Feather/compass" stroke="none" stroke-width="1" fill="none" fill-rule="evenodd">
        <path d="M12,23 C5.92486775,23 1,18.0751322 1,12 C1,5.92486775 5.92486775,1 12,1 C18.0751322,1 23,5.92486775 23,12 C23,18.0751322 18.0751322,23 12,23 Z M12,21 C16.9705627,21 21,16.9705627 21,12 C21,7.02943725 16.9705627,3 12,3 C7.02943725,3 3,7.02943725 3,12 C3,16.9705627 7.02943725,21 12,21 Z M17.1886833,8.07622777 L15.0686833,14.4362278 C14.9691483,14.7348328 14.7348328,14.9691483 14.4362278,15.0686833 L8.07622777,17.1886833 C7.29446974,17.4492693 6.55073069,16.7055303 6.8113167,15.9237722 L8.9313167,9.56377223 C9.0308517,9.26516724 9.26516724,9.0308517 9.56377223,8.9313167 L15.9237722,6.8113167 C16.7055303,6.55073069 17.4492693,7.29446974 17.1886833,8.07622777 Z M10.6705694,10.6705694 L9.34113883,14.6588612 L13.3294306,13.3294306 L14.6588612,9.34113883 L10.6705694,10.6705694 Z" id="Combined-Shape" fill="#172B4E" fill-rule="nonzero"></path>
    </g>
</svg>