<?xml version="1.0" encoding="UTF-8"?>
<svg width="24px" height="24px" viewBox="0 0 24 24" version="1.1" xmlns="http://www.w3.org/2000/svg" xmlns:xlink="http://www.w3.org/1999/xlink">
    <!-- Generator: Sketch 54.1 (76490) - https://sketchapp.com -->
    <title>Icon/Feather/corner-down-right</title>
    <desc>Created with Sketch.</desc>
    <defs>
        <path d="M17.5857864,16 L8,16 C5.23857625,16 3,13.7614237 3,11 L3,4 C3,3.44771525 3.44771525,3 4,3 C4.55228475,3 5,3.44771525 5,4 L5,11 C5,12.6568542 6.34314575,14 8,14 L17.5857864,14 L14.2928932,10.7071068 C13.9023689,10.3165825 13.9023689,9.68341751 14.2928932,9.29289322 C14.6834175,8.90236893 15.3165825,8.90236893 15.7071068,9.29289322 L20.7071068,14.2928932 C21.0976311,14.6834175 21.0976311,15.3165825 20.7071068,15.7071068 L15.7071068,20.7071068 C15.3165825,21.0976311 14.6834175,21.0976311 14.2928932,20.7071068 C13.9023689,20.3165825 13.9023689,19.6834175 14.2928932,19.2928932 L17.5857864,16 Z" id="path-1"></path>
    </defs>
    <g id="Icon/Feather/corner-down-right" stroke="none" stroke-width="1" fill="none" fill-rule="evenodd">
        <mask id="mask-2" fill="white">
            <use xlink:href="#path-1"></use>
        </mask>
        <use id="Combined-Shape" fill="#000000" fill-rule="nonzero" xlink:href="#path-1"></use>
        <g id="Color/Neutral/Black" mask="url(#mask-2)" fill="#172B4E" fill-rule="nonzero">
            <rect id="Rectangle" x="0" y="0" width="24" height="24"></rect>
        </g>
    </g>
</svg>