<?xml version="1.0" encoding="UTF-8"?>
<svg width="24px" height="24px" viewBox="0 0 24 24" version="1.1" xmlns="http://www.w3.org/2000/svg" xmlns:xlink="http://www.w3.org/1999/xlink">
    <!-- Generator: Sketch 54.1 (76490) - https://sketchapp.com -->
    <title>Icon/Feather/corner-down-left</title>
    <desc>Created with Sketch.</desc>
    <defs>
        <path d="M6.41421356,14 L16,14 C17.6568542,14 19,12.6568542 19,11 L19,4 C19,3.44771525 19.4477153,3 20,3 C20.5522847,3 21,3.44771525 21,4 L21,11 C21,13.7614237 18.7614237,16 16,16 L6.41421356,16 L9.70710678,19.2928932 C10.0976311,19.6834175 10.0976311,20.3165825 9.70710678,20.7071068 C9.31658249,21.0976311 8.68341751,21.0976311 8.29289322,20.7071068 L3.29289322,15.7071068 C2.90236893,15.3165825 2.90236893,14.6834175 3.29289322,14.2928932 L8.29289322,9.29289322 C8.68341751,8.90236893 9.31658249,8.90236893 9.70710678,9.29289322 C10.0976311,9.68341751 10.0976311,10.3165825 9.70710678,10.7071068 L6.41421356,14 Z" id="path-1"></path>
    </defs>
    <g id="Icon/Feather/corner-down-left" stroke="none" stroke-width="1" fill="none" fill-rule="evenodd">
        <mask id="mask-2" fill="white">
            <use xlink:href="#path-1"></use>
        </mask>
        <use id="Combined-Shape" fill="#000000" fill-rule="nonzero" xlink:href="#path-1"></use>
        <g id="Color/Neutral/Black" mask="url(#mask-2)" fill="#172B4E" fill-rule="nonzero">
            <rect id="Rectangle" x="0" y="0" width="24" height="24"></rect>
        </g>
    </g>
</svg>