<svg width="18" height="18" viewBox="0 0 18 18" fill="none" xmlns="http://www.w3.org/2000/svg">
<path d="M1.29726 8C0.93242 9.11275 0.75 10.1251 0.75 10.8333C0.75 15.4167 5.33333 17.25 9 17.25C12.6667 17.25 17.25 15.4167 17.25 10.8333C17.25 10.1251 17.0676 9.11275 16.7027 8M1.29726 8C1.53996 8.80717 2.03954 10.103 2.66227 11M1.29726 8C1.61441 7.0327 2.06941 5.98949 2.66227 5.00413M16.7027 8C16.3591 8.80717 15.8808 10.103 15.2906 11M16.7027 8C16.3856 7.0327 15.9306 5.98949 15.3377 5.00413M2.66227 11C3.0682 11.5847 3.52645 12 4 12C5.5 12 12 12 14 12C14.4735 12 14.9059 11.5847 15.2906 11M2.66227 11C3.58042 10.7249 5.25626 10.2228 7.5 10.0557M15.2906 11C14.3854 10.7249 12.7332 10.2228 10.4974 10.0557M2.66227 5.00413C4.03537 2.72192 6.14795 0.75 9 0.75C11.852 0.75 13.9646 2.72192 15.3377 5.00413M2.66227 5.00413C4.27484 5.03991 7.5 6.10033 7.5 10.0557M7.5 10.0557C7.97514 10.0204 8.47574 10 9 10C9.52426 10 10.0239 10.0204 10.4974 10.0557M15.3377 5.00413C13.7243 5.03991 10.4974 6.10033 10.4974 10.0557" stroke="#172B4E" stroke-width="1.5"/>
</svg>
