<?xml version="1.0" encoding="UTF-8"?>
<svg width="24px" height="24px" viewBox="0 0 24 24" version="1.1" xmlns="http://www.w3.org/2000/svg" xmlns:xlink="http://www.w3.org/1999/xlink">
    <!-- Generator: Sketch 61.2 (89653) - https://sketch.com -->
    <title>Icon/Feather/insights</title>
    <desc>Created with Sketch.</desc>
    <defs>
        <path d="M20.8000857,6.95666355 C19.6933718,6.95666355 18.7929943,6.05732824 18.7929943,4.95061433 C18.7929943,3.84390043 19.6933718,2.94248091 20.8000857,2.94248091 C21.9067996,2.94248091 22.8082191,3.84390043 22.8082191,4.95061433 C22.8082191,6.05732824 21.9067996,6.95666355 20.8000857,6.95666355 M15.1831479,18.5927911 C14.0764339,18.5927911 13.1760565,17.6924137 13.1760565,16.5856998 C13.1760565,15.4789859 14.0764339,14.5786085 15.1831479,14.5786085 C16.2898618,14.5786085 17.1902392,15.4789859 17.1902392,16.5856998 C17.1902392,17.6924137 16.2898618,18.5927911 15.1831479,18.5927911 M7.56016082,7.927904 C7.56016082,6.8211901 8.45949613,5.92185479 9.56621004,5.92185479 C10.6729239,5.92185479 11.5733014,6.8211901 11.5733014,7.927904 C11.5733014,9.03461791 10.6729239,9.93499533 9.56621004,9.93499533 C8.45949613,9.93499533 7.56016082,9.03461791 7.56016082,7.927904 M3.94823013,21.5711229 C2.84255832,21.5711229 1.94218091,20.6707455 1.94218091,19.5640316 C1.94218091,18.4573177 2.84255832,17.5569403 3.94823013,17.5569403 C5.05598614,17.5569403 5.95636355,18.4573177 5.95636355,19.5640316 C5.95636355,20.6707455 5.05598614,21.5711229 3.94823013,21.5711229 M20.8000857,1 C18.6220894,1 16.8505134,2.77157593 16.8505134,4.95061433 C16.8505134,6.226149 17.4695229,7.35162077 18.4105424,8.07379849 L16.0824832,12.7486748 C15.7917363,12.680938 15.4936947,12.6361276 15.1831479,12.6361276 C14.7475486,12.6361276 14.3359177,12.7236643 13.9440868,12.8549693 L12.2506686,10.8082781 C13.0239094,10.0871424 13.5168244,9.06692312 13.5168244,7.927904 C13.5168244,5.74990771 11.7442063,3.97937388 9.56621004,3.97937388 C7.38925585,3.97937388 5.61767992,5.74990771 5.61767992,7.927904 C5.61767992,9.18989133 6.22209994,10.3007737 7.14436153,11.0250356 L4.76628136,15.701996 C4.50158708,15.6457225 4.22959807,15.6144593 3.94823013,15.6144593 C1.77127593,15.6144593 -0.0003,17.3860353 -0.0003,19.5640316 C-0.0003,21.7420279 1.77127593,23.5136038 3.94823013,23.5136038 C6.12726852,23.5136038 7.89884446,21.7420279 7.89884446,19.5640316 C7.89884446,18.3645705 7.34965592,17.3005828 6.50242578,16.5763209 L8.92427429,11.8139079 C9.1347792,11.8482973 9.34632621,11.8785183 9.56621004,11.8785183 C9.89238843,11.8785183 10.2050195,11.8274553 10.5082716,11.7524238 L12.2954791,13.9106201 C11.6420802,14.6150821 11.2325335,15.550891 11.2325335,16.5856998 C11.2325335,18.7647382 13.0051516,20.535272 15.1831479,20.535272 C17.3611441,20.535272 19.1327201,18.7647382 19.1327201,16.5856998 C19.1327201,15.4164597 18.6116683,14.3753983 17.8019539,13.6511364 L20.1998341,8.83870245 C20.3967916,8.86892346 20.5947913,8.89914446 20.8000857,8.89914446 C22.978082,8.89914446 24.7507,7.12861063 24.7507,4.95061433 C24.7507,2.77157593 22.978082,1 20.8000857,1" id="path-1"></path>
    </defs>
    <g id="Icon/Feather/insights" stroke="none" stroke-width="1" fill="none" fill-rule="evenodd">
        <mask id="mask-2" fill="white">
            <use xlink:href="#path-1"></use>
        </mask>
        <use id="Fill-1" fill="#1A2C4D" xlink:href="#path-1"></use>
        <g id="Color/Neutral/Darkest" mask="url(#mask-2)" fill="#172B4E" fill-rule="nonzero">
            <rect id="Rectangle" x="0" y="0" width="24" height="24"></rect>
        </g>
    </g>
</svg>