<?xml version="1.0" encoding="UTF-8"?>
<svg width="24px" height="24px" viewBox="0 0 24 24" version="1.1" xmlns="http://www.w3.org/2000/svg" xmlns:xlink="http://www.w3.org/1999/xlink">
    <!-- Generator: Sketch 54.1 (76490) - https://sketchapp.com -->
    <title>Icon/Feather/download</title>
    <desc>Created with Sketch.</desc>
    <defs>
        <path d="M11,13.5857864 L11,2 C11,1.44771525 11.4477153,1 12,1 C12.5522847,1 13,1.44771525 13,2 L13,13.5857864 L15.2928932,11.2928932 C15.6834175,10.9023689 16.3165825,10.9023689 16.7071068,11.2928932 C17.0976311,11.6834175 17.0976311,12.3165825 16.7071068,12.7071068 L12.7071068,16.7071068 C12.3165825,17.0976311 11.6834175,17.0976311 11.2928932,16.7071068 L7.29289322,12.7071068 C6.90236893,12.3165825 6.90236893,11.6834175 7.29289322,11.2928932 C7.68341751,10.9023689 8.31658249,10.9023689 8.70710678,11.2928932 L11,13.5857864 Z M2,17 C2,16.4477153 2.44771525,16 3,16 C3.55228475,16 4,16.4477153 4,17 L4,20 C4,20.5522847 4.44771525,21 5,21 L19,21 C19.5522847,21 20,20.5522847 20,20 L20,17 C20,16.4477153 20.4477153,16 21,16 C21.5522847,16 22,16.4477153 22,17 L22,20 C22,21.6568542 20.6568542,23 19,23 L5,23 C3.34314575,23 2,21.6568542 2,20 L2,17 Z" id="path-1"></path>
    </defs>
    <g id="Icon/Feather/download" stroke="none" stroke-width="1" fill="none" fill-rule="evenodd">
        <mask id="mask-2" fill="white">
            <use xlink:href="#path-1"></use>
        </mask>
        <use id="Combined-Shape" fill="#000000" fill-rule="nonzero" xlink:href="#path-1"></use>
        <g id="Color/Neutral/Black" mask="url(#mask-2)" fill="#172B4E" fill-rule="nonzero">
            <rect id="Rectangle" x="0" y="0" width="24" height="24"></rect>
        </g>
    </g>
</svg>