<svg width="18" height="18" viewBox="0 0 18 18" fill="none" xmlns="http://www.w3.org/2000/svg">
<path fill-rule="evenodd" clip-rule="evenodd" d="M6.4998 5.20005C7.16255 5.20005 7.6998 4.66279 7.6998 4.00005C7.6998 3.33731 7.16255 2.80005 6.4998 2.80005C5.83706 2.80005 5.2998 3.33731 5.2998 4.00005C5.2998 4.66279 5.83706 5.20005 6.4998 5.20005ZM6.4998 10.2C7.16255 10.2 7.6998 9.66279 7.6998 9.00005C7.6998 8.33731 7.16255 7.80005 6.4998 7.80005C5.83706 7.80005 5.2998 8.33731 5.2998 9.00005C5.2998 9.66279 5.83706 10.2 6.4998 10.2ZM7.6998 14C7.6998 14.6628 7.16255 15.2 6.4998 15.2C5.83706 15.2 5.2998 14.6628 5.2998 14C5.2998 13.3373 5.83706 12.8 6.4998 12.8C7.16255 12.8 7.6998 13.3373 7.6998 14ZM11.4998 5.20005C12.1625 5.20005 12.6998 4.66279 12.6998 4.00005C12.6998 3.33731 12.1625 2.80005 11.4998 2.80005C10.8371 2.80005 10.2998 3.33731 10.2998 4.00005C10.2998 4.66279 10.8371 5.20005 11.4998 5.20005ZM11.4998 10.2C12.1625 10.2 12.6998 9.66279 12.6998 9.00005C12.6998 8.33731 12.1625 7.80005 11.4998 7.80005C10.8371 7.80005 10.2998 8.33731 10.2998 9.00005C10.2998 9.66279 10.8371 10.2 11.4998 10.2ZM12.6998 14C12.6998 14.6628 12.1625 15.2 11.4998 15.2C10.8371 15.2 10.2998 14.6628 10.2998 14C10.2998 13.3373 10.8371 12.8 11.4998 12.8C12.1625 12.8 12.6998 13.3373 12.6998 14Z" fill="#172B4E"/>
</svg>
