<svg width="18" height="18" viewBox="0 0 18 18" fill="none" xmlns="http://www.w3.org/2000/svg">
<path d="M14.7638 9.42284H3.33006C2.52897 9.42284 1.87354 8.7674 1.87354 7.96631V6H16.2931V7.89348C16.2931 8.7674 15.6377 9.42284 14.7638 9.42284Z" stroke="#172B4E" stroke-width="1.5" stroke-miterlimit="10" stroke-linecap="round" stroke-linejoin="round"/>
<path d="M3.98682 5.71408V2.80103" stroke="#172B4E" stroke-width="1.5" stroke-miterlimit="10" stroke-linecap="round" stroke-linejoin="round"/>
<path d="M14.1812 5.71408V2.80103" stroke="#172B4E" stroke-width="1.5" stroke-miterlimit="10" stroke-linecap="round" stroke-linejoin="round"/>
<path d="M1 2H6.8261" stroke="#172B4E" stroke-width="1.5" stroke-miterlimit="10" stroke-linecap="round" stroke-linejoin="round"/>
<path d="M11.2695 2H17.0228" stroke="#172B4E" stroke-width="1.5" stroke-miterlimit="10" stroke-linecap="round" stroke-linejoin="round"/>
<path d="M10.9767 15.7587H7.04404C6.75273 15.7587 6.46143 15.4674 6.46143 15.176V13.2826C6.46143 12.9913 6.75273 12.7 7.04404 12.7H10.9767C11.268 12.7 11.5593 12.9913 11.5593 13.2826V15.176C11.5593 15.4674 11.268 15.7587 10.9767 15.7587Z" stroke="#172B4E" stroke-width="1.5" stroke-miterlimit="10" stroke-linecap="round" stroke-linejoin="round"/>
<path d="M9.01172 9.4231V12.3361" stroke="#172B4E" stroke-width="1.5" stroke-miterlimit="10" stroke-linecap="round" stroke-linejoin="round"/>
</svg>
