<?xml version="1.0" encoding="UTF-8"?>
<svg width="24px" height="24px" viewBox="0 0 24 24" version="1.1" xmlns="http://www.w3.org/2000/svg" xmlns:xlink="http://www.w3.org/1999/xlink">
    <!-- Generator: Sketch 54.1 (76490) - https://sketchapp.com -->
    <title>Icon/Feather/edit-2</title>
    <desc>Created with Sketch.</desc>
    <defs>
        <path d="M4,16.4142136 L4,20 L7.58578644,20 L19.5857864,8 L16,4.41421356 L4,16.4142136 Z M16.7071068,2.29289322 L21.7071068,7.29289322 C22.0976311,7.68341751 22.0976311,8.31658249 21.7071068,8.70710678 L8.70710678,21.7071068 C8.5195704,21.8946432 8.26521649,22 8,22 L3,22 C2.44771525,22 2,21.5522847 2,21 L2,16 C2,15.7347835 2.10535684,15.4804296 2.29289322,15.2928932 L15.2928932,2.29289322 C15.6834175,1.90236893 16.3165825,1.90236893 16.7071068,2.29289322 Z" id="path-1"></path>
    </defs>
    <g id="Icon/Feather/edit-2" stroke="none" stroke-width="1" fill="none" fill-rule="evenodd">
        <mask id="mask-2" fill="white">
            <use xlink:href="#path-1"></use>
        </mask>
        <use id="Shape" fill="#000000" fill-rule="nonzero" xlink:href="#path-1"></use>
        <g id="Color/Neutral/Black" mask="url(#mask-2)" fill="#172B4E" fill-rule="nonzero">
            <rect id="Rectangle" x="0" y="0" width="24" height="24"></rect>
        </g>
    </g>
</svg>