<?xml version="1.0" encoding="UTF-8"?>
<svg width="24px" height="24px" viewBox="0 0 24 24" version="1.1" xmlns="http://www.w3.org/2000/svg" xmlns:xlink="http://www.w3.org/1999/xlink">
    <!-- Generator: Sketch 61.2 (89653) - https://sketch.com -->
    <title>Icon/Service/exterior 3D tour</title>
    <desc>Created with Sketch.</desc>
    <defs>
        <path d="M7.1,13.6 C7.7,13.6 8.1,14 8.1,14.6 C8.1,15.2 7.7,15.6 7.1,15.6 L7.1,15.6 L3.4,15.6 C4.3,16.4 5.1,17.1 6.2,18 C7.7,19.2 9.5,19.7 12.1,19.7 C15.2,19.7 18.1,18.6 19.6,16.8 C19.9,16.4 20.6,16.3 21,16.7 C21.4,17 21.5,17.7 21.1,18.1 C19.3,20.3 15.8,21.7 12.1,21.7 C9.1,21.7 6.8,21 5,19.5 C4,18.8 3.2,18.1 2.3,17.3 L2.3,17.3 L2.3,20.5 C2.3,21.1 1.9,21.5 1.3,21.5 C0.7,21.5 0.3,21.1 0.3,20.5 L0.3,20.5 L0.3,14.6 C0.3,14 0.7,13.6 1.3,13.6 L1.3,13.6 Z M11.7,1.3 C12.3,1.3 12.7,1.7 12.7,2.3 L12.7,2.3 L12.7,5.1 C15.4,5.2 17.4,5.8 19.1,7.2 C20,7.9 20.9,8.6 21.8,9.5 L21.8,9.5 L21.8,6.3 C21.8,5.7 22.2,5.3 22.8,5.3 C23.4,5.3 23.8,5.7 23.9,6.3 L23.9,6.3 L23.9,12.1 C23.9,12.7 23.5,13.1 22.9,13.1 L22.9,13.1 L17,13.1 C16.4,13.1 16,12.7 16,12.1 C16,11.5 16.4,11.1 17,11.1 L17,11.1 L20.7,11.1 C19.7,10.2 18.9,9.5 17.9,8.7 C16.6,7.6 14.9,7.1 12.7,7 L12.7,7 L12.7,16.6 C12.7,17.2 12.3,17.6 11.7,17.6 C11.1,17.6 10.7,17.2 10.7,16.6 L10.7,16.6 L10.7,7 C8.1,7.3 5.8,8.3 4.5,9.8 C4.2,10.2 3.5,10.3 3.1,9.9 C2.7,9.6 2.6,9 3,8.5 C4.6,6.6 7.5,5.3 10.7,5 L10.7,5 L10.7,2.3 C10.7,1.7 11.1,1.3 11.7,1.3 Z" id="path-1"></path>
    </defs>
    <g id="Icon/Service/exterior-3D-tour" stroke="none" stroke-width="1" fill="none" fill-rule="evenodd">
        <mask id="mask-2" fill="white">
            <use xlink:href="#path-1"></use>
        </mask>
        <use id="Combined-Shape" fill="#172B4E" fill-rule="nonzero" xlink:href="#path-1"></use>
        <g id="Color/Neutral/Darkest" mask="url(#mask-2)" fill="#172B4E" fill-rule="nonzero">
            <rect id="Rectangle" x="0" y="0" width="24" height="24"></rect>
        </g>
    </g>
</svg>