<?xml version="1.0" encoding="UTF-8"?>
<svg width="24px" height="24px" viewBox="0 0 24 24" version="1.1" xmlns="http://www.w3.org/2000/svg" xmlns:xlink="http://www.w3.org/1999/xlink">
    <!-- Generator: Sketch 61.2 (89653) - https://sketch.com -->
    <title>Icon/Service/exterior 3D tour</title>
    <desc>Created with Sketch.</desc>
    <g id="Icon/Service/exterior-3D-tour" stroke="none" stroke-width="1" fill="none" fill-rule="evenodd">
        <g id="3D-tour-exterior">
            <rect id="Rectangle" x="0" y="0" width="24" height="24"></rect>
            <g id="Group" transform="translate(0.000000, 1.000000)" fill="#172B4E" fill-rule="nonzero">
                <path d="M19.6,15.8 C18.1,17.6 15.2,18.7 12.1,18.7 C9.5,18.7 7.7,18.2 6.2,17 C5.1,16.1 4.3,15.4 3.4,14.6 L7.1,14.6 C7.7,14.6 8.1,14.2 8.1,13.6 C8.1,13 7.7,12.6 7.1,12.6 L1.3,12.6 C0.7,12.6 0.3,13 0.3,13.6 L0.3,19.5 C0.3,20.1 0.7,20.5 1.3,20.5 C1.9,20.5 2.3,20.1 2.3,19.5 L2.3,16.3 C3.2,17.1 4,17.8 5,18.5 C6.8,20 9.1,20.7 12.1,20.7 C15.8,20.7 19.3,19.3 21.1,17.1 C21.5,16.7 21.4,16 21,15.7 C20.6,15.3 19.9,15.4 19.6,15.8 Z" id="Path"></path>
                <path d="M22.8,4.3 C22.2,4.3 21.8,4.7 21.8,5.3 L21.8,8.5 C20.9,7.6 20,6.9 19.1,6.2 C17.4,4.8 15.4,4.2 12.7,4.1 L12.7,1.3 C12.7,0.7 12.3,0.3 11.7,0.3 C11.1,0.3 10.7,0.7 10.7,1.3 L10.7,4 C7.5,4.3 4.6,5.6 3,7.5 C2.6,8 2.7,8.6 3.1,8.9 C3.5,9.3 4.2,9.2 4.5,8.8 C5.8,7.3 8.1,6.3 10.7,6 L10.7,15.6 C10.7,16.2 11.1,16.6 11.7,16.6 C12.3,16.6 12.7,16.2 12.7,15.6 L12.7,6 C14.9,6.1 16.6,6.6 17.9,7.7 C18.9,8.5 19.7,9.2 20.7,10.1 L17,10.1 C16.4,10.1 16,10.5 16,11.1 C16,11.7 16.4,12.1 17,12.1 L22.9,12.1 C23.5,12.1 23.9,11.7 23.9,11.1 L23.9,5.3 C23.8,4.7 23.4,4.3 22.8,4.3 Z" id="Path"></path>
            </g>
        </g>
    </g>
</svg>