<svg width="18" height="18" viewBox="0 0 18 18" fill="none" xmlns="http://www.w3.org/2000/svg">
<path d="M13.9097 14.0515C14.2391 13.8004 14.3026 13.3298 14.0515 13.0004C13.8004 12.6709 13.3298 12.6074 13.0003 12.8585L13.9097 14.0515ZM9 15V15.7501L9.01226 15.7499L9 15ZM0.75 9.00002L0.0891333 8.6454C-0.0260922 8.86013 -0.0298041 9.11746 0.0791796 9.33543L0.75 9.00002ZM5.00018 5.1411C5.32938 4.88972 5.39247 4.41905 5.14108 4.08984C4.8897 3.76064 4.41903 3.69755 4.08982 3.94894L5.00018 5.1411ZM7.25406 2.44976C6.85075 2.54416 6.60033 2.94764 6.69473 3.35095C6.78914 3.75427 7.19262 4.00468 7.59593 3.91028L7.25406 2.44976ZM9 3.00002L8.99823 3.75002H9V3.00002ZM17.25 9.00002L17.9114 9.35358C18.0261 9.13903 18.0296 8.8822 17.9208 8.66461L17.25 9.00002ZM15.0561 10.9096C14.7894 11.2266 14.8302 11.6997 15.1471 11.9664C15.4641 12.2331 15.9372 12.1923 16.2039 11.8754L15.0561 10.9096ZM11.1387 11.1013C11.4211 10.7983 11.4043 10.3237 11.1013 10.0413C10.7983 9.75893 10.3237 9.77569 10.0413 10.0787L11.1387 11.1013ZM7.92129 7.95873C8.22434 7.67635 8.24109 7.20177 7.95871 6.89873C7.67633 6.59569 7.20175 6.57893 6.89871 6.86131L7.92129 7.95873ZM13.0003 12.8585C11.8456 13.7388 10.4395 14.2264 8.98774 14.2501L9.01226 15.7499C10.7842 15.7209 12.5003 15.1258 13.9097 14.0515L13.0003 12.8585ZM9 14.25C6.67463 14.25 4.79664 12.9198 3.4534 11.4871C2.78862 10.778 2.27658 10.066 1.93081 9.53062C1.75839 9.26366 1.62855 9.0425 1.54284 8.89014C1.50002 8.814 1.4683 8.7552 1.44788 8.71661C1.43767 8.69732 1.4303 8.6831 1.42578 8.67431C1.42352 8.66992 1.42197 8.66688 1.42115 8.66525C1.42073 8.66443 1.4205 8.66397 1.42044 8.66386C1.42042 8.6638 1.42043 8.66384 1.4205 8.66396C1.42053 8.66403 1.42061 8.66419 1.42062 8.66422C1.42072 8.6644 1.42082 8.66461 0.75 9.00002C0.0791796 9.33543 0.0793059 9.33568 0.0794438 9.33596C0.0795051 9.33608 0.0796548 9.33638 0.0797776 9.33662C0.0800233 9.33711 0.0803156 9.33769 0.0806542 9.33837C0.0813314 9.33971 0.0821943 9.34142 0.0832425 9.34349C0.0853388 9.34762 0.0881767 9.35319 0.0917535 9.36015C0.0989064 9.37406 0.109018 9.39353 0.122065 9.41819C0.148155 9.46749 0.186018 9.5376 0.235479 9.62553C0.334344 9.80129 0.479888 10.0489 0.670752 10.3444C1.05155 10.934 1.61763 11.7221 2.3591 12.513C3.82836 14.0802 6.07537 15.75 9 15.75V14.25ZM1.41087 9.35464C2.29322 7.71029 3.51702 6.27366 5.00018 5.1411L4.08982 3.94894C2.43668 5.21129 1.07262 6.81259 0.0891333 8.6454L1.41087 9.35464ZM7.59593 3.91028C8.05557 3.80269 8.52617 3.74891 8.99823 3.75002L9.00176 2.25002C8.41342 2.24864 7.82692 2.31567 7.25406 2.44976L7.59593 3.91028ZM9 3.75002C11.3254 3.75002 13.2034 5.08019 14.5466 6.51297C15.2114 7.22207 15.7234 7.93403 16.0692 8.46941C16.2416 8.73638 16.3715 8.95754 16.4572 9.1099C16.5 9.18603 16.5317 9.24484 16.5521 9.28342C16.5623 9.30271 16.5697 9.31693 16.5742 9.32573C16.5765 9.33012 16.578 9.33316 16.5789 9.33479C16.5793 9.33561 16.5795 9.33607 16.5796 9.33618C16.5796 9.33623 16.5796 9.3362 16.5795 9.33607C16.5795 9.33601 16.5794 9.33585 16.5794 9.33582C16.5793 9.33564 16.5792 9.33543 17.25 9.00002C17.9208 8.66461 17.9207 8.66436 17.9206 8.66408C17.9205 8.66396 17.9203 8.66366 17.9202 8.66341C17.92 8.66292 17.9197 8.66234 17.9193 8.66167C17.9187 8.66032 17.9178 8.65862 17.9168 8.65655C17.9147 8.65241 17.9118 8.64684 17.9082 8.63989C17.9011 8.62597 17.891 8.6065 17.8779 8.58185C17.8518 8.53254 17.814 8.46244 17.7645 8.37451C17.6657 8.19875 17.5201 7.95116 17.3292 7.65562C16.9484 7.066 16.3824 6.27797 15.6409 5.48706C14.1716 3.91985 11.9246 2.25002 9 2.25002V3.75002ZM16.5886 8.64646C16.1579 9.45213 15.6443 10.2106 15.0561 10.9096L16.2039 11.8754C16.8593 11.0965 17.4316 10.2513 17.9114 9.35358L16.5886 8.64646ZM10.0413 10.0787C9.66736 10.48 9.10419 10.6452 8.57272 10.5095L8.20156 11.9629C9.26449 12.2343 10.3908 11.9039 11.1387 11.1013L10.0413 10.0787ZM8.57272 10.5095C8.04125 10.3738 7.62625 9.95877 7.49052 9.42731L6.03717 9.79847C6.30862 10.8614 7.13862 11.6914 8.20156 11.9629L8.57272 10.5095ZM7.49052 9.42731C7.35479 8.89584 7.51999 8.33267 7.92129 7.95873L6.89871 6.86131C6.0961 7.60919 5.76571 8.73553 6.03717 9.79847L7.49052 9.42731Z" fill="#172B4E"/>
<path d="M0.75 0.75L17.25 17.25" stroke="#172B4E" stroke-width="1.5" stroke-linecap="round" stroke-linejoin="round"/>
</svg>
