<?xml version="1.0" encoding="UTF-8"?>
<svg width="24px" height="24px" viewBox="0 0 24 24" version="1.1" xmlns="http://www.w3.org/2000/svg" xmlns:xlink="http://www.w3.org/1999/xlink">
    <!-- Generator: Sketch 54.1 (76490) - https://sketchapp.com -->
    <title>Icon/Feather/fast-forward</title>
    <desc>Created with Sketch.</desc>
    <defs>
        <path d="M13.6139406,19.7912038 C12.9570826,20.3020933 12,19.8339997 12,19.0018515 L12,5.00185154 C12,4.16970336 12.9570826,3.70160976 13.6139406,4.21249932 L22.6139406,11.2124993 C23.1286865,11.6128572 23.1286865,12.3908459 22.6139406,12.7912038 L13.6139406,19.7912038 Z M20.371178,12.0018515 L14,7.0464909 L14,16.9572122 L20.371178,12.0018515 Z M2.61394061,19.7912038 C1.95708261,20.3020933 1,19.8339997 1,19.0018515 L1,5.00185154 C1,4.16970336 1.95708261,3.70160976 2.61394061,4.21249932 L11.6139406,11.2124993 C12.1286865,11.6128572 12.1286865,12.3908459 11.6139406,12.7912038 L2.61394061,19.7912038 Z M9.37117796,12.0018515 L3,7.0464909 L3,16.9572122 L9.37117796,12.0018515 Z" id="path-1"></path>
    </defs>
    <g id="Icon/Feather/fast-forward" stroke="none" stroke-width="1" fill="none" fill-rule="evenodd">
        <mask id="mask-2" fill="white">
            <use xlink:href="#path-1"></use>
        </mask>
        <use id="Combined-Shape" fill="#000000" fill-rule="nonzero" xlink:href="#path-1"></use>
        <g id="Color/Neutral/Black" mask="url(#mask-2)" fill="#172B4E" fill-rule="nonzero">
            <rect id="Rectangle" x="0" y="0" width="24" height="24"></rect>
        </g>
    </g>
</svg>