<svg width="18" height="18" viewBox="0 0 18 18" fill="none" xmlns="http://www.w3.org/2000/svg">
<path d="M0.996598 8.47959C0.867511 7.70506 1.46479 7 2.25 7V7C3.03521 7 3.63249 7.70506 3.5034 8.47959L2.8322 12.5068C2.78477 12.7914 2.53853 13 2.25 13V13C1.96147 13 1.71523 12.7914 1.6678 12.5068L0.996598 8.47959Z" stroke="#172B4E" stroke-width="1.5"/>
<path d="M14.4966 8.47959C14.3675 7.70506 14.9648 7 15.75 7V7C16.5352 7 17.1325 7.70506 17.0034 8.47959L16.3322 12.5068C16.2848 12.7914 16.0385 13 15.75 13V13C15.4615 13 15.2152 12.7914 15.1678 12.5068L14.4966 8.47959Z" stroke="#172B4E" stroke-width="1.5"/>
<path d="M15 15H3V13C3 10.79 4.79 9 7 9H11C13.21 9 15 10.79 15 13V15Z" stroke="#172B4E" stroke-width="1.5"/>
<path d="M4 10.5C4 9.33333 4 6.4 4 6C4 3.24 6.24 1 9 1C11.76 1 14 3.24 14 6C14 6.4 14 9.33333 14 10.5" stroke="#172B4E" stroke-width="1.5"/>
<path d="M5 15L4 17" stroke="#172B4E" stroke-width="1.5" stroke-linecap="round" stroke-linejoin="round"/>
<path d="M14 17L13 15" stroke="#172B4E" stroke-width="1.5" stroke-linecap="round" stroke-linejoin="round"/>
</svg>
