<svg width="18" height="18" viewBox="0 0 18 18" fill="none" xmlns="http://www.w3.org/2000/svg">
<path fill-rule="evenodd" clip-rule="evenodd" d="M0 5.75C0 4.23122 1.23122 3 2.75 3H12.25C13.7688 3 15 4.23122 15 5.75V15.25C15 16.7688 13.7688 18 12.25 18H2.75C1.23122 18 0 16.7688 0 15.25V5.75ZM2.75 4.5C2.05964 4.5 1.5 5.05964 1.5 5.75V15.25C1.5 15.7079 1.74617 16.1082 2.11338 16.326L9.96967 8.46967C10.1103 8.32902 10.3011 8.25 10.5 8.25C10.6989 8.25 10.8897 8.32902 11.0303 8.46967L13.5 10.9393V5.75C13.5 5.05964 12.9404 4.5 12.25 4.5H2.75ZM13.5 13.0607L10.5 10.0607L4.06066 16.5H12.25C12.9404 16.5 13.5 15.9404 13.5 15.25V13.0607ZM3 7.875C3 6.83947 3.83947 6 4.875 6C5.91053 6 6.75 6.83947 6.75 7.875C6.75 8.91053 5.91053 9.75 4.875 9.75C3.83947 9.75 3 8.91053 3 7.875ZM4.875 7.5C4.66789 7.5 4.5 7.66789 4.5 7.875C4.5 8.08211 4.66789 8.25 4.875 8.25C5.08211 8.25 5.25 8.08211 5.25 7.875C5.25 7.66789 5.08211 7.5 4.875 7.5Z" fill="#172B4E"/>
<path d="M3.75 3.5V2.75C3.75 1.64543 4.64543 0.75 5.75 0.75H15.25C16.3546 0.75 17.25 1.64543 17.25 2.75V12.25C17.25 13.3546 16.3546 14.25 15.25 14.25H14.5" stroke="#172B4E" stroke-width="1.5" stroke-linecap="round" stroke-linejoin="round"/>
</svg>
