<svg width="18" height="18" viewBox="0 0 18 18" fill="none" xmlns="http://www.w3.org/2000/svg">
<path d="M6.96551 15.7183C7.36226 15.5993 7.58739 15.1812 7.46837 14.7845C7.34935 14.3877 6.93123 14.1626 6.53449 14.2816L6.96551 15.7183ZM1.6819 12.0223C1.28006 11.9219 0.872855 12.1662 0.772393 12.568C0.671931 12.9699 0.916251 13.3771 1.3181 13.4776L1.6819 12.0223ZM11.25 17.2499C11.25 17.6642 11.5858 17.9999 12 17.9999C12.4142 17.9999 12.75 17.6642 12.75 17.2499H11.25ZM12 14.3474L11.2523 14.2886C11.2507 14.3082 11.25 14.3278 11.25 14.3474H12ZM11.295 12.3899L11.2119 11.6446C10.9275 11.6763 10.6859 11.867 10.5892 12.1363C10.4924 12.4056 10.5573 12.7065 10.7565 12.912L11.295 12.3899ZM16.125 7.13995H16.875V7.13981L16.125 7.13995ZM15 4.32745L14.2973 4.06522C14.197 4.33412 14.2589 4.63672 14.4568 4.84459L15 4.32745ZM14.9325 1.49995L15.6218 1.20449C15.534 0.999552 15.3595 0.844321 15.1458 0.780916L14.9325 1.49995ZM12 2.60995L11.8038 3.33384C12.0133 3.39063 12.2372 3.35383 12.4176 3.23294L12 2.60995ZM6.74998 2.60995L6.33238 3.23294C6.51272 3.35383 6.73661 3.39063 6.94617 3.33384L6.74998 2.60995ZM3.81748 1.49995L3.60421 0.780916C3.39044 0.844321 3.21597 0.999552 3.12813 1.20449L3.81748 1.49995ZM3.74998 4.32745L4.29317 4.8446C4.49108 4.63673 4.553 4.33413 4.45264 4.06522L3.74998 4.32745ZM2.62498 7.16245H3.37499L3.37497 7.15846L2.62498 7.16245ZM7.45498 12.4124L7.99393 12.934C8.19167 12.7297 8.25685 12.4311 8.16227 12.163C8.06768 11.8948 7.82959 11.7032 7.54742 11.6682L7.45498 12.4124ZM6.74998 14.3474H7.49998C7.49998 14.3299 7.49936 14.3123 7.49813 14.2948L6.74998 14.3474ZM5.99998 17.2499C5.99998 17.6642 6.33577 17.9999 6.74998 17.9999C7.16419 17.9999 7.49998 17.6642 7.49998 17.2499H5.99998ZM6.53449 14.2816C5.68227 14.5373 5.11715 14.5362 4.72951 14.4455C4.35153 14.357 4.07143 14.167 3.81158 13.9071C3.67744 13.773 3.55159 13.6231 3.41768 13.4554C3.29302 13.2992 3.14156 13.1016 2.99671 12.9316C2.70369 12.5876 2.29381 12.1753 1.6819 12.0223L1.3181 13.4776C1.45619 13.5121 1.60881 13.6154 1.85485 13.9043C1.97953 14.0506 2.09175 14.1987 2.24541 14.3912C2.38982 14.5721 2.55694 14.7738 2.75092 14.9678C3.14732 15.3642 3.6641 15.7367 4.38768 15.906C5.1016 16.0731 5.94273 16.0252 6.96551 15.7183L6.53449 14.2816ZM12.75 17.2499V14.3474H11.25V17.2499H12.75ZM12.7477 14.4063C12.8215 13.4681 12.4885 12.5436 11.8335 11.8679L10.7565 12.912C11.1117 13.2784 11.2923 13.7799 11.2523 14.2886L12.7477 14.4063ZM11.3781 13.1353C12.5977 12.9994 13.989 12.69 15.0758 11.7762C16.199 10.8317 16.875 9.34964 16.875 7.13995H15.375C15.375 9.02526 14.8134 10.037 14.1104 10.6281C13.3709 11.2499 12.3473 11.518 11.2119 11.6446L11.3781 13.1353ZM16.875 7.13981C16.8747 5.9002 16.3979 4.70812 15.5432 3.81031L14.4568 4.84459C15.0461 5.46358 15.3748 6.28545 15.375 7.14009L16.875 7.13981ZM15.7026 4.58968C16.112 3.49287 16.083 2.28052 15.6218 1.20449L14.2431 1.79541C14.5524 2.51691 14.5718 3.3298 14.2973 4.06522L15.7026 4.58968ZM14.9325 1.49995C15.1458 0.780916 15.145 0.780701 15.1443 0.780486C15.144 0.780413 15.1433 0.780198 15.1428 0.780053C15.1418 0.779763 15.1408 0.779471 15.1398 0.779177C15.1378 0.778589 15.1357 0.777994 15.1335 0.777391C15.1292 0.776185 15.1246 0.774952 15.1198 0.773699C15.1103 0.771193 15.0998 0.768608 15.0883 0.766008C15.0654 0.760804 15.0389 0.755547 15.0086 0.750714C14.9479 0.741037 14.8728 0.733141 14.7828 0.730667C14.6026 0.725706 14.3665 0.74261 14.0715 0.808092C13.4829 0.938757 12.6642 1.26178 11.5824 1.98697L12.4176 3.23294C13.3832 2.58563 14.0308 2.35365 14.3966 2.27244C14.5788 2.23198 14.6919 2.22873 14.7416 2.2301C14.7666 2.23079 14.7766 2.23268 14.7723 2.23199C14.7702 2.23166 14.7647 2.2307 14.7557 2.22867C14.7513 2.22766 14.746 2.22638 14.7399 2.22479C14.7369 2.22399 14.7336 2.22311 14.7302 2.22215C14.7284 2.22166 14.7267 2.22116 14.7248 2.22063C14.7239 2.22037 14.723 2.2201 14.7221 2.21983C14.7216 2.21969 14.7209 2.21948 14.7206 2.21941C14.7199 2.2192 14.7192 2.21899 14.9325 1.49995ZM12.1962 1.88607C10.3487 1.38536 8.40126 1.38536 6.55379 1.88607L6.94617 3.33384C8.53669 2.90277 10.2133 2.90277 11.8038 3.33384L12.1962 1.88607ZM7.16758 1.98697C6.08574 1.26178 5.26703 0.938757 4.67846 0.808092C4.38351 0.74261 4.14735 0.725706 3.96712 0.730667C3.87721 0.733141 3.80207 0.741037 3.74139 0.750714C3.71109 0.755547 3.68451 0.760804 3.66163 0.766008C3.65019 0.768608 3.63969 0.771193 3.63011 0.773699C3.62533 0.774952 3.62078 0.776185 3.61646 0.777391C3.6143 0.777994 3.6122 0.778589 3.61016 0.779177C3.60914 0.779471 3.60813 0.779763 3.60714 0.780053C3.60664 0.780198 3.60591 0.780413 3.60566 0.780486C3.60493 0.780701 3.60421 0.780916 3.81748 1.49995C4.03075 2.21899 4.03003 2.2192 4.02932 2.21941C4.02908 2.21948 4.02837 2.21969 4.0279 2.21983C4.02697 2.2201 4.02604 2.22037 4.02513 2.22063C4.0233 2.22116 4.02153 2.22166 4.0198 2.22215C4.01635 2.22311 4.0131 2.22399 4.01005 2.22479C4.00395 2.22638 3.99867 2.22766 3.99421 2.22867C3.98529 2.2307 3.97973 2.23166 3.97762 2.23199C3.97334 2.23268 3.98334 2.23079 4.00839 2.2301C4.05808 2.22873 4.17114 2.23198 4.35337 2.27244C4.71918 2.35365 5.36672 2.58563 6.33238 3.23294L7.16758 1.98697ZM3.12813 1.20449C2.66693 2.28052 2.63799 3.49287 3.04732 4.58968L4.45264 4.06522C4.17818 3.3298 4.19759 2.51691 4.50683 1.79541L3.12813 1.20449ZM3.20679 3.8103C2.34567 4.71477 1.86835 5.91762 1.87499 7.16644L3.37497 7.15846C3.37039 6.29748 3.69948 5.46818 4.29317 4.8446L3.20679 3.8103ZM1.87498 7.16245C1.87498 9.35955 2.55243 10.8329 3.67417 11.7762C4.7583 12.6878 6.14664 13.0057 7.36254 13.1567L7.54742 11.6682C6.40832 11.5267 5.38166 11.2521 4.63954 10.6281C3.93503 10.0357 3.37498 9.03035 3.37498 7.16245H1.87498ZM6.91603 11.8909C6.26891 12.5596 5.93654 13.4718 6.00183 14.4001L7.49813 14.2948C7.46272 13.7914 7.64298 13.2967 7.99393 12.934L6.91603 11.8909ZM5.99998 14.3474V17.2499H7.49998V14.3474H5.99998Z" fill="#172B4E"/>
</svg>
