<svg width="19" height="18" viewBox="0 0 19 18" fill="none" xmlns="http://www.w3.org/2000/svg">
<path fill-rule="evenodd" clip-rule="evenodd" d="M16.9876 10.7925L9.00015 16.5975L1.01265 10.7925C0.792988 10.631 0.702182 10.3465 0.787651 10.0875L1.70265 7.25253L3.53265 1.62003C3.5504 1.57414 3.57865 1.53304 3.61515 1.50003C3.73833 1.38752 3.92698 1.38752 4.05015 1.50003C4.08869 1.53728 4.11708 1.58375 4.13265 1.63503L5.96265 7.25253H12.0376L13.8676 1.62003C13.8854 1.57414 13.9137 1.53304 13.9501 1.50003C14.0733 1.38752 14.262 1.38752 14.3851 1.50003C14.4237 1.53728 14.4521 1.58375 14.4676 1.63503L16.2976 7.26753L17.2501 10.0875C17.328 10.3547 17.2213 10.6413 16.9876 10.7925Z" stroke="#172B4E" stroke-width="1.5" stroke-linecap="round" stroke-linejoin="round"/>
</svg>
