<?xml version="1.0" encoding="UTF-8"?>
<svg width="24px" height="24px" viewBox="0 0 24 24" version="1.1" xmlns="http://www.w3.org/2000/svg" xmlns:xlink="http://www.w3.org/1999/xlink">
    <!-- Generator: Sketch 54.1 (76490) - https://sketchapp.com -->
    <title>Icon/Feather/headphones</title>
    <desc>Created with Sketch.</desc>
    <defs>
        <path d="M2,18 L2,12 C2.00000008,6.47715241 6.47715256,2 12,2 C17.5228474,2 21.9999999,6.47715241 22,12 L22,18 L22,18.9999999 C22,20.6568541 20.6568542,21.9999999 19,21.9999999 L18,21.9999999 C16.3431458,21.9999999 15,20.6568541 15,18.9999999 L15,15.9999999 C15,14.3431456 16.3431458,12.9999999 18,12.9999999 L20,12.9999999 L20,12 C19.9999999,7.58172193 16.418278,4 12,4 C7.58172205,4 4.00000007,7.58172193 4,12 L4,12.9999999 L6,12.9999999 C7.65685425,12.9999999 9,14.3431456 9,15.9999999 L9,18.9999999 C9,20.6568541 7.65685425,21.9999999 6,21.9999999 L5,21.9999999 C3.34314575,21.9999999 2,20.6568541 2,18.9999999 L2,18 Z M20,14.9999999 L18,14.9999999 C17.4477153,14.9999999 17,15.4477151 17,15.9999999 L17,18.9999999 C17,19.5522846 17.4477153,19.9999999 18,19.9999999 L19,19.9999999 C19.5522847,19.9999999 20,19.5522846 20,18.9999999 L20,14.9999999 Z M4,14.9999999 L4,18.9999999 C4,19.5522846 4.44771525,19.9999999 5,19.9999999 L6,19.9999999 C6.55228475,19.9999999 7,19.5522846 7,18.9999999 L7,15.9999999 C7,15.4477151 6.55228475,14.9999999 6,14.9999999 L4,14.9999999 Z" id="path-1"></path>
    </defs>
    <g id="Icon/Feather/headphones" stroke="none" stroke-width="1" fill="none" fill-rule="evenodd">
        <mask id="mask-2" fill="white">
            <use xlink:href="#path-1"></use>
        </mask>
        <use id="Combined-Shape" fill="#000000" fill-rule="nonzero" xlink:href="#path-1"></use>
        <g id="Color/Neutral/Black" mask="url(#mask-2)" fill="#172B4E" fill-rule="nonzero">
            <rect id="Rectangle" x="0" y="0" width="24" height="24"></rect>
        </g>
    </g>
</svg>