<svg width="18" height="18" viewBox="0 0 18 18" fill="none" xmlns="http://www.w3.org/2000/svg">
<path d="M2.25 13.5V9C2.25 5.27208 5.27208 2.25 9 2.25C12.7279 2.25 15.75 5.27208 15.75 9V13.5" stroke="#172B4E" stroke-width="1.5" stroke-linecap="round" stroke-linejoin="round"/>
<path d="M15.75 10.5H16.5C16.5 10.0858 16.1642 9.75 15.75 9.75V10.5ZM2.25 10.5V9.75C1.83579 9.75 1.5 10.0858 1.5 10.5H2.25ZM15 14.25C15 14.6642 14.6642 15 14.25 15V16.5C15.4926 16.5 16.5 15.4926 16.5 14.25H15ZM14.25 15H13.5V16.5H14.25V15ZM13.5 15C13.0858 15 12.75 14.6642 12.75 14.25H11.25C11.25 15.4926 12.2574 16.5 13.5 16.5V15ZM12.75 14.25V12H11.25V14.25H12.75ZM12.75 12C12.75 11.5858 13.0858 11.25 13.5 11.25V9.75C12.2574 9.75 11.25 10.7574 11.25 12H12.75ZM13.5 11.25H15.75V9.75H13.5V11.25ZM15 10.5V14.25H16.5V10.5H15ZM1.5 14.25C1.5 15.4926 2.50736 16.5 3.75 16.5V15C3.33579 15 3 14.6642 3 14.25H1.5ZM3.75 16.5H4.5V15H3.75V16.5ZM4.5 16.5C5.74264 16.5 6.75 15.4926 6.75 14.25H5.25C5.25 14.6642 4.91421 15 4.5 15V16.5ZM6.75 14.25V12H5.25V14.25H6.75ZM6.75 12C6.75 10.7574 5.74264 9.75 4.5 9.75V11.25C4.91421 11.25 5.25 11.5858 5.25 12H6.75ZM4.5 9.75H2.25V11.25H4.5V9.75ZM1.5 10.5V14.25H3V10.5H1.5Z" fill="#172B4E"/>
</svg>
