<svg width="18" height="18" viewBox="0 0 18 18" fill="none" xmlns="http://www.w3.org/2000/svg">
<path d="M14.9379 17H3.06207C2.48276 17 2 16.5 2 15.9V2.1C2 1.5 2.48276 1 3.06207 1H14.9379C15.5172 1 16 1.5 16 2.1V15.9C15.9034 16.5 15.5172 17 14.9379 17Z" stroke="#172B4E" stroke-width="1.5" stroke-miterlimit="10" stroke-linecap="round" stroke-linejoin="round"/>
<path d="M10.4593 5.95432H8.44676C7.84299 5.95432 7.33984 6.44003 7.33984 7.02289C7.33984 7.60574 7.84299 8.09146 8.44676 8.09146H9.45305C10.0568 8.09146 10.56 8.57717 10.56 9.16003C10.56 9.74289 10.1575 10.4229 9.55368 10.4229H7.5411" stroke="#172B4E" stroke-width="1.5" stroke-miterlimit="10" stroke-linecap="round" stroke-linejoin="round"/>
<path d="M9.05029 5.76003V4.88574" stroke="#172B4E" stroke-width="1.5" stroke-miterlimit="10" stroke-linecap="round" stroke-linejoin="round"/>
<path d="M9.05029 11.2972V10.4229" stroke="#172B4E" stroke-width="1.5" stroke-miterlimit="10" stroke-linecap="round" stroke-linejoin="round"/>
<path d="M5.42773 14.1144H12.5724" stroke="#172B4E" stroke-width="1.5" stroke-miterlimit="10" stroke-linecap="round" stroke-linejoin="round"/>
</svg>
