<?xml version="1.0" encoding="UTF-8"?>
<svg width="24px" height="24px" viewBox="0 0 24 24" version="1.1" xmlns="http://www.w3.org/2000/svg" xmlns:xlink="http://www.w3.org/1999/xlink">
    <!-- Generator: Sketch 61.2 (89653) - https://sketch.com -->
    <title>Icon/Feather/admin</title>
    <desc>Created with Sketch.</desc>
    <defs>
        <path d="M4.52811876,9.67348255 C2.83364512,7.9790089 2.83364512,5.22243721 4.52811876,3.52796356 C6.16887711,1.88720522 9.0316586,1.88720522 10.6736377,3.52796356 C12.3668906,5.22243721 12.3668906,7.9790089 10.6736377,9.67348255 C9.0316586,11.3142409 6.16887711,11.3142409 4.52811876,9.67348255 M22.7852178,20.1882531 L12.988279,10.3900935 C14.7999497,7.81542138 14.5716596,4.23114571 12.2704472,1.9311541 C9.69333347,-0.643518034 5.50720224,-0.643518034 2.9300885,1.9311541 C0.356637167,4.50582624 0.356637167,8.69439907 2.9300885,11.270292 C4.21925577,12.5570177 5.91006701,13.2016013 7.60087826,13.2016013 C8.93155281,13.2016013 10.2549025,12.7865285 11.3902487,11.9881238 L15.0343437,15.630998 L13.4118974,17.2546651 C12.9711878,17.6965955 12.9711878,18.4107649 13.4118974,18.8514745 C13.6328626,19.0724398 13.920972,19.182312 14.2115229,19.182312 C14.5008531,19.182312 14.7877416,19.0724398 15.0087069,18.8514745 L16.632374,17.2290282 L18.5014224,19.0980766 L15.9523871,21.6458911 C15.5116774,22.0866007 15.5116774,22.8019909 15.9523871,23.2439214 C16.1733523,23.4636658 16.4614616,23.573538 16.7520126,23.573538 C17.0389011,23.573538 17.3282313,23.4636658 17.5491965,23.2439214 L20.0982318,20.6948861 L21.1884083,21.7850626 C21.4093735,22.0060278 21.6962621,22.1159 21.986813,22.1159 C22.2761432,22.1159 22.5642525,22.0060278 22.7852178,21.7850626 C23.2259274,21.3443529 23.2259274,20.6289627 22.7852178,20.1882531" id="path-1"></path>
    </defs>
    <g id="Icon/Feather/admin" stroke="none" stroke-width="1" fill="none" fill-rule="evenodd">
        <mask id="mask-2" fill="white">
            <use xlink:href="#path-1"></use>
        </mask>
        <use id="Fill-1" fill="#1A2C4D" xlink:href="#path-1"></use>
        <g id="Color/Neutral/Darkest" mask="url(#mask-2)" fill="#172B4E" fill-rule="nonzero">
            <rect id="Rectangle" x="0" y="0" width="24" height="24"></rect>
        </g>
    </g>
</svg>