<svg width="18" height="18" viewBox="0 0 18 18" fill="none" xmlns="http://www.w3.org/2000/svg">
<path d="M11.25 4.5C10.8358 4.5 10.5 4.83579 10.5 5.25C10.5 5.66421 10.8358 6 11.25 6V4.5ZM13.5 5.25V4.5V5.25ZM11.25 12C10.8358 12 10.5 12.3358 10.5 12.75C10.5 13.1642 10.8358 13.5 11.25 13.5V12ZM6.75 13.5C7.16421 13.5 7.5 13.1642 7.5 12.75C7.5 12.3358 7.16421 12 6.75 12V13.5ZM6.75 6C7.16421 6 7.5 5.66421 7.5 5.25C7.5 4.83579 7.16421 4.5 6.75 4.5V6ZM11.25 6H13.5V4.5H11.25V6ZM13.5 6C14.2956 6 15.0587 6.31607 15.6213 6.87868L16.682 5.81802C15.8381 4.97411 14.6935 4.5 13.5 4.5V6ZM15.6213 6.87868C16.1839 7.44129 16.5 8.20435 16.5 9H18C18 7.80652 17.5259 6.66193 16.682 5.81802L15.6213 6.87868ZM16.5 9C16.5 10.6569 15.1569 12 13.5 12V13.5C15.9853 13.5 18 11.4853 18 9H16.5ZM13.5 12H11.25V13.5H13.5V12ZM6.75 12H4.5V13.5H6.75V12ZM4.5 12C3.70435 12 2.94129 11.6839 2.37868 11.1213L1.31802 12.182C2.16193 13.0259 3.30653 13.5 4.5 13.5V12ZM2.37868 11.1213C1.81607 10.5587 1.5 9.79565 1.5 9H0C0 10.1935 0.474106 11.3381 1.31802 12.182L2.37868 11.1213ZM1.5 9C1.5 7.34315 2.84315 6 4.5 6V4.5C2.01472 4.5 0 6.51472 0 9H1.5ZM4.5 6H6.75V4.5H4.5V6Z" fill="#172B4E"/>
<path d="M6 9H12" stroke="#172B4E" stroke-width="1.5" stroke-linecap="round" stroke-linejoin="round"/>
</svg>
