<svg width="18" height="18" viewBox="0 0 18 18" fill="none" xmlns="http://www.w3.org/2000/svg">
<path d="M7.5 9.74997C8.15172 10.6212 9.14972 11.1665 10.235 11.2442C11.3203 11.3219 12.3858 10.9245 13.155 10.155L15.405 7.90497C16.8261 6.43355 16.8058 4.09466 15.3593 2.64816C13.9128 1.20165 11.5739 1.18133 10.1025 2.60247L8.8125 3.88497" stroke="#172B4E" stroke-width="1.5" stroke-linecap="round" stroke-linejoin="round"/>
<path d="M10.5001 8.24994C9.84843 7.37867 8.85043 6.83341 7.76516 6.75569C6.6799 6.67796 5.61438 7.07543 4.84515 7.84494L2.59515 10.0949C1.174 11.5664 1.19433 13.9053 2.64083 15.3518C4.08733 16.7983 6.42623 16.8186 7.89765 15.3974L9.18015 14.1149" stroke="#172B4E" stroke-width="1.5" stroke-linecap="round" stroke-linejoin="round"/>
</svg>
