<svg width="18" height="18" viewBox="0 0 18 18" fill="none" xmlns="http://www.w3.org/2000/svg">
<path d="M12 3H13.5C14.3284 3 15 3.67157 15 4.5V15C15 15.8284 14.3284 16.5 13.5 16.5H4.5C3.67157 16.5 3 15.8284 3 15V4.5C3 3.67157 3.67157 3 4.5 3H6" stroke="#172B4E" stroke-width="1.5" stroke-linecap="round" stroke-linejoin="round"/>
<path fill-rule="evenodd" clip-rule="evenodd" d="M6 2.5C6 1.94772 6.44772 1.5 7 1.5H11C11.5523 1.5 12 1.94772 12 2.5V3.5C12 4.05228 11.5523 4.5 11 4.5H7C6.44772 4.5 6 4.05228 6 3.5V2.5Z" stroke="#172B4E" stroke-width="1.5" stroke-linecap="round" stroke-linejoin="round"/>
<ellipse cx="6" cy="10.5" rx="0.75" ry="0.75" fill="#172B4E"/>
<ellipse cx="6" cy="7.5" rx="0.75" ry="0.75" fill="#172B4E"/>
<circle cx="6" cy="13.5" r="0.75" fill="#172B4E"/>
<path d="M8.25 7.5H12" stroke="#172B4E" stroke-width="1.5" stroke-linecap="round" stroke-linejoin="round"/>
<path d="M8.25 10.5H12" stroke="#172B4E" stroke-width="1.5" stroke-linecap="round" stroke-linejoin="round"/>
<path d="M8.25 13.5H12" stroke="#172B4E" stroke-width="1.5" stroke-linecap="round" stroke-linejoin="round"/>
</svg>
