<?xml version="1.0" encoding="UTF-8"?>
<svg width="24px" height="24px" viewBox="0 0 24 24" version="1.1" xmlns="http://www.w3.org/2000/svg" xmlns:xlink="http://www.w3.org/1999/xlink">
    <!-- Generator: Sketch 54.1 (76490) - https://sketchapp.com -->
    <title>Icon/Feather/log-in</title>
    <desc>Created with Sketch.</desc>
    <defs>
        <path d="M12.5857864,13 L3,13 C2.44771525,13 2,12.5522847 2,12 C2,11.4477153 2.44771525,11 3,11 L12.5857864,11 L10.2928932,8.70710678 C9.90236893,8.31658249 9.90236893,7.68341751 10.2928932,7.29289322 C10.6834175,6.90236893 11.3165825,6.90236893 11.7071068,7.29289322 L15.7071068,11.2928932 C16.0976311,11.6834175 16.0976311,12.3165825 15.7071068,12.7071068 L11.7071068,16.7071068 C11.3165825,17.0976311 10.6834175,17.0976311 10.2928932,16.7071068 C9.90236893,16.3165825 9.90236893,15.6834175 10.2928932,15.2928932 L12.5857864,13 Z M14,23 C13.4477153,23 13,22.5522847 13,22 C13,21.4477153 13.4477153,21 14,21 L19,21 C19.5522847,21 20,20.5522847 20,20 L20,4 C20,3.44771525 19.5522847,3 19,3 L14,3 C13.4477153,3 13,2.55228475 13,2 C13,1.44771525 13.4477153,1 14,1 L19,1 C20.6568542,1 22,2.34314575 22,4 L22,20 C22,21.6568542 20.6568542,23 19,23 L14,23 Z" id="path-1"></path>
    </defs>
    <g id="Icon/Feather/log-in" stroke="none" stroke-width="1" fill="none" fill-rule="evenodd">
        <mask id="mask-2" fill="white">
            <use xlink:href="#path-1"></use>
        </mask>
        <use id="Combined-Shape" fill="#000000" fill-rule="nonzero" xlink:href="#path-1"></use>
        <g id="Color/Neutral/Black" mask="url(#mask-2)" fill="#172B4E" fill-rule="nonzero">
            <rect id="Rectangle" x="0" y="0" width="24" height="24"></rect>
        </g>
    </g>
</svg>