<svg width="18" height="18" viewBox="0 0 18 18" fill="none" xmlns="http://www.w3.org/2000/svg">
<path fill-rule="evenodd" clip-rule="evenodd" d="M9 3C9.82843 3 10.5 2.32843 10.5 1.5C10.5 0.671573 9.82843 0 9 0C8.17157 0 7.5 0.671573 7.5 1.5C7.5 2.32843 8.17157 3 9 3Z" fill="#172B4E"/>
<path d="M10.5 4H7.5C6.5 4 6 5 6 5.5C6 6 6.5 9.5 6.5 10C6.5 10.5 7 11 7.5 11C7.5 11.5 7.75 16 8 17C8.25 18 8.5 18 9 18C9.5 18 9.75 18 10 17C10.25 16 10.5 11.5 10.5 11C11 11 11.5 10.5 11.5 10C11.5 9.5 12 6 12 5.5C12 5 11.5 4 10.5 4Z" fill="#172B4E"/>
</svg>
