<svg width="18" height="19" viewBox="0 0 18 19" fill="none" xmlns="http://www.w3.org/2000/svg">
<path fill-rule="evenodd" clip-rule="evenodd" d="M9 3.75C9.82843 3.75 10.5 3.07843 10.5 2.25C10.5 1.42157 9.82843 0.75 9 0.75C8.17157 0.75 7.5 1.42157 7.5 2.25C7.5 3.07843 8.17157 3.75 9 3.75Z" fill="#C4C4C4" stroke="#172B4E" stroke-width="1.5" stroke-linecap="round" stroke-linejoin="round"/>
<path d="M11.9998 7.588C13.019 8.17648 14.0058 8.74622 14.056 8.77533C14.3071 8.92041 14.4946 9.27233 14.5245 9.38391C14.6674 9.91738 14.3508 10.4657 13.8173 10.6086C13.6784 10.6458 13.2813 10.6372 13.056 10.5074C13.023 10.4884 12.5853 10.2357 11.9998 9.89765" stroke="#172B4E" stroke-width="1.5" stroke-linecap="round" stroke-linejoin="round"/>
<path d="M8.26268 12.6754L8.84808 12.2066C8.83769 12.1936 8.82686 12.1809 8.81563 12.1687L8.26268 12.6754ZM8.33851 12.7526L8.86889 12.2223C8.85804 12.2115 8.84687 12.2009 8.83538 12.1908L8.33851 12.7526ZM8.67521 13.0893L9.20559 12.5591L8.67521 13.0893ZM12.5353 16.9499L13.0651 16.4191L13.0645 16.4185L12.5353 16.9499ZM13.9495 15.5357L13.4186 16.0654L13.419 16.0659L13.9495 15.5357ZM10.0003 11.5859L9.25029 11.5859C9.25028 11.7848 9.32929 11.9756 9.46994 12.1163L10.0003 11.5859ZM9.70754 6.29155L10.2379 5.76122L10.2379 5.76122L9.70754 6.29155ZM8.72974 6.03581L8.86964 6.77264C8.89065 6.76865 8.91147 6.76377 8.93206 6.758L8.72974 6.03581ZM8.68812 6.04525L8.4947 5.32062L8.49402 5.3208L8.68812 6.04525ZM6.95255 6.51026L6.75845 5.78581L6.7583 5.78585L6.95255 6.51026ZM5.83718 6.80935L6.0313 7.5338L6.03144 7.53376L5.83718 6.80935ZM5.59719 6.90837L5.90321 7.5931C5.92625 7.58281 5.94875 7.57136 5.97063 7.5588L5.59719 6.90837ZM5.06439 7.34853L4.41523 6.9729L4.41488 6.97351L5.06439 7.34853ZM4.16597 8.90457L3.51646 8.52956L3.51623 8.52995L4.16597 8.90457ZM3.66987 9.76501L4.31939 10.14L4.31961 10.1396L3.66987 9.76501ZM3.56997 10.5238L2.84552 10.7179L3.56997 10.5238ZM4.79471 11.2309L4.98883 11.9554L4.98883 11.9554L4.79471 11.2309ZM5.32079 10.9048L4.67125 10.5298C4.4643 10.8883 4.58691 11.3466 4.94518 11.5539C5.30346 11.7612 5.76194 11.6391 5.96959 11.281L5.32079 10.9048ZM5.40192 10.765L6.04876 11.1447L6.05144 11.14L5.40192 10.765ZM6.6091 8.67305L6.41494 7.94862C6.22281 8.00012 6.05901 8.12582 5.95956 8.29809L6.6091 8.67305ZM8.00032 8.30018L8.75032 8.30024C8.75034 8.06705 8.6419 7.84712 8.4569 7.70517C8.2719 7.56321 8.0314 7.51538 7.80616 7.57575L8.00032 8.30018ZM8.00021 11.9874L8.75022 11.9967L8.75021 11.9868L8.00021 11.9874ZM7.67728 13.1442C7.70055 13.1733 7.72921 13.2066 7.76287 13.2403L8.82353 12.1796C8.83132 12.1874 8.83704 12.1937 8.84069 12.1978C8.84441 12.202 8.84687 12.205 8.84808 12.2066L7.67728 13.1442ZM7.76287 13.2403C7.78848 13.2659 7.81475 13.2906 7.84165 13.3144L8.83538 12.1908C8.83141 12.1873 8.82746 12.1836 8.82353 12.1796L7.76287 13.2403ZM7.80813 13.2829C7.86904 13.3438 7.98659 13.4614 8.14483 13.6196L9.20559 12.5591C9.04736 12.4008 8.9298 12.2832 8.86889 12.2223L7.80813 13.2829ZM8.14483 13.6196C9.1753 14.6503 11.9355 17.411 12.0061 17.4814L13.0645 16.4185C12.9955 16.3497 10.2375 13.5912 9.20559 12.5591L8.14483 13.6196ZM12.0055 17.4808C12.2079 17.6828 12.4648 17.8026 12.6433 17.8691C12.8164 17.9336 13.0441 17.9948 13.2445 17.9948V16.4948C13.259 16.4948 13.2694 16.4954 13.2747 16.4959C13.2802 16.4963 13.2831 16.4967 13.2831 16.4967C13.2832 16.4967 13.2816 16.4965 13.2781 16.4959C13.2746 16.4952 13.27 16.4943 13.2641 16.493C13.2391 16.4873 13.2044 16.4774 13.1667 16.4634C13.1287 16.4492 13.0967 16.4342 13.0737 16.4212C13.0484 16.4068 13.0498 16.4038 13.0651 16.4191L12.0055 17.4808ZM13.2445 17.9948C14.2109 17.9948 14.9945 17.2114 14.9945 16.2448H13.4945C13.4945 16.3828 13.3826 16.4948 13.2445 16.4948V17.9948ZM14.9945 16.2448C14.9945 16.0693 14.9441 15.8536 14.8816 15.6756C14.8168 15.4909 14.6965 15.2222 14.48 15.0056L13.419 16.0659C13.4083 16.0552 13.413 16.0568 13.4265 16.0811C13.4392 16.1039 13.4532 16.1351 13.4662 16.1721C13.479 16.2088 13.488 16.2427 13.493 16.2671C13.4942 16.2729 13.4951 16.2775 13.4957 16.2809C13.4963 16.2844 13.4965 16.2861 13.4965 16.286C13.4965 16.2859 13.4964 16.2852 13.4962 16.2839C13.4961 16.2826 13.4959 16.2804 13.4957 16.2775C13.4953 16.2723 13.4945 16.2609 13.4945 16.2448H14.9945ZM14.4805 15.006C14.4082 14.9336 11.4812 12.0063 10.5306 11.0556L9.46994 12.1163C10.4213 13.0676 13.3471 15.9938 13.4186 16.0654L14.4805 15.006ZM10.7503 11.586C10.7504 10.4069 10.7504 7.12228 10.7504 6.99866H9.25043C9.25043 7.12228 9.25039 10.4068 9.25029 11.5859L10.7503 11.586ZM10.7504 6.99866C10.7504 6.55195 10.5794 6.10278 10.2379 5.76122L9.17721 6.82188C9.22617 6.87084 9.25043 6.93352 9.25043 6.99866H10.7504ZM10.2379 5.76122C9.77377 5.29712 9.11438 5.14918 8.52742 5.31361L8.93206 6.758C9.01837 6.73382 9.1117 6.75637 9.17721 6.82188L10.2379 5.76122ZM8.58984 5.29897C8.55901 5.30482 8.52719 5.31195 8.4947 5.32062L8.88154 6.76988C8.87606 6.77134 8.87203 6.77219 8.86964 6.77264L8.58984 5.29897ZM8.49402 5.3208L6.75845 5.78581L7.14665 7.2347L8.88222 6.7697L8.49402 5.3208ZM6.7583 5.78585L5.64293 6.08495L6.03144 7.53376L7.14681 7.23466L6.7583 5.78585ZM5.64307 6.08491C5.49714 6.12401 5.35606 6.18199 5.22376 6.25795L5.97063 7.5588C5.9895 7.54796 6.00993 7.53952 6.0313 7.5338L5.64307 6.08491ZM5.29118 6.22365C5.15021 6.28665 4.99325 6.38145 4.85119 6.49194C4.71565 6.59735 4.53896 6.75908 4.41523 6.9729L5.71355 7.72415C5.70383 7.74095 5.70071 7.74122 5.71424 7.72703C5.72663 7.71404 5.74597 7.69629 5.77209 7.67598C5.7978 7.65598 5.82525 7.63725 5.85109 7.62154C5.87772 7.60534 5.89626 7.59621 5.90321 7.5931L5.29118 6.22365ZM4.41488 6.97351L3.51646 8.52956L4.81548 9.27958L5.7139 7.72354L4.41488 6.97351ZM3.51623 8.52995L3.02013 9.39039L4.31961 10.1396L4.81571 9.27919L3.51623 8.52995ZM3.02035 9.39001C2.797 9.77687 2.7205 10.2514 2.84552 10.7179L4.29441 10.3297C4.27649 10.2628 4.28682 10.1964 4.31939 10.14L3.02035 9.39001ZM2.84552 10.7179C3.09567 11.6515 4.05526 12.2055 4.98883 11.9554L4.6006 10.5065C4.46723 10.5422 4.33015 10.4631 4.29441 10.3297L2.84552 10.7179ZM4.98883 11.9554C5.4382 11.835 5.80072 11.5489 6.02635 11.1821L4.74874 10.3962C4.71596 10.4494 4.66518 10.4892 4.6006 10.5065L4.98883 11.9554ZM4.738 10.4142L4.67125 10.5298L5.97033 11.2797L6.03708 11.1641L4.738 10.4142ZM5.96959 11.281L6.04344 11.1537L4.74584 10.4012L4.67198 10.5285L5.96959 11.281ZM6.04146 11.1571L6.04874 11.1446L4.7551 10.3854L4.74782 10.3978L6.04146 11.1571ZM6.05144 11.14C6.05408 11.1354 6.05638 11.1314 6.05787 11.1288C6.05818 11.1283 6.05911 11.1267 6.0602 11.1248C6.06038 11.1244 6.0623 11.1211 6.06462 11.1168C6.06532 11.1156 6.06654 11.1134 6.06804 11.1106C6.06907 11.1087 6.07244 11.1024 6.07655 11.0943C6.07839 11.0907 6.08295 11.0816 6.08838 11.0699C6.09116 11.0638 6.09781 11.0487 6.10161 11.0396C6.10756 11.0246 6.12296 10.9807 6.13156 10.9513C6.14809 10.8749 6.09885 10.4635 5.9002 10.1892C5.49458 10.0099 4.97148 10.1448 4.89248 10.2099C4.86674 10.2354 4.8305 10.276 4.81908 10.2902C4.8124 10.2987 4.80158 10.3132 4.79735 10.3191C4.78432 10.3373 4.77472 10.3527 4.77449 10.353C4.77173 10.3574 4.7696 10.3608 4.76862 10.3624C4.76654 10.3658 4.76494 10.3685 4.76438 10.3694C4.76304 10.3717 4.76198 10.3735 4.76165 10.374C4.7608 10.3755 4.76006 10.3767 4.75972 10.3773C4.75729 10.3814 4.75194 10.3907 4.746 10.4009L6.04327 11.1539C6.04636 11.1486 6.04899 11.1441 6.05102 11.1406C6.05203 11.1389 6.05286 11.1374 6.0535 11.1363C6.05381 11.1358 6.05406 11.1354 6.05424 11.1351C6.05444 11.1347 6.05451 11.1346 6.05448 11.1347C6.05447 11.1347 6.05438 11.1348 6.05426 11.135C6.05415 11.1352 6.05387 11.1357 6.0535 11.1363C6.05328 11.1367 6.05231 11.1383 6.05103 11.1405C6.0505 11.1414 6.04892 11.144 6.04686 11.1474C6.04589 11.1489 6.04377 11.1524 6.04102 11.1567C6.04079 11.1571 6.03119 11.1724 6.01816 11.1906C6.01394 11.1965 6.00311 11.211 5.99644 11.2196C5.98501 11.2337 5.94878 11.2743 5.92303 11.2998C5.84403 11.3649 5.32094 11.4998 4.91532 11.3205C4.71667 11.0462 4.66743 10.6348 4.68395 10.5584C4.69256 10.5291 4.70796 10.4851 4.7139 10.4701C4.71771 10.461 4.72436 10.4459 4.72714 10.4398C4.73257 10.4281 4.73713 10.4191 4.73896 10.4154C4.74307 10.4073 4.74643 10.4011 4.74746 10.3992C4.74895 10.3964 4.75016 10.3942 4.75085 10.393C4.75313 10.3888 4.75498 10.3856 4.75508 10.3854C4.75561 10.3845 4.75602 10.3837 4.75617 10.3835C4.75635 10.3832 4.75648 10.3829 4.75651 10.3829C4.75656 10.3828 4.7563 10.3833 4.75548 10.3847C4.75474 10.386 4.75373 10.3877 4.7524 10.39L6.05144 11.14ZM4.75317 10.3888L4.74607 10.4005L6.02901 11.1777L6.0361 11.166L4.75317 10.3888ZM6.03708 11.1641L7.25864 9.04802L5.95956 8.29809L4.738 10.4142L6.03708 11.1641ZM6.80326 9.39749L8.19448 9.02461L7.80616 7.57575L6.41494 7.94862L6.80326 9.39749ZM7.25032 8.30012C7.25021 9.71199 7.25007 11.7915 7.25021 11.9879L8.75021 11.9868C8.75007 11.7912 8.75021 9.71279 8.75032 8.30024L7.25032 8.30012ZM7.25027 11.9781C7.25018 11.9854 7.25013 11.9927 7.25013 12H8.75013C8.75013 11.9988 8.75014 11.9977 8.75015 11.9967L7.25027 11.9781ZM7.25013 12C7.25013 12.4552 7.42492 12.8713 7.70973 13.1821L8.81563 12.1687C8.77435 12.1236 8.75013 12.0655 8.75013 12H7.25013Z" fill="#172B4E"/>
<path d="M6.88127 14.5398C6.48213 15.2313 6.18621 15.744 6.16699 15.7773C6.03903 15.9989 5.99562 16.2693 6.06709 16.5361C6.21003 17.0695 6.75837 17.3861 7.29183 17.2432C7.55857 17.1717 7.77108 16.9989 7.89904 16.7773C7.91668 16.7467 8.09108 16.4446 8.34774 16" stroke="#172B4E" stroke-width="1.5" stroke-linecap="round" stroke-linejoin="round"/>
</svg>
