<svg width="18" height="18" viewBox="0 0 18 18" fill="none" xmlns="http://www.w3.org/2000/svg">
<path fill-rule="evenodd" clip-rule="evenodd" d="M8.60107 3.875C9.4295 3.875 10.1011 3.20343 10.1011 2.375C10.1011 1.54657 9.4295 0.875 8.60107 0.875C7.77265 0.875 7.10107 1.54657 7.10107 2.375C7.10107 3.20343 7.77265 3.875 8.60107 3.875ZM9.2219 5.1123C9.2219 4.82362 9.05621 4.56056 8.79585 4.43587C8.53548 4.31118 8.22666 4.347 8.00174 4.52797L4.92974 6.99969C4.75281 7.14206 4.6499 7.35693 4.6499 7.58403V10.0558C4.6499 10.47 4.98569 10.8058 5.3999 10.8058C5.81412 10.8058 6.1499 10.47 6.1499 10.0558V7.94321L7.7219 6.67838V10.4089C7.7219 10.6187 7.8098 10.8189 7.96425 10.9609L10.8945 13.6554L11.8904 16.6142C12.0225 17.0068 12.4479 17.2179 12.8404 17.0858C13.233 16.9537 13.4441 16.5283 13.312 16.1358L12.2547 12.9944C12.2144 12.8747 12.1445 12.7671 12.0516 12.6816L9.2219 10.0796V5.1123ZM8.25226 13.2471C8.45776 12.8875 8.33282 12.4293 7.97318 12.2238C7.61354 12.0183 7.1554 12.1433 6.94989 12.5029L4.94989 16.0029C4.74438 16.3625 4.86933 16.8207 5.22897 17.0262C5.58861 17.2317 6.04675 17.1067 6.25226 16.7471L8.25226 13.2471ZM10.0797 7.83589C10.3774 7.54793 10.8522 7.55586 11.1402 7.8536L12.7656 9.53421C13.0535 9.83195 13.0456 10.3068 12.7479 10.5947C12.4501 10.8827 11.9753 10.8748 11.6873 10.577L10.062 8.8964C9.774 8.59865 9.78193 8.12385 10.0797 7.83589Z" fill="#172B4E"/>
</svg>
