<?xml version="1.0" encoding="UTF-8"?>
<svg width="24px" height="24px" viewBox="0 0 24 24" version="1.1" xmlns="http://www.w3.org/2000/svg" xmlns:xlink="http://www.w3.org/1999/xlink">
    <!-- Generator: Sketch 54.1 (76490) - https://sketchapp.com -->
    <title>Icon/Feather/map</title>
    <desc>Created with Sketch.</desc>
    <defs>
        <path d="M15.5347928,22.8854304 L8.03146931,19.1337686 L1.49613894,22.8682431 C0.829482172,23.2491899 0,22.7678227 0,22 L0,6 C0,5.64114315 0.192286064,5.30979971 0.503861062,5.13175686 L7.48861308,1.14046999 C7.63824364,1.05125373 7.81313635,1 8,1 C8.16795727,1 8.32624342,1.04140696 8.46520716,1.11456959 L15.9685307,4.86623136 L22.5038611,1.13175686 C23.1705178,0.750810134 24,1.23217733 24,2 L24,18 C24,18.3588568 23.8077139,18.6902003 23.4961389,18.8682431 L16.5113869,22.85953 C16.3952645,22.9287673 16.2639273,22.9751408 16.1235879,22.9924384 C16.0445599,23.0021716 15.9645932,23.0025476 15.8854069,22.9934204 C15.7600147,22.9791974 15.6416872,22.9417089 15.5347928,22.8854304 Z M15,6.61803399 L9,3.61803399 L9,17.381966 L15,20.381966 L15,6.61803399 Z M17,6.58032254 L17,20.2768203 L22,17.4196775 L22,3.72317968 L17,6.58032254 Z M7,3.72317968 L2,6.58032254 L2,20.2768203 L7,17.4196775 L7,3.72317968 Z" id="path-1"></path>
    </defs>
    <g id="Icon/Feather/map" stroke="none" stroke-width="1" fill="none" fill-rule="evenodd">
        <mask id="mask-2" fill="white">
            <use xlink:href="#path-1"></use>
        </mask>
        <use id="Combined-Shape" fill="#000000" fill-rule="nonzero" xlink:href="#path-1"></use>
        <g id="Color/Neutral/Black" mask="url(#mask-2)" fill="#172B4E" fill-rule="nonzero">
            <rect id="Rectangle" x="0" y="0" width="24" height="24"></rect>
        </g>
    </g>
</svg>