<svg width="18" height="18" viewBox="0 0 18 18" fill="none" xmlns="http://www.w3.org/2000/svg">
<path d="M6 3C6.41421 3 6.75 2.66421 6.75 2.25C6.75 1.83579 6.41421 1.5 6 1.5V3ZM1.5 6C1.5 6.41421 1.83579 6.75 2.25 6.75C2.66421 6.75 3 6.41421 3 6H1.5ZM15 6C15 6.41421 15.3358 6.75 15.75 6.75C16.1642 6.75 16.5 6.41421 16.5 6H15ZM12 1.5C11.5858 1.5 11.25 1.83579 11.25 2.25C11.25 2.66421 11.5858 3 12 3V1.5ZM12 15C11.5858 15 11.25 15.3358 11.25 15.75C11.25 16.1642 11.5858 16.5 12 16.5V15ZM16.5 12C16.5 11.5858 16.1642 11.25 15.75 11.25C15.3358 11.25 15 11.5858 15 12H16.5ZM3 12C3 11.5858 2.66421 11.25 2.25 11.25C1.83579 11.25 1.5 11.5858 1.5 12H3ZM6 16.5C6.41421 16.5 6.75 16.1642 6.75 15.75C6.75 15.3358 6.41421 15 6 15V16.5ZM6 1.5H3.75V3H6V1.5ZM3.75 1.5C2.50736 1.5 1.5 2.50736 1.5 3.75H3C3 3.33579 3.33579 3 3.75 3V1.5ZM1.5 3.75V6H3V3.75H1.5ZM16.5 6V3.75H15V6H16.5ZM16.5 3.75C16.5 2.50736 15.4926 1.5 14.25 1.5V3C14.6642 3 15 3.33579 15 3.75H16.5ZM14.25 1.5H12V3H14.25V1.5ZM12 16.5H14.25V15H12V16.5ZM14.25 16.5C15.4926 16.5 16.5 15.4926 16.5 14.25H15C15 14.6642 14.6642 15 14.25 15V16.5ZM16.5 14.25V12H15V14.25H16.5ZM1.5 12V14.25H3V12H1.5ZM1.5 14.25C1.5 15.4926 2.50736 16.5 3.75 16.5V15C3.33579 15 3 14.6642 3 14.25H1.5ZM3.75 16.5H6V15H3.75V16.5Z" fill="#172B4E"/>
</svg>
