<svg width="18" height="18" viewBox="0 0 18 18" fill="none" xmlns="http://www.w3.org/2000/svg">
<path d="M4.1042 14.2571H4.8542C4.8542 14.0397 4.75986 13.833 4.59563 13.6906L4.1042 14.2571ZM6.5 15.6565L6.7512 14.9498C6.54726 14.8773 6.32195 14.8965 6.13316 15.0023L6.5 15.6565ZM4.1042 17H3.3542C3.3542 17.2663 3.49538 17.5126 3.72514 17.6472C3.9549 17.7817 4.23879 17.7844 4.47104 17.6542L4.1042 17ZM15.75 8.54286C15.75 12.2985 12.7239 15.3357 9 15.3357V16.8357C13.5604 16.8357 17.25 13.1188 17.25 8.54286H15.75ZM2.25 8.54286C2.25 4.78723 5.2761 1.75 9 1.75V0.25C4.43963 0.25 0.75 3.96687 0.75 8.54286H2.25ZM9 1.75C12.7239 1.75 15.75 4.78723 15.75 8.54286H17.25C17.25 3.96687 13.5604 0.25 9 0.25V1.75ZM4.59563 13.6906C3.15877 12.4443 2.25 10.6013 2.25 8.54286H0.75C0.75 11.0526 1.86018 13.3036 3.61278 14.8237L4.59563 13.6906ZM9 15.3357C8.21024 15.3357 7.45368 15.1995 6.7512 14.9498L6.2488 16.3632C7.11022 16.6694 8.03658 16.8357 9 16.8357V15.3357ZM3.3542 14.2571V17H4.8542V14.2571H3.3542ZM4.47104 17.6542L6.86684 16.3107L6.13316 15.0023L3.73737 16.3458L4.47104 17.6542Z" fill="#172B4E"/>
<path d="M4.5 11L3.85688 10.6141C3.67639 10.9149 3.72854 11.3007 3.98243 11.5428C4.23633 11.7849 4.62412 11.8186 4.91602 11.624L4.5 11ZM7.5 6L7.91603 5.37596C7.74537 5.26219 7.53557 5.22327 7.33546 5.26827C7.13535 5.31327 6.96241 5.43825 6.85688 5.61413L7.5 6ZM10.5 11L10.084 11.624C10.2546 11.7378 10.4644 11.7767 10.6645 11.7317C10.8646 11.6867 11.0376 11.5617 11.1431 11.3859L10.5 11ZM7.5 9L7.91603 8.37596C7.6641 8.20801 7.3359 8.20801 7.08398 8.37596L7.5 9ZM13.5 6L14.1431 6.38587C14.3236 6.08505 14.2715 5.6993 14.0176 5.4572C13.7637 5.21511 13.3759 5.18136 13.084 5.37596L13.5 6ZM10.5 8L10.084 8.62404C10.3359 8.79199 10.6641 8.79199 10.916 8.62404L10.5 8ZM5.14312 11.3858L8.14312 6.38587L6.85688 5.61413L3.85688 10.6141L5.14312 11.3858ZM4.91602 11.624L7.91602 9.62404L7.08398 8.37596L4.08398 10.3759L4.91602 11.624ZM7.08397 9.62404L10.084 11.624L10.916 10.376L7.91603 8.37596L7.08397 9.62404ZM11.1431 11.3859L14.1431 6.38587L12.8569 5.61413L9.85688 10.6141L11.1431 11.3859ZM13.084 5.37596L10.084 7.37596L10.916 8.62404L13.916 6.62404L13.084 5.37596ZM10.916 7.37596L7.91603 5.37596L7.08397 6.62404L10.084 8.62404L10.916 7.37596Z" fill="#172B4E"/>
</svg>
