<svg width="18" height="19" viewBox="0 0 18 19" fill="none" xmlns="http://www.w3.org/2000/svg">
<path d="M0.75 1.75L17.25 18.25" stroke="#172B4E" stroke-width="1.5" stroke-linecap="round" stroke-linejoin="round"/>
<path d="M7.5 7.74996C7.5 7.33574 7.16421 6.99996 6.75 6.99996C6.33579 6.99996 6 7.33574 6 7.74996H7.5ZM6.75 9.99996H6L6 10.0006L6.75 9.99996ZM11.12 12.1206C11.4131 11.8279 11.4134 11.353 11.1207 11.06C10.8279 10.7669 10.3531 10.7666 10.06 11.0593L11.12 12.1206ZM10.5 8.00495C10.5 8.41916 10.8358 8.75495 11.25 8.75495C11.6643 8.75495 12 8.41916 12 8.00495H10.5ZM11.25 3.99995L10.5 3.9992V3.99995H11.25ZM6.06004 3.4007C5.97761 3.80663 6.23986 4.20252 6.64579 4.28495C7.05172 4.36738 7.44761 4.10512 7.53004 3.6992L6.06004 3.4007ZM6 7.74996V9.99996H7.5V7.74996H6ZM6 10.0006C6.00107 11.2132 6.73198 12.3059 7.85231 12.7698L8.42615 11.3839C7.86599 11.1519 7.50053 10.6056 7.5 9.9993L6 10.0006ZM7.85231 12.7698C8.97263 13.2336 10.2621 12.9775 11.12 12.1206L10.06 11.0593C9.63103 11.4877 8.98632 11.6158 8.42615 11.3839L7.85231 12.7698ZM12 8.00495V3.99995H10.5V8.00495H12ZM12 4.0007C12.0016 2.45944 10.835 1.16777 9.30154 1.01288L9.15079 2.50528C9.91752 2.58273 10.5008 3.22857 10.5 3.9992L12 4.0007ZM9.30154 1.01288C7.76808 0.857981 6.36674 1.89027 6.06004 3.4007L7.53004 3.6992C7.68339 2.94398 8.38406 2.42783 9.15079 2.50528L9.30154 1.01288Z" fill="#172B4E"/>
<path d="M13.2859 14.2374C13.5758 13.9415 13.5709 13.4666 13.275 13.1768C12.9791 12.8869 12.5043 12.8917 12.2144 13.1876L13.2859 14.2374ZM3.75014 10L4.50014 10.0055V10H3.75014ZM4.50014 8.5C4.50014 8.08579 4.16436 7.75 3.75014 7.75C3.33593 7.75 3.00014 8.08579 3.00014 8.5H4.50014ZM15.0001 8.5C15.0001 8.08579 14.6643 7.75 14.2501 7.75C13.8359 7.75 13.5001 8.08579 13.5001 8.5H15.0001ZM14.2501 10L15.0001 10.0007V10H14.2501ZM13.4294 10.7901C13.3562 11.1978 13.6274 11.5876 14.0351 11.6607C14.4428 11.7339 14.8327 11.4626 14.9058 11.0549L13.4294 10.7901ZM12.2144 13.1876C10.9306 14.498 8.97987 14.8979 7.28401 14.1984L6.71202 15.585C8.97316 16.5178 11.5741 15.9845 13.2859 14.2374L12.2144 13.1876ZM7.28401 14.1984C5.58816 13.4988 4.4867 11.8399 4.50012 10.0055L3.00016 9.99451C2.98227 12.4404 4.45088 14.6523 6.71202 15.585L7.28401 14.1984ZM4.50014 10V8.5H3.00014V10H4.50014ZM13.5001 8.5V10H15.0001V8.5H13.5001ZM13.5001 9.99934C13.4999 10.2645 13.4762 10.5291 13.4294 10.7901L14.9058 11.0549C14.9682 10.707 14.9998 10.3542 15.0001 10.0007L13.5001 9.99934Z" fill="#172B4E"/>
<path d="M9 15.25V18.25" stroke="#172B4E" stroke-width="1.5" stroke-linecap="round" stroke-linejoin="round"/>
<path d="M6 18.25H12" stroke="#172B4E" stroke-width="1.5" stroke-linecap="round" stroke-linejoin="round"/>
</svg>
