<?xml version="1.0" encoding="UTF-8"?>
<svg width="24px" height="24px" viewBox="0 0 24 24" version="1.1" xmlns="http://www.w3.org/2000/svg" xmlns:xlink="http://www.w3.org/1999/xlink">
    <!-- Generator: Sketch 56.2 (81672) - https://sketch.com -->
    <title>Icon/Service/model-360</title>
    <desc>Created with Sketch.</desc>
    <defs>
        <path d="M23.9,14.1 C23.9,13.2 23.3,11.8 20.4,10.9 L20.4,7.3 C20.4,7 20.3,6.7 20,6.5 L13.6,1.2 C13.2,0.9 12.7,0.9 12.3,1.2 L5.9,6.5 C5.7,6.7 5.6,7 5.6,7.3 L5.6,9.7 C5.6,10.3 6,10.7 6.6,10.7 C7.2,10.7 7.6,10.3 7.6,9.7 L7.6,7.7 L13,3.3 L18.4,7.8 L18.4,15.9 C17,16.2 15.3,16.4 13.1,16.4 C10.8,16.4 8.9,16 7,15.2 C6,14.8 5.4,14.3 4.4,13.4 L8,13.4 C8.6,13.4 9,13 9,12.4 C9,11.8 8.6,11.4 8,11.4 L1.9,11.4 C1.3,11.4 0.9,11.8 0.9,12.4 L0.9,18.5 C0.9,19.1 1.3,19.5 1.9,19.5 C2.5,19.5 2.9,19.1 2.9,18.5 L2.9,14.8 C2.9,14.8 2.9,14.8 3,14.9 C4.2,15.9 4.9,16.6 6.3,17.2 C8.4,18.1 10.6,18.6 13.2,18.6 C15,18.6 16.8,18.4 18.5,18.1 L18.5,20.5 L7.6,20.5 L7.6,19.7 C7.6,19.1 7.2,18.7 6.6,18.7 C6,18.7 5.6,19.1 5.6,19.7 L5.6,21.5 C5.6,22.1 6,22.5 6.6,22.5 L19.4,22.5 C20,22.5 20.4,22.1 20.4,21.5 L20.4,17.6 C22.5,16.7 23.9,15.6 23.9,14.1 Z M20.4,15.2 L20.4,13 C21.5,13.5 21.9,13.9 21.9,14.1 C21.9,14.4 21.4,14.8 20.4,15.2 Z" id="path-1"></path>
    </defs>
    <g id="Icon/Service/model-360" stroke="none" stroke-width="1" fill="none" fill-rule="evenodd">
        <mask id="mask-2" fill="white">
            <use xlink:href="#path-1"></use>
        </mask>
        <use id="Shape" fill="#172B4E" fill-rule="nonzero" xlink:href="#path-1"></use>
        <g id="Color/Neutral/Black" mask="url(#mask-2)" fill="#172B4E" fill-rule="nonzero">
            <rect id="Rectangle" x="0" y="0" width="24" height="24"></rect>
        </g>
    </g>
</svg>