<?xml version="1.0" encoding="UTF-8"?>
<svg width="24px" height="24px" viewBox="0 0 24 24" version="1.1" xmlns="http://www.w3.org/2000/svg" xmlns:xlink="http://www.w3.org/1999/xlink">
    <!-- Generator: Sketch 61.2 (89653) - https://sketch.com -->
    <title>Icon/Feather/budget</title>
    <desc>Created with Sketch.</desc>
    <defs>
        <path d="M16.5349027,0.0003 C16.88482,0.0003 17.2116196,0.170530035 17.4112721,0.456348364 C17.6119755,0.743217496 17.6592616,1.10889683 17.5415717,1.43779807 L17.5415717,1.43779807 L16.0998704,5.38671455 C19.9479098,6.8946164 22.6842,10.6344231 22.6842,15.0110163 L22.6842,15.0110163 L22.6842,20.6811476 C22.6842,22.5232047 21.1847046,24.0227001 19.3426475,24.0227001 L19.3426475,24.0227001 L5.34175253,24.0227001 C3.49864463,24.0227001 2.0002,22.5232047 2.0002,20.6811476 L2.0002,20.6811476 L2.0002,15.0110163 C2.0002,10.6859125 4.67134042,6.97762981 8.44792526,5.43610228 L8.44792526,5.43610228 L6.99046194,1.43779807 C6.87067043,1.10889683 6.91795655,0.743217496 7.11971067,0.456348364 C7.31831238,0.170530035 7.64721362,0.0003 7.99713091,0.0003 L7.99713091,0.0003 Z M12.3422,6.81055218 C7.82164686,6.81055218 4.14173587,10.4894124 4.14173587,15.0110163 L4.14173587,15.0110163 L4.14173587,20.6811476 C4.14173587,21.3431533 4.67974684,21.8811643 5.34175253,21.8811643 L5.34175253,21.8811643 L19.3426475,21.8811643 C20.0036024,21.8811643 20.5426641,21.3431533 20.5426641,20.6811476 L20.5426641,20.6811476 L20.5426641,15.0110163 C20.5426641,10.4894124 16.8627531,6.81055218 12.3422,6.81055218 Z M12.3284345,8.74402912 C12.9189856,8.74402912 13.3981516,9.22319514 13.3981516,9.81374625 L13.3981516,9.81374625 L13.3981516,10.3958909 L14.4479035,10.3958909 C15.0395054,10.3958909 15.5197222,10.8761078 15.5197222,11.4666589 C15.5197222,12.0582608 15.0395054,12.5374268 14.4479035,12.5374268 L14.4479035,12.5374268 L11.516164,12.5374268 C11.1609927,12.5374268 10.8709712,12.8263975 10.8709712,13.1836705 C10.8709712,13.5388418 11.1609927,13.8278125 11.516164,13.8278125 L11.516164,13.8278125 L13.0156594,13.8278125 C14.551933,13.8278125 15.8002865,15.0772169 15.8002865,16.6145412 C15.8002865,18.0205152 14.7515855,19.1732457 13.3981516,19.3623902 L13.3981516,19.3623902 L13.3981516,19.682885 C13.3981516,20.2734362 12.9189856,20.753653 12.3284345,20.753653 C11.7368326,20.753653 11.2566157,20.2734362 11.2566157,19.682885 L11.2566157,19.682885 L11.2566157,19.4012699 L10.0902248,19.4012699 C9.49862286,19.4012699 9.01945684,18.9210531 9.01945684,18.330502 C9.01945684,17.7389001 9.49862286,17.2597341 10.0902248,17.2597341 L10.0902248,17.2597341 L13.0156594,17.2597341 C13.3708307,17.2597341 13.6587507,16.9707633 13.6587507,16.6145412 C13.6587507,16.2583191 13.3708307,15.9693484 13.0156594,15.9693484 L13.0156594,15.9693484 L11.516164,15.9693484 C9.97989049,15.9693484 8.7294353,14.719944 8.7294353,13.1836705 C8.7294353,11.7346136 9.84328614,10.5556129 11.2566157,10.422161 L11.2566157,10.422161 L11.2566157,9.81374625 C11.2566157,9.22319514 11.7368326,8.74402912 12.3284345,8.74402912 Z M15.0038832,2.14078506 L9.52709961,2.14078506 L10.5117017,4.84134796 C11.1075068,4.73416608 11.7169724,4.66901632 12.3422,4.66901632 C12.9169891,4.66901632 13.4770669,4.72786127 14.0266367,4.8182303 L14.0266367,4.8182303 L15.0038832,2.14078506 Z" id="path-1"></path>
    </defs>
    <g id="Icon/Feather/budget" stroke="none" stroke-width="1" fill="none" fill-rule="evenodd">
        <mask id="mask-2" fill="white">
            <use xlink:href="#path-1"></use>
        </mask>
        <use id="Combined-Shape" fill="#1A2C4D" xlink:href="#path-1"></use>
        <g id="Color/Neutral/Darkest" mask="url(#mask-2)" fill="#172B4E" fill-rule="nonzero">
            <rect id="Rectangle" x="0" y="0" width="24" height="24"></rect>
        </g>
    </g>
</svg>