<?xml version="1.0" encoding="UTF-8"?>
<svg width="24px" height="24px" viewBox="0 0 24 24" version="1.1" xmlns="http://www.w3.org/2000/svg" xmlns:xlink="http://www.w3.org/1999/xlink">
    <!-- Generator: Sketch 61.2 (89653) - https://sketch.com -->
    <title>Icon/Feather/send</title>
    <desc>Created with Sketch.</desc>
    <defs>
        <path d="M6.2222,13.1925 L16.7102,13.1925 L3.8392,19.3895 L6.2222,13.1925 Z M3.8392,4.9955 L16.7102,11.1925 L6.2222,11.1925 L3.8392,4.9955 Z M21.8312,12.8525 C21.8912,12.7845 21.9412,12.7105 21.9812,12.6285 C21.9962,12.5985 22.0102,12.5705 22.0212,12.5395 C22.0632,12.4295 22.0922,12.3145 22.0922,12.1925 C22.0922,12.0705 22.0632,11.9565 22.0212,11.8455 C22.0102,11.8145 21.9962,11.7865 21.9812,11.7565 C21.9412,11.6745 21.8912,11.6005 21.8312,11.5325 C21.8132,11.5125 21.8002,11.4915 21.7802,11.4735 C21.7062,11.4015 21.6222,11.3385 21.5252,11.2915 L2.4332,2.0995 C2.0652,1.9215 1.6242,1.9865 1.3222,2.2645 C1.0212,2.5425 0.9192,2.9765 1.0662,3.3595 L4.4642,12.1925 L1.0662,21.0255 C0.9192,21.4085 1.0212,21.8415 1.3222,22.1205 C1.5112,22.2945 1.7542,22.3845 2.0002,22.3845 C2.1472,22.3845 2.2952,22.3525 2.4332,22.2865 L21.5252,13.0935 C21.6222,13.0465 21.7062,12.9845 21.7802,12.9125 C21.8002,12.8935 21.8132,12.8725 21.8312,12.8525 L21.8312,12.8525 Z" id="path-1"></path>
    </defs>
    <g id="Icon/Feather/send" stroke="none" stroke-width="1" fill="none" fill-rule="evenodd">
        <mask id="mask-2" fill="white">
            <use xlink:href="#path-1"></use>
        </mask>
        <use id="Mask" fill="#172B4E" fill-rule="nonzero" xlink:href="#path-1"></use>
        <g id="Color/Neutral/Darkest" mask="url(#mask-2)" fill="#172B4E" fill-rule="nonzero">
            <rect id="Rectangle" x="0" y="0" width="24" height="24"></rect>
        </g>
    </g>
</svg>