<?xml version="1.0" encoding="UTF-8"?>
<svg width="24px" height="24px" viewBox="0 0 24 24" version="1.1" xmlns="http://www.w3.org/2000/svg" xmlns:xlink="http://www.w3.org/1999/xlink">
    <!-- Generator: Sketch 54.1 (76490) - https://sketchapp.com -->
    <title>Icon/Feather/phone-off</title>
    <desc>Created with Sketch.</desc>
    <defs>
        <path d="M12.12281,13.2914035 C12.6919397,13.7892416 13.2979923,14.2434145 13.9358079,14.6499881 L14.6568609,13.9289477 C15.4896515,13.1054251 16.7255483,12.8418452 17.8196048,13.2531028 C18.6562181,13.5652864 19.5254626,13.7818242 20.4199516,13.8998416 C21.9110003,14.1105904 23.0147718,15.3940456 23,16.89 L22.9999918,19.885941 C23.0034205,20.7306587 22.6505637,21.5376786 22.0281086,22.1087383 C21.4056534,22.6797981 20.5712877,22.9619732 19.7119777,22.8841485 C16.4793206,22.5328939 13.3741258,21.4282649 10.6539732,19.664201 C9.66704136,19.037547 8.73626677,18.3276264 7.87170867,17.5425049 L1.70710678,23.7071068 C1.31658249,24.0976311 0.683417511,24.0976311 0.292893219,23.7071068 C-0.0976310729,23.3165825 -0.0976310729,22.6834175 0.292893219,22.2928932 L9.89336254,12.6924239 C9.91786619,12.6612926 9.94448028,12.631281 9.97320472,12.6025819 C10.001714,12.5740976 10.0315144,12.5476934 10.0624173,12.5233691 L22.2928932,0.292893219 C22.6834175,-0.0976310729 23.3165825,-0.0976310729 23.7071068,0.292893219 C24.0976311,0.683417511 24.0976311,1.31658249 23.7071068,1.70710678 L12.12281,13.2914035 Z M10.7058151,14.7083985 L9.28775511,16.1264585 C10.0477825,16.8093528 10.8648279,17.4289927 11.7341012,17.9809804 C14.1998725,19.5800241 17.0063472,20.5783877 19.9100082,20.894059 C20.1904402,20.919403 20.4685621,20.8253447 20.6760472,20.6349914 C20.8835322,20.4446382 21.0011511,20.1756315 21,19.89 L21.0000484,16.8801584 C21.0049885,16.3782263 20.6370647,15.9504079 20.1492425,15.8814144 C19.1144045,15.7449298 18.0983282,15.4918147 17.1181391,15.1260523 C16.7527016,14.9886848 16.340736,15.0765448 16.0671068,15.3471068 L14.7971068,16.6171068 C14.4787942,16.9354194 13.9870305,17.0018073 13.5957069,16.7792953 C12.5618731,16.1914433 11.5933923,15.4971921 10.7058151,14.7083985 Z M6.02901961,12.2658988 C6.32951839,12.7292766 6.19747891,13.3485208 5.73410118,13.6490196 C5.27072344,13.9495184 4.65147917,13.8174789 4.35098039,13.3541012 C2.58173506,10.6258742 1.47710612,7.52067944 1.12405827,4.27000044 C1.04826809,3.43130894 1.32846629,2.59937908 1.89620694,1.97743203 C2.4639476,1.35548498 3.26694964,1.00079348 4.11,1 L7.10015835,1.00004843 C8.60595443,0.985228194 9.88940962,2.08899965 10.1014144,3.58924251 C10.2181758,4.47453743 10.4347136,5.34378194 10.7460523,6.17813912 C11.1581548,7.27445166 10.8945749,8.51034851 10.0671068,9.34710678 L8.79710678,10.6171068 C8.40658249,11.0076311 7.77341751,11.0076311 7.38289322,10.6171068 C6.99236893,10.2265825 6.99236893,9.59341751 7.38289322,9.20289322 L8.64894769,7.93686088 C8.92345523,7.65926402 9.0113152,7.2472984 8.87310275,6.87960484 C8.50818534,5.90167182 8.25507024,4.88559547 8.11984165,3.85995157 C8.04959207,3.36293531 7.62177368,2.99501149 7.11,3 L4.11094173,2.99999956 C3.83023885,3.0002639 3.5625715,3.1184944 3.37332462,3.32581008 C3.18407773,3.53312577 3.09067833,3.81043572 3.11414847,4.07197765 C3.43161233,6.99365282 4.42997586,9.80012751 6.02901961,12.2658988 Z" id="path-1"></path>
    </defs>
    <g id="Icon/Feather/phone-off" stroke="none" stroke-width="1" fill="none" fill-rule="evenodd">
        <mask id="mask-2" fill="white">
            <use xlink:href="#path-1"></use>
        </mask>
        <use id="Combined-Shape" fill="#000000" fill-rule="nonzero" xlink:href="#path-1"></use>
        <g id="Color/Neutral/Black" mask="url(#mask-2)" fill="#172B4E" fill-rule="nonzero">
            <rect id="Rectangle" x="0" y="0" width="24" height="24"></rect>
        </g>
    </g>
</svg>