<svg width="18" height="18" viewBox="0 0 18 18" fill="none" xmlns="http://www.w3.org/2000/svg">
<path d="M8.54062 9.45235C8.24786 9.15933 7.77299 9.15912 7.47996 9.45189C7.18694 9.74465 7.18673 10.2195 7.4795 10.5125L8.54062 9.45235ZM10.5676 11.9325L10.1968 12.5844C10.4903 12.7513 10.8592 12.7015 11.0979 12.4628L10.5676 11.9325ZM11.5201 10.9799L10.9927 10.4467L10.9897 10.4496L11.5201 10.9799ZM13.1026 10.6425L12.8387 11.3445L12.8404 11.3451L13.1026 10.6425ZM15.2101 11.1674L15.315 10.4248L15.3081 10.4239L15.2101 11.1674ZM16.5001 12.6675L15.7501 12.6601V12.6675H16.5001ZM16.5001 14.9175H15.7501L15.7501 14.9205L16.5001 14.9175ZM14.8651 16.4175L14.784 17.1632L14.7976 17.1644L14.8651 16.4175ZM8.39256 14.115L8.80066 13.4857L8.79458 13.4818L8.39256 14.115ZM6.42569 11.5824C6.13296 11.2894 5.65808 11.2891 5.36503 11.5818C5.07197 11.8746 5.07171 12.3494 5.36444 12.6425L6.42569 11.5824ZM3.26331 10.0155C3.48869 10.3631 3.95312 10.4621 4.30065 10.2367C4.64819 10.0113 4.74722 9.54691 4.52184 9.19938L3.26331 10.0155ZM1.59008 3.13495L0.842998 3.20246L0.844466 3.21597L1.59008 3.13495ZM3.08258 1.49995V0.749951L3.08187 0.749952L3.08258 1.49995ZM5.33258 1.49995V2.24999L5.33996 2.24992L5.33258 1.49995ZM6.83257 2.78995L7.57617 2.69188L7.57519 2.68499L6.83257 2.78995ZM7.35757 4.89745L6.6549 5.15966L6.65554 5.16135L7.35757 4.89745ZM7.02007 6.47995L7.55041 7.01029L7.55336 7.00731L7.02007 6.47995ZM5.53725 6.90212C5.24435 7.19502 5.24435 7.66989 5.53725 7.96278C5.83014 8.25568 6.30501 8.25568 6.59791 7.96278L5.53725 6.90212ZM7.4795 10.5125C8.28821 11.322 9.2022 12.0189 10.1968 12.5844L10.9383 11.2805C10.0607 10.7814 9.25419 10.1666 8.54062 9.45235L7.4795 10.5125ZM11.0979 12.4628L12.0504 11.5103L10.9897 10.4496L10.0372 11.4021L11.0979 12.4628ZM12.0474 11.5132C12.2556 11.3074 12.5646 11.2415 12.8387 11.3445L13.3665 9.94041C12.5442 9.63133 11.6173 9.82902 10.9927 10.4467L12.0474 11.5132ZM12.8404 11.3451C13.5738 11.6188 14.3359 11.8086 15.112 11.911L15.3081 10.4239C14.6442 10.3363 13.9922 10.1739 13.3648 9.93978L12.8404 11.3451ZM15.1051 11.9101C15.4779 11.9628 15.7538 12.2836 15.7501 12.6601L17.25 12.6748C17.2611 11.5455 16.4333 10.5829 15.315 10.4248L15.1051 11.9101ZM15.7501 12.6675V14.9175H17.2501V12.6675H15.7501ZM15.7501 14.9205C15.7509 15.1317 15.6627 15.3334 15.5071 15.4762L16.5211 16.5815C16.988 16.1532 17.2526 15.5479 17.2501 14.9144L15.7501 14.9205ZM15.5071 15.4762C15.3515 15.619 15.1429 15.6895 14.9326 15.6705L14.7976 17.1644C15.4285 17.2214 16.0543 17.0098 16.5211 16.5815L15.5071 15.4762ZM14.9461 15.6718C12.7548 15.4337 10.65 14.685 8.80064 13.4857L7.98448 14.7442C10.0307 16.0712 12.3596 16.8996 14.784 17.1631L14.9461 15.6718ZM8.79458 13.4818C7.93756 12.9376 7.14313 12.3007 6.42569 11.5824L5.36444 12.6425C6.15978 13.4387 7.04047 14.1449 7.99054 14.7481L8.79458 13.4818ZM4.52184 9.19938C3.32256 7.35005 2.57379 5.24519 2.33569 3.05394L0.844466 3.21597C1.10791 5.64046 1.93638 7.96936 3.26331 10.0155L4.52184 9.19938ZM2.33703 3.06745C2.31809 2.85778 2.38814 2.6498 2.53007 2.49431L1.42223 1.48303C0.996427 1.94949 0.786278 2.57343 0.843121 3.20245L2.33703 3.06745ZM2.53007 2.49431C2.67201 2.33882 2.87276 2.25015 3.08328 2.24995L3.08187 0.749952C2.45029 0.750547 1.84804 1.01657 1.42223 1.48303L2.53007 2.49431ZM3.08258 2.24995H5.33258V0.749952H3.08258V2.24995ZM5.33996 2.24992C5.71641 2.24621 6.03727 2.52215 6.08996 2.89492L7.57519 2.68499C7.41713 1.5667 6.45454 0.738873 5.32519 0.749988L5.33996 2.24992ZM6.08901 2.88802C6.19138 3.66415 6.38121 4.42621 6.6549 5.15966L8.06025 4.63525C7.82611 4.00779 7.66371 3.35585 7.57614 2.69188L6.08901 2.88802ZM6.65554 5.16135C6.75856 5.43543 6.69267 5.7444 6.48679 5.9526L7.55336 7.00731C8.17101 6.38271 8.36869 5.45579 8.05961 4.63356L6.65554 5.16135ZM6.48974 5.94962L5.53725 6.90212L6.59791 7.96278L7.55041 7.01028L6.48974 5.94962Z" fill="#172B4E"/>
<path d="M17.25 0.75L0.75 17.25" stroke="#172B4E" stroke-width="1.5" stroke-linecap="round" stroke-linejoin="round"/>
</svg>
