<svg width="18" height="18" viewBox="0 0 18 18" fill="none" xmlns="http://www.w3.org/2000/svg">
<path d="M11.25 2.25V6.75H15.75" stroke="#172B4E" stroke-width="1.5" stroke-linecap="round" stroke-linejoin="round"/>
<path d="M16.5 1.5L11.25 6.75" stroke="#172B4E" stroke-width="1.5" stroke-linecap="round" stroke-linejoin="round"/>
<path fill-rule="evenodd" clip-rule="evenodd" d="M15.7501 13.44V15.69C15.7518 16.1123 15.5754 16.5158 15.2641 16.8014C14.9529 17.0869 14.5357 17.228 14.1151 17.19C11.8072 16.9392 9.59033 16.1506 7.64258 14.8875C5.83045 13.7359 4.29408 12.1996 3.14258 10.3875C1.87506 8.43086 1.08626 6.2032 0.840077 3.88495C0.802182 3.46561 0.942281 3.04964 1.22615 2.73867C1.51002 2.42769 1.91152 2.25035 2.33258 2.24995H4.58258C5.33547 2.24254 5.9772 2.79443 6.08258 3.53995C6.17754 4.26 6.35366 4.967 6.60758 5.64745C6.81363 6.19561 6.68184 6.81356 6.27008 7.22995L5.31758 8.18245C6.38524 10.0601 7.93992 11.6148 9.81758 12.6825L10.7701 11.73C11.1865 11.3182 11.8044 11.1864 12.3526 11.3925C13.033 11.6464 13.74 11.8225 14.4601 11.9175C15.2142 12.0238 15.769 12.6785 15.7501 13.44Z" stroke="#172B4E" stroke-width="1.5" stroke-linecap="round" stroke-linejoin="round"/>
</svg>
