<svg width="18" height="18" viewBox="0 0 18 18" fill="none" xmlns="http://www.w3.org/2000/svg">
<path d="M9.48955 2.42247C9.94179 2.42247 10.2425 2.72696 10.2425 3.18295C10.2425 3.63894 9.94104 3.94343 9.48955 3.94343H7.15485L6.32612 5.54015C6.17537 5.84464 5.94963 5.99614 5.64813 5.99614H2.6362C1.95821 5.99614 1.43097 6.45213 1.43097 7.13687V14.588C1.43097 15.1962 1.95821 15.7287 2.56045 15.7287H15.2884C15.8907 15.7287 16.4179 15.1962 16.4179 14.588V7.7451C16.4179 7.28911 16.7194 6.98462 17.1709 6.98462C17.6224 6.98462 17.9246 7.28911 17.9246 7.7451V14.588C17.9996 16.0332 16.7944 17.2497 15.2884 17.2497H2.6362C1.20522 17.2497 0 16.0332 0 14.5887V7.13687C0 5.6924 1.20522 4.47592 2.6362 4.47592H5.19664L6.02537 2.87921C6.17537 2.57471 6.47687 2.42247 6.70261 2.42247H9.48955ZM14.234 0.75C14.4597 0.75 14.6104 0.825748 14.7612 0.977995L17.7739 4.01918C18.0754 4.32368 18.0754 4.77967 17.7739 5.08341L10.0918 12.7632C9.94104 12.9155 9.7903 12.9912 9.63955 12.9912L6.25037 13.3715H6.17537C5.94963 13.3715 5.79888 13.2957 5.64813 13.1435C5.49739 12.9912 5.42239 12.7632 5.42239 12.5353L5.79888 9.11383C5.79888 8.96158 5.87388 8.80933 6.02462 8.65784L13.7067 0.977995C13.8357 0.847498 13.9647 0.77325 14.1417 0.7545L14.234 0.75ZM14.234 2.57471L7.3056 9.56982L7.0041 11.7748L9.18806 11.5468L16.1164 4.55167L14.234 2.57471Z" fill="#172B4E"/>
</svg>
