<?xml version="1.0" encoding="UTF-8"?>
<svg width="24px" height="24px" viewBox="0 0 24 24" version="1.1" xmlns="http://www.w3.org/2000/svg" xmlns:xlink="http://www.w3.org/1999/xlink">
    <!-- Generator: Sketch 57.1 (83088) - https://sketch.com -->
    <title>Icon/Service/photo-editing</title>
    <desc>Created with Sketch.</desc>
    <defs>
        <path d="M12.6527197,2.23041475 C13.2552301,2.23041475 13.6569038,2.6359447 13.6569038,3.24423963 C13.6569038,3.85253456 13.2552301,4.25806452 12.6527197,4.25806452 L9.53974895,4.25806452 L8.43514644,6.38709677 C8.23430962,6.79262673 7.93305439,6.99539171 7.53138075,6.99539171 L3.51464435,6.99539171 C2.61087866,6.99539171 1.90794979,7.60368664 1.90794979,8.51612903 L1.90794979,18.4516129 C1.90794979,19.2626728 2.61087866,19.9723502 3.41422594,19.9723502 L20.3849372,19.9723502 C21.1882845,19.9723502 21.8912134,19.2626728 21.8912134,18.4516129 L21.8912134,9.32718894 C21.8912134,8.71889401 22.292887,8.31336406 22.8953975,8.31336406 C23.4979079,8.31336406 23.8995816,8.71889401 23.8995816,9.32718894 L23.8995816,18.4516129 C24,20.3778802 22.3933054,22 20.3849372,22 L3.51464435,22 C1.60669456,22 0,20.3778802 0,18.4516129 L0,8.51612903 C0,6.58986175 1.60669456,4.96774194 3.51464435,4.96774194 L6.92887029,4.96774194 L8.0334728,2.83870968 C8.23430962,2.43317972 8.63598326,2.23041475 8.93723849,2.23041475 L12.6527197,2.23041475 Z M18.9790795,0 C19.2803347,0 19.4811715,0.101382488 19.6820084,0.304147465 L23.6987448,4.359447 C24.1004184,4.76497696 24.1004184,5.37327189 23.6987448,5.77880184 L13.4560669,16.0184332 C13.2552301,16.2211982 13.0543933,16.3225806 12.8535565,16.3225806 L8.33472803,16.8294931 L8.23430962,16.8294931 C7.93305439,16.8294931 7.73221757,16.7281106 7.53138075,16.5253456 C7.33054393,16.3225806 7.23012552,16.0184332 7.23012552,15.7142857 L7.73221757,11.1520737 C7.73221757,10.9493088 7.83263598,10.7465438 8.0334728,10.5437788 L18.2761506,0.304147465 C18.4482965,0.130348914 18.6204423,0.0310354557 18.8558254,0.00620709113 L18.9790795,0 Z M18.9790795,2.43317972 L9.74058577,11.7603687 L9.33891213,14.7004608 L12.251046,14.3963134 L21.4895397,5.06912442 L18.9790795,2.43317972 Z" id="path-1"></path>
    </defs>
    <g id="Icon/Service/photo-editing" stroke="none" stroke-width="1" fill="none" fill-rule="evenodd">
        <mask id="mask-2" fill="white">
            <use xlink:href="#path-1"></use>
        </mask>
        <use id="Combined-Shape" fill="#172B4E" fill-rule="nonzero" xlink:href="#path-1"></use>
        <g id="Color/Neutral/Darkest" mask="url(#mask-2)" fill="#172B4E" fill-rule="nonzero">
            <g transform="translate(1.000000, -2.000000)" id="Rectangle">
                <rect x="0" y="0" width="24" height="24"></rect>
            </g>
        </g>
    </g>
</svg>