<?xml version="1.0" encoding="UTF-8"?>
<svg width="24px" height="24px" viewBox="0 0 24 24" version="1.1" xmlns="http://www.w3.org/2000/svg" xmlns:xlink="http://www.w3.org/1999/xlink">
    <!-- Generator: Sketch 61.2 (89653) - https://sketch.com -->
    <title>Icon/Feather/pin</title>
    <desc>Created with Sketch.</desc>
    <defs>
        <path d="M20.1909465,10.0703309 L13.8013608,3.67960147 L15.0616657,2.41929657 L21.4523951,8.80888231 L20.1909465,10.0703309 Z M13.7784877,13.1764907 C13.6629788,13.2919996 13.5772049,13.4326688 13.5291715,13.5893492 L11.5266362,20.0349739 L3.77724784,12.2855855 L10.2228725,10.2841939 C10.3795529,10.2350168 10.5213658,10.1492429 10.6368747,10.033734 L13.971765,6.69770005 L17.1145217,9.84045674 L13.7784877,13.1764907 Z M23.5887377,8.09753054 L15.7741611,0.282953959 C15.3967558,-0.0944513198 14.7277192,-0.0944513198 14.3503139,0.282953959 L11.6661618,2.9682497 C11.2716018,3.36166612 11.2716018,3.99868048 11.6661618,4.39209689 L12.5467741,5.27385286 L9.38800632,8.43376434 L1.58715356,10.8571637 C1.24977612,10.9623797 0.993597989,11.2357126 0.908967714,11.5776647 C0.824337439,11.9207604 0.924978847,12.2821545 1.17429506,12.5314707 L5.5258923,16.8819243 L0.295970048,22.1118466 C-0.0985900162,22.505263 -0.0985900162,23.143421 0.295970048,23.5356938 C0.491534602,23.7335456 0.748856384,23.8296124 1.00732182,23.8296124 C1.2646436,23.8296124 1.52196538,23.7335456 1.71981724,23.5356938 L6.94973949,18.3057715 L11.2818946,22.636783 C11.4728846,22.827773 11.7302064,22.9318453 11.9932464,22.9318453 C12.0733021,22.9318453 12.155645,22.9215525 12.234557,22.903254 C12.5776528,22.8174801 12.8509857,22.5601583 12.955058,22.2239245 L15.3773137,14.4242154 L18.5383689,11.2643039 L19.4795948,12.2055298 C19.676303,12.4033817 19.9324811,12.5005921 20.1909465,12.5005921 C20.449412,12.5005921 20.7055901,12.4033817 20.9034419,12.2055298 L23.5887377,9.52137773 C23.7774403,9.33267509 23.8838,9.07649697 23.8838,8.80888231 C23.8838,8.54241131 23.7774403,8.28623318 23.5887377,8.09753054 L23.5887377,8.09753054 Z" id="path-1"></path>
    </defs>
    <g id="Icon/Feather/pin" stroke="none" stroke-width="1" fill="none" fill-rule="evenodd">
        <mask id="mask-2" fill="white">
            <use xlink:href="#path-1"></use>
        </mask>
        <use id="Fill-1" fill="#1A2C4D" xlink:href="#path-1"></use>
        <g id="Color/Neutral/Darkest" mask="url(#mask-2)" fill="#172B4E" fill-rule="nonzero">
            <rect id="Rectangle" x="0" y="0" width="24" height="24"></rect>
        </g>
    </g>
</svg>