<?xml version="1.0" encoding="UTF-8"?>
<svg width="24px" height="24px" viewBox="0 0 24 24" version="1.1" xmlns="http://www.w3.org/2000/svg" xmlns:xlink="http://www.w3.org/1999/xlink">
    <!-- Generator: Sketch 61.2 (89653) - https://sketch.com -->
    <title>Icon/Feather/meta</title>
    <desc>Created with Sketch.</desc>
    <defs>
        <path d="M13.0077137,0.001396881 L13.2110326,0.014640886 L20.4389694,0.704486706 C21.8243812,0.837193364 22.9329394,1.93888743 23.0747982,3.32429919 L23.0747982,3.32429919 L23.8161251,10.6128692 C23.9042148,11.4914788 23.5987607,12.3552161 22.9752682,12.9798526 C22.9741242,12.9798526 22.9741242,12.9809966 22.9741242,12.9809966 L12.9730759,22.9797569 C12.4205128,23.53232 11.6849061,23.8377741 10.9023944,23.8377741 C10.1198827,23.8377741 9.38427597,23.533464 8.82942486,22.980901 L8.82942486,22.980901 L0.859017188,15.0070612 C0.304166073,14.4533541 0.001,13.7177474 0.001,12.9352357 C0.001,12.15158 0.304166073,11.4159733 0.859017188,10.8634102 L0.859017188,10.8634102 L10.8623536,0.858929799 C11.480126,0.240013401 12.3267029,-0.0734488787 13.2110326,0.014640886 Z M12.931891,2.11735501 C12.7168147,2.11735501 12.5120346,2.20201271 12.3598796,2.35531178 L12.3598796,2.35531178 L2.35425514,12.3597922 C2.19981205,12.5142353 2.11629838,12.7178714 2.11629838,12.9352357 C2.11629838,13.1526001 2.19981205,13.3562362 2.35425514,13.5095352 L2.35425514,13.5095352 L10.3269509,21.483375 C10.633549,21.7899731 11.1666637,21.7911171 11.4766939,21.483375 L11.4766939,21.483375 L21.4754542,11.4846147 C21.6504897,11.3107232 21.7362914,11.0704784 21.7111229,10.8256575 L21.7111229,10.8256575 L20.9709401,3.53823147 C20.9297553,3.1549838 20.6231571,2.84838565 20.2364774,2.81177692 L20.2364774,2.81177692 L13.0108286,2.12078708 C12.9845161,2.11849903 12.9582036,2.11735501 12.931891,2.11735501 Z M9.10021508,9.04635862 C9.51320736,8.63336634 10.1824608,8.63336634 10.5965971,9.04635862 C11.0095893,9.46049491 11.0095893,10.1297483 10.5965971,10.5427406 L10.5965971,10.5427406 L8.83251372,12.3056799 C8.67807063,12.462411 8.67807063,12.7163841 8.83251372,12.8742593 C9.0361498,13.0767514 9.19631301,13.0767514 9.40109311,12.8742593 L9.40109311,12.8742593 L10.3025832,11.9716252 C11.2830108,10.9911976 12.8812108,10.9923416 13.8616385,11.9716252 C14.7276638,12.8387946 14.8271938,14.1841655 14.1636605,15.1623051 L14.1636605,15.1623051 L14.2631905,15.2618351 C14.6761828,15.6748274 14.6761828,16.3452248 14.2631905,16.7593611 C14.0561224,16.9652853 13.786133,17.0682473 13.5138555,17.0682473 C13.2450101,17.0682473 12.9738767,16.9652853 12.7668085,16.7605052 L12.7668085,16.7605052 L12.7004552,16.6941518 L12.1044193,17.2901878 C11.8973511,17.4972559 11.6273617,17.600218 11.3562283,17.600218 C11.0839508,17.600218 10.8139614,17.4972559 10.6068933,17.2901878 C10.193901,16.8771955 10.193901,16.2079421 10.6068933,15.7949498 L10.6068933,15.7949498 L11.9511202,14.4507229 L11.9511202,14.4507229 C11.9522642,14.4484348 11.9534082,14.4484348 11.9545523,14.4472908 L11.9545523,14.4472908 L12.3652565,14.0365866 C12.5208436,13.8798554 12.5208436,13.6247383 12.3652565,13.4680072 C12.2108134,13.3135641 11.9568403,13.310132 11.7978211,13.4691512 L11.7978211,13.4691512 L10.8963311,14.3694973 C9.95022411,15.3201803 8.29139088,15.3201803 7.33727577,14.3706413 C6.44493789,13.4771594 6.37286445,12.0814514 7.10389509,11.0964477 L7.10389509,11.0964477 L6.83047361,10.8253143 C6.41748134,10.412322 6.41748134,9.74192455 6.83047361,9.32778825 C7.24346589,8.91479598 7.91386332,8.91365196 8.32685559,9.32664423 L8.32685559,9.32664423 L8.57396454,9.57260916 Z M14.4816989,5.45778753 C15.536488,4.40185437 17.2570985,4.40071035 18.3141757,5.45778753 C19.3701088,6.51372068 19.3701088,8.23318713 18.3141757,9.28912028 C17.7867811,9.81765887 17.0912152,10.0807841 16.3990813,10.0807841 C15.7035154,10.0807841 15.0102375,9.81765887 14.4816989,9.28912028 C13.4246217,8.23318713 13.4246217,6.51372068 14.4816989,5.45778753 Z M16.3990813,6.78027802 C16.2457822,6.78027802 16.0936272,6.83862319 15.9780809,6.9541695 C15.7458442,7.18526213 15.7458442,7.56164567 15.9780809,7.7927383 C16.2080295,8.02268691 16.584413,8.02497496 16.8177937,7.7927383 C17.0488863,7.56164567 17.0488863,7.18526213 16.8177937,6.9541695 C16.7011033,6.83862319 16.5500923,6.78027802 16.3990813,6.78027802 Z" id="path-1"></path>
    </defs>
    <g id="Icon/Feather/meta" stroke="none" stroke-width="1" fill="none" fill-rule="evenodd">
        <mask id="mask-2" fill="white">
            <use xlink:href="#path-1"></use>
        </mask>
        <use id="Combined-Shape" fill="#1A2C4D" xlink:href="#path-1"></use>
        <g id="Color/Neutral/Darkest" mask="url(#mask-2)" fill="#172B4E" fill-rule="nonzero">
            <rect id="Rectangle" x="0" y="0" width="24" height="24"></rect>
        </g>
    </g>
</svg>