<svg width="18" height="18" viewBox="0 0 18 18" fill="none" xmlns="http://www.w3.org/2000/svg">
<path fill-rule="evenodd" clip-rule="evenodd" d="M1.9364 10.0575L7.3139 15.435C7.59526 15.7167 7.97704 15.8749 8.37515 15.8749C8.77327 15.8749 9.15505 15.7167 9.4364 15.435L15.8789 9V1.5H8.3789L1.9364 7.9425C1.35482 8.52756 1.35482 9.47244 1.9364 10.0575Z" stroke="#172B4E" stroke-width="1.5" stroke-linecap="round" stroke-linejoin="round"/>
<path d="M7.6 7L6.3 8.2C5.9 8.6 5.9 9.3 6.3 9.7C6.7 10.1 7.4 10.1 7.8 9.7L8.4 9.1C8.8 8.7 9.5 8.7 9.9 9.1C10.3 9.5 10.3 10.2 9.9 10.6L8.6 11.7" stroke="#172B4E" stroke-width="1.5" stroke-miterlimit="10" stroke-linecap="round" stroke-linejoin="round"/>
<path d="M6.5 7.69998L6 7.09998" stroke="#172B4E" stroke-width="1.5" stroke-miterlimit="10" stroke-linecap="round" stroke-linejoin="round"/>
<path d="M10.2001 11.4L9.6001 10.8" stroke="#172B4E" stroke-width="1.5" stroke-miterlimit="10" stroke-linecap="round" stroke-linejoin="round"/>
<path d="M12 5.375C12 5.72018 11.7202 6 11.375 6C11.0298 6 10.75 5.72018 10.75 5.375C10.75 5.02982 11.0298 4.75 11.375 4.75C11.7202 4.75 12 5.02982 12 5.375Z" stroke="#172B4E"/>
</svg>
