<svg width="18" height="18" viewBox="0 0 18 18" fill="none" xmlns="http://www.w3.org/2000/svg">
<path fill-rule="evenodd" clip-rule="evenodd" d="M9 10.5C9.82843 10.5 10.5 9.82843 10.5 9C10.5 8.17157 9.82843 7.5 9 7.5C8.17157 7.5 7.5 8.17157 7.5 9C7.5 9.82843 8.17157 10.5 9 10.5Z" stroke="#172B4E" stroke-width="1.5" stroke-linecap="round" stroke-linejoin="round"/>
<path d="M12.7099 5.28939C12.4169 4.99666 11.942 4.99692 11.6493 5.28998C11.3565 5.58303 11.3568 6.05791 11.6499 6.35064L12.7099 5.28939ZM11.6499 11.6569C11.3568 11.9496 11.3565 12.4245 11.6493 12.7175C11.942 13.0106 12.4169 13.0109 12.7099 12.7181L11.6499 11.6569ZM5.28984 12.7106C5.5829 13.0034 6.05777 13.0031 6.3505 12.71C6.64323 12.417 6.64297 11.9421 6.34991 11.6494L5.28984 12.7106ZM6.34991 6.34314C6.64297 6.05041 6.64323 5.57553 6.3505 5.28248C6.05777 4.98942 5.5829 4.98916 5.28984 5.28189L6.34991 6.34314ZM14.8328 3.16726C14.5399 2.87432 14.065 2.87425 13.7721 3.1671C13.4792 3.45995 13.4791 3.93482 13.7719 4.22776L14.8328 3.16726ZM13.7719 13.7723C13.4791 14.0652 13.4792 14.5401 13.7721 14.8329C14.065 15.1258 14.5399 15.1257 14.8328 14.8328L13.7719 13.7723ZM3.16695 14.8328C3.4598 15.1257 3.93468 15.1258 4.22761 14.8329C4.52055 14.5401 4.52062 14.0652 4.22777 13.7723L3.16695 14.8328ZM4.22777 4.22776C4.52062 3.93482 4.52055 3.45995 4.22761 3.1671C3.93468 2.87425 3.4598 2.87432 3.16695 3.16726L4.22777 4.22776ZM11.6499 6.35064C12.354 7.05402 12.7497 8.00848 12.7497 9.00376H14.2497C14.2497 7.61036 13.6958 6.27412 12.7099 5.28939L11.6499 6.35064ZM12.7497 9.00376C12.7497 9.99905 12.354 10.9535 11.6499 11.6569L12.7099 12.7181C13.6958 11.7334 14.2497 10.3972 14.2497 9.00376H12.7497ZM6.34991 11.6494C5.64575 10.946 5.25009 9.99155 5.25009 8.99626H3.75009C3.75009 10.3897 4.30401 11.7259 5.28984 12.7106L6.34991 11.6494ZM5.25009 8.99626C5.25009 8.00098 5.64575 7.04652 6.34991 6.34314L5.28984 5.28189C4.30401 6.26662 3.75009 7.60286 3.75009 8.99626H5.25009ZM13.7719 4.22776C16.407 6.86363 16.407 11.1364 13.7719 13.7723L14.8328 14.8328C18.0534 11.6111 18.0534 6.38888 14.8328 3.16726L13.7719 4.22776ZM4.22777 13.7723C1.5927 11.1364 1.5927 6.86363 4.22777 4.22776L3.16695 3.16726C-0.0536981 6.38888 -0.0536981 11.6111 3.16695 14.8328L4.22777 13.7723Z" fill="#172B4E"/>
</svg>
