<svg width="18" height="18" viewBox="0 0 18 18" fill="none" xmlns="http://www.w3.org/2000/svg">
<path d="M17.25 3V7.5H12.75" stroke="#172B4E" stroke-width="1.5" stroke-linecap="round" stroke-linejoin="round"/>
<path d="M0.75 15V10.5H5.25" stroke="#172B4E" stroke-width="1.5" stroke-linecap="round" stroke-linejoin="round"/>
<path d="M1.92547 6.49987C1.78729 6.89035 1.99182 7.31892 2.38231 7.4571C2.77279 7.59528 3.20136 7.39075 3.33954 7.00026L1.92547 6.49987ZM13.77 4.23006L13.2395 4.76026C13.2451 4.7658 13.2507 4.77126 13.2564 4.77663L13.77 4.23006ZM16.7364 8.04663C17.0383 8.33027 17.5129 8.31551 17.7966 8.01365C18.0802 7.71179 18.0654 7.23714 17.7636 6.9535L16.7364 8.04663ZM1.26358 9.95351C0.961724 9.66986 0.487079 9.68463 0.203436 9.98649C-0.0802084 10.2883 -0.065442 10.763 0.236417 11.0466L1.26358 9.95351ZM4.23 13.7701L4.76046 13.2399C4.75492 13.2343 4.74929 13.2289 4.74358 13.2235L4.23 13.7701ZM16.0745 11.5003C16.2127 11.1098 16.0082 10.6812 15.6177 10.543C15.2272 10.4049 14.7986 10.6094 14.6605 10.9999L16.0745 11.5003ZM3.33954 7.00026C4.0268 5.05813 5.66239 3.60441 7.67173 3.14977L7.34071 1.68675C4.82902 2.25505 2.78454 4.07221 1.92547 6.49987L3.33954 7.00026ZM7.67173 3.14977C9.68108 2.69512 11.7832 3.30316 13.2395 4.76026L14.3005 3.69987C12.48 1.87849 9.85239 1.11845 7.34071 1.68675L7.67173 3.14977ZM13.2564 4.77663L16.7364 8.04663L17.7636 6.9535L14.2836 3.6835L13.2564 4.77663ZM0.236417 11.0466L3.71642 14.3166L4.74358 13.2235L1.26358 9.95351L0.236417 11.0466ZM3.69954 14.3003C5.52 16.1217 8.14761 16.8817 10.6593 16.3134L10.3283 14.8504C8.31892 15.305 6.21684 14.697 4.76046 13.2399L3.69954 14.3003ZM10.6593 16.3134C13.171 15.7451 15.2155 13.9279 16.0745 11.5003L14.6605 10.9999C13.9732 12.942 12.3376 14.3957 10.3283 14.8504L10.6593 16.3134Z" fill="#172B4E"/>
</svg>
