<?xml version="1.0" encoding="UTF-8"?>
<svg width="24px" height="24px" viewBox="0 0 24 24" version="1.1" xmlns="http://www.w3.org/2000/svg" xmlns:xlink="http://www.w3.org/1999/xlink">
    <!-- Generator: Sketch 61.2 (89653) - https://sketch.com -->
    <title>Icon/Service/restyling</title>
    <desc>Created with Sketch.</desc>
    <defs>
        <path d="M12.6,0.3 L22,7.5 C22.2,7.7 22.4,8 22.4,8.3 L22.4,20 C22.4,21.9 20.9,23.4 19,23.4 L5.2,23.4 C3.3,23.4 1.8,21.9 1.8,20 L1.8,8.3 C1.8,8 1.9,7.7 2.2,7.5 L11.4,0.3 C11.8,-9.54625268e-13 12.3,-9.54625268e-13 12.6,0.3 Z M12,2.4 L3.8,8.8 L3.8,20.1 C3.8,20.9 4.4,21.5 5.2,21.5 L19,21.5 C19.8,21.5 20.4,20.9 20.4,20.1 L20.4,8.8 L12,2.4 Z M12.1,16.2 C12.7,16.2 13.1,16.6 13.1,17.2 L13.1,19.3 C13.1,19.8 12.6,20.3 12.1,20.3 C11.5,20.3 11.1,19.9 11.1,19.3 L11.1,17.2 C11.1,16.6 11.5,16.2 12.1,16.2 Z M10,15.3 C10.4,15.7 10.4,16.3 10,16.7 L8.5,18.2 C8.3,18.4 8.1,18.5 7.8,18.5 C7.5,18.5 7.3,18.4 7.1,18.2 C6.7,17.8 6.7,17.2 7.1,16.8 L8.6,15.3 C9,14.9 9.6,14.9 10,15.3 Z M15.6,15.3 L17.1,16.8 C17.5,17.2 17.5,17.8 17.1,18.2 C16.9,18.4 16.6,18.5 16.4,18.5 C16.1,18.5 15.9,18.4 15.7,18.2 L14.2,16.7 C13.8,16.3 13.8,15.7 14.2,15.3 C14.6,14.9 15.2,14.9 15.6,15.3 Z M8.2,12.2 C8.8,12.2 9.2,12.6 9.2,13.2 C9.1,13.8 8.7,14.2 8.1,14.2 L6.1,14.2 C5.5,14.2 5.1,13.8 5.1,13.2 C5.1,12.6 5.5,12.2 6.1,12.2 L8.2,12.2 Z M18.1,12.2 C18.7,12.2 19.1,12.6 19.1,13.2 C19.1,13.8 18.7,14.2 18.1,14.2 L16,14.2 C15.4,14.2 15,13.8 15,13.2 C15,12.6 15.4,12.2 16,12.2 L18.1,12.2 Z M17.1,8.2 C17.5,8.6 17.5,9.2 17.1,9.6 L15.6,11.1 C15.4,11.3 15.1,11.4 14.9,11.4 C14.6,11.4 14.4,11.3 14.2,11.1 C13.8,10.7 13.8,10.1 14.2,9.7 L15.7,8.2 C16.1,7.8 16.7,7.8 17.1,8.2 Z M8.5,8.3 L10,9.7 C10.4,10.1 10.4,10.7 10,11.1 C9.8,11.3 9.6,11.4 9.3,11.4 C9,11.4 8.8,11.3 8.6,11.1 L7.1,9.7 C6.7,9.3 6.7,8.7 7.1,8.3 C7.5,7.9 8.1,7.9 8.5,8.3 Z M12.1,6.2 C12.7,6.2 13.1,6.6 13.1,7.2 L13.1,9.3 C13.1,9.8 12.6,10.3 12.1,10.3 C11.5,10.3 11.1,9.9 11.1,9.3 L11.1,7.2 C11.1,6.6 11.5,6.2 12.1,6.2 Z" id="path-1"></path>
    </defs>
    <g id="Icon/Service/restyling" stroke="none" stroke-width="1" fill="none" fill-rule="evenodd">
        <mask id="mask-2" fill="white">
            <use xlink:href="#path-1"></use>
        </mask>
        <use id="Combined-Shape" fill="#172B4E" fill-rule="nonzero" xlink:href="#path-1"></use>
        <g id="Color/Neutral/Darkest" mask="url(#mask-2)" fill="#172B4E" fill-rule="nonzero">
            <rect id="Rectangle" x="0" y="0" width="24" height="24"></rect>
        </g>
    </g>
</svg>