<?xml version="1.0" encoding="UTF-8"?>
<svg width="24px" height="24px" viewBox="0 0 24 24" version="1.1" xmlns="http://www.w3.org/2000/svg" xmlns:xlink="http://www.w3.org/1999/xlink">
    <!-- Generator: Sketch 61.2 (89653) - https://sketch.com -->
    <title>Icon/Service/restyling</title>
    <desc>Created with Sketch.</desc>
    <g id="Icon/Service/restyling" stroke="none" stroke-width="1" fill="none" fill-rule="evenodd">
        <g id="restyling">
            <rect id="Rectangle" x="0.1" y="0.1" width="23.8" height="23.8"></rect>
            <g id="Group" transform="translate(1.000000, 0.000000)" fill="#172B4E" fill-rule="nonzero">
                <path d="M18,23.4 L4.2,23.4 C2.3,23.4 0.8,21.9 0.8,20 L0.8,8.3 C0.8,8 0.9,7.7 1.2,7.5 L10.4,0.3 C10.8,7.21644966e-16 11.3,7.21644966e-16 11.6,0.3 L21,7.5 C21.2,7.7 21.4,8 21.4,8.3 L21.4,20 C21.4,21.9 19.9,23.4 18,23.4 Z M2.8,8.8 L2.8,20.1 C2.8,20.9 3.4,21.5 4.2,21.5 L18,21.5 C18.8,21.5 19.4,20.9 19.4,20.1 L19.4,8.8 L11,2.4 L2.8,8.8 Z" id="Shape"></path>
                <path d="M11.1,10.3 C10.5,10.3 10.1,9.9 10.1,9.3 L10.1,7.2 C10.1,6.6 10.5,6.2 11.1,6.2 C11.7,6.2 12.1,6.6 12.1,7.2 L12.1,9.3 C12.1,9.8 11.6,10.3 11.1,10.3 Z" id="Path"></path>
                <path d="M11.1,20.3 C10.5,20.3 10.1,19.9 10.1,19.3 L10.1,17.2 C10.1,16.6 10.5,16.2 11.1,16.2 C11.7,16.2 12.1,16.6 12.1,17.2 L12.1,19.3 C12.1,19.8 11.6,20.3 11.1,20.3 Z" id="Path"></path>
                <path d="M7.1,14.2 L5.1,14.2 C4.5,14.2 4.1,13.8 4.1,13.2 C4.1,12.6 4.5,12.2 5.1,12.2 L7.2,12.2 C7.8,12.2 8.2,12.6 8.2,13.2 C8.1,13.8 7.7,14.2 7.1,14.2 Z" id="Path"></path>
                <path d="M17.1,14.2 L15,14.2 C14.4,14.2 14,13.8 14,13.2 C14,12.6 14.4,12.2 15,12.2 L17.1,12.2 C17.7,12.2 18.1,12.6 18.1,13.2 C18.1,13.8 17.7,14.2 17.1,14.2 Z" id="Path"></path>
                <path d="M6.8,18.5 C6.5,18.5 6.3,18.4 6.1,18.2 C5.7,17.8 5.7,17.2 6.1,16.8 L7.6,15.3 C8,14.9 8.6,14.9 9,15.3 C9.4,15.7 9.4,16.3 9,16.7 L7.5,18.2 C7.3,18.4 7.1,18.5 6.8,18.5 Z" id="Path"></path>
                <path d="M13.9,11.4 C13.6,11.4 13.4,11.3 13.2,11.1 C12.8,10.7 12.8,10.1 13.2,9.7 L14.7,8.2 C15.1,7.8 15.7,7.8 16.1,8.2 C16.5,8.6 16.5,9.2 16.1,9.6 L14.6,11.1 C14.4,11.3 14.1,11.4 13.9,11.4 Z" id="Path"></path>
                <path d="M15.4,18.5 C15.1,18.5 14.9,18.4 14.7,18.2 L13.2,16.7 C12.8,16.3 12.8,15.7 13.2,15.3 C13.6,14.9 14.2,14.9 14.6,15.3 L16.1,16.8 C16.5,17.2 16.5,17.8 16.1,18.2 C15.9,18.4 15.6,18.5 15.4,18.5 Z" id="Path"></path>
                <path d="M8.3,11.4 C8,11.4 7.8,11.3 7.6,11.1 L6.1,9.7 C5.7,9.3 5.7,8.7 6.1,8.3 C6.5,7.9 7.1,7.9 7.5,8.3 L9,9.7 C9.4,10.1 9.4,10.7 9,11.1 C8.8,11.3 8.6,11.4 8.3,11.4 Z" id="Path"></path>
            </g>
        </g>
    </g>
</svg>