<svg width="18" height="18" viewBox="0 0 18 18" fill="none" xmlns="http://www.w3.org/2000/svg">
<path fill-rule="evenodd" clip-rule="evenodd" d="M4.5 6.75C5.74264 6.75 6.75 5.74264 6.75 4.5C6.75 3.25736 5.74264 2.25 4.5 2.25C3.25736 2.25 2.25 3.25736 2.25 4.5C2.25 5.74264 3.25736 6.75 4.5 6.75Z" stroke="#172B4E" stroke-width="1.5" stroke-linecap="round" stroke-linejoin="round"/>
<path fill-rule="evenodd" clip-rule="evenodd" d="M4.5 15.75C5.74264 15.75 6.75 14.7426 6.75 13.5C6.75 12.2574 5.74264 11.25 4.5 11.25C3.25736 11.25 2.25 12.2574 2.25 13.5C2.25 14.7426 3.25736 15.75 4.5 15.75Z" stroke="#172B4E" stroke-width="1.5" stroke-linecap="round" stroke-linejoin="round"/>
<path d="M14.9998 3L6.08984 11.91" stroke="#172B4E" stroke-width="1.5" stroke-linecap="round" stroke-linejoin="round"/>
<path d="M10.8525 10.8601L15 15.0001" stroke="#172B4E" stroke-width="1.5" stroke-linecap="round" stroke-linejoin="round"/>
<path d="M6.08984 6.09009L8.99984 9.00009" stroke="#172B4E" stroke-width="1.5" stroke-linecap="round" stroke-linejoin="round"/>
</svg>
