<svg width="18" height="18" viewBox="0 0 18 18" fill="none" xmlns="http://www.w3.org/2000/svg">
<path d="M4.45676 9.85142H13.4071L2.42314 15.1399L4.45676 9.85142ZM2.42314 2.85621L13.4071 8.14465H4.45676L2.42314 2.85621ZM17.7773 9.56127C17.8285 9.50324 17.8711 9.44009 17.9053 9.37011C17.9181 9.34451 17.93 9.32061 17.9394 9.29416C17.9753 9.20029 18 9.10215 18 8.99804C18 8.89392 17.9753 8.79664 17.9394 8.70191C17.93 8.67546 17.9181 8.65156 17.9053 8.62596C17.8711 8.55598 17.8285 8.49283 17.7773 8.4348C17.7619 8.41773 17.7508 8.39981 17.7337 8.38445C17.6706 8.32301 17.5989 8.26924 17.5161 8.22913L1.22327 0.384804C0.909227 0.232901 0.532884 0.288371 0.275161 0.525613C0.0182916 0.762854 -0.0687538 1.13322 0.056694 1.46007L2.9565 8.99804L0.056694 16.536C-0.0687538 16.8628 0.0182916 17.2324 0.275161 17.4705C0.436451 17.6189 0.643824 17.6958 0.853757 17.6958C0.979205 17.6958 1.10551 17.6684 1.22327 17.6121L17.5161 9.76694C17.5989 9.72683 17.6706 9.67392 17.7337 9.61247C17.7508 9.59626 17.7619 9.57834 17.7773 9.56127Z" fill="#172B4E"/>
</svg>
