<svg width="18" height="18" viewBox="0 0 18 18" fill="none" xmlns="http://www.w3.org/2000/svg">
<path fill-rule="evenodd" clip-rule="evenodd" d="M1.5 3.5C1.5 2.39543 2.39543 1.5 3.5 1.5H14.5C15.6046 1.5 16.5 2.39543 16.5 3.5V5.5C16.5 6.60457 15.6046 7.5 14.5 7.5H3.5C2.39543 7.5 1.5 6.60457 1.5 5.5V3.5Z" stroke="#172B4E" stroke-width="1.5" stroke-linecap="round" stroke-linejoin="round"/>
<path fill-rule="evenodd" clip-rule="evenodd" d="M1.5 12.5C1.5 11.3954 2.39543 10.5 3.5 10.5H14.5C15.6046 10.5 16.5 11.3954 16.5 12.5V14.5C16.5 15.6046 15.6046 16.5 14.5 16.5H3.5C2.39543 16.5 1.5 15.6046 1.5 14.5V12.5Z" stroke="#172B4E" stroke-width="1.5" stroke-linecap="round" stroke-linejoin="round"/>
<ellipse cx="4.5" cy="4.5" rx="0.75" ry="0.75" fill="#172B4E"/>
<ellipse cx="4.5" cy="13.5" rx="0.75" ry="0.750002" fill="#172B4E"/>
</svg>
