<?xml version="1.0" encoding="UTF-8"?>
<svg width="23px" height="24px" viewBox="0 0 23 24" version="1.1" xmlns="http://www.w3.org/2000/svg" xmlns:xlink="http://www.w3.org/1999/xlink">
    <!-- Generator: Sketch 57.1 (83088) - https://sketch.com -->
    <title>Icon/Service/shoebox</title>
    <desc>Created with Sketch.</desc>
    <defs>
        <path d="M13,21.1 L20.4,17.4 C20.7,17.2 21,16.9 21,16.5 L21,7.4 L13,11.4 L13,21.1 Z M11,21.2 L11,11.4 L3,7.4 L3,16.5 C3,16.9 3.2,17.2 3.5,17.4 L11,21.2 Z M19.8,5.8 L12.5,2.1 C12.2,2 11.9,2 11.6,2.1 L4.2,5.8 L12,9.6 L19.8,5.8 Z M13.3,0.3 L21.3,4.3 C22.4,4.8 23,5.9 23,7 L23,16.5 C23,17.6 22.4,18.7 21.3,19.2 L13.3,23.2 C12.5,23.6 11.5,23.6 10.6,23.2 L2.6,19.2 C1.6,18.7 0.9,17.6 0.9,16.5 L1,7 C1,5.9 1.6,4.8 2.7,4.3 L10.7,0.3 C11.5,-0.1 12.5,-0.1 13.3,0.3 Z" id="path-1"></path>
    </defs>
    <g id="Icon/Service/shoebox" stroke="none" stroke-width="1" fill="none" fill-rule="evenodd">
        <mask id="mask-2" fill="white">
            <use xlink:href="#path-1"></use>
        </mask>
        <use id="Shape" fill="#000000" fill-rule="nonzero" xlink:href="#path-1"></use>
        <g id="Color/Neutral/Darkest" mask="url(#mask-2)" fill="#172B4E" fill-rule="nonzero">
            <rect id="Rectangle" x="0" y="0" width="24" height="24"></rect>
        </g>
    </g>
</svg>