<svg width="18" height="18" viewBox="0 0 18 18" fill="none" xmlns="http://www.w3.org/2000/svg">
<path fill-rule="evenodd" clip-rule="evenodd" d="M7 17.25C7.82843 17.25 8.5 16.5784 8.5 15.75C8.5 14.9216 7.82843 14.25 7 14.25C6.17157 14.25 5.5 14.9216 5.5 15.75C5.5 16.5784 6.17157 17.25 7 17.25Z" stroke="#172B4E" stroke-width="1.5" stroke-linecap="round" stroke-linejoin="round"/>
<path fill-rule="evenodd" clip-rule="evenodd" d="M14 17.25C14.8284 17.25 15.5 16.5784 15.5 15.75C15.5 14.9216 14.8284 14.25 14 14.25C13.1716 14.25 12.5 14.9216 12.5 15.75C12.5 16.5784 13.1716 17.25 14 17.25Z" stroke="#172B4E" stroke-width="1.5" stroke-linecap="round" stroke-linejoin="round"/>
<path d="M4.2525 4.5H17.25L15.99 10.7925C15.8484 11.5052 15.2165 12.0139 14.49 12H6.5625C5.80461 12.0064 5.161 11.4465 5.0625 10.695L3.9225 2.055C3.82472 1.3092 3.18968 0.751139 2.4375 0.75H0.75" stroke="#172B4E" stroke-width="1.5" stroke-linecap="round" stroke-linejoin="round"/>
</svg>
