<svg width="18" height="18" viewBox="0 0 18 18" fill="none" xmlns="http://www.w3.org/2000/svg">
<path fill-rule="evenodd" clip-rule="evenodd" d="M5.49805 2.41674C5.49805 1.08201 6.58006 0 7.91479 0H15.5832C16.918 0 18 1.08201 18 2.41674V10.0852C18 11.4199 16.918 12.5019 15.5832 12.5019H7.91478C6.58006 12.5019 5.49805 11.4199 5.49805 10.0852V2.41674ZM7.91479 1.5C7.40848 1.5 6.99805 1.91044 6.99805 2.41674V10.0852C6.99805 10.4248 7.18274 10.7213 7.45717 10.8797L13.7517 4.58524C13.8689 4.46803 14.0278 4.40218 14.1936 4.40218C14.3594 4.40218 14.5183 4.46803 14.6355 4.58524L16.5 6.44968V2.41674C16.5 1.91044 16.0895 1.5 15.5832 1.5H7.91479ZM16.5 8.21744L14.1936 5.91107L9.10273 11.0019H15.5832C16.0895 11.0019 16.5 10.5915 16.5 10.0852V8.21744ZM8.06715 4.11045C8.06715 3.25892 8.75745 2.56862 9.60898 2.56862C10.4605 2.56862 11.1508 3.25892 11.1508 4.11045C11.1508 4.96198 10.4605 5.65228 9.60898 5.65228C8.75745 5.65228 8.06715 4.96198 8.06715 4.11045ZM9.60898 3.81862C9.44781 3.81862 9.31715 3.94927 9.31715 4.11045C9.31715 4.27162 9.44781 4.40228 9.60898 4.40228C9.77015 4.40228 9.90081 4.27162 9.90081 4.11045C9.90081 3.94927 9.77015 3.81862 9.60898 3.81862Z" fill="#172B4E"/>
<path d="M11.75 15.0093V15.25C11.75 16.3546 10.8546 17.25 9.75 17.25H2.75C1.64543 17.25 0.75 16.3546 0.75 15.25V8.25C0.75 7.14543 1.64543 6.25 2.75 6.25H2.99074" stroke="#172B4E" stroke-width="1.5" stroke-linecap="round" stroke-linejoin="round"/>
</svg>
