<svg width="18" height="18" viewBox="0 0 18 18" fill="none" xmlns="http://www.w3.org/2000/svg">
<path fill-rule="evenodd" clip-rule="evenodd" d="M0 7.91674C0 6.58201 1.08201 5.5 2.41674 5.5H10.0852C11.4199 5.5 12.5019 6.58201 12.5019 7.91674V15.5852C12.5019 16.9199 11.4199 18.0019 10.0852 18.0019H2.41674C1.08201 18.0019 0 16.9199 0 15.5852V7.91674ZM2.41674 7C1.91044 7 1.5 7.41044 1.5 7.91674V15.5852C1.5 15.9248 1.68469 16.2213 1.95913 16.3797L8.25362 10.0852C8.37083 9.96803 8.5298 9.90218 8.69556 9.90218C8.86132 9.90218 9.02029 9.96803 9.1375 10.0852L11.0019 11.9497V7.91674C11.0019 7.41044 10.5915 7 10.0852 7H2.41674ZM11.0019 13.7174L8.69556 11.4111L3.60469 16.5019H10.0852C10.5915 16.5019 11.0019 16.0915 11.0019 15.5852V13.7174ZM2.56911 9.61045C2.56911 8.75892 3.25941 8.06862 4.11093 8.06862C4.96246 8.06862 5.65276 8.75892 5.65276 9.61045C5.65276 10.462 4.96246 11.1523 4.11093 11.1523C3.25941 11.1523 2.56911 10.462 2.56911 9.61045ZM4.11093 9.31862C3.94976 9.31862 3.81911 9.44927 3.81911 9.61045C3.81911 9.77162 3.94976 9.90228 4.11093 9.90228C4.27211 9.90228 4.40276 9.77162 4.40276 9.61045C4.40276 9.44927 4.27211 9.31862 4.11093 9.31862Z" fill="#172B4E"/>
<path d="M6.25 2.99074V2.75C6.25 1.64543 7.14543 0.75 8.25 0.75H15.25C16.3546 0.75 17.25 1.64543 17.25 2.75V9.75C17.25 10.8546 16.3546 11.75 15.25 11.75H15.0093" stroke="#172B4E" stroke-width="1.5" stroke-linecap="round" stroke-linejoin="round"/>
</svg>
