<svg width="18" height="18" viewBox="0 0 18 18" fill="none" xmlns="http://www.w3.org/2000/svg">
<path fill-rule="evenodd" clip-rule="evenodd" d="M3 3.5C3 2.39543 3.89543 1.5 5 1.5H13C14.1046 1.5 15 2.39543 15 3.5V14.5C15 15.6046 14.1046 16.5 13 16.5H5C3.89543 16.5 3 15.6046 3 14.5V3.5Z" stroke="#172B4E" stroke-width="1.5" stroke-linecap="round" stroke-linejoin="round"/>
<path fill-rule="evenodd" clip-rule="evenodd" d="M9 13.5C10.6569 13.5 12 12.1569 12 10.5C12 8.84315 10.6569 7.5 9 7.5C7.34315 7.5 6 8.84315 6 10.5C6 12.1569 7.34315 13.5 9 13.5Z" stroke="#172B4E" stroke-width="1.5" stroke-linecap="round" stroke-linejoin="round"/>
<ellipse cx="9" cy="4.5" rx="0.749999" ry="0.75" fill="#172B4E"/>
</svg>
