<svg width="18" height="18" viewBox="0 0 18 18" fill="none" xmlns="http://www.w3.org/2000/svg">
<path d="M12.7172 9.5C12.739 9.33643 12.7502 9.16953 12.7502 9C12.7502 6.92893 11.0713 5.25 9.00021 5.25C8.03967 5.25 7.16347 5.61114 6.5 6.20506" stroke="#172B4E" stroke-width="1.5" stroke-linecap="round" stroke-linejoin="round"/>
<path d="M11.2506 12C10.6238 12.4709 9.84459 12.75 9.00023 12.75C7.98787 12.75 7.06921 12.3488 6.39453 11.6968" stroke="#172B4E" stroke-width="1.5" stroke-linecap="round" stroke-linejoin="round"/>
<path d="M9 0.75V2.25" stroke="#172B4E" stroke-width="1.5" stroke-linecap="round" stroke-linejoin="round"/>
<path d="M9 15.75V17.25" stroke="#172B4E" stroke-width="1.5" stroke-linecap="round" stroke-linejoin="round"/>
<path d="M3.16504 3.16504L4.23004 4.23004" stroke="#172B4E" stroke-width="1.5" stroke-linecap="round" stroke-linejoin="round"/>
<path d="M13.77 13.77L14.835 14.835" stroke="#172B4E" stroke-width="1.5" stroke-linecap="round" stroke-linejoin="round"/>
<path d="M3.16504 14.835L4.23004 13.77" stroke="#172B4E" stroke-width="1.5" stroke-linecap="round" stroke-linejoin="round"/>
<path d="M13.77 4.23004L14.835 3.16504" stroke="#172B4E" stroke-width="1.5" stroke-linecap="round" stroke-linejoin="round"/>
<path d="M14.814 7.5C16.3069 7.97565 17.2498 8.60984 17.2498 9.40259C17.2498 10.8295 13.7925 11.9394 9.54955 11.9394C7.34948 11.9394 5.778 11.543 4.44224 10.9088C3.18505 10.3539 2.79218 9.79896 1.2207 8.4513" stroke="#172B4E" stroke-width="1.5" stroke-miterlimit="10" stroke-linecap="round" stroke-linejoin="round"/>
<path d="M0.75 12.8118V7.97607H5.54302" stroke="#172B4E" stroke-width="1.5" stroke-miterlimit="10" stroke-linecap="round" stroke-linejoin="round"/>
</svg>
