<?xml version="1.0" encoding="UTF-8"?>
<svg width="24px" height="24px" viewBox="0 0 24 24" version="1.1" xmlns="http://www.w3.org/2000/svg" xmlns:xlink="http://www.w3.org/1999/xlink">
    <!-- Generator: Sketch 61.2 (89653) - https://sketch.com -->
    <title>Icon/Feather/surface</title>
    <desc>Created with Sketch.</desc>
    <defs>
        <path d="M18.9280109,2.0002 C20.8152665,2.0002 22.3489,3.53478663 22.3489,5.42108908 L22.3489,5.42108908 L22.3489,18.9283109 C22.3489,20.8146134 20.8152665,22.3492 18.9280109,22.3492 L18.9280109,22.3492 L5.42078908,22.3492 C3.53448663,22.3492 1.9999,20.8146134 1.9999,18.9283109 L1.9999,18.9283109 L1.9999,5.42108908 C1.9999,3.53478663 3.53448663,2.0002 5.42078908,2.0002 L5.42078908,2.0002 Z M18.9280109,3.94273885 L5.42078908,3.94273885 C4.60488464,3.94273885 3.94339201,4.6061378 3.94339201,5.42108908 L3.94339201,5.42108908 L3.94339201,18.9283109 C3.94339201,19.742309 4.60488464,20.4066611 5.42078908,20.4066611 L5.42078908,20.4066611 L18.9280109,20.4066611 C19.7439154,20.4066611 20.4063611,19.742309 20.4063611,18.9283109 L20.4063611,18.9283109 L20.4063611,5.42108908 C20.4063611,4.6061378 19.7439154,3.94273885 18.9280109,3.94273885 L18.9280109,3.94273885 Z M11.4088224,5.84305275 C11.9454511,5.84305275 12.3800918,6.27769343 12.3800918,6.81432217 C12.3800918,7.35095092 11.9454511,7.7855916 11.4088224,7.7855916 L11.4088224,7.7855916 L9.15841303,7.7855916 L16.5625552,15.1897338 L16.5625552,12.9402776 C16.5625552,12.404602 16.9991022,11.9690082 17.5347778,11.9690082 C18.0704534,11.9690082 18.5060473,12.404602 18.5060473,12.9402776 L18.5060473,12.9402776 L18.5060473,17.5345059 C18.5060473,18.0711347 18.0704534,18.5057754 17.5347778,18.5057754 L17.5347778,18.5057754 L12.9405495,18.5057754 C12.4039208,18.5057754 11.9692801,18.0711347 11.9692801,17.5345059 C11.9692801,16.9978772 12.4039208,16.5632365 12.9405495,16.5632365 L12.9405495,16.5632365 L15.1900057,16.5632365 L7.78491034,9.15909429 L7.78491034,11.4095036 C7.78491034,11.9461324 7.35026965,12.3807731 6.81459407,12.3807731 C6.27796533,12.3807731 5.84332464,11.9461324 5.84332464,11.4095036 L5.84332464,11.4095036 L5.84332464,6.81432217 C5.84332464,6.27769343 6.27796533,5.84305275 6.81459407,5.84305275 L6.81459407,5.84305275 Z" id="path-1"></path>
    </defs>
    <g id="Icon/Feather/surface" stroke="none" stroke-width="1" fill="none" fill-rule="evenodd">
        <mask id="mask-2" fill="white">
            <use xlink:href="#path-1"></use>
        </mask>
        <use id="Combined-Shape" fill="#1A2C4D" xlink:href="#path-1"></use>
        <g id="Color/Neutral/Darkest" mask="url(#mask-2)" fill="#172B4E" fill-rule="nonzero">
            <rect id="Rectangle" x="0" y="0" width="24" height="24"></rect>
        </g>
    </g>
</svg>