<svg width="18" height="18" viewBox="0 0 18 18" fill="none" xmlns="http://www.w3.org/2000/svg">
<path d="M10.5 6.75H9.75C9.75 7.16421 10.0858 7.5 10.5 7.5V6.75ZM10.5 3.75H11.25H10.5ZM8.25 1.5V0.75C7.95361 0.75 7.68502 0.92455 7.56464 1.1954L8.25 1.5ZM5.25 8.25L4.56464 7.94539C4.52202 8.04129 4.5 8.14506 4.5 8.25H5.25ZM5.25 16.5H4.5C4.5 16.9142 4.83578 17.25 5.25 17.25V16.5ZM13.71 16.5L13.7185 15.75H13.71V16.5ZM15.21 15.225L14.4687 15.1113L14.4685 15.1125L15.21 15.225ZM16.245 8.475L16.9863 8.58867L16.9865 8.58755L16.245 8.475ZM14.745 6.75V7.50005L14.7535 7.49995L14.745 6.75ZM5.25 16.5V17.25C5.66421 17.25 6 16.9142 6 16.5H5.25ZM5.25 8.25H6C6 7.83579 5.66421 7.5 5.25 7.5V8.25ZM11.25 6.75V3.75H9.75V6.75H11.25ZM11.25 3.75C11.25 2.09315 9.90685 0.75 8.25 0.75V2.25C9.07843 2.25 9.75 2.92157 9.75 3.75L11.25 3.75ZM7.56464 1.1954L4.56464 7.94539L5.93536 8.5546L8.93536 1.8046L7.56464 1.1954ZM4.5 8.25V16.5H6V8.25H4.5ZM5.25 17.25H13.71V15.75H5.25V17.25ZM13.7015 17.2499C14.8235 17.2626 15.7833 16.4468 15.9515 15.3374L14.4685 15.1125C14.4124 15.4823 14.0925 15.7543 13.7185 15.75L13.7015 17.2499ZM15.9513 15.3387L16.9863 8.58867L15.5037 8.36133L14.4687 15.1113L15.9513 15.3387ZM16.9865 8.58755C17.0856 7.93488 16.893 7.27164 16.4598 6.7735L15.3279 7.75777C15.4723 7.92382 15.5365 8.1449 15.5035 8.36245L16.9865 8.58755ZM16.4598 6.7735C16.0267 6.27536 15.3966 5.99257 14.7365 6.00005L14.7535 7.49995C14.9735 7.49746 15.1836 7.59172 15.3279 7.75777L16.4598 6.7735ZM14.745 6H10.5V7.5H14.745V6ZM5.25 15.75H3V17.25H5.25V15.75ZM3 15.75C2.58579 15.75 2.25 15.4142 2.25 15H0.75C0.75 16.2426 1.75736 17.25 3 17.25V15.75ZM2.25 15V9.75H0.75V15H2.25ZM2.25 9.75C2.25 9.33579 2.58579 9 3 9V7.5C1.75736 7.5 0.75 8.50736 0.75 9.75H2.25ZM3 9H5.25V7.5H3V9ZM4.5 8.25V16.5H6V8.25H4.5Z" fill="#172B4E"/>
</svg>
