<svg width="18" height="18" viewBox="0 0 18 18" fill="none" xmlns="http://www.w3.org/2000/svg">
<path d="M7.49979 11.2501H8.24979C8.24979 10.8359 7.914 10.5001 7.49979 10.5001V11.2501ZM9.74979 16.5001V17.2501C10.0462 17.2501 10.3148 17.0755 10.4351 16.8047L9.74979 16.5001ZM12.7498 9.75009L13.4351 10.0547C13.4778 9.9588 13.4998 9.85503 13.4998 9.75009H12.7498ZM12.7498 1.50009H13.4998C13.4998 1.08588 13.164 0.75009 12.7498 0.75009V1.50009ZM4.28979 1.50009L4.28131 2.25009H4.28979V1.50009ZM2.78979 2.77509L3.53113 2.88876L3.53131 2.88754L2.78979 2.77509ZM1.75479 9.52509L1.01345 9.41142L1.01328 9.41254L1.75479 9.52509ZM3.25479 11.2501V10.5L3.2463 10.5001L3.25479 11.2501ZM12.7498 1.50003V0.750031C12.3356 0.750031 11.9998 1.08582 11.9998 1.50003H12.7498ZM14.7523 1.50003V2.25015L14.7655 2.24991L14.7523 1.50003ZM16.4998 3.00003H17.2498C17.2498 2.96641 17.2475 2.93282 17.243 2.8995L16.4998 3.00003ZM16.4998 8.25003L17.243 8.35056C17.2475 8.31724 17.2498 8.28366 17.2498 8.25003H16.4998ZM14.7523 9.75003L14.7655 9.00003H14.7523V9.75003ZM12.7498 9.75003H11.9998C11.9998 10.1642 12.3356 10.5 12.7498 10.5V9.75003ZM6.74979 11.2501V14.2501H8.24979V11.2501H6.74979ZM6.74979 14.2501C6.74979 15.9069 8.09293 17.2501 9.74979 17.2501V15.7501C8.92136 15.7501 8.24979 15.0785 8.24979 14.2501H6.74979ZM10.4351 16.8047L13.4351 10.0547L12.0644 9.44549L9.06443 16.1955L10.4351 16.8047ZM13.4998 9.75009V1.50009H11.9998V9.75009H13.4998ZM12.7498 0.75009H4.28979V2.25009H12.7498V0.75009ZM4.29827 0.750138C3.17632 0.737454 2.2165 1.5533 2.04827 2.66264L3.53131 2.88754C3.58739 2.51776 3.90733 2.24581 4.28131 2.25004L4.29827 0.750138ZM2.04845 2.66142L1.01345 9.41142L2.49613 9.63876L3.53113 2.88876L2.04845 2.66142ZM1.01328 9.41254C0.914219 10.0652 1.10677 10.7284 1.53994 11.2266L2.67185 10.2423C2.52746 10.0763 2.46328 9.85519 2.4963 9.63764L1.01328 9.41254ZM1.53994 11.2266C1.97311 11.7247 2.60319 12.0075 3.26328 12L3.2463 10.5001C3.02626 10.5026 2.81624 10.4084 2.67185 10.2423L1.53994 11.2266ZM3.25479 12.0001H7.49979V10.5001H3.25479V12.0001ZM12.7498 2.25003H14.7523V0.750031H12.7498V2.25003ZM14.7655 2.24991C15.2638 2.2411 15.6898 2.60672 15.7566 3.10056L17.243 2.8995C17.0742 1.65169 15.998 0.727883 14.739 0.750148L14.7655 2.24991ZM15.7498 3.00003V8.25003H17.2498V3.00003H15.7498ZM15.7566 8.1495C15.6898 8.64334 15.2638 9.00896 14.7655 9.00015L14.739 10.4999C15.998 10.5222 17.0742 9.59837 17.243 8.35056L15.7566 8.1495ZM14.7523 9.00003H12.7498V10.5H14.7523V9.00003ZM13.4998 9.75003V1.50003H11.9998V9.75003H13.4998Z" fill="#172B4E"/>
</svg>
