<svg width="18" height="18" viewBox="0 0 18 18" fill="none" xmlns="http://www.w3.org/2000/svg">
<path fill-rule="evenodd" clip-rule="evenodd" d="M9.66754 1.08749L15.6675 4.08749C16.1773 4.34079 16.4997 4.86078 16.5 5.42999V12.5775C16.4997 13.1467 16.1773 13.6667 15.6675 13.92L9.66754 16.92C9.24501 17.1314 8.74756 17.1314 8.32504 16.92L2.32504 13.92C1.81578 13.6634 1.49607 13.1402 1.50004 12.57V5.42999C1.50034 4.86078 1.82279 4.34079 2.33254 4.08749L8.33254 1.08749C8.75301 0.878551 9.24706 0.878551 9.66754 1.08749Z" stroke="#172B4E" stroke-width="1.5" stroke-linecap="round" stroke-linejoin="round"/>
<path d="M1.74023 4.62L4.00047 5.75011M16.2602 4.62L14 5.75011" stroke="#172B4E" stroke-width="1.5" stroke-linecap="round" stroke-linejoin="round"/>
<path d="M9 17.07L9 15" stroke="#172B4E" stroke-width="1.5" stroke-linecap="round" stroke-linejoin="round"/>
<path d="M3.43701 7.91614L4.49356 10.1819L6.75933 9.12536" stroke="#172B4E" stroke-width="1.5" stroke-linecap="round" stroke-linejoin="round"/>
<path d="M14.5621 10.0841L13.5055 7.81833L11.2397 8.87488" stroke="#172B4E" stroke-width="1.5" stroke-linecap="round" stroke-linejoin="round"/>
<path d="M11.1423 6.8978C11.4326 7.1933 11.9074 7.19755 12.2029 6.90729C12.4984 6.61703 12.5027 6.14218 12.2124 5.84667L11.1423 6.8978ZM8.20637 5.33544L8.04723 4.60252L8.04723 4.60252L8.20637 5.33544ZM5.47792 7.71835L6.17437 7.99666C6.17728 7.98938 6.18007 7.98206 6.18275 7.97469L5.47792 7.71835ZM3.79703 9.90357C3.64332 10.2882 3.83053 10.7246 4.21517 10.8783C4.59981 11.032 5.03623 10.8448 5.18993 10.4602L3.79703 9.90357ZM14.2022 8.09664C14.3559 7.712 14.1687 7.27559 13.784 7.12188C13.3994 6.96818 12.963 7.15539 12.8093 7.54003L14.2022 8.09664ZM12.5213 10.2819L11.8248 10.0036C11.8219 10.0108 11.8191 10.0182 11.8165 10.0255L12.5213 10.2819ZM6.85691 11.1024C6.56665 10.8069 6.09179 10.8027 5.79629 11.0929C5.50079 11.3832 5.49654 11.858 5.7868 12.1535L6.85691 11.1024ZM12.2124 5.84667C11.1297 4.74438 9.55715 4.27466 8.04723 4.60252L8.36551 6.06836C9.37213 5.84979 10.4205 6.16294 11.1423 6.8978L12.2124 5.84667ZM8.04723 4.60252C6.53731 4.93038 5.30118 6.00996 4.77308 7.46202L6.18275 7.97469C6.53481 7.00666 7.3589 6.28693 8.36551 6.06836L8.04723 4.60252ZM4.78147 7.44005L3.79703 9.90357L5.18993 10.4602L6.17437 7.99666L4.78147 7.44005ZM12.8093 7.54003L11.8248 10.0036L13.2177 10.5602L14.2022 8.09664L12.8093 7.54003ZM11.8165 10.0255C11.4644 10.9936 10.6403 11.7133 9.6337 11.9319L9.95199 13.3977C11.4619 13.0698 12.698 11.9903 13.2261 10.5382L11.8165 10.0255ZM9.6337 11.9319C8.62709 12.1504 7.57873 11.8373 6.85691 11.1024L5.7868 12.1535C6.86953 13.2558 8.44207 13.7255 9.95199 13.3977L9.6337 11.9319Z" fill="#172B4E"/>
</svg>
