<svg width="18" height="18" viewBox="0 0 18 18" fill="none" xmlns="http://www.w3.org/2000/svg">
<path d="M2.25 4.5H3.75H15.75" stroke="#172B4E" stroke-width="1.5" stroke-linecap="round" stroke-linejoin="round"/>
<path d="M15 4.5C15 4.08579 14.6642 3.75 14.25 3.75C13.8358 3.75 13.5 4.08579 13.5 4.5H15ZM4.5 4.5C4.5 4.08579 4.16421 3.75 3.75 3.75C3.33579 3.75 3 4.08579 3 4.5H4.5ZM5.25 4.5C5.25 4.91421 5.58579 5.25 6 5.25C6.41422 5.25 6.75 4.91421 6.75 4.5H5.25ZM11.25 4.5C11.25 4.91421 11.5858 5.25 12 5.25C12.4142 5.25 12.75 4.91421 12.75 4.5H11.25ZM13.5 4.5V15H15V4.5H13.5ZM13.5 15C13.5 15.4142 13.1642 15.75 12.75 15.75V17.25C13.9926 17.25 15 16.2426 15 15H13.5ZM12.75 15.75H5.25V17.25H12.75V15.75ZM5.25 15.75C4.83579 15.75 4.5 15.4142 4.5 15H3C3 16.2426 4.00736 17.25 5.25 17.25V15.75ZM4.5 15V4.5H3V15H4.5ZM6.75 4.5V3H5.25V4.5H6.75ZM6.75 3C6.75 2.58579 7.08579 2.25 7.5 2.25V0.75C6.25736 0.75 5.25 1.75736 5.25 3H6.75ZM7.5 2.25H10.5V0.75H7.5V2.25ZM10.5 2.25C10.9142 2.25 11.25 2.58579 11.25 3H12.75C12.75 1.75736 11.7426 0.75 10.5 0.75V2.25ZM11.25 3V4.5H12.75V3H11.25Z" fill="#172B4E"/>
<path d="M7.5 8.25V12.75" stroke="#172B4E" stroke-width="1.5" stroke-linecap="round" stroke-linejoin="round"/>
<path d="M10.5 8.25V12.75" stroke="#172B4E" stroke-width="1.5" stroke-linecap="round" stroke-linejoin="round"/>
</svg>
