<svg width="18" height="18" viewBox="0 0 18 18" fill="none" xmlns="http://www.w3.org/2000/svg">
<path d="M17.25 9V9.75C17.4613 9.75 17.6628 9.66086 17.805 9.5045C17.9471 9.34815 18.0167 9.13908 17.9966 8.92873L17.25 9ZM0.75 9L0.00339367 8.92873C-0.0166854 9.13908 0.0529033 9.34815 0.195045 9.5045C0.337187 9.66086 0.538691 9.75 0.75 9.75L0.75 9ZM14.25 14.25C14.25 13.8358 13.9142 13.5 13.5 13.5C13.0858 13.5 12.75 13.8358 12.75 14.25H14.25ZM9.75 9C9.75 8.58579 9.41421 8.25 9 8.25C8.58578 8.25 8.25 8.58579 8.25 9H9.75ZM17.9966 8.92873C17.5539 4.2912 13.6586 0.75 9 0.75V2.25C12.8854 2.25 16.1342 5.20345 16.5034 9.07127L17.9966 8.92873ZM9 0.75C4.34139 0.75 0.446067 4.2912 0.00339367 8.92873L1.49661 9.07127C1.86581 5.20345 5.1146 2.25 9 2.25V0.75ZM0.75 9.75H17.25V8.25H0.75V9.75ZM12.75 14.25C12.75 15.0784 12.0784 15.75 11.25 15.75V17.25C12.9069 17.25 14.25 15.9069 14.25 14.25H12.75ZM11.25 15.75C10.4216 15.75 9.75 15.0784 9.75 14.25H8.25C8.25 15.9069 9.59314 17.25 11.25 17.25V15.75ZM9.75 14.25V9H8.25V14.25H9.75Z" fill="#172B4E"/>
</svg>
