<svg width="18" height="18" viewBox="0 0 18 18" fill="none" xmlns="http://www.w3.org/2000/svg">
<path d="M12 13.75V13C12 12.1716 11.3284 11.5 10.5 11.5H7.5C6.67157 11.5 6 12.1716 6 13V13.75" stroke="#172B4E" stroke-width="1.5" stroke-linecap="round" stroke-linejoin="round"/>
<path fill-rule="evenodd" clip-rule="evenodd" d="M9 9.5C9.82843 9.5 10.5 8.82843 10.5 8C10.5 7.17157 9.82843 6.5 9 6.5C8.17157 6.5 7.5 7.17157 7.5 8C7.5 8.82843 8.17157 9.5 9 9.5Z" stroke="#172B4E" stroke-width="1.5" stroke-linecap="round" stroke-linejoin="round"/>
<path d="M6 2L2.81151 2C2.20773 2 1.70459 2.48571 1.70459 3.06857L1.70459 16.1543C1.70459 16.7372 2.20773 17.2229 2.81151 17.2229H15.1889C15.7926 17.2229 16.1952 16.7372 16.2958 16.1543V3.06857C16.2958 2.48571 15.7926 2 15.1889 2L12 2" stroke="#172B4E" stroke-width="1.5" stroke-miterlimit="10" stroke-linecap="round" stroke-linejoin="round"/>
<path d="M11.5448 3.75H6.45517C6.2069 3.75 6 3.65625 6 3.54375V0.95625C6 0.84375 6.2069 0.75 6.45517 0.75H11.5448C11.7931 0.75 12 0.84375 12 0.95625V3.54375C11.9586 3.65625 11.7931 3.75 11.5448 3.75Z" stroke="#172B4E" stroke-width="1.5" stroke-miterlimit="10" stroke-linecap="round" stroke-linejoin="round"/>
</svg>
