<?xml version="1.0" encoding="UTF-8"?>
<svg width="22px" height="22px" viewBox="0 0 22 22" version="1.1" xmlns="http://www.w3.org/2000/svg" xmlns:xlink="http://www.w3.org/1999/xlink">
    <!-- Generator: Sketch 57.1 (83088) - https://sketch.com -->
    <title>Icon/Service/video-animation</title>
    <desc>Created with Sketch.</desc>
    <defs>
        <path d="M11,22 C5,22 0,17.1 0,11 C0,4.9 5,0 11,0 C17,0 22,5 22,11 C22,17 17.1,22 11,22 Z M11,20 C16,20 20,16 20,11 C20,6 16,2 11,2 C6,2 2,6 2,11 C2,16 6.1,20 11,20 Z M9.6,6.2 L15.6,10.2 C16.2,10.6 16.2,11.5 15.6,11.9 L9.6,15.9 C8.9,16.3 8,15.8 8,15 L8,7 C8,6.2 8.9,5.8 9.6,6.2 Z M10,8.9 L10,13.2 L13.2,11.1 L10,8.9 Z" id="path-1"></path>
    </defs>
    <g id="Icon/Service/video-animation" stroke="none" stroke-width="1" fill="none" fill-rule="evenodd">
        <mask id="mask-2" fill="white">
            <use xlink:href="#path-1"></use>
        </mask>
        <use id="Shape" fill="#000000" fill-rule="nonzero" xlink:href="#path-1"></use>
        <g id="Color/Neutral/Darkest" mask="url(#mask-2)" fill="#172B4E" fill-rule="nonzero">
            <rect id="Rectangle" x="0" y="0" width="24" height="24"></rect>
        </g>
    </g>
</svg>