<svg width="18" height="18" viewBox="0 0 18 18" fill="none" xmlns="http://www.w3.org/2000/svg">
<path d="M12.75 12C12.75 11.5858 12.4142 11.25 12 11.25C11.5858 11.25 11.25 11.5858 11.25 12H12.75ZM0.75 12.75H0H0.75ZM3.75 4.5C4.16421 4.5 4.5 4.16421 4.5 3.75C4.5 3.33579 4.16421 3 3.75 3V4.5ZM7.99501 3C7.5808 3 7.24501 3.33579 7.24501 3.75C7.24501 4.16421 7.5808 4.5 7.99501 4.5V3ZM12 7.755H11.25C11.25 7.95391 11.329 8.14468 11.4697 8.28533L12 7.755ZM12.75 8.505L12.2197 9.03533C12.4801 9.29577 12.8911 9.32856 13.1896 9.11269L12.75 8.505ZM17.25 5.25H18C18 4.96826 17.8421 4.71028 17.5912 4.5821C17.3403 4.45393 17.0387 4.47719 16.8104 4.64231L17.25 5.25ZM16.5 12.75C16.5 13.1642 16.8358 13.5 17.25 13.5C17.6642 13.5 18 13.1642 18 12.75H16.5ZM11.25 12V12.75H12.75V12H11.25ZM11.25 12.75C11.25 13.1642 10.9142 13.5 10.5 13.5V15C11.7426 15 12.75 13.9926 12.75 12.75H11.25ZM10.5 13.5H2.25V15H10.5V13.5ZM2.25 13.5C1.83579 13.5 1.5 13.1642 1.5 12.75H0C0 13.9926 1.00736 15 2.25 15V13.5ZM1.5 12.75V5.25H0V12.75H1.5ZM1.5 5.25C1.5 4.83579 1.83579 4.5 2.25 4.5V3C1.00736 3 0 4.00736 0 5.25H1.5ZM2.25 4.5H3.75V3H2.25V4.5ZM7.99501 4.5H10.5V3H7.99501V4.5ZM10.5 4.5C10.9142 4.5 11.25 4.83579 11.25 5.25H12.75C12.75 4.00736 11.7427 3 10.5 3V4.5ZM11.25 5.25V7.755H12.75V5.25H11.25ZM11.4697 8.28533L12.2197 9.03533L13.2803 7.97467L12.5303 7.22467L11.4697 8.28533ZM13.1896 9.11269L17.6896 5.85769L16.8104 4.64231L12.3104 7.89731L13.1896 9.11269ZM16.5 5.25V12.75H18V5.25H16.5Z" fill="#172B4E"/>
<path d="M0.75 0.75L17.25 17.25" stroke="#172B4E" stroke-width="1.5" stroke-linecap="round" stroke-linejoin="round"/>
</svg>
