<svg width="18" height="18" viewBox="0 0 18 18" fill="none" xmlns="http://www.w3.org/2000/svg">
<path fill-rule="evenodd" clip-rule="evenodd" d="M0.75 2.25C0.75 1.42157 1.42157 0.75 2.25 0.75H15.75C16.5784 0.75 17.25 1.42157 17.25 2.25V2.25C17.25 3.07843 16.5784 3.75 15.75 3.75H2.25C1.42157 3.75 0.75 3.07843 0.75 2.25V2.25Z" stroke="#172B4E" stroke-width="1.5" stroke-linecap="round" stroke-linejoin="round"/>
<path fill-rule="evenodd" clip-rule="evenodd" d="M6.375 11.25C6.99632 11.25 7.5 10.7463 7.5 10.125C7.5 9.50368 6.99632 9 6.375 9C5.75368 9 5.25 9.50368 5.25 10.125C5.25 10.7463 5.75368 11.25 6.375 11.25Z" stroke="#172B4E" stroke-width="1.5" stroke-linecap="round" stroke-linejoin="round"/>
<path d="M15.75 15L12 11.25L6.25 17" stroke="#172B4E" stroke-width="1.5" stroke-linecap="round" stroke-linejoin="round"/>
<path d="M2.5 4C2.5 3.58579 2.16421 3.25 1.75 3.25C1.33579 3.25 1 3.58579 1 4H2.5ZM17 4C17 3.58579 16.6642 3.25 16.25 3.25C15.8358 3.25 15.5 3.58579 15.5 4H17ZM0.75 16.5C0.335786 16.5 0 16.8358 0 17.25C0 17.6642 0.335786 18 0.75 18V16.5ZM17.25 18C17.6642 18 18 17.6642 18 17.25C18 16.8358 17.6642 16.5 17.25 16.5V18ZM2.5 17.25V4H1V17.25H2.5ZM1.75 18H16.25V16.5H1.75V18ZM17 17.25V4H15.5V17.25H17ZM1.75 16.5H0.75V18H1.75V16.5ZM16.25 18H17.25V16.5H16.25V18Z" fill="#172B4E"/>
<path d="M2 6.5H16" stroke="#172B4E" stroke-width="1.5"/>
</svg>
