<svg width="18" height="18" viewBox="0 0 18 18" fill="none" xmlns="http://www.w3.org/2000/svg">
<path d="M0.75 3V7.5H5.25" stroke="#172B4E" stroke-width="1.5" stroke-linecap="round" stroke-linejoin="round"/>
<path d="M17.25 15V10.5H12.75" stroke="#172B4E" stroke-width="1.5" stroke-linecap="round" stroke-linejoin="round"/>
<path d="M14.6605 7.00026C14.7986 7.39075 15.2272 7.59528 15.6177 7.4571C16.0082 7.31892 16.2127 6.89035 16.0745 6.49987L14.6605 7.00026ZM4.23 4.23006L4.74358 4.77663C4.74929 4.77126 4.75492 4.7658 4.76046 4.76026L4.23 4.23006ZM0.236418 6.9535C-0.0654418 7.23714 -0.0802085 7.71179 0.203435 8.01364C0.487079 8.3155 0.961723 8.33027 1.26358 8.04663L0.236418 6.9535ZM17.7636 11.0466C18.0654 10.763 18.0802 10.2883 17.7966 9.98649C17.5129 9.68463 17.0383 9.66986 16.7364 9.95351L17.7636 11.0466ZM13.77 13.7701L13.2564 13.2235C13.2507 13.2289 13.2451 13.2343 13.2395 13.2399L13.77 13.7701ZM3.33954 10.9999C3.20136 10.6094 2.77279 10.4049 2.38231 10.543C1.99182 10.6812 1.78729 11.1098 1.92547 11.5003L3.33954 10.9999ZM16.0745 6.49987C15.2155 4.07221 13.171 2.25505 10.6593 1.68675L10.3283 3.14977C12.3376 3.6044 13.9732 5.05813 14.6605 7.00026L16.0745 6.49987ZM10.6593 1.68675C8.14761 1.11845 5.52 1.87849 3.69954 3.69986L4.76046 4.76026C6.21684 3.30316 8.31892 2.69513 10.3283 3.14977L10.6593 1.68675ZM3.71642 3.6835L0.236418 6.9535L1.26358 8.04663L4.74358 4.77663L3.71642 3.6835ZM16.7364 9.95351L13.2564 13.2235L14.2836 14.3166L17.7636 11.0466L16.7364 9.95351ZM13.2395 13.2399C11.7832 14.697 9.68108 15.305 7.67173 14.8504L7.34071 16.3134C9.85239 16.8817 12.48 16.1217 14.3005 14.3003L13.2395 13.2399ZM7.67173 14.8504C5.66239 14.3957 4.0268 12.942 3.33954 10.9999L1.92547 11.5003C2.78454 13.9279 4.82902 15.7451 7.34071 16.3134L7.67173 14.8504Z" fill="#172B4E"/>
</svg>
