<svg width="18" height="18" viewBox="0 0 18 18" fill="none" xmlns="http://www.w3.org/2000/svg">
<path fill-rule="evenodd" clip-rule="evenodd" d="M8.25 3.75L4.5 6.75H1.5V11.25H4.5L8.25 14.25V3.75V3.75Z" stroke="#172B4E" stroke-width="1.5" stroke-linecap="round" stroke-linejoin="round"/>
<path d="M14.8327 3.16726C14.5399 2.87432 14.065 2.87425 13.7721 3.1671C13.4791 3.45995 13.479 3.93482 13.7719 4.22776L14.8327 3.16726ZM13.7719 13.7723C13.479 14.0652 13.4791 14.5401 13.7721 14.8329C14.065 15.1258 14.5399 15.1257 14.8327 14.8328L13.7719 13.7723ZM12.1852 5.81476C11.8923 5.52182 11.4175 5.52175 11.1245 5.8146C10.8316 6.10744 10.8315 6.58232 11.1244 6.87526L12.1852 5.81476ZM11.1244 11.1173C10.8315 11.4102 10.8316 11.8851 11.1245 12.1779C11.4175 12.4708 11.8923 12.4707 12.1852 12.1778L11.1244 11.1173ZM13.7719 4.22776C16.407 6.86363 16.407 11.1364 13.7719 13.7723L14.8327 14.8328C18.0534 11.6111 18.0534 6.38888 14.8327 3.16726L13.7719 4.22776ZM11.1244 6.87526C12.2955 8.04676 12.2955 9.94576 11.1244 11.1173L12.1852 12.1778C13.9419 10.4205 13.9419 7.57201 12.1852 5.81476L11.1244 6.87526Z" fill="#172B4E"/>
</svg>
