<svg width="18" height="18" viewBox="0 0 18 18" fill="none" xmlns="http://www.w3.org/2000/svg">
<path d="M17.16 4.2928V13.8272C17.16 14.5544 16.5944 15.12 15.8672 15.12H11.908L10.3728 12.8576C9.8072 11.9688 8.5144 11.9688 7.868 12.8576L6.3328 15.12H2.2928C1.5656 15.12 1 14.5544 1 13.8272V4.2928C1 3.5656 1.5656 3 2.2928 3H15.8672C16.5944 3 17.16 3.5656 17.16 4.2928Z" stroke="#172B4E" stroke-width="1.5" stroke-miterlimit="10" stroke-linecap="round" stroke-linejoin="round"/>
<path d="M5.68604 10.272C6.7124 10.272 7.54444 9.43994 7.54444 8.41358C7.54444 7.38721 6.7124 6.55518 5.68604 6.55518C4.65967 6.55518 3.82764 7.38721 3.82764 8.41358C3.82764 9.43994 4.65967 10.272 5.68604 10.272Z" stroke="#172B4E" stroke-width="1.5" stroke-miterlimit="10" stroke-linecap="round" stroke-linejoin="round"/>
<path d="M12.4736 10.272C13.5 10.272 14.332 9.43994 14.332 8.41358C14.332 7.38721 13.5 6.55518 12.4736 6.55518C11.4473 6.55518 10.6152 7.38721 10.6152 8.41358C10.6152 9.43994 11.4473 10.272 12.4736 10.272Z" stroke="#172B4E" stroke-width="1.5" stroke-miterlimit="10" stroke-linecap="round" stroke-linejoin="round"/>
</svg>
