<svg width="18" height="18" viewBox="0 0 18 18" fill="none" xmlns="http://www.w3.org/2000/svg">
<path fill-rule="evenodd" clip-rule="evenodd" d="M9 14.25C11.8995 14.25 14.25 11.8995 14.25 9C14.25 6.10051 11.8995 3.75 9 3.75C6.10051 3.75 3.75 6.10051 3.75 9C3.75 11.8995 6.10051 14.25 9 14.25Z" stroke="#172B4E" stroke-width="1.5" stroke-linecap="round" stroke-linejoin="round"/>
<path d="M9 6.75V9L10.125 10.125" stroke="#172B4E" stroke-width="1.5" stroke-linecap="round" stroke-linejoin="round"/>
<path d="M13.1293 13.0808C13.1669 12.6683 12.8631 12.3033 12.4506 12.2656C12.0381 12.2279 11.6732 12.5318 11.6355 12.9443L13.1293 13.0808ZM12.1199 15.885L11.373 15.8168L11.3729 15.8175L12.1199 15.885ZM10.6199 17.25L10.6229 16.5H10.6199V17.25ZM7.37236 17.25V16.5L7.36932 16.5L7.37236 17.25ZM5.87236 15.885L6.61932 15.8175L6.61925 15.8168L5.87236 15.885ZM6.35675 12.9443C6.31906 12.5318 5.9541 12.2279 5.54161 12.2656C5.12912 12.3033 4.82528 12.6683 4.86298 13.0808L6.35675 12.9443ZM4.87299 4.91926C4.83529 5.33175 5.13912 5.6967 5.55162 5.7344C5.96411 5.7721 6.32907 5.46826 6.36676 5.05577L4.87299 4.91926ZM5.88237 2.11501L6.62926 2.18327L6.62933 2.18251L5.88237 2.11501ZM7.37487 0.750013V1.2219e-05L7.37417 1.28746e-05L7.37487 0.750013ZM10.6374 0.750013V1.50002L10.6404 1.50001L10.6374 0.750013ZM12.1374 2.11501L11.3904 2.18251L11.3905 2.18327L12.1374 2.11501ZM11.653 5.05577C11.6907 5.46826 12.0556 5.7721 12.4681 5.7344C12.8806 5.6967 13.1845 5.33175 13.1468 4.91926L11.653 5.05577ZM11.6355 12.9443L11.373 15.8168L12.8668 15.9533L13.1293 13.0808L11.6355 12.9443ZM11.3729 15.8175C11.3379 16.2052 11.0121 16.5016 10.6229 16.5L10.6168 18C11.7845 18.0048 12.7617 17.1155 12.8668 15.9525L11.3729 15.8175ZM10.6199 16.5H7.37236V18H10.6199V16.5ZM7.36932 16.5C6.9801 16.5016 6.65435 16.2052 6.61932 15.8175L5.12541 15.9525C5.23049 17.1155 6.20773 18.0048 7.37541 18L7.36932 16.5ZM6.61925 15.8168L6.35675 12.9443L4.86298 13.0808L5.12548 15.9533L6.61925 15.8168ZM6.36676 5.05577L6.62926 2.18327L5.13549 2.04676L4.87299 4.91926L6.36676 5.05577ZM6.62933 2.18251C6.66423 1.7963 6.98779 1.50038 7.37558 1.50001L7.37417 1.28746e-05C6.21081 0.00110853 5.24012 0.888875 5.13542 2.04751L6.62933 2.18251ZM7.37487 1.50001H10.6374V1.25766e-05H7.37487V1.50001ZM10.6404 1.50001C11.0296 1.49843 11.3554 1.79486 11.3904 2.18251L12.8843 2.04752C12.7792 0.884575 11.802 -0.00471914 10.6343 1.87159e-05L10.6404 1.50001ZM11.3905 2.18327L11.653 5.05577L13.1468 4.91926L12.8843 2.04676L11.3905 2.18327Z" fill="#172B4E"/>
</svg>
