<svg width="18" height="18" viewBox="0 0 18 18" fill="none" xmlns="http://www.w3.org/2000/svg">
<path d="M6.6606 2.91377C6.36858 3.20753 6.36998 3.6824 6.66374 3.97442C6.9575 4.26645 7.43237 4.26504 7.7244 3.97128L6.6606 2.91377ZM8.25 6.00002L8.25315 5.25002H8.25V6.00002ZM1.5 5.25002C1.08579 5.25002 0.75 5.58581 0.75 6.00002C0.75 6.41424 1.08579 6.75002 1.5 6.75002V5.25002ZM9.9744 14.0288C9.68237 13.735 9.2075 13.7336 8.91374 14.0256C8.61998 14.3177 8.61858 14.7925 8.9106 15.0863L9.9744 14.0288ZM10.5 12V12.75L10.5031 12.75L10.5 12ZM1.5 11.25C1.08579 11.25 0.75 11.5858 0.75 12C0.75 12.4142 1.08579 12.75 1.5 12.75V11.25ZM12.7678 5.26651C12.4746 5.55904 12.474 6.03391 12.7665 6.32717C13.059 6.62044 13.5339 6.62104 13.8272 6.32852L12.7678 5.26651ZM14.625 9.00001V9.75001L14.6263 9.75001L14.625 9.00001ZM1.5 8.25001C1.08579 8.25001 0.75 8.5858 0.75 9.00001C0.75 9.41423 1.08579 9.75001 1.5 9.75001V8.25001ZM7.7244 3.97128C7.96419 3.73007 8.33627 3.68041 8.63092 3.8503L9.38017 2.55083C8.49622 2.04116 7.37996 2.19013 6.6606 2.91377L7.7244 3.97128ZM8.63092 3.8503C8.92557 4.02019 9.06901 4.36709 8.98039 4.69546L10.4286 5.08632C10.6944 4.1012 10.2641 3.0605 9.38017 2.55083L8.63092 3.8503ZM8.98039 4.69546C8.89176 5.02383 8.59326 5.25146 8.25315 5.25003L8.24685 6.75002C9.2672 6.7543 10.1627 6.07143 10.4286 5.08632L8.98039 4.69546ZM8.25 5.25002H1.5V6.75002H8.25V5.25002ZM8.9106 15.0863C9.62996 15.8099 10.7462 15.9589 11.6302 15.4492L10.8809 14.1497C10.5863 14.3196 10.2142 14.27 9.9744 14.0288L8.9106 15.0863ZM11.6302 15.4492C12.5141 14.9395 12.9444 13.8988 12.6786 12.9137L11.2304 13.3046C11.319 13.633 11.1756 13.9799 10.8809 14.1497L11.6302 15.4492ZM12.6786 12.9137C12.4127 11.9286 11.5172 11.2458 10.4969 11.25L10.5031 12.75C10.8433 12.7486 11.1418 12.9762 11.2304 13.3046L12.6786 12.9137ZM10.5 11.25H1.5V12.75H10.5V11.25ZM13.8272 6.32852C14.1874 5.96923 14.7439 5.89639 15.1844 6.15088L15.9347 4.85203C14.9068 4.25822 13.6083 4.42817 12.7678 5.26651L13.8272 6.32852ZM15.1844 6.15088C15.6249 6.40536 15.8398 6.92383 15.7085 7.41535L17.1577 7.80246C17.4641 6.65558 16.9626 5.44583 15.9347 4.85203L15.1844 6.15088ZM15.7085 7.41535C15.5772 7.90687 15.1324 8.2491 14.6237 8.25001L14.6263 9.75001C15.8134 9.74789 16.8514 8.94935 17.1577 7.80246L15.7085 7.41535ZM14.625 8.25001H1.5V9.75001H14.625V8.25001Z" fill="#172B4E"/>
</svg>
