<svg width="18" height="18" viewBox="0 0 18 18" fill="none" xmlns="http://www.w3.org/2000/svg">
<path d="M4.75 2.5C4.75 2.9561 4.85689 3.37278 5.0829 3.72638C5.30873 4.07971 5.62388 4.3237 5.96627 4.48215C6.62644 4.78764 7.42184 4.79416 8.11433 4.68734C8.82206 4.57818 9.53446 4.33355 10.088 4.02049C10.3636 3.86462 10.629 3.6754 10.8354 3.45249C11.0319 3.24038 11.25 2.91487 11.25 2.5H9.75C9.75 2.37435 9.81189 2.35012 9.73489 2.43326C9.6679 2.50559 9.54269 2.60559 9.34952 2.71485C8.96554 2.93203 8.42794 3.12123 7.88567 3.20487C7.32816 3.29087 6.87356 3.24918 6.59623 3.12084C6.46987 3.06237 6.39439 2.99303 6.34679 2.91856C6.29936 2.84435 6.25 2.71875 6.25 2.5H4.75ZM11.25 2.5C11.25 2.08512 11.0318 1.75962 10.8354 1.54752C10.629 1.32461 10.3636 1.1354 10.088 0.979534C9.53446 0.666474 8.82207 0.42184 8.11434 0.312667C7.42185 0.205843 6.62644 0.212348 5.96628 0.517838C5.62388 0.676281 5.30873 0.920272 5.0829 1.2736C4.85689 1.6272 4.75 2.0439 4.75 2.5H6.25C6.25 2.28124 6.29936 2.15564 6.34679 2.08143C6.39439 2.00695 6.46987 1.93762 6.59622 1.87915C6.87356 1.75081 7.32815 1.70913 7.88566 1.79513C8.42793 1.87878 8.96554 2.06799 9.34952 2.28517C9.5427 2.39443 9.66791 2.49443 9.7349 2.56676C9.8119 2.64991 9.75 2.62566 9.75 2.5H11.25Z" fill="#172B4E"/>
<path d="M3.5 13.5C3.5 19.7986 13.5 16.1994 13.5 13.5C13.5 10.8007 3.5 7.20131 3.5 13.5Z" stroke="#172B4E" stroke-width="1.5"/>
<path d="M14.5 7C14.5 10.5992 7.5 8.54253 7.5 7C7.5 5.45756 14.5 3.40075 14.5 7Z" stroke="#172B4E" stroke-width="1.5"/>
</svg>
