<svg width="18" height="18" viewBox="0 0 18 18" fill="none" xmlns="http://www.w3.org/2000/svg">
<path fill-rule="evenodd" clip-rule="evenodd" d="M9 12C10.6569 12 12 10.6569 12 9C12 7.34315 10.6569 6 9 6C7.34315 6 6 7.34315 6 9C6 10.6569 7.34315 12 9 12Z" stroke="#172B4E" stroke-width="1.5" stroke-linecap="round" stroke-linejoin="round"/>
<path d="M12 9.00002V9.75002C12 10.9927 13.0073 12 14.25 12C15.4926 12 16.5 10.9927 16.5 9.75002V9.00002C16.4997 5.5147 14.0986 2.48883 10.7044 1.69674C7.31031 0.904654 3.81782 2.55511 2.2749 5.68031C0.731979 8.80551 1.54529 12.5818 4.23793 14.7947C6.93056 17.0077 10.7928 17.0741 13.56 14.955" stroke="#172B4E" stroke-width="1.5" stroke-linecap="round" stroke-linejoin="round"/>
</svg>
