<svg width="18" height="18" viewBox="0 0 18 18" fill="none" xmlns="http://www.w3.org/2000/svg">
<path fill-rule="evenodd" clip-rule="evenodd" d="M1.375 11V17H2.875V11H1.375ZM4.125 11V17H5.625V11H4.125ZM6.875 17V11H8.375V17H6.875ZM9.625 11V17H11.125V11H9.625ZM12.375 17V11H13.875V17H12.375ZM15.125 11V17H16.625V11H15.125Z" fill="#172B4E"/>
<path d="M1 17L17 17" stroke="#172B4E" stroke-width="1.5" stroke-linecap="round" stroke-linejoin="round"/>
<path d="M1 11L17 11" stroke="#172B4E" stroke-width="1.5" stroke-linecap="round" stroke-linejoin="round"/>
<path d="M14 11V8M4 11V8M9 1H4L4 8M9 1H14V8M9 1V11M4 8H9H14" stroke="#172B4E" stroke-width="1.5" stroke-linecap="round" stroke-linejoin="round"/>
</svg>
