<?xml version="1.0" encoding="UTF-8"?>
<svg width="23px" height="22px" viewBox="0 0 23 22" version="1.1" xmlns="http://www.w3.org/2000/svg" xmlns:xlink="http://www.w3.org/1999/xlink">
    <!-- Generator: Sketch 57.1 (83088) - https://sketch.com -->
    <title>Icon/Service/commercial-floorplan</title>
    <desc>Created with Sketch.</desc>
    <defs>
        <path d="M10.6,0.1 C10.9,-1.17961196e-16 11.2,-1.17961196e-16 11.5,0.1 L21.5,5.1 C22.2,5.5 22.2,6.5 21.5,6.9 L11.5,11.9 C11.2,12 10.9,12 10.6,11.9 L0.6,6.9 C-0.1,6.5 -0.1,5.5 0.6,5.1 L10.6,0.1 Z M11,2.1 L3.2,6 L11,9.9 L18.8,6 L11,2.1 Z M1.4,15.1 L11,19.9 L20.6,15.1 C21.1,14.9 21.7,15.1 21.9,15.5 C22.1,16 21.9,16.6 21.5,16.8 L11.5,21.8 C11.2,21.9 10.9,21.9 10.6,21.8 L0.6,16.8 C0.1,16.6 -0.1,16 0.2,15.5 C0.5,15 1,14.9 1.4,15.1 Z M1.4,10.1 L11,14.9 L20.6,10.1 C21.1,9.9 21.7,10.1 21.9,10.5 C22.1,11 21.9,11.6 21.5,11.8 L11.5,16.8 C11.2,16.9 10.9,16.9 10.6,16.8 L0.6,11.8 C0.1,11.6 -0.1,11 0.2,10.5 C0.5,10 1,9.9 1.4,10.1 Z" id="path-1"></path>
    </defs>
    <g id="Icon/Service/commercial-floorplan" stroke="none" stroke-width="1" fill="none" fill-rule="evenodd">
        <mask id="mask-2" fill="white">
            <use xlink:href="#path-1"></use>
        </mask>
        <use id="Shape" fill="#000000" fill-rule="nonzero" xlink:href="#path-1"></use>
        <g id="Color/Neutral/Darkest" mask="url(#mask-2)" fill="#172B4E" fill-rule="nonzero">
            <g transform="translate(1.000000, 0.000000)" id="Rectangle">
                <rect x="0" y="0" width="24" height="24"></rect>
            </g>
        </g>
    </g>
</svg>