<svg width="18" height="18" viewBox="0 0 18 18" fill="none" xmlns="http://www.w3.org/2000/svg">
<path fill-rule="evenodd" clip-rule="evenodd" d="M13.5 2.25C12.2574 2.25 11.25 3.25736 11.25 4.5V13.5C11.25 14.7426 12.2574 15.75 13.5 15.75C14.7426 15.75 15.75 14.7426 15.75 13.5C15.75 12.2574 14.7426 11.25 13.5 11.25H4.5C3.25736 11.25 2.25 12.2574 2.25 13.5C2.25 14.7426 3.25736 15.75 4.5 15.75C5.74264 15.75 6.75 14.7426 6.75 13.5V4.5C6.75 3.25736 5.74264 2.25 4.5 2.25C3.25736 2.25 2.25 3.25736 2.25 4.5C2.25 5.74264 3.25736 6.75 4.5 6.75H13.5C14.7426 6.75 15.75 5.74264 15.75 4.5C15.75 3.25736 14.7426 2.25 13.5 2.25Z" stroke="#172B4E" stroke-width="1.5" stroke-linecap="round" stroke-linejoin="round"/>
</svg>
