<?xml version="1.0" encoding="UTF-8"?>
<svg width="100%" height="100%" viewBox="0 0 340 336" version="1.1" xmlns="http://www.w3.org/2000/svg" xmlns:xlink="http://www.w3.org/1999/xlink">
    <!-- Generator: Sketch 57.1 (83088) - https://sketch.com -->
    <title>Illu component kit</title>
    <desc>Created with Sketch.</desc>
    <g id="Drawbotics-illu" stroke="none" stroke-width="1" fill="none" fill-rule="evenodd">
        <g id="Annotate" transform="translate(-983.000000, -215.000000)">
            <g id="Illu-component-kit" transform="translate(983.000000, 195.000000)">
                <g id="Group" transform="translate(244.500000, 94.500000) rotate(30.000000) translate(-244.500000, -94.500000) translate(187.000000, 19.000000)" fill="#C1DEE2" opacity="0.5">
                    <path d="M95.9932832,90.7775653 C96.1609953,84.9593316 93.162613,79.5971005 89.8436047,74.5362568 C83.3824608,64.6840253 80.1508319,58.7896045 81.1951568,47.0887142 C81.8096314,40.2072216 82.5439003,32.9363903 78.1256026,26.6873631 C74.9087718,22.1368612 68.1608262,17.2687262 61.035176,18.0916595 C49.7554803,20.1341474 43.4585252,28.6783126 41.0443166,37.1619763 C38.0522763,47.6769239 41.4783949,55.5219599 51.4664256,62.2594812 C57.0946463,66.0548339 60.2691968,69.9644673 61.8039739,75.7446074 C63.0322184,80.3668148 62.6834054,85.667424 64.7840347,90.1126083 C67.9247608,96.7576966 73.5952619,100.815783 82.1246201,102.049903 C79.0466098,88.8784884 74.7227382,75.2689979 67.7894637,63.0577657 C67.1672377,61.8494151 62.6946801,56.6843742 64.5557207,55.3796692 C66.6056136,53.9433173 69.9887471,62.2017807 69.9619696,62.1502423 C71.9273017,65.8201103 73.5853965,69.6087405 75.1793661,73.4130564 C75.17091,73.4141768 75.1617493,73.4136166 75.1525886,73.414737 C76.7979993,77.3210093 78.4011296,81.2676159 79.9323834,85.2399916 C80.5271271,86.9065856 81.0838185,88.582703 81.5784988,90.2812284 C82.3043116,92.7735567 82.3902817,99.3374161 84.4486306,101.286351 C84.889051,101.703139 85.3372229,101.988281 85.7889181,102.174827 C86.6133851,104.923167 87.3828877,107.677669 88.0572594,110.437772 C89.8182365,117.646422 90.8364885,125.040497 89.6949188,132.370709 C89.3616086,134.510112 85.937604,141.950684 87.072127,143.850321 C89.1459787,147.324679 90.312212,141.96693 90.7547465,140.373162 C94.4141117,127.173737 93.0914411,114.78156 89.0987657,101.858875 C92.7694057,99.8488784 95.92493,93.1348854 95.9932832,90.7775653" id="Leaf" transform="translate(68.000000, 81.500000) scale(-1, 1) rotate(-18.000000) translate(-68.000000, -81.500000) "></path>
                    <path d="M29.9228904,11.0382827 C38.167079,10.4370075 47.3738515,17.016698 51.3505596,23.8638338 C54.5563555,29.3844254 54.0162945,36.6336831 52.0361989,42.498787 C50.7102454,46.4253888 47.8163482,52.0238104 42.9903692,52.0783677 C36.9525179,52.1466597 36.6613613,44.7642516 36.5445913,40.4484996 C36.3894102,34.7108233 35.6565252,29.7125324 31.0863646,25.8015729 C30.0212229,24.8905036 28.8569805,24.0889305 27.7810837,23.1904514 C26.0963699,21.7841694 24.2345807,20.3443137 24.0175576,18.0178059 C23.7179505,14.8080799 25.5493949,14.2304589 28.3457279,14.8267743 C28.8224104,14.9282586 33.6241904,17.0598097 32.9131997,15.3750183 C32.6961766,14.8603481 31.9033701,14.4525034 30.9027592,14.146906 C28.3134625,13.8683966 25.2255888,13.5452493 24.3375226,13.7382983 C14.7570095,15.8175812 11.0269011,28.9460591 10.0362771,37.2872265 C9.92412828,38.2316715 9.8344897,39.1793479 9.75651799,40.1284681 L8.0000288,40.1281092 C8.12308036,37.8991218 8.2833629,35.6737618 8.66000503,33.4697394 C10.0719995,25.2075466 14.486979,13.0725463 24.1700499,11.7315042 C24.5272738,11.6815251 25.8413198,11.6731316 27.4330785,11.7654594 C28.1874739,11.3484583 29.0325195,11.0962737 29.9228904,11.0382827 Z" id="Leaf-Me-Alone!" transform="translate(30.819236, 31.539419) scale(-1, 1) rotate(-50.000000) translate(-30.819236, -31.539419) "></path>
                </g>
                <path d="M76.2462272,355 C203.363761,354.142857 274.768342,353.714286 290.45997,353.714286 C313.997414,353.714286 343.445392,343.230606 248.145038,346.706148 C152.844684,350.181689 110.943672,352.241037 82.0582478,353.4558 C62.8012983,354.265642 60.8639581,354.780375 76.2462272,355 Z" id="Path-3-Copy" fill="#D3DCE6" fill-rule="nonzero" opacity="0.436081659"></path>
                <g id="Humaaan" transform="translate(33.000000, 74.000000)">
                    <g id="Head" transform="translate(82.509295, 33.717078) scale(-1, 1) rotate(12.000000) translate(-82.509295, -33.717078) translate(64.509295, 3.717078)">
                        <g transform="translate(2.938272, 5.132124)" fill="#D3DCE6">
                            <path d="M28.0188742,6.69663994 C32.2755562,14.6155971 31.7697517,34.7026887 26.2683695,36.1180272 C24.0744245,36.6824626 19.4006676,35.2998206 14.643875,32.4381773 L17.6296296,53.5207254 L0,53.5207254 L6.06907821,25.2866587 C2.68432326,21.3212019 0.393464763,16.4614994 0.776273974,11.0160711 C1.87926726,-4.67391405 23.7621923,-1.22231722 28.0188742,6.69663994 Z"></path>
                        </g>
                        <path d="M7.65283002,33.9508502 C5.44013797,24.1257198 -0.863460539,17.4282576 0.0992501612,13.0368444 C0.741057294,10.1092357 2.45166571,8.28865857 5.2310754,7.57511312 C6.66855977,1.77095011 11.3047418,-0.697786648 19.1396216,0.168902857 C30.8919412,1.46893711 38.0649029,6.34019615 34.9672552,17.0590918 C32.1197886,17.0590918 28.6822878,16.0312804 23.9289387,17.7922524 C22.4207202,18.3510018 21.3419981,20.0837325 20.6927724,22.9904446 L18.5447527,22.9904446 C16.4600092,19.540972 14.4044386,18.273385 12.3780411,19.1876834 C10.3516436,20.1019819 9.89101056,22.3228166 10.9961419,25.8501875 L9.93802498,33.9508502 L7.65283002,33.9508502 Z" id="Hair" fill="#172B4E"></path>
                    </g>
                    <g id="Bottom" transform="translate(124.000000, 194.500000) scale(-1, 1) translate(-124.000000, -194.500000) translate(9.000000, 106.000000)">
                        <polygon id="Leg" fill="#B9C4D0" points="97.3330901 0 151.975581 91.462666 192.941729 168.786641 201.765474 168.786641 133.126119 3.74781629e-13"></polygon>
                        <g id="Right-Shoe" transform="translate(186.312509, 160.503560)" fill="#879BA6">
                            <path d="M1.03023134,5.27037046 C0.343410447,7.19211476 0,8.6516959 0,9.64911388 C0,10.9767921 0.220914722,12.9142049 0.662744167,15.4613521 C2.20108696,15.4613521 16.0264326,15.4613521 42.1387812,15.4613521 C43.2165964,11.8938345 42.594419,9.96784657 40.2722489,9.68338826 C37.9500789,9.39892995 36.0210128,9.14208687 34.4850507,8.91285902 L15.4566718,0.419671896 C14.9523436,0.194568463 14.3610225,0.420924826 14.1359191,0.925252983 C14.1319494,0.934146637 14.1281099,0.943097809 14.1244018,0.952103633 L12.9889458,3.70976373 L12.9889458,3.70976373 C10.8392237,4.71398379 9.09235132,5.21609382 7.74832865,5.21609382 C6.75044177,5.21609382 5.40511477,4.84736371 3.71234765,4.10990349 L3.71234231,4.10991574 C2.69970427,3.66875626 1.52116853,4.13203117 1.08000905,5.1446692 C1.06200459,5.18599666 1.04540254,5.22792103 1.03023134,5.27037046 Z" id="shoe"></path>
                        </g>
                        <path d="M181.564285,156.404748 L198.580722,151.250964 C191.125357,128.936541 181.98775,104.380336 171.167899,77.5823503 C160.348048,50.7843646 148.72793,24.9235811 136.307546,0 L88.2469479,0 C102.055744,31.5271857 116.69492,60.1736809 132.164475,85.9394856 C147.63403,111.70529 164.100634,135.193711 181.564285,156.404748 Z" id="Pant" fill="#2C47B8"></path>
                        <path d="M93.7420189,0 C88.584794,32.1406088 78.6379192,73.2039572 77.6992025,74.4711843 C77.0733913,75.3160024 54.5440282,82.8744664 10.1111133,97.1465764 L12.0171487,104.936888 C65.0032955,97.2826627 92.9224761,91.3442002 95.7746904,87.1215 C100.053012,80.7874497 121.415249,30.7483127 129.689242,0 L93.7420189,0 Z" id="Leg" fill="#D3DCE6"></path>
                        <path d="M25.7300336,90.4124484 L29.0873073,102.959308 C68.7178579,106.43935 93.0003716,103.924801 101.934848,95.4156605 C110.869325,86.9065201 121.051991,55.1013 132.482847,-1.13686838e-13 L86.6541963,-1.13686838e-13 C79.4118753,45.1205504 75.3629465,68.627881 74.5074099,70.5219917 C73.6518733,72.4161025 57.3927479,79.0462547 25.7300336,90.4124484 Z" id="Pant" fill="#4364F0"></path>
                        <g id="Left-Shoe" transform="translate(12.573168, 114.453297) rotate(80.000000) translate(-12.573168, -114.453297) translate(-8.926832, 106.453297)" fill="#879BA6">
                            <path d="M1.03023134,5.27037046 C0.343410447,7.19211476 1.13686838e-13,8.6516959 1.13686838e-13,9.64911388 C1.13686838e-13,10.9767921 0.220914722,12.9142049 0.662744167,15.4613521 C2.20108696,15.4613521 16.0264326,15.4613521 42.1387812,15.4613521 C43.2165964,11.8938345 42.594419,9.96784657 40.2722489,9.68338826 C37.9500789,9.39892995 36.0210128,9.14208687 34.4850507,8.91285902 L15.4566718,0.419671896 C14.9523436,0.194568463 14.3610225,0.420924826 14.1359191,0.925252983 C14.1319494,0.934146637 14.1281099,0.943097809 14.1244018,0.952103633 L12.9889458,3.70976373 L12.9889458,3.70976373 C10.8392237,4.71398379 9.09235132,5.21609382 7.74832865,5.21609382 C6.75044177,5.21609382 5.40511477,4.84736371 3.71234765,4.10990349 L3.71234231,4.10991574 C2.69970427,3.66875626 1.52116853,4.13203117 1.08000905,5.1446692 C1.06200459,5.18599666 1.04540254,5.22792103 1.03023134,5.27037046 Z" id="shoe"></path>
                        </g>
                    </g>
                    <g id="Body" transform="translate(106.134606, 108.622487) scale(-1, 1) rotate(21.000000) translate(-106.134606, -108.622487) translate(18.634606, 42.122487)">
                        <path d="M36.7062052,54.5835762 L52.7913263,54.6438271 C35.1535544,94.2592863 25.9569465,115.001313 25.2015027,116.869907 C23.5017541,121.074242 27.0986507,127.477373 28.6368265,130.918368 C23.6270393,133.155804 24.1608375,124.869665 17.8411256,127.804187 C12.0727857,130.482683 7.68482394,135.335937 1.02034068,131.231625 C0.200981623,130.727024 -0.696902412,128.827109 1.47249893,127.342427 C6.87726881,123.643541 14.6658697,117.169825 15.7182323,115.038951 C17.1533167,112.133124 24.1493077,91.981332 36.7062052,54.5835762 L36.7062052,54.5835762 Z M173.132625,40.5549241 C169.882866,43.2589255 166.585526,46.2501156 167.164535,47.693194 C167.743544,49.1362723 170.765779,48.5993505 171.266444,50.8189277 C171.600221,52.2986458 166.695317,52.5390852 156.551732,51.540246 L133.018401,60.8523316 L127.814815,47.8832993 L156.817668,43.9347711 C162.619415,40.713895 167.956742,38.5334183 172.829646,37.3933408 C174.200932,37.35338 176.382385,37.8509227 173.132625,40.5549241 Z" id="Skin" fill="#B9C4D0"></path>
                        <path d="M77.4840181,7.0954264 L90.103201,6.8319766 C95.6341011,34.4626946 114.006425,50.6136378 151.166807,41.3506229 L159.316596,76.8429593 C124.494173,84.4673396 92.3749346,73.0961488 82.7109473,35.5455441 C80.2092462,25.8248788 78.0172076,15.6726387 77.4840181,7.0954264 Z" id="Clothes-Back" fill="#AFB9C5" transform="translate(118.400307, 42.957566) rotate(5.000000) translate(-118.400307, -42.957566) "></path>
                        <path d="M74.5418602,0 L74.5516583,0.012 L93.6336106,4.37350588 C93.6336106,36.7705309 103.859779,57.5692381 109.272013,81.3211456 L109.450617,82.1139896 L57.9160808,82.1132648 C57.1900886,90.4355248 56.744267,98.989307 56.5119544,107.774611 L56.5119544,107.774611 L17.9246583,107.774611 C26.668756,61.3391233 45.1245879,25.4142529 73.292154,0 L73.292154,0 L74.5006583,0 L74.5418602,0 Z" id="Clothes" fill="#C5CFD6"></path>
                        <path d="M66.0465543,35.3855919 C64.718808,55.7958497 65.4999792,71.3719823 68.3900678,82.1139896 L68.3900678,82.1139896 L57.9160506,82.1136103 C59.3327676,65.8731858 61.8164065,50.5144273 65.8623529,36.037335 Z" id="Shade" fill-opacity="0.1" fill="#000000"></path>
                    </g>
                </g>
                <g id="Group-11" transform="translate(220.000000, 137.000000)">
                    <g id="Group-10">
                        <rect id="Rectangle-Copy" stroke="#D3DCE6" stroke-width="2" fill="#FFFFFF" x="0" y="10.2790698" width="119" height="23.7209302" rx="2"></rect>
                        <path d="M7.97342767,16.9830124 L7.97342767,28.3492914" id="Path-14" stroke="#425A70" stroke-width="2"></path>
                        <rect id="Rectangle-Copy-12" fill="#C1CEDC" x="0" y="0" width="35.9245283" height="4.74418605" rx="2.37209302"></rect>
                    </g>
                </g>
                <g id="Group-12" transform="translate(272.000000, 193.000000)">
                    <g id="Group-7">
                        <rect id="Rectangle-Copy-15" fill="#C1CEDC" x="30" y="6" width="33.6901408" height="6" rx="3"></rect>
                        <g id="Group-4" transform="translate(0.323944, 0.000000)">
                            <rect id="Rectangle" stroke="#425A70" fill="#425A70" x="0" y="0" width="17" height="17" rx="2"></rect>
                            <polyline id="Path" stroke="#FFFFFF" stroke-width="3" transform="translate(8.800520, 6.675520) rotate(-45.000000) translate(-8.800520, -6.675520) " points="13.0505204 9.22552038 4.55052038 9.22552038 4.55052038 4.12552038 4.55052038 4.12552038"></polyline>
                        </g>
                    </g>
                    <g id="Group-5" transform="translate(0.000000, 28.000000)">
                        <rect id="Rectangle-Copy-16" fill="#C1CEDC" x="30" y="7" width="26.3661972" height="6" rx="3"></rect>
                        <rect id="Rectangle-Copy-3" stroke="#D3DCE6" stroke-width="3" x="0.323943662" y="0" width="17" height="17" rx="2"></rect>
                    </g>
                </g>
                <g id="Group" transform="translate(0.000000, 131.000000)">
                    <rect id="Rectangle" fill="#D3DCE6" x="0" y="0" width="76" height="23" rx="3"></rect>
                    <rect id="Rectangle" fill="#425A70" x="18" y="9" width="39" height="4" rx="2"></rect>
                </g>
            </g>
        </g>
    </g>
</svg>