<?xml version="1.0" encoding="UTF-8"?>
<svg width="24px" height="24px" viewBox="0 0 24 24" version="1.1" xmlns="http://www.w3.org/2000/svg" xmlns:xlink="http://www.w3.org/1999/xlink">
    <!-- Generator: Sketch 54.1 (76490) - https://sketchapp.com -->
    <title>Icon/Feather/feather</title>
    <desc>Created with Sketch.</desc>
    <defs>
        <path d="M15.0790012,16.0083366 L9.41421356,16.0083366 L7.41421356,18.0083366 L13.0849183,18.0083366 L15.0790012,16.0083366 Z M17.0706352,14.0107926 L19.5318464,11.5422781 C21.4868177,9.58730532 21.4868177,6.41936782 19.5328932,4.46544335 C17.5789687,2.51151888 14.4110313,2.51151888 12.4571068,4.46544335 L6,10.9225501 L6,16.594123 L15.2928932,7.30122979 C15.6834175,6.9107055 16.3165825,6.9107055 16.7071068,7.30122979 C17.0976311,7.69175408 17.0976311,8.32491906 16.7071068,8.71544335 L11.4142136,14.0083366 L17,14.0083366 C17.0237475,14.0083366 17.0473017,14.0091643 17.0706352,14.0107926 Z M5.41421356,20.0083366 L2.70710678,22.7154434 C2.31658249,23.1059676 1.68341751,23.1059676 1.29289322,22.7154434 C0.902368927,22.3249191 0.902368927,21.6917541 1.29289322,21.3012298 L4,18.594123 L4,10.5083366 C4,10.2431201 4.10535684,9.98876617 4.29289322,9.80122979 L11.0428932,3.05122979 C13.7778663,0.316256736 18.2121337,0.316256736 20.9471068,3.05122979 C23.6818987,5.78602168 23.6820798,10.2198829 20.9476502,12.9548998 L14.2081536,19.714395 C14.0205327,19.9025726 13.7657299,20.0083366 13.5,20.0083366 L5.41421356,20.0083366 Z" id="path-1"></path>
    </defs>
    <g id="Icon/Feather/feather" stroke="none" stroke-width="1" fill="none" fill-rule="evenodd">
        <mask id="mask-2" fill="white">
            <use xlink:href="#path-1"></use>
        </mask>
        <use id="Combined-Shape" fill="#000000" fill-rule="nonzero" xlink:href="#path-1"></use>
        <g id="Color/Neutral/Black" mask="url(#mask-2)" fill="#172B4E" fill-rule="nonzero">
            <rect id="Rectangle" x="0" y="0" width="24" height="24"></rect>
        </g>
    </g>
</svg>