<svg width="18" height="18" viewBox="0 0 18 18" fill="none" xmlns="http://www.w3.org/2000/svg">
<path d="M12.545 7.54298L13.2845 7.41812L13.2839 7.41468L12.545 7.54298ZM10.5425 2.63801L9.90117 3.02678L9.91218 3.04493L9.92419 3.06243L10.5425 2.63801ZM9.03162 0.832841L8.5133 1.37492L8.51331 1.37493L9.03162 0.832841ZM8.84958 0.924011L9.59713 0.863498C9.59514 0.838914 9.59194 0.814442 9.58754 0.790173L8.84958 0.924011ZM7.66632 5.39136L8.3051 5.78438L8.30614 5.78267L7.66632 5.39136ZM5.44544 10.1869L6.18199 10.3283L6.18272 10.3244L5.44544 10.1869ZM7.93938 16.97L7.55084 17.6115L7.55304 17.6128L7.93938 16.97ZM8.37628 17.207L8.08042 17.8962C8.09422 17.9021 8.10819 17.9076 8.12231 17.9127L8.37628 17.207ZM8.5037 17.0429L9.0265 16.5052L8.5037 17.0429ZM8.86778 9.67637L9.2944 9.05952L8.77603 8.701L8.33361 9.14991L8.86778 9.67637ZM10.051 14.2714L9.34744 14.0117L10.051 14.2714ZM10.1785 14.4172L10.0136 13.6856C9.98823 13.6913 9.96319 13.6983 9.93857 13.7066L10.1785 14.4172ZM11.7986 12.7944L12.4385 13.1857L12.4429 13.1783L11.7986 12.7944ZM13.2839 7.41468C12.8977 5.18992 12.0091 3.4494 11.1609 2.21359L9.92419 3.06243C10.6779 4.16059 11.4642 5.7022 11.806 7.67128L13.2839 7.41468ZM11.1839 2.24925C10.827 1.66036 9.97482 0.697007 9.54992 0.290751L8.51331 1.37493C8.88939 1.73451 9.63919 2.59456 9.90117 3.02678L11.1839 2.24925ZM8.10202 0.984524C8.14806 1.55324 8.15784 3.15024 7.0265 5.00004L8.30614 5.78267C9.65054 3.58451 9.66032 1.64411 9.59713 0.863498L8.10202 0.984524ZM7.02754 4.99834C6.07708 6.54314 5.04755 8.22961 4.70815 10.0494L6.18272 10.3244C6.46226 8.82563 7.32594 7.37583 8.3051 5.78437L7.02754 4.99834ZM4.70889 10.0455C4.60983 10.5615 4.5498 11.1195 4.5498 11.6821H6.0498C6.0498 11.2236 6.09901 10.7605 6.18198 10.3283L4.70889 10.0455ZM4.5498 11.6821C4.5498 14.2282 5.72107 16.5033 7.55085 17.6115L8.32791 16.3285C7.0266 15.5403 6.0498 13.8039 6.0498 11.6821H4.5498ZM7.55304 17.6128C7.73395 17.7216 7.90082 17.8191 8.08042 17.8962L8.67213 16.5178C8.59687 16.4855 8.50889 16.4372 8.32572 16.3271L7.55304 17.6128ZM9.0265 16.5052C8.60413 16.0945 8.21608 15.1748 8.21608 13.9067H6.71608C6.71608 15.4101 7.16541 16.7879 7.9809 17.5807L9.0265 16.5052ZM8.21608 13.9067C8.21608 12.6318 8.53338 11.6876 8.83883 11.0717C8.99213 10.7626 9.14319 10.5349 9.2512 10.3892C9.30517 10.3164 9.34821 10.2644 9.37514 10.2332C9.3886 10.2176 9.398 10.2073 9.4027 10.2022C9.40505 10.1997 9.40621 10.1985 9.40612 10.1986C9.40607 10.1986 9.40571 10.199 9.40502 10.1997C9.40467 10.2001 9.40425 10.2005 9.40374 10.201C9.40348 10.2013 9.40321 10.2016 9.40291 10.2019C9.40276 10.202 9.40252 10.2022 9.40245 10.2023C9.40221 10.2026 9.40196 10.2028 8.86778 9.67637C8.33361 9.14991 8.33335 9.15017 8.33308 9.15044C8.33299 9.15054 8.33272 9.15081 8.33253 9.15101C8.33215 9.1514 8.33174 9.15181 8.33132 9.15224C8.33047 9.15311 8.32954 9.15407 8.32852 9.15512C8.32648 9.15722 8.32411 9.15968 8.32141 9.16251C8.31601 9.16816 8.3093 9.17527 8.30138 9.18383C8.28555 9.20096 8.26484 9.22392 8.23997 9.25272C8.19024 9.31028 8.12378 9.3913 8.04633 9.49574C7.89152 9.70451 7.69215 10.0078 7.49503 10.4053C7.09963 11.2025 6.71608 12.3734 6.71608 13.9067H8.21608ZM8.86778 9.67637C8.44116 10.2932 8.44084 10.293 8.44052 10.2928C8.44042 10.2927 8.44011 10.2925 8.43992 10.2923C8.43954 10.2921 8.4392 10.2918 8.43888 10.2916C8.43826 10.2912 8.43776 10.2908 8.4374 10.2906C8.43667 10.2901 8.43646 10.2899 8.43675 10.2901C8.43733 10.2905 8.43989 10.2924 8.44427 10.2957C8.45305 10.3022 8.46902 10.3144 8.4909 10.3322C8.53477 10.3679 8.60157 10.4254 8.68113 10.5042C8.84135 10.6628 9.04635 10.9008 9.22214 11.2133C9.56178 11.8171 9.81787 12.7371 9.34744 14.0117L10.7546 14.531C11.3947 12.797 11.0591 11.4195 10.5295 10.4779C10.2707 10.0178 9.97166 9.67111 9.73652 9.43829C9.6184 9.32134 9.51467 9.23141 9.43745 9.16859C9.39877 9.13713 9.36655 9.11232 9.34227 9.09417C9.33012 9.08509 9.31994 9.07766 9.31191 9.07189C9.30789 9.06901 9.30441 9.06653 9.30148 9.06447C9.30002 9.06344 9.2987 9.06251 9.29752 9.06169C9.29693 9.06128 9.29637 9.06089 9.29585 9.06053C9.29559 9.06035 9.29523 9.0601 9.2951 9.06001C9.29475 9.05976 9.2944 9.05952 8.86778 9.67637ZM10.3434 15.1489C10.704 15.0676 11.0089 14.8512 11.2276 14.6633C11.4597 14.4639 11.6707 14.2294 11.8429 14.0182C12.0172 13.8044 12.1644 13.5986 12.2675 13.4474C12.3194 13.3713 12.3609 13.3079 12.39 13.2626C12.4046 13.2399 12.416 13.2217 12.4242 13.2087C12.4283 13.2022 12.4315 13.1969 12.4339 13.1931C12.4351 13.1911 12.4361 13.1895 12.4369 13.1883C12.4372 13.1877 12.4376 13.1872 12.4378 13.1867C12.438 13.1865 12.4381 13.1863 12.4382 13.1861C12.4382 13.186 12.4383 13.1859 12.4383 13.1859C12.4384 13.1858 12.4385 13.1857 11.7986 12.7944C11.1588 12.4031 11.1588 12.403 11.1589 12.4029C11.1589 12.4029 11.1589 12.4028 11.159 12.4028C11.159 12.4027 11.1591 12.4026 11.1591 12.4026C11.1591 12.4025 11.1591 12.4025 11.1591 12.4026C11.159 12.4028 11.1587 12.4033 11.1582 12.4041C11.1571 12.4058 11.1553 12.4088 11.1527 12.413C11.1474 12.4214 11.139 12.4347 11.1277 12.4522C11.1052 12.4873 11.0713 12.5391 11.0282 12.6023C10.9413 12.7298 10.82 12.899 10.6803 13.0704C10.5385 13.2444 10.39 13.4053 10.25 13.5256C10.1808 13.585 10.1222 13.6271 10.0756 13.6547C10.0275 13.6831 10.0075 13.6869 10.0136 13.6856L10.3434 15.1489ZM12.4429 13.1783C13.2115 11.8882 13.7315 10.0657 13.2845 7.41812L11.8055 7.66784C12.1958 9.97994 11.7328 11.4396 11.1543 12.4105L12.4429 13.1783ZM9.34744 14.0117C9.30644 14.1227 9.23553 14.3609 9.32841 14.6299C9.44499 14.9676 9.72505 15.1126 9.91879 15.1566C10.0826 15.1938 10.2211 15.1733 10.2768 15.1635C10.3127 15.1572 10.3431 15.1499 10.3656 15.1438C10.3772 15.1406 10.3874 15.1376 10.3961 15.135C10.4005 15.1336 10.4046 15.1323 10.4083 15.1312C10.4101 15.1306 10.4119 15.13 10.4136 15.1294C10.4144 15.1291 10.4152 15.1289 10.416 15.1286C10.4164 15.1285 10.4168 15.1283 10.4172 15.1282C10.4174 15.1281 10.4177 15.128 10.4178 15.128C10.4181 15.1279 10.4184 15.1278 10.1785 14.4172C9.93857 13.7066 9.93886 13.7065 9.93914 13.7064C9.93923 13.7064 9.93952 13.7063 9.93971 13.7062C9.94008 13.7061 9.94046 13.706 9.94083 13.7059C9.94158 13.7056 9.94233 13.7054 9.94307 13.7051C9.94456 13.7046 9.94603 13.7042 9.94749 13.7037C9.95041 13.7027 9.95331 13.7018 9.95619 13.7009C9.96191 13.6992 9.96778 13.6975 9.97382 13.6958C9.98535 13.6927 10.0002 13.6891 10.018 13.686C10.0373 13.6826 10.129 13.6661 10.251 13.6938C10.319 13.7093 10.4185 13.7435 10.5181 13.8213C10.6242 13.9042 10.7033 14.0158 10.7463 14.1404C10.7866 14.2571 10.7859 14.3571 10.7796 14.4176C10.7733 14.4777 10.7596 14.5177 10.7546 14.531L9.34744 14.0117ZM9.54994 0.290763C9.49715 0.240293 9.42981 0.182624 9.34877 0.132601C9.27382 0.0863407 9.13919 0.0164836 8.96043 0.00247282C8.75162 -0.0138927 8.5333 0.0513961 8.36317 0.206494C8.21683 0.339905 8.15728 0.493138 8.13225 0.576404C8.08442 0.735547 8.09282 0.879419 8.09578 0.925549C8.098 0.960063 8.10139 0.989524 8.10427 1.01085C8.10574 1.02179 8.10718 1.03131 8.10843 1.03912C8.10906 1.04304 8.10965 1.04658 8.11018 1.0497C8.11045 1.05126 8.1107 1.05273 8.11094 1.05408C8.11106 1.05476 8.11118 1.05542 8.11129 1.05604C8.11135 1.05636 8.1114 1.05666 8.11146 1.05697C8.11149 1.05712 8.11153 1.05734 8.11154 1.05741C8.11158 1.05763 8.11162 1.05785 8.84958 0.924011C9.58754 0.790173 9.58758 0.790389 9.58762 0.790603C9.58763 0.790673 9.58767 0.790887 9.5877 0.791027C9.58775 0.791308 9.5878 0.791587 9.58785 0.791862C9.58794 0.792412 9.58804 0.79295 9.58813 0.793475C9.58832 0.794526 9.58849 0.795532 9.58866 0.796493C9.58899 0.798414 9.58928 0.800178 9.58954 0.801806C9.59005 0.805024 9.59048 0.80788 9.59083 0.810496C9.59146 0.81517 9.59218 0.821357 9.5927 0.829379C9.59315 0.836414 9.59398 0.852683 9.5927 0.875839C9.59162 0.895534 9.58788 0.9446 9.56877 1.00817C9.55148 1.06568 9.50343 1.19675 9.37373 1.31499C9.30502 1.37763 9.21917 1.43093 9.1186 1.46422C9.0189 1.49721 8.92398 1.50422 8.84323 1.49789C8.69279 1.4861 8.59302 1.42886 8.56088 1.40902C8.52264 1.38541 8.50603 1.36796 8.5133 1.37492L9.54994 0.290763ZM8.37628 17.207C8.12231 17.9127 8.12245 17.9128 8.12259 17.9128C8.12264 17.9128 8.12278 17.9129 8.12288 17.9129C8.12308 17.913 8.12328 17.9131 8.1235 17.9131C8.12393 17.9133 8.12439 17.9135 8.12488 17.9136C8.12586 17.914 8.12698 17.9144 8.12822 17.9148C8.13069 17.9157 8.13367 17.9167 8.13711 17.9179C8.14396 17.9203 8.15278 17.9233 8.1632 17.9267C8.18365 17.9333 8.21218 17.9422 8.24541 17.9514C8.29207 17.9642 8.42038 17.9987 8.56211 18C8.61756 18.0004 8.80319 18.0002 8.99426 17.8878C9.10606 17.8221 9.22687 17.7131 9.30442 17.5487C9.38094 17.3865 9.3877 17.229 9.3719 17.1103C9.34449 16.9043 9.24284 16.7587 9.20197 16.7028C9.14766 16.6286 9.08506 16.5621 9.0265 16.5052L7.9809 17.5807C8.00807 17.6071 8.00579 17.6082 7.99139 17.5885C7.98368 17.578 7.96575 17.5524 7.94658 17.5135C7.92855 17.4769 7.89801 17.4058 7.88501 17.3082C7.87128 17.205 7.87626 17.0604 7.94778 16.9087C8.02032 16.7549 8.13291 16.6542 8.23389 16.5949C8.32792 16.5396 8.41278 16.5187 8.46123 16.51C8.51222 16.5008 8.5525 16.4998 8.57505 16.5C8.61831 16.5004 8.64522 16.5058 8.64591 16.506C8.65048 16.5068 8.64971 16.5069 8.6434 16.5051C8.6379 16.5036 8.63237 16.5019 8.62843 16.5006C8.62666 16.5001 8.62571 16.4997 8.62584 16.4998C8.62592 16.4998 8.6263 16.4999 8.62701 16.5002C8.62737 16.5003 8.62782 16.5005 8.62835 16.5007C8.62862 16.5008 8.62891 16.5009 8.62923 16.501C8.62938 16.501 8.62955 16.5011 8.62972 16.5011C8.6298 16.5012 8.62993 16.5012 8.62997 16.5012C8.63011 16.5013 8.63024 16.5013 8.37628 17.207Z" fill="#172B4E"/>
</svg>
