<?xml version="1.0" encoding="UTF-8"?>
<svg width="24px" height="24px" viewBox="0 0 24 24" version="1.1" xmlns="http://www.w3.org/2000/svg" xmlns:xlink="http://www.w3.org/1999/xlink">
    <!-- Generator: Sketch 57.1 (83088) - https://sketch.com -->
    <title>Icon/Service/flyer</title>
    <desc>Created with Sketch.</desc>
    <defs>
        <path d="M22,6.4 L16.2,4 L16.2,2.8 C16.2,1.5 15.1,0.4 13.8,0.4 L4,0.4 C2.7,0.4 1.6,1.5 1.6,2.8 L1.6,16.5 C1.6,17.8 2.7,18.9 4,18.9 L4.9,18.9 C5.1,19.2 5.5,19.5 5.9,19.7 L15,23.5 C15.3,23.6 15.6,23.7 15.9,23.7 C16.2,23.7 16.5,23.6 16.8,23.5 C17.4,23.3 17.9,22.8 18.1,22.2 L23.3,9.6 C23.8,8.3 23.2,6.9 22,6.4 Z M4.4,16.9 L4,16.9 C3.8,16.9 3.6,16.7 3.6,16.5 L3.6,2.8 C3.6,2.6 3.8,2.4 4,2.4 L13.8,2.4 C14,2.4 14.2,2.6 14.2,2.8 L14.2,3.1 L14.2,5.3 L14.2,16.5 C14.2,16.7 14,16.9 13.8,16.9 L6.5,16.9 L4.4,16.9 Z M21.4,8.8 L16.2,21.4 C16.1,21.5 16,21.6 16,21.6 C15.9,21.6 15.8,21.7 15.7,21.6 L9.2,18.9 L13.8,18.9 C15.1,18.9 16.2,17.8 16.2,16.5 L16.2,6.2 L21.2,8.3 C21.4,8.3 21.5,8.6 21.4,8.8 Z" id="path-1"></path>
    </defs>
    <g id="Icon/Service/flyer" stroke="none" stroke-width="1" fill="none" fill-rule="evenodd">
        <mask id="mask-2" fill="white">
            <use xlink:href="#path-1"></use>
        </mask>
        <use id="Shape" fill="#172B4E" fill-rule="nonzero" xlink:href="#path-1"></use>
        <g id="Color/Neutral/Darkest" mask="url(#mask-2)" fill="#172B4E" fill-rule="nonzero">
            <rect id="Rectangle" x="0" y="0" width="24" height="24"></rect>
        </g>
    </g>
</svg>