<svg width="18" height="18" viewBox="0 0 18 18" fill="none" xmlns="http://www.w3.org/2000/svg">
<path d="M0.996598 8.47959C0.867511 7.70506 1.46479 7 2.25 7V7C3.03521 7 3.63249 7.70506 3.5034 8.47959L2.8322 12.5068C2.78477 12.7914 2.53853 13 2.25 13V13C1.96147 13 1.71523 12.7914 1.6678 12.5068L0.996598 8.47959Z" stroke="#172B4E" stroke-width="1.5"/>
<path d="M15 15H3C3 14.5 3 13.4 3 13C3 10.79 4.79 9 7 9C7.25 9 8.125 9 9 9" stroke="#172B4E" stroke-width="1.5"/>
<path d="M4 10.5C4 9.33333 4 6.4 4 6C4 5.28903 4.14864 4.61256 4.41652 4" stroke="#172B4E" stroke-width="1.5"/>
<path d="M5 15L4 17" stroke="#172B4E" stroke-width="1.5" stroke-linecap="round" stroke-linejoin="round"/>
<path d="M14 17L13 15" stroke="#172B4E" stroke-width="1.5" stroke-linecap="round" stroke-linejoin="round"/>
<path d="M0.75 0.75L17.25 17.25" stroke="#172B4E" stroke-width="1.5" stroke-linecap="round" stroke-linejoin="round"/>
<path d="M14.25 7H14.8891C16.125 7 17.065 8.10973 16.8619 9.3288L16.25 13" stroke="#172B4E" stroke-width="1.5" stroke-linecap="round"/>
<path d="M13.3754 8.88544C13.0168 8.67811 12.558 8.80074 12.3507 9.15934C12.1434 9.51793 12.266 9.9767 12.6246 10.184L13.3754 8.88544ZM14.0142 11.7813C14.1696 12.1653 14.6068 12.3507 14.9907 12.1953C15.3747 12.04 15.5601 11.6028 15.4048 11.2188L14.0142 11.7813ZM15.4048 11.2188C15.0058 10.2324 14.2863 9.41208 13.3754 8.88544L12.6246 10.184C13.2488 10.5449 13.7417 11.1075 14.0142 11.7813L15.4048 11.2188Z" fill="#172B4E"/>
<path d="M14 10C14 8.83333 14 6.4 14 6C14 3.24 11.76 1 8.99996 1C8.01017 1 7.08726 1.28808 6.31055 1.78492" stroke="#172B4E" stroke-width="1.5" stroke-linecap="round"/>
</svg>
