<svg width="18" height="18" viewBox="0 0 18 18" fill="none" xmlns="http://www.w3.org/2000/svg">
<path d="M9.70726 16.4576V7.42162C9.70726 5.89976 9.13656 4.56813 8.09029 3.61697C7.04401 2.66581 5.8075 2 4.28564 2" stroke="#172B4E" stroke-width="1.5" stroke-miterlimit="10" stroke-linecap="round" stroke-linejoin="round"/>
<path d="M9.23138 11.3213C9.23138 11.5115 9.23138 11.7018 9.23138 11.892C9.04115 11.892 8.85092 11.892 8.66069 11.892C6.09255 11.892 4 9.79944 4 7.23131C4 7.04108 4 6.85085 4 6.66061C4.19023 6.66061 4.38046 6.66061 4.5707 6.66061C7.13883 6.66061 9.23138 8.75317 9.23138 11.3213Z" stroke="#172B4E" stroke-width="1.5" stroke-miterlimit="10" stroke-linecap="round" stroke-linejoin="round"/>
<path d="M9.99219 6.66069C9.99219 6.85092 9.99219 7.04115 9.99219 7.23138C10.1824 7.23138 10.3727 7.23138 10.5629 7.23138C13.131 7.23138 15.2236 5.13883 15.2236 2.5707C15.2236 2.38046 15.2236 2.19023 15.2236 2C15.0333 2 14.8431 2 14.6529 2C12.0847 2 9.99219 4.09255 9.99219 6.66069Z" stroke="#172B4E" stroke-width="1.5" stroke-miterlimit="10" stroke-linecap="round" stroke-linejoin="round"/>
</svg>
