<svg width="18" height="18" viewBox="0 0 18 18" fill="none" xmlns="http://www.w3.org/2000/svg">
<path d="M12.7127 2.24866C13.807 2.24866 14.8565 2.68352 15.6302 3.45753C16.4042 4.23117 16.8391 5.28067 16.8391 6.37503C16.8391 7.46938 16.4042 8.51888 15.6302 9.29253L14.8352 10.0875L9.00019 15.9225L8.1001 10L9.6401 8.5L9.00019 4.25253L9.79519 3.45753C10.5688 2.68352 11.6183 2.24866 12.7127 2.24866Z" stroke="#172B4E" stroke-width="1.5" stroke-linecap="round" stroke-linejoin="round"/>
<path d="M2.37009 9.29252C0.758798 7.68123 0.758798 5.06881 2.37009 3.45752C3.39986 2.42775 4.83855 2.0561 6.16347 2.34258L6.94 7.6L5.4 9.1L5.86718 12.7896L3.16509 10.0875L2.37009 9.29252Z" stroke="#172B4E" stroke-width="1.5" stroke-linecap="round" stroke-linejoin="round"/>
</svg>
