<svg width="18" height="18" viewBox="0 0 18 18" fill="none" xmlns="http://www.w3.org/2000/svg">
<path fill-rule="evenodd" clip-rule="evenodd" d="M2.25 4.25C2.25 3.14543 3.14543 2.25 4.25 2.25H13.75C14.8546 2.25 15.75 3.14543 15.75 4.25V13.75C15.75 14.8546 14.8546 15.75 13.75 15.75H4.25C3.14543 15.75 2.25 14.8546 2.25 13.75V4.25Z" stroke="#172B4E" stroke-width="1.5" stroke-linecap="round" stroke-linejoin="round"/>
<path fill-rule="evenodd" clip-rule="evenodd" d="M6.375 7.5C6.99632 7.5 7.5 6.99632 7.5 6.375C7.5 5.75368 6.99632 5.25 6.375 5.25C5.75368 5.25 5.25 5.75368 5.25 6.375C5.25 6.99632 5.75368 7.5 6.375 7.5Z" stroke="#172B4E" stroke-width="1.5" stroke-linecap="round" stroke-linejoin="round"/>
<path d="M15.75 11.25L12 7.5L3.75 15.75" stroke="#172B4E" stroke-width="1.5" stroke-linecap="round" stroke-linejoin="round"/>
</svg>
