<svg width="18" height="18" viewBox="0 0 18 18" fill="none" xmlns="http://www.w3.org/2000/svg">
<path d="M3.07911 16.373C4.22737 16.373 5.15821 15.4421 5.15821 14.2939C5.15821 13.1456 4.22737 12.2148 3.07911 12.2148C1.93085 12.2148 1 13.1456 1 14.2939C1 15.4421 1.93085 16.373 3.07911 16.373Z" stroke="#172B4E" stroke-width="1.5" stroke-miterlimit="10" stroke-linecap="round" stroke-linejoin="round"/>
<path d="M7.05665 8.23738C8.20491 8.23738 9.13575 7.30653 9.13575 6.15827C9.13575 5.01001 8.20491 4.07916 7.05665 4.07916C5.90839 4.07916 4.97754 5.01001 4.97754 6.15827C4.97754 7.30653 5.90839 8.23738 7.05665 8.23738Z" stroke="#172B4E" stroke-width="1.5" stroke-miterlimit="10" stroke-linecap="round" stroke-linejoin="round"/>
<path d="M10.9439 14.2939C12.0921 14.2939 13.023 13.363 13.023 12.2148C13.023 11.0665 12.0921 10.1357 10.9439 10.1357C9.79559 10.1357 8.86475 11.0665 8.86475 12.2148C8.86475 13.363 9.79559 14.2939 10.9439 14.2939Z" stroke="#172B4E" stroke-width="1.5" stroke-miterlimit="10" stroke-linecap="round" stroke-linejoin="round"/>
<path d="M14.9209 6.15821C16.0692 6.15821 17 5.22737 17 4.07911C17 2.93085 16.0692 2 14.9209 2C13.7726 2 12.8418 2.93085 12.8418 4.07911C12.8418 5.22737 13.7726 6.15821 14.9209 6.15821Z" stroke="#172B4E" stroke-width="1.5" stroke-miterlimit="10" stroke-linecap="round" stroke-linejoin="round"/>
<path d="M4.07373 12.4859L6.15284 8.32773" stroke="#172B4E" stroke-width="1.5" stroke-miterlimit="10" stroke-linecap="round" stroke-linejoin="round"/>
<path d="M7.96045 8.05646L9.85876 10.4971" stroke="#172B4E" stroke-width="1.5" stroke-miterlimit="10" stroke-linecap="round" stroke-linejoin="round"/>
<path d="M12.0283 10.226L14.017 6.15817" stroke="#172B4E" stroke-width="1.5" stroke-miterlimit="10" stroke-linecap="round" stroke-linejoin="round"/>
</svg>
