<svg width="18" height="18" viewBox="0 0 18 18" fill="none" xmlns="http://www.w3.org/2000/svg">
<path fill-rule="evenodd" clip-rule="evenodd" d="M1.5 6.5C1.5 3.73858 3.73858 1.5 6.5 1.5H11.5C14.2614 1.5 16.5 3.73858 16.5 6.5V11.5C16.5 14.2614 14.2614 16.5 11.5 16.5H6.5C3.73858 16.5 1.5 14.2614 1.5 11.5V6.5Z" stroke="#172B4E" stroke-width="1.5" stroke-linecap="round" stroke-linejoin="round"/>
<path fill-rule="evenodd" clip-rule="evenodd" d="M11.9999 8.5275C12.1897 9.80772 11.5371 11.0654 10.3811 11.6473C9.22503 12.2291 7.82615 12.004 6.91099 11.0889C5.99583 10.1737 5.77073 8.77483 6.3526 7.61878C6.93448 6.46273 8.19213 5.81015 9.47236 6C10.7796 6.19384 11.806 7.22026 11.9999 8.5275Z" stroke="#172B4E" stroke-width="1.5" stroke-linecap="round" stroke-linejoin="round"/>
</svg>
