<?xml version="1.0" encoding="UTF-8"?>
<svg width="24px" height="24px" viewBox="0 0 24 24" version="1.1" xmlns="http://www.w3.org/2000/svg" xmlns:xlink="http://www.w3.org/1999/xlink">
    <!-- Generator: Sketch 57.1 (83088) - https://sketch.com -->
    <title>Icon/Service/interior-3d</title>
    <desc>Created with Sketch.</desc>
    <defs>
        <path d="M12.6,0.2 L21.8,7.1 C21.96,7.22 22.184,7.468 22.3312,7.7224 L22.352,7.762 L22.355,7.767 L22.3740741,7.7962963 C22.3876543,7.82098765 22.4002058,7.84773663 22.4116941,7.87671468 L22.417,7.893 L22.4391424,7.9498048 C22.4656768,8.0239936 22.4814976,8.0954752 22.4828032,8.1609664 L22.481,8.176 L22.4854595,8.20233196 C22.4950617,8.29012346 22.5,8.38888889 22.5,8.5 L22.6,20 C22.5,21.8 21,23.3 19.1,23.3 L5.2,23.3 C3.3,23.3 1.8,21.8 1.8,19.9 L1.8,8.2 C1.8,7.9 1.9,7.6 2.2,7.4 L11.4,0.2 C11.8,-0.1 12.3,-0.1 12.6,0.2 Z M12.1,2.3 L3.9,8.7 L3.9,20 C3.9,20.8 4.5,21.4 5.3,21.4 L19.2,21.4 C20,21.4 20.6,20.8 20.6,20 L20.501,8.625 L12.1,2.3 Z M15.6,7.3 L18.6,10.3 C19,10.7 19,11.3 18.6,11.7 L11.3,19 C11.1,19.2 10.9,19.3 10.6,19.3 L7.5,19.4 C7.2,19.4 7,19.3 6.8,19.1 C6.6,18.9 6.5,18.6 6.5,18.4 L6.6,15.3 C6.6,15 6.7,14.8 6.9,14.6 L14.2,7.3 C14.6,6.9 15.2,6.9 15.6,7.3 Z M14.9,9.4 L8.6,15.7 L8.5,17.3 L10.1,17.2 L16.5,11 L14.9,9.4 Z M21.5,7.5 C20.9,7.5 20.5,7.9 20.5,8.5 L20.5,8.5 L20.501,8.625 L20.6,8.7 C20.9764706,8.98235294 20.9986159,8.55605536 21.8336251,8.50492571 L22,8.5 C22.32,8.5 22.45568,8.38736 22.4791296,8.2243392 L22.481,8.176 L22.4675926,8.0787037 C22.4604938,8.04012346 22.4522634,8.00411523 22.4429355,7.97050754 L22.417,7.893 L22.4091776,7.8748352 C22.3980928,7.8496256 22.3859584,7.8242368 22.3729152,7.7987904 L22.355,7.767 L22.352,7.762 L22.3302812,7.72822359 C22.1742455,7.5207476 21.9187586,7.50188615 21.5981139,7.50017147 Z" id="path-1"></path>
    </defs>
    <g id="Icon/Service/interior-3d" stroke="none" stroke-width="1" fill="none" fill-rule="evenodd">
        <mask id="mask-2" fill="white">
            <use xlink:href="#path-1"></use>
        </mask>
        <use id="Mask" fill="#172B4E" fill-rule="nonzero" xlink:href="#path-1"></use>
        <g id="Color/Neutral/Darkest" mask="url(#mask-2)" fill="#172B4E" fill-rule="nonzero">
            <rect id="Rectangle" x="0" y="0" width="24" height="24"></rect>
        </g>
    </g>
</svg>