<?xml version="1.0" encoding="UTF-8"?>
<svg width="24px" height="24px" viewBox="0 0 24 24" version="1.1" xmlns="http://www.w3.org/2000/svg" xmlns:xlink="http://www.w3.org/1999/xlink">
    <!-- Generator: Sketch 57.1 (83088) - https://sketch.com -->
    <title>Icon/Service/landing-page</title>
    <desc>Created with Sketch.</desc>
    <defs>
        <path d="M23,14.6 L22.2,14.6 L22.2,5.8 C22.2,4.4 21,3.2 19.5,3.2 L4.2,3.2 C2.7,3.2 1.5,4.4 1.5,5.8 L1.5,14.6 L1,14.6 C0.4,14.6 0,15 0,15.6 L0,18.2 C0,20 1.5,21.5 3.3,21.5 L20.6,21.5 C22.4,21.5 23.9,20 23.9,18.2 L23.9,15.6 C24,15 23.5,14.6 23,14.6 Z M3.6,5.8 C3.6,5.5 3.9,5.2 4.3,5.2 L19.6,5.2 C20,5.2 20.3,5.5 20.3,5.8 L20.3,14.6 L3.6,14.6 L3.6,5.8 Z M22,18.2 C22,18.9 21.4,19.5 20.7,19.5 L3.3,19.5 C2.6,19.5 2,18.9 2,18.2 L2,16.6 L22,16.6 L22,18.2 Z" id="path-1"></path>
    </defs>
    <g id="Icon/Service/landing-page" stroke="none" stroke-width="1" fill="none" fill-rule="evenodd">
        <mask id="mask-2" fill="white">
            <use xlink:href="#path-1"></use>
        </mask>
        <use id="Shape" fill="#172B4E" fill-rule="nonzero" xlink:href="#path-1"></use>
        <g id="Color/Neutral/Darkest" mask="url(#mask-2)" fill="#172B4E" fill-rule="nonzero">
            <rect id="Rectangle" x="0" y="0" width="24" height="24"></rect>
        </g>
    </g>
</svg>