<svg width="18" height="18" viewBox="0 0 18 18" fill="none" xmlns="http://www.w3.org/2000/svg">
<path fill-rule="evenodd" clip-rule="evenodd" d="M3.75 1.75C3.75 1.19772 4.19772 0.75 4.75 0.75H13.25C13.8023 0.75 14.25 1.19772 14.25 1.75V5.25C14.25 5.80228 13.8023 6.25 13.25 6.25H4.75C4.19772 6.25 3.75 5.80228 3.75 5.25V1.75Z" stroke="#172B4E" stroke-width="1.5" stroke-linecap="round" stroke-linejoin="round"/>
<path d="M0.75 11.75V14C0.75 14.5523 1.19772 15 1.75 15H9M0.75 11.75V10.25C0.75 9.69772 1.19772 9.25 1.75 9.25H16.25C16.8023 9.25 17.25 9.69772 17.25 10.25V11.75M0.75 11.75H17.25M17.25 11.75V14C17.25 14.5523 16.8023 15 16.25 15H9M9 6.25V15" stroke="#172B4E" stroke-width="1.5" stroke-linecap="round" stroke-linejoin="round"/>
<path d="M4 15L3 17" stroke="#172B4E" stroke-width="1.5" stroke-linecap="round" stroke-linejoin="round"/>
<path d="M15 17L14 15" stroke="#172B4E" stroke-width="1.5" stroke-linecap="round" stroke-linejoin="round"/>
</svg>
