<?xml version="1.0" encoding="UTF-8"?>
<svg width="24px" height="24px" viewBox="0 0 24 24" version="1.1" xmlns="http://www.w3.org/2000/svg" xmlns:xlink="http://www.w3.org/1999/xlink">
    <!-- Generator: Sketch 54.1 (76490) - https://sketchapp.com -->
    <title>Icon/Feather/mail</title>
    <desc>Created with Sketch.</desc>
    <defs>
        <path d="M23.0000363,5.98265144 C23.0001986,5.99252169 23.0002149,6.00238891 23.0000859,6.01224973 L23.0000859,18 C23.0000859,19.6522847 21.6523706,21 20.0000859,21 L4.00008586,21 C2.34780111,21 1.00008586,19.6522847 1.00008586,18 L1.00008586,6.01224973 C0.999956825,6.00238891 0.999973141,5.99252169 1.00013541,5.98265144 C1.00952949,4.33829189 2.35358772,3 4.00008586,3 L20.0000859,3 C21.646584,3 22.9906422,4.33829189 23.0000363,5.98265144 Z M20.8935085,5.5539486 C20.7281283,5.22692322 20.3880471,5 20.0000859,5 L4.00008586,5 C3.61212463,5 3.27204341,5.22692322 3.10666324,5.5539486 L12.0000859,11.7793444 L20.8935085,5.5539486 Z M21.0000859,7.92065556 L12.5735482,13.8192319 C12.2292281,14.060256 11.7709437,14.060256 11.4266235,13.8192319 L3.00008586,7.92065556 L3.00008586,18 C3.00008586,18.5477153 3.45237061,19 4.00008586,19 L20.0000859,19 C20.5478011,19 21.0000859,18.5477153 21.0000859,18 L21.0000859,7.92065556 Z" id="path-1"></path>
    </defs>
    <g id="Icon/Feather/mail" stroke="none" stroke-width="1" fill="none" fill-rule="evenodd">
        <mask id="mask-2" fill="white">
            <use xlink:href="#path-1"></use>
        </mask>
        <use id="Combined-Shape" fill="#000000" fill-rule="nonzero" xlink:href="#path-1"></use>
        <g id="Color/Neutral/Black" mask="url(#mask-2)" fill="#172B4E" fill-rule="nonzero">
            <rect id="Rectangle" x="0" y="0" width="24" height="24"></rect>
        </g>
    </g>
</svg>