<svg width="18" height="18" viewBox="0 0 18 18" fill="none" xmlns="http://www.w3.org/2000/svg">
<path d="M6.75 2.25C6.75 1.83579 6.41421 1.5 6 1.5C5.58579 1.5 5.25 1.83579 5.25 2.25H6.75ZM2.25 5.25C1.83579 5.25 1.5 5.58579 1.5 6C1.5 6.41421 1.83579 6.75 2.25 6.75V5.25ZM15.75 6.75C16.1642 6.75 16.5 6.41421 16.5 6C16.5 5.58579 16.1642 5.25 15.75 5.25V6.75ZM12.75 2.25C12.75 1.83579 12.4142 1.5 12 1.5C11.5858 1.5 11.25 1.83579 11.25 2.25H12.75ZM11.25 15.75C11.25 16.1642 11.5858 16.5 12 16.5C12.4142 16.5 12.75 16.1642 12.75 15.75H11.25ZM15.75 12.75C16.1642 12.75 16.5 12.4142 16.5 12C16.5 11.5858 16.1642 11.25 15.75 11.25V12.75ZM2.25 11.25C1.83579 11.25 1.5 11.5858 1.5 12C1.5 12.4142 1.83579 12.75 2.25 12.75V11.25ZM5.25 15.75C5.25 16.1642 5.58579 16.5 6 16.5C6.41421 16.5 6.75 16.1642 6.75 15.75H5.25ZM5.25 2.25V4.5H6.75V2.25H5.25ZM5.25 4.5C5.25 4.91421 4.91421 5.25 4.5 5.25V6.75C5.74264 6.75 6.75 5.74264 6.75 4.5H5.25ZM4.5 5.25H2.25V6.75H4.5V5.25ZM15.75 5.25H13.5V6.75H15.75V5.25ZM13.5 5.25C13.0858 5.25 12.75 4.91421 12.75 4.5H11.25C11.25 5.74264 12.2574 6.75 13.5 6.75V5.25ZM12.75 4.5V2.25H11.25V4.5H12.75ZM12.75 15.75V13.5H11.25V15.75H12.75ZM12.75 13.5C12.75 13.0858 13.0858 12.75 13.5 12.75V11.25C12.2574 11.25 11.25 12.2574 11.25 13.5H12.75ZM13.5 12.75H15.75V11.25H13.5V12.75ZM2.25 12.75H4.5V11.25H2.25V12.75ZM4.5 12.75C4.91421 12.75 5.25 13.0858 5.25 13.5H6.75C6.75 12.2574 5.74264 11.25 4.5 11.25V12.75ZM5.25 13.5V15.75H6.75V13.5H5.25Z" fill="#172B4E"/>
</svg>
