<svg width="18" height="18" viewBox="0 0 18 18" fill="none" xmlns="http://www.w3.org/2000/svg">
<path d="M6.75 12.75H7.5C7.5 12.3358 7.16421 12 6.75 12V12.75ZM15.75 11.25H16.5C16.5 10.8358 16.1642 10.5 15.75 10.5V11.25ZM6.75 12H3.75V13.5H6.75V12ZM3.75 12C2.50736 12 1.5 13.0074 1.5 14.25H3C3 13.8358 3.33579 13.5 3.75 13.5V12ZM1.5 14.25C1.5 15.4926 2.50736 16.5 3.75 16.5V15C3.33579 15 3 14.6642 3 14.25H1.5ZM3.75 16.5H5.25V15H3.75V16.5ZM5.25 16.5C6.49264 16.5 7.5 15.4926 7.5 14.25H6C6 14.6642 5.66421 15 5.25 15V16.5ZM7.5 14.25V12.75H6V14.25H7.5ZM15.75 10.5H12.75V12H15.75V10.5ZM12.75 10.5C11.5074 10.5 10.5 11.5074 10.5 12.75H12C12 12.3358 12.3358 12 12.75 12V10.5ZM10.5 12.75C10.5 13.9926 11.5074 15 12.75 15V13.5C12.3358 13.5 12 13.1642 12 12.75H10.5ZM12.75 15H14.25V13.5H12.75V15ZM14.25 15C15.4926 15 16.5 13.9926 16.5 12.75H15C15 13.1642 14.6642 13.5 14.25 13.5V15ZM16.5 12.75V11.25H15V12.75H16.5Z" fill="#172B4E"/>
<path d="M6.75 12.75V3.75L15.75 2.25V11.25" stroke="#172B4E" stroke-width="1.5" stroke-linecap="round" stroke-linejoin="round"/>
</svg>
