<svg width="18" height="18" viewBox="0 0 18 18" fill="none" xmlns="http://www.w3.org/2000/svg">
<path d="M4.05189 5.50942C4.86278 4.93703 5.87414 4.50784 7 4.25623M1.19189 9.79942C2.30412 10.9116 3.09856 11.6266 4.21078 12.5005C5.48189 13.5333 7.22967 14.01 9.37467 14.01C13.5852 14.01 16.9219 11.7855 16.9219 9.00498C16.9219 8.29049 16.6963 7.61272 16.291 6.99998" stroke="#172B4E" stroke-width="1.5" stroke-miterlimit="10" stroke-linecap="round" stroke-linejoin="round"/>
<path d="M0.794434 13.7716V9.16382H5.48165" stroke="#172B4E" stroke-width="1.5" stroke-miterlimit="10" stroke-linecap="round" stroke-linejoin="round"/>
<path d="M5.50954 4.05189C4.93715 4.86278 4.50796 5.87414 4.25635 7M9.79954 1.19189C10.9118 2.30412 11.6268 3.09856 12.5007 4.21078C13.5334 5.48189 14.0101 7.22967 14.0101 9.37467C14.0101 13.5852 11.7857 16.9219 9.0051 16.9219C7.91112 16.9219 6.90322 16.3931 6.08301 15.5" stroke="#172B4E" stroke-width="1.5" stroke-miterlimit="10" stroke-linecap="round" stroke-linejoin="round"/>
<path d="M13.7718 0.794434L9.16406 0.794434V5.48165" stroke="#172B4E" stroke-width="1.5" stroke-miterlimit="10" stroke-linecap="round" stroke-linejoin="round"/>
</svg>
