<?xml version="1.0" encoding="UTF-8"?>
<svg width="24px" height="24px" viewBox="0 0 24 24" version="1.1" xmlns="http://www.w3.org/2000/svg" xmlns:xlink="http://www.w3.org/1999/xlink">
    <!-- Generator: Sketch 54.1 (76490) - https://sketchapp.com -->
    <title>Icon/Feather/phone-outgoing</title>
    <desc>Created with Sketch.</desc>
    <defs>
        <path d="M21.8881274,4.41421356 L16.5952342,9.70710678 C16.2047099,10.0976311 15.5715449,10.0976311 15.1810206,9.70710678 C14.7904963,9.31658249 14.7904963,8.68341751 15.1810206,8.29289322 L20.4739139,3 L16.8881274,3 C16.3358427,3 15.8881274,2.55228475 15.8881274,2 C15.8881274,1.44771525 16.3358427,1 16.8881274,1 L22.8881274,1 C23.4404122,1 23.8881274,1.44771525 23.8881274,2 L23.8881274,8 C23.8881274,8.55228475 23.4404122,9 22.8881274,9 C22.3358427,9 21.8881274,8.55228475 21.8881274,8 L21.8881274,4.41421356 Z M22.8881192,20.915941 C22.8915479,21.7606587 22.5386911,22.5676786 21.916236,23.1387383 C21.2937808,23.7097981 20.4594151,23.9919732 19.6001051,23.9141485 C16.367448,23.5628939 13.2622533,22.4582649 10.5418059,20.6940138 C8.00172781,19.0799425 5.84818497,16.9263996 4.23884754,14.3936996 C2.46342782,11.6530797 1.358548,8.53278385 1.0121857,5.27000044 C0.936395512,4.43130894 1.21659371,3.59937908 1.78433437,2.97743203 C2.35207502,2.35548498 3.15507706,2.00079348 3.99812742,2 L6.98828577,2.00004843 C8.49408185,1.98522819 9.77753704,3.08899965 9.98954181,4.58924251 C10.1063032,5.47453743 10.322841,6.34378194 10.6341797,7.17813912 C11.0462822,8.27445166 10.7827023,9.51034851 9.9552342,10.3471068 L9.23814163,11.0641994 C10.4139976,12.9088481 11.9792846,14.4741344 13.8239339,15.6499895 L14.5449883,14.9289477 C15.3777789,14.1054251 16.6136758,13.8418452 17.7077323,14.2531028 C18.5443455,14.5652864 19.41359,14.7818242 20.3078197,14.899805 C21.8116623,15.1119605 22.9189792,16.4141882 22.8881274,17.9311768 L22.8881192,20.915941 Z M20.8881274,17.92 C20.9010301,17.3875913 20.5312165,16.9511251 20.0373699,16.8814144 C19.002532,16.7449298 17.9864556,16.4918147 17.0062665,16.1260523 C16.640829,15.9886848 16.2288634,16.0765448 15.9552342,16.3471068 L14.6852342,17.6171068 C14.3669212,17.9354198 13.8751568,18.0018074 13.4838329,17.7792945 C10.8238155,16.2667668 8.6213606,14.064312 7.10883291,11.4042945 C6.88632003,11.0129707 6.95270764,10.5212062 7.27102064,10.2028932 L8.53707512,8.93686088 C8.81158265,8.65926402 8.89944262,8.2472984 8.76123017,7.87960484 C8.39631276,6.90167182 8.14319766,5.88559547 8.00796907,4.85995157 C7.93771949,4.36293531 7.5099011,3.99501149 6.99812742,4 L3.99906915,3.99999956 C3.71836627,4.0002639 3.45069892,4.1184944 3.26145204,4.32581008 C3.07220515,4.53312577 2.97880575,4.81043572 3.00253616,5.07440043 C3.31419285,8.00920526 4.31278313,10.8293283 5.92214121,13.3136785 C7.37874217,15.6059441 9.32218327,17.5493853 11.6222286,19.0109804 C14.0879999,20.6100241 16.8944746,21.6083877 19.7981357,21.924059 C20.0785676,21.949403 20.3566895,21.8553447 20.5641746,21.6649914 C20.7716596,21.4746382 20.8892786,21.2056315 20.8881274,20.92 L20.8881274,17.92 Z" id="path-1"></path>
    </defs>
    <g id="Icon/Feather/phone-outgoing" stroke="none" stroke-width="1" fill="none" fill-rule="evenodd">
        <mask id="mask-2" fill="white">
            <use xlink:href="#path-1"></use>
        </mask>
        <use id="Combined-Shape" fill="#000000" fill-rule="nonzero" xlink:href="#path-1"></use>
        <g id="Color/Neutral/Black" mask="url(#mask-2)" fill="#172B4E" fill-rule="nonzero">
            <rect id="Rectangle" x="0" y="0" width="24" height="24"></rect>
        </g>
    </g>
</svg>