<svg width="18" height="18" viewBox="0 0 18 18" fill="none" xmlns="http://www.w3.org/2000/svg">
<path d="M10.6812 3.76388C10.2747 3.68456 9.8808 3.94983 9.80148 4.35638C9.72216 4.76293 9.98743 5.1568 10.394 5.23612L10.6812 3.76388ZM12.764 7.60612C12.8433 8.01267 13.2372 8.27794 13.6437 8.19862C14.0503 8.1193 14.3155 7.72543 14.2362 7.31888L12.764 7.60612ZM10.6204 0.754586C10.2087 0.708851 9.83792 1.00551 9.79219 1.41719C9.74645 1.82887 10.0431 2.19968 10.4548 2.24541L10.6204 0.754586ZM15.7548 7.53875C15.801 7.95037 16.1722 8.24656 16.5838 8.20031C16.9955 8.15406 17.2917 7.78288 17.2454 7.37125L15.7548 7.53875ZM15.7501 15.69H15.0001L15.0001 15.693L15.7501 15.69ZM14.1151 17.19L14.034 17.9357L14.0476 17.9369L14.1151 17.19ZM7.64258 14.8875L8.05067 14.2582L8.04482 14.2545L7.64258 14.8875ZM3.14258 10.3875L3.77561 9.98524L3.77204 9.97972L3.14258 10.3875ZM0.840077 3.885L0.0930291 3.9525L0.0942706 3.9642L0.840077 3.885ZM2.33258 2.25V1.5L2.33187 1.5L2.33258 2.25ZM4.58258 2.25V3.00003L4.58996 2.99996L4.58258 2.25ZM6.08258 3.54L6.82617 3.44192L6.82519 3.43503L6.08258 3.54ZM6.60758 5.6475L5.9049 5.9097L5.90554 5.91139L6.60758 5.6475ZM6.27008 7.22999L6.80041 7.76033L6.80337 7.75735L6.27008 7.22999ZM5.31758 8.18249L4.78725 7.65216C4.54851 7.8909 4.49872 8.25972 4.66561 8.55322L5.31758 8.18249ZM9.81758 12.6825L9.44685 13.3345C9.74035 13.5013 10.1092 13.4516 10.3479 13.2128L9.81758 12.6825ZM10.7701 11.73L10.2427 11.1967L10.2397 11.1997L10.7701 11.73ZM12.3526 11.3925L12.0887 12.0945L12.0904 12.0952L12.3526 11.3925ZM14.4601 11.9175L14.5648 11.1748L14.5581 11.1739L14.4601 11.9175ZM10.394 5.23612C11.5928 5.47001 12.5301 6.40733 12.764 7.60612L14.2362 7.31888C13.8854 5.52069 12.4794 4.11471 10.6812 3.76388L10.394 5.23612ZM10.4548 2.24541C13.2412 2.55496 15.4417 4.75277 15.7548 7.53875L17.2454 7.37125C16.8541 3.88879 14.1034 1.14151 10.6204 0.754586L10.4548 2.24541ZM15.0001 13.44V15.69H16.5001V13.44H15.0001ZM15.0001 15.693C15.0009 15.9042 14.9127 16.106 14.7571 16.2487L15.7712 17.354C16.238 16.9258 16.5026 16.3205 16.5001 15.6869L15.0001 15.693ZM14.7571 16.2487C14.6015 16.3915 14.3929 16.462 14.1826 16.443L14.0476 17.9369C14.6785 17.994 15.3043 17.7823 15.7712 17.354L14.7571 16.2487ZM14.1961 16.4444C12.0048 16.2063 9.89998 15.4575 8.05065 14.2582L7.2345 15.5168C9.28067 16.8437 11.6096 17.6722 14.0341 17.9356L14.1961 16.4444ZM8.04482 14.2545C6.32562 13.162 4.86804 11.7045 3.77559 9.98525L2.50957 10.7897C3.72012 12.6948 5.33528 14.3099 7.24034 15.5205L8.04482 14.2545ZM3.77204 9.97972C2.56857 8.12199 1.81963 6.0069 1.58588 3.8058L0.0942706 3.9642C0.352893 6.39958 1.18155 8.7398 2.51312 10.7953L3.77204 9.97972ZM1.58703 3.8175C1.56809 3.60782 1.63814 3.39984 1.78007 3.24435L0.672232 2.23307C0.246427 2.69953 0.0362783 3.32348 0.0931209 3.9525L1.58703 3.8175ZM1.78007 3.24435C1.92201 3.08887 2.12276 3.00019 2.33328 3L2.33187 1.5C1.70029 1.50059 1.09804 1.76661 0.672232 2.23307L1.78007 3.24435ZM2.33258 3H4.58258V1.5H2.33258V3ZM4.58996 2.99996C4.96641 2.99625 5.28727 3.2722 5.33996 3.64496L6.82519 3.43503C6.66713 2.31675 5.70454 1.48892 4.5752 1.50003L4.58996 2.99996ZM5.33902 3.63806C5.44138 4.41419 5.63122 5.17625 5.9049 5.9097L7.31025 5.38529C7.07611 4.75783 6.91371 4.1059 6.82614 3.44193L5.33902 3.63806ZM5.90554 5.91139C6.00856 6.18547 5.94267 6.49444 5.73679 6.70264L6.80337 7.75735C7.42101 7.13276 7.61869 6.20583 7.30962 5.3836L5.90554 5.91139ZM5.73975 6.69966L4.78725 7.65216L5.84791 8.71282L6.80041 7.76032L5.73975 6.69966ZM4.66561 8.55322C5.8 10.5482 7.45184 12.2001 9.44685 13.3345L10.1883 12.0305C8.42799 11.0296 6.97048 9.57208 5.96955 7.81177L4.66561 8.55322ZM10.3479 13.2128L11.3004 12.2603L10.2397 11.1997L9.28725 12.1522L10.3479 13.2128ZM11.2974 12.2633C11.5056 12.0574 11.8146 11.9915 12.0887 12.0945L12.6165 10.6905C11.7942 10.3814 10.8673 10.5791 10.2427 11.1967L11.2974 12.2633ZM12.0904 12.0952C12.8238 12.3689 13.5859 12.5587 14.362 12.6611L14.5581 11.1739C13.8942 11.0864 13.2422 10.924 12.6148 10.6898L12.0904 12.0952ZM14.3553 12.6601C14.7324 12.7133 15.0098 13.0407 15.0003 13.4214L16.4998 13.4586C16.5282 12.3165 15.6961 11.3344 14.5648 11.1748L14.3553 12.6601Z" fill="#172B4E"/>
</svg>
