<svg width="18" height="18" viewBox="0 0 18 18" fill="none" xmlns="http://www.w3.org/2000/svg">
<path d="M7.78273 9.45426C7.79003 9.31698 7.81034 9.17703 7.84428 9.03557L7.78273 9.45426ZM7.78273 9.45426L7.73386 9.36227L7.25194 11.2339L7.97825 11.4209L7.25193 11.2339L7.25191 11.234L7.25184 11.2342L7.25155 11.2354L7.25038 11.2399L7.24582 11.2576L7.22836 11.3254L7.16516 11.5703C7.11235 11.7748 7.04077 12.0516 6.96564 12.3411C6.81405 12.9251 6.65182 13.5457 6.59742 13.7391L6.59732 13.7395C6.47011 14.1927 6.25115 14.6529 6.01668 15.0645C6.0165 14.583 6.05371 14.0626 6.16691 13.5863C6.26128 13.202 6.56001 11.9068 6.83329 10.716C6.97074 10.1171 7.10244 9.54159 7.19977 9.11583L7.31643 8.60524L7.34873 8.46375L7.3572 8.42663L7.35937 8.41713L7.35992 8.41472L7.36006 8.41411L7.36009 8.41396L6.62889 8.2471L7.3601 8.41391L7.4315 8.10091L7.26333 7.84679C7.26172 7.84378 7.25936 7.83928 7.25639 7.83328C7.24448 7.80924 7.22257 7.761 7.19864 7.68841C7.15112 7.54425 7.09381 7.29876 7.09381 6.94845C7.09381 5.84291 7.7044 5.40521 8.14294 5.40521C8.402 5.40521 8.49586 5.48168 8.53279 5.52242C8.58054 5.57509 8.64726 5.69784 8.64726 5.94753C8.64726 6.24245 8.54621 6.66587 8.37223 7.24015C8.33037 7.37834 8.28439 7.52493 8.2367 7.677C8.10147 8.10815 7.95245 8.58329 7.84434 9.03535C7.84438 9.03516 7.84443 9.03498 7.84447 9.03479L7.78273 9.45426ZM4.54901 9.36034C3.87081 8.8941 3.47021 7.97033 3.47021 6.73941C3.47021 4.54618 5.36815 1.75 9.38461 1.75C12.5702 1.75 14.5378 3.99253 14.5325 6.26887V6.27061C14.5325 7.9336 14.0626 9.29405 13.3088 10.2229C12.5645 11.1401 11.5188 11.6718 10.2525 11.6718C10.0706 11.6718 9.89308 11.6557 9.7256 11.6263C9.83038 11.6388 9.93657 11.6451 10.0434 11.6451C11.2744 11.6451 12.2244 10.8859 12.8296 9.87139C13.4331 8.85966 13.7519 7.51852 13.7519 6.09324C13.7519 4.91254 13.3459 3.81734 12.5252 3.01744C11.7038 2.21687 10.5339 1.7767 9.12487 1.7767C7.53776 1.7767 6.20937 2.3134 5.27979 3.28897C4.35509 4.25941 3.88971 5.59582 3.88971 7.08148C3.88971 7.55654 3.95994 7.96566 4.10544 8.33653C4.2378 8.67389 4.42034 8.94842 4.61923 9.19043C4.59927 9.24036 4.57556 9.2971 4.54901 9.36034Z" fill="white" stroke="#172B4E" stroke-width="1.5"/>
</svg>
