<?xml version="1.0" encoding="UTF-8"?>
<svg width="24px" height="24px" viewBox="0 0 24 24" version="1.1" xmlns="http://www.w3.org/2000/svg" xmlns:xlink="http://www.w3.org/1999/xlink">
    <!-- Generator: Sketch 57.1 (83088) - https://sketch.com -->
    <title>Icon/Service/plan-2d</title>
    <desc>Created with Sketch.</desc>
    <defs>
        <path d="M21.9823009,4 L1.01769912,4 C0.407079646,4 0,4.40963855 0,5.02409639 L0,19.9759036 C0,20.5903614 0.407079646,21 1.01769912,21 L21.9823009,21 C22.5929204,21 23,20.5903614 23,19.9759036 L23,5.02409639 C23,4.51204819 22.4911504,4 21.9823009,4 Z M20.9646018,18.9518072 L15.1637168,18.9518072 L15.1637168,15.5722892 C15.1637168,14.9578313 14.7566372,14.5481928 14.1460177,14.5481928 C13.5353982,14.5481928 13.1283186,14.9578313 13.1283186,15.5722892 L13.1283186,18.9518072 L2.03539823,18.9518072 L2.03539823,6.04819277 L6.81858407,6.04819277 L6.81858407,10.8614458 L4.17256637,10.8614458 C3.5619469,10.8614458 3.15486726,11.2710843 3.15486726,11.8855422 C3.15486726,12.5 3.5619469,12.9096386 4.17256637,12.9096386 L17.8097345,12.9096386 C18.420354,12.9096386 18.8274336,12.5 18.8274336,11.8855422 C18.8274336,11.2710843 18.420354,10.8614458 17.8097345,10.8614458 L8.8539823,10.8614458 L8.8539823,6.04819277 L20.9646018,6.04819277 L20.9646018,18.9518072 Z" id="path-1"></path>
    </defs>
    <g id="Icon/Service/plan-2d" stroke="none" stroke-width="1" fill="none" fill-rule="evenodd">
        <mask id="mask-2" fill="white">
            <use xlink:href="#path-1"></use>
        </mask>
        <use id="Shape" fill="#172B4E" fill-rule="nonzero" xlink:href="#path-1"></use>
        <g id="Color/Neutral/Darkest" mask="url(#mask-2)" fill="#172B4E" fill-rule="nonzero">
            <g transform="translate(0.000000, 1.000000)" id="Rectangle">
                <rect x="0" y="0" width="24" height="24"></rect>
            </g>
        </g>
    </g>
</svg>