<svg width="18" height="18" viewBox="0 0 18 18" fill="none" xmlns="http://www.w3.org/2000/svg">
<path fill-rule="evenodd" clip-rule="evenodd" d="M9 11.25C10.2426 11.25 11.25 10.2426 11.25 9C11.25 7.75736 10.2426 6.75 9 6.75C7.75736 6.75 6.75 7.75736 6.75 9C6.75 10.2426 7.75736 11.25 9 11.25Z" stroke="#172B4E" stroke-width="1.5" stroke-linecap="round" stroke-linejoin="round"/>
<path fill-rule="evenodd" clip-rule="evenodd" d="M14.55 11.25C14.3457 11.7128 14.4437 12.2534 14.7975 12.615L14.8425 12.66C15.1242 12.9413 15.2824 13.3231 15.2824 13.7212C15.2824 14.1194 15.1242 14.5011 14.8425 14.7825C14.5611 15.0642 14.1794 15.2224 13.7812 15.2224C13.3831 15.2224 13.0014 15.0642 12.72 14.7825L12.675 14.7375C12.3134 14.3837 11.7728 14.2857 11.31 14.49C10.8566 14.6843 10.562 15.1293 10.56 15.6225V15.75C10.56 16.5784 9.88843 17.25 9.06 17.25C8.23157 17.25 7.56 16.5784 7.56 15.75V15.6825C7.54812 15.1745 7.2269 14.7254 6.75 14.55C6.28718 14.3457 5.74664 14.4437 5.385 14.7975L5.34 14.8425C5.05865 15.1242 4.67686 15.2824 4.27875 15.2824C3.88064 15.2824 3.49885 15.1242 3.2175 14.8425C2.93583 14.5611 2.77757 14.1794 2.77757 13.7812C2.77757 13.3831 2.93583 13.0013 3.2175 12.72L3.2625 12.675C3.61625 12.3134 3.71426 11.7728 3.51 11.31C3.3157 10.8566 2.87073 10.562 2.3775 10.56H2.25C1.42157 10.56 0.75 9.88842 0.75 9.06C0.75 8.23157 1.42157 7.56 2.25 7.56H2.3175C2.8255 7.54812 3.2746 7.2269 3.45 6.75C3.65426 6.28718 3.55625 5.74664 3.2025 5.385L3.1575 5.34C2.87583 5.05865 2.71757 4.67686 2.71757 4.27875C2.71757 3.88064 2.87583 3.49885 3.1575 3.2175C3.43885 2.93583 3.82064 2.77757 4.21875 2.77757C4.61686 2.77757 4.99865 2.93583 5.28 3.2175L5.325 3.2625C5.68664 3.61625 6.22718 3.71426 6.69 3.51H6.75C7.20335 3.3157 7.49803 2.87073 7.5 2.3775V2.25C7.5 1.42157 8.17157 0.75 9 0.75C9.82843 0.75 10.5 1.42157 10.5 2.25V2.3175C10.502 2.81073 10.7966 3.2557 11.25 3.45C11.7128 3.65426 12.2534 3.55625 12.615 3.2025L12.66 3.1575C12.9414 2.87583 13.3231 2.71757 13.7212 2.71757C14.1194 2.71757 14.5011 2.87583 14.7825 3.1575C15.0642 3.43885 15.2224 3.82064 15.2224 4.21875C15.2224 4.61686 15.0642 4.99865 14.7825 5.28L14.7375 5.325C14.3837 5.68664 14.2857 6.22718 14.49 6.69V6.75C14.6843 7.20335 15.1293 7.49803 15.6225 7.5H15.75C16.5784 7.5 17.25 8.17157 17.25 9C17.25 9.82842 16.5784 10.5 15.75 10.5H15.6825C15.1893 10.502 14.7443 10.7966 14.55 11.25Z" stroke="#172B4E" stroke-width="1.5" stroke-linecap="round" stroke-linejoin="round"/>
</svg>
