<?xml version="1.0" encoding="UTF-8"?>
<svg width="24px" height="24px" viewBox="0 0 24 24" version="1.1" xmlns="http://www.w3.org/2000/svg" xmlns:xlink="http://www.w3.org/1999/xlink">
    <!-- Generator: Sketch 54.1 (76490) - https://sketchapp.com -->
    <title>Icon/Feather/slack</title>
    <desc>Created with Sketch.</desc>
    <defs>
        <path d="M9.1691911,14.5455754 L8.1958997,11.7181367 L6.30284455,12.3697845 C5.7806335,12.5495456 5.21157262,12.2719351 5.0318115,11.749724 C4.85205039,11.227513 5.12966092,10.6584521 5.65187198,10.478691 L7.54492712,9.82704315 L6.8918115,7.92972403 C6.71205039,7.40751298 6.98966092,6.8384521 7.51187198,6.65869098 C8.03408303,6.47892987 8.60314391,6.7565404 8.78290502,7.27875146 L9.43602064,9.17607058 L12.2634593,8.20277918 L11.6118115,6.30972403 C11.4320504,5.78751298 11.7096609,5.2184521 12.231872,5.03869098 C12.754083,4.85892987 13.3231439,5.1365404 13.502905,5.65875146 L14.1545529,7.55180661 L16.051872,6.89869098 C16.574083,6.71892987 17.1431439,6.9965404 17.322905,7.51875146 C17.5026661,8.04096251 17.2250556,8.61002339 16.7028446,8.78978451 L14.8055254,9.44290013 L15.7788168,12.2703388 L17.671872,11.618691 C18.194083,11.4389299 18.7631439,11.7165404 18.942905,12.2387515 C19.1226661,12.7609625 18.8450556,13.3300234 18.3228446,13.5097845 L16.4297894,14.1614323 L17.082905,16.0587515 C17.2626661,16.5809625 16.9850556,17.1500234 16.4628446,17.3297845 C15.9406335,17.5095456 15.3715726,17.2319351 15.1918115,16.709724 L14.5386959,14.8124049 L11.7112572,15.7856963 L12.362905,17.6787515 C12.5426661,18.2009625 12.2650556,18.7700234 11.7428446,18.9497845 C11.2206335,19.1295456 10.6515726,18.8519351 10.4718115,18.329724 L9.82016367,16.4366689 L7.92284455,17.0897845 C7.4006335,17.2695456 6.83157262,16.9919351 6.6518115,16.469724 C6.47205039,15.947513 6.74966092,15.3784521 7.27187198,15.198691 L9.1691911,14.5455754 Z M11.0602846,13.8946028 L13.8877233,12.9213114 L12.9144319,10.0938727 L10.0869932,11.0671641 L11.0602846,13.8946028 Z M23.0254274,8.7077006 C25.4490704,16.7580331 23.3614556,20.5974596 15.2756381,23.031784 C7.22356287,25.4559498 3.38413643,23.3683351 0.949812056,15.2825176 C-1.47435383,7.23044235 0.61326092,3.39101591 8.69907844,0.956691536 C16.7741126,-1.47438639 20.5986283,0.593425154 23.0254274,8.7077006 Z M21.1098121,9.28251757 C18.9989424,2.2245935 16.2901081,0.760000535 9.27563809,2.87178395 C2.243192,4.98897926 0.76047429,7.71591229 2.86490447,14.7059579 C4.98209978,21.738404 7.70903281,23.2211217 14.6990784,21.1166915 C21.7315245,18.9994962 23.2142422,16.2725632 21.1098121,9.28251757 Z" id="path-1"></path>
    </defs>
    <g id="Icon/Feather/slack" stroke="none" stroke-width="1" fill="none" fill-rule="evenodd">
        <mask id="mask-2" fill="white">
            <use xlink:href="#path-1"></use>
        </mask>
        <use id="Combined-Shape" fill="#000000" fill-rule="nonzero" xlink:href="#path-1"></use>
        <g id="Color/Neutral/Black" mask="url(#mask-2)" fill="#172B4E" fill-rule="nonzero">
            <rect id="Rectangle" x="0" y="0" width="24" height="24"></rect>
        </g>
    </g>
</svg>