<svg width="18" height="18" viewBox="0 0 18 18" fill="none" xmlns="http://www.w3.org/2000/svg">
<path d="M7 10.8279L7 11.5779C7.41421 11.5779 7.75 11.2421 7.75 10.8279L7 10.8279ZM4 12.4334L3.25 12.4334C3.25 12.7052 3.39707 12.9558 3.63441 13.0883L4 12.4334ZM7.83445 14.5741L7.46886 15.229C7.58061 15.2913 7.70646 15.3241 7.83445 15.3241L7.83445 14.5741ZM13.9999 14.5741L13.9999 15.3241C14.4141 15.3241 14.7499 14.9883 14.7499 14.5741L13.9999 14.5741ZM13.9999 9.04L13.2499 9.03112L13.2499 9.04L13.9999 9.04ZM13.0471 7.97L12.922 8.7095C12.9279 8.71049 12.9337 8.71141 12.9396 8.71226L13.0471 7.97ZM9.5 7.37L8.75 7.37C8.75 7.73594 9.01409 8.04846 9.37491 8.1095L9.5 7.37ZM7 4.75L7.75 4.75L7 4.75ZM14 14.5742L14.75 14.5742C14.75 14.16 14.4142 13.8242 14 13.8242L14 14.5742ZM7.83447 14.5742L7.83447 13.8242C7.42026 13.8242 7.08447 14.16 7.08447 14.5742L7.83447 14.5742ZM5.68149 11.5779L7 11.5779L7 10.0779L5.68149 10.0779L5.68149 11.5779ZM4.75 12.4334C4.75 11.9933 5.13398 11.5779 5.68149 11.5779L5.68149 10.0779C4.37168 10.0779 3.25 11.1002 3.25 12.4334L4.75 12.4334ZM8.20004 13.9192L4.36559 11.7786L3.63441 13.0883L7.46886 15.229L8.20004 13.9192ZM13.9999 13.8241L7.83445 13.8241L7.83445 15.3241L13.9999 15.3241L13.9999 13.8241ZM13.2499 9.04L13.2499 14.5741L14.7499 14.5741L14.7499 9.04L13.2499 9.04ZM12.9396 8.71226C13.1468 8.74225 13.2515 8.89977 13.25 9.03112L14.7499 9.04888C14.761 8.1128 14.0528 7.3578 13.1546 7.22774L12.9396 8.71226ZM9.37491 8.1095L12.922 8.7095L13.1722 7.2305L9.62509 6.63051L9.37491 8.1095ZM8.75 4.75L8.75 7.37L10.25 7.37L10.25 4.75L8.75 4.75ZM8.25 4.25C8.52579 4.25 8.75 4.47421 8.75 4.75L10.25 4.75C10.25 3.64579 9.35421 2.75 8.25 2.75L8.25 4.25ZM7.75 4.75C7.75 4.47421 7.97421 4.25 8.25 4.25L8.25 2.75C7.14579 2.75 6.25 3.64579 6.25 4.75L7.75 4.75ZM7.75 10.8279L7.75 4.75L6.25 4.75L6.25 10.8279L7.75 10.8279ZM13.25 14.5742L13.25 16.1797L14.75 16.1797L14.75 14.5742L13.25 14.5742ZM7.83447 15.3242L14 15.3242L14 13.8242L7.83447 13.8242L7.83447 15.3242ZM8.58447 16.1797L8.58447 14.5742L7.08447 14.5742L7.08447 16.1797L8.58447 16.1797ZM8.95547 16.5C8.71751 16.5 8.58447 16.3243 8.58447 16.1797L7.08447 16.1797C7.08447 17.2173 7.95521 18 8.95547 18L8.95547 16.5ZM12.879 16.5L8.95547 16.5L8.95547 18L12.879 18L12.879 16.5ZM13.25 16.1797C13.25 16.3243 13.1169 16.5 12.879 16.5L12.879 18C13.8792 18 14.75 17.2173 14.75 16.1797L13.25 16.1797Z" fill="#172B4E"/>
<path d="M11.8652 5.5C11.9531 5.18164 12 4.8463 12 4.5C12 2.42893 10.3211 0.75 8.25 0.75C6.17893 0.75 4.5 2.42893 4.5 4.5C4.5 5.03333 4.61134 5.54065 4.81203 6" stroke="#172B4E" stroke-width="1.5" stroke-linecap="round"/>
</svg>
