<svg width="18" height="18" viewBox="0 0 18 18" fill="none" xmlns="http://www.w3.org/2000/svg">
<path d="M15 16.875V15.375C15 13.7181 13.6569 12.375 12 12.375H6C4.34315 12.375 3 13.7181 3 15.375V16.875" stroke="#172B4E" stroke-width="1.5" stroke-linecap="round" stroke-linejoin="round"/>
<path fill-rule="evenodd" clip-rule="evenodd" d="M9 9.375C10.6569 9.375 12 8.03186 12 6.375C12 4.71815 10.6569 3.375 9 3.375C7.34315 3.375 6 4.71815 6 6.375C6 8.03186 7.34315 9.375 9 9.375Z" stroke="#172B4E" stroke-width="1.5" stroke-linecap="round" stroke-linejoin="round"/>
<path d="M17.25 13.625V12.125C17.25 10.4681 15.9069 9.125 14.25 9.125" stroke="#172B4E" stroke-width="1.5" stroke-linecap="round" stroke-linejoin="round"/>
<path d="M15.0791 5.125C15.1896 4.81222 15.2498 4.47564 15.2498 4.125C15.2498 2.46815 13.9066 1.125 12.2498 1.125C11.8992 1.125 11.5627 1.18513 11.25 1.29563" stroke="#172B4E" stroke-width="1.5" stroke-linecap="round" stroke-linejoin="round"/>
<path d="M0.750001 13.625V12.125C0.750001 10.4681 2.09315 9.125 3.75 9.125" stroke="#172B4E" stroke-width="1.5" stroke-linecap="round" stroke-linejoin="round"/>
<path d="M2.92092 5.125C2.81037 4.81222 2.75022 4.47564 2.75022 4.125C2.75022 2.46815 4.09336 1.125 5.75022 1.125C6.10077 1.125 6.43728 1.18513 6.75 1.29563" stroke="#172B4E" stroke-width="1.5" stroke-linecap="round" stroke-linejoin="round"/>
</svg>
