<svg width="18" height="18" viewBox="0 0 18 18" fill="none" xmlns="http://www.w3.org/2000/svg">
<path d="M12.75 15.75V14.25C12.75 12.5931 11.4069 11.25 9.75 11.25H3.75C2.09315 11.25 0.75 12.5931 0.75 14.25V15.75" stroke="#172B4E" stroke-width="1.5" stroke-linecap="round" stroke-linejoin="round"/>
<path fill-rule="evenodd" clip-rule="evenodd" d="M6.75 8.25C8.40686 8.25 9.75 6.90686 9.75 5.25C9.75 3.59315 8.40686 2.25 6.75 2.25C5.09315 2.25 3.75 3.59315 3.75 5.25C3.75 6.90686 5.09315 8.25 6.75 8.25Z" stroke="#172B4E" stroke-width="1.5" stroke-linecap="round" stroke-linejoin="round"/>
<path d="M17.25 15.7499V14.2499C17.249 12.8827 16.3237 11.6892 15 11.3474" stroke="#172B4E" stroke-width="1.5" stroke-linecap="round" stroke-linejoin="round"/>
<path d="M12 2.34741C13.3274 2.68729 14.2559 3.88341 14.2559 5.25366C14.2559 6.62392 13.3274 7.82004 12 8.15991" stroke="#172B4E" stroke-width="1.5" stroke-linecap="round" stroke-linejoin="round"/>
</svg>
