<?xml version="1.0" encoding="UTF-8"?>
<svg width="24px" height="24px" viewBox="0 0 24 24" version="1.1" xmlns="http://www.w3.org/2000/svg" xmlns:xlink="http://www.w3.org/1999/xlink">
    <!-- Generator: Sketch 54.1 (76490) - https://sketchapp.com -->
    <title>Icon/Feather/video-off</title>
    <desc>Created with Sketch.</desc>
    <defs>
        <path d="M16.7610492,18.1752627 C16.3038469,19.248 15.239743,20 14,20 L3,20 C1.34314575,20 3.33066907e-16,18.6568542 0,17 L0,7 C-2.04368743e-16,5.47503964 1.13781496,4.2158302 2.6108015,4.02501507 L0.292893219,1.70710678 C-0.0976310729,1.31658249 -0.0976310729,0.683417511 0.292893219,0.292893219 C0.683417511,-0.0976310729 1.31658249,-0.0976310729 1.70710678,0.292893219 L23.7071068,22.2928932 C24.0976311,22.6834175 24.0976311,23.3165825 23.7071068,23.7071068 C23.3165825,24.0976311 22.6834175,24.0976311 22.2928932,23.7071068 L16.7610492,18.1752627 Z M4.58578644,6 L3,6 C2.44771525,6 2,6.44771525 2,7 L2,17 C2,17.5522847 2.44771525,18 3,18 L14,18 C14.5522847,18 15,17.5522847 15,17 L15,16.4142136 L4.58578644,6 Z M22,17 L22,8.95751772 L17.5860821,12.1502517 C17.1881706,12.4380743 16.6401506,12.3943642 16.2928932,12.0471068 L15.2928932,11.0471068 C15.1053568,10.8595704 15,10.6052165 15,10.34 L15,7 C15,6.44771525 14.5522847,6 14,6 L10.66,6 C10.1077153,6 9.66,5.55228475 9.66,5 C9.66,4.44771525 10.1077153,4 10.66,4 L14,4 C15.6568542,4 17,5.34314575 17,7 L17,9.92578644 L17.1044657,10.0302521 L22.4139179,6.1897483 C23.0751672,5.71144469 24,6.18389651 24,7 L24,17 C24,17.5522847 23.5522847,18 23,18 C22.4477153,18 22,17.5522847 22,17 Z" id="path-1"></path>
    </defs>
    <g id="Icon/Feather/video-off" stroke="none" stroke-width="1" fill="none" fill-rule="evenodd">
        <mask id="mask-2" fill="white">
            <use xlink:href="#path-1"></use>
        </mask>
        <use id="Combined-Shape" fill="#000000" fill-rule="nonzero" xlink:href="#path-1"></use>
        <g id="Color/Neutral/Black" mask="url(#mask-2)" fill="#172B4E" fill-rule="nonzero">
            <rect id="Rectangle" x="0" y="0" width="24" height="24"></rect>
        </g>
    </g>
</svg>