<?xml version="1.0" encoding="UTF-8"?>
<svg width="24px" height="24px" viewBox="0 0 24 24" version="1.1" xmlns="http://www.w3.org/2000/svg" xmlns:xlink="http://www.w3.org/1999/xlink">
    <!-- Generator: Sketch 57.1 (83088) - https://sketch.com -->
    <title>Icon/Service/vr</title>
    <desc>Created with Sketch.</desc>
    <defs>
        <path d="M21.4,3.5 C22.9,3.5 24,4.7 24,6.1 L24,17.9 C24,19.4 22.8,20.5 21.3,20.5 L15.4,20.5 C15.1,20.5 14.8,20.3 14.6,20.1 L12.7,17.3 C12.5,17.1 12.2,16.9 12,16.9 C11.7,16.9 11.4,17 11.3,17.3 L9.4,20.1 C9.2,20.4 8.9,20.5 8.6,20.5 L2.6,20.5 C1.1,20.5 0,19.3 0,17.9 L0,6.1 C0,4.6 1.2,3.5 2.6,3.5 L21.4,3.5 Z M21.4,5.5 L2.6,5.5 C2.2,5.5 2,5.8 2,6.1 L2,17.9 C2,18.2 2.3,18.5 2.6,18.5 L8,18.5 L9.6,16.1 C10.0666667,15.3533333 10.8817778,14.868 11.8014222,14.8066074 L12,14.8 C12.9,14.8 13.8,15.3 14.4,16.1 L16,18.5 L21.4,18.5 C21.8,18.5 22,18.2 22,17.9 L22,6.1 C22,5.7 21.7,5.5 21.4,5.5 Z M7.1,7.9 C8.9,7.9 10.4,9.4 10.4,11.2 C10.4,13 8.9,14.5 7.1,14.5 C5.3,14.5 3.8,13 3.8,11.2 C3.8,9.4 5.3,7.9 7.1,7.9 Z M16.9,7.9 C18.7,7.9 20.2,9.4 20.2,11.2 C20.2,13 18.7,14.5 16.9,14.5 C15.1,14.5 13.6,13 13.6,11.2 C13.6,9.4 15.1,7.9 16.9,7.9 Z M7.1,9.9 C6.4,9.9 5.8,10.5 5.8,11.2 C5.8,11.9 6.4,12.5 7.1,12.5 C7.8,12.5 8.4,11.9 8.4,11.2 C8.4,10.5 7.8,9.9 7.1,9.9 Z M16.9,9.9 C16.2,9.9 15.6,10.5 15.6,11.2 C15.6,11.9 16.2,12.5 16.9,12.5 C17.6,12.5 18.2,11.9 18.2,11.2 C18.2,10.5 17.6,9.9 16.9,9.9 Z" id="path-1"></path>
    </defs>
    <g id="Icon/Service/vr" stroke="none" stroke-width="1" fill="none" fill-rule="evenodd">
        <mask id="mask-2" fill="white">
            <use xlink:href="#path-1"></use>
        </mask>
        <use id="Combined-Shape" fill="#172B4E" fill-rule="nonzero" xlink:href="#path-1"></use>
        <g id="Color/Neutral/Darkest" mask="url(#mask-2)" fill="#172B4E" fill-rule="nonzero">
            <rect id="Rectangle" x="0" y="0" width="24" height="24"></rect>
        </g>
    </g>
</svg>