<?xml version="1.0" encoding="UTF-8"?>
<svg width="22px" height="20px" viewBox="0 0 22 20" version="1.1" xmlns="http://www.w3.org/2000/svg" xmlns:xlink="http://www.w3.org/1999/xlink">
    <!-- Generator: Sketch 57.1 (83088) - https://sketch.com -->
    <title>Icon/Service/website</title>
    <desc>Created with Sketch.</desc>
    <defs>
        <path d="M12,16 L12,18 L15,18 C15.6,18 16,18.4 16,19 C16,19.6 15.6,20 15,20 L7,20 C6.4,20 6,19.6 6,19 C6,18.4 6.4,18 7,18 L10,18 L10,16 L3,16 C1.3,16 0,14.7 0,13 L0,3 C0,1.3 1.3,0 3,0 L19,0 C20.7,0 22,1.3 22,3 L22,13 C22,14.7 20.7,16 19,16 L12,16 Z M3,2 C2.4,2 2,2.4 2,3 L2,13 C2,13.6 2.4,14 3,14 L19,14 C19.6,14 20,13.6 20,13 L20,3 C20,2.4 19.6,2 19,2 L3,2 Z" id="path-1"></path>
    </defs>
    <g id="Icon/Service/website" stroke="none" stroke-width="1" fill="none" fill-rule="evenodd">
        <mask id="mask-2" fill="white">
            <use xlink:href="#path-1"></use>
        </mask>
        <use id="Shape" fill="#000000" fill-rule="nonzero" xlink:href="#path-1"></use>
        <g id="Color/Neutral/Darkest" mask="url(#mask-2)" fill="#172B4E" fill-rule="nonzero">
            <rect id="Rectangle" x="0" y="0" width="24" height="24"></rect>
        </g>
    </g>
</svg>