<?xml version="1.0" encoding="UTF-8"?>
<svg width="290px" height="319px" viewBox="0 0 290 319" version="1.1" xmlns="http://www.w3.org/2000/svg" xmlns:xlink="http://www.w3.org/1999/xlink">
    <!-- Generator: Sketch 57.1 (83088) - https://sketch.com -->
    <title>Illu coding guidelines</title>
    <desc>Created with Sketch.</desc>
    <g id="Drawbotics-illu" stroke="none" stroke-width="1" fill="none" fill-rule="evenodd">
        <g id="Annotate" transform="translate(-572.000000, -223.000000)">
            <g id="Illu-coding-guidelines" transform="translate(576.000000, 223.000000)">
                <g id="Clock" transform="translate(38.000000, 0.000000)">
                    <circle id="Clock-Frame" fill="#F1F5F9" cx="40" cy="40" r="40"></circle>
                    <circle id="Time" fill-opacity="0.1" fill="#000000" cx="40" cy="8" r="2"></circle>
                    <circle id="Time" fill-opacity="0.1" fill="#000000" cx="8" cy="40" r="2"></circle>
                    <circle id="Time" fill-opacity="0.1" fill="#000000" cx="72" cy="40" r="2"></circle>
                    <circle id="Time" fill-opacity="0.1" fill="#000000" cx="40" cy="72" r="2"></circle>
                    <polygon id="Hand" fill="#AFB9C5" points="40.5 13 42 40 39 40"></polygon>
                    <polygon id="Hand" fill="#AFB9C5" transform="translate(46.953361, 46.953361) rotate(135.000000) translate(-46.953361, -46.953361) " points="46.9533611 37.8967573 48.462795 56.0099649 45.4439271 56.0099649"></polygon>
                    <circle id="Time" fill="#C5CFD6" cx="40" cy="40" r="3"></circle>
                </g>
                <path d="M48.2462272,319 C175.363761,318.142857 246.768342,317.714286 262.45997,317.714286 C285.997414,317.714286 315.445392,307.230606 220.145038,310.706148 C124.844684,314.181689 82.9436721,316.241037 54.0582478,317.4558 C34.8012983,318.265642 32.8639581,318.780375 48.2462272,319 Z" id="Path-3-Copy" fill="#D3DCE6" fill-rule="nonzero" opacity="0.436081659"></path>
                <g id="Group-23" transform="translate(67.000000, 78.000000)">
                    <g id="Head/Front" transform="translate(137.500000, 29.000000) scale(-1, 1) translate(-137.500000, -29.000000) translate(120.000000, 0.000000)">
                        <g id="Head" transform="translate(2.857143, 4.987500)" fill="#D3DCE6">
                            <path d="M27.2452438,6.50792721 C31.3843944,14.2037265 30.8925557,33.7247595 25.5430724,35.1002135 C23.4097354,35.6487351 18.8651266,34.3051031 14.2397434,31.5241835 L17.1428571,52.0125 L0,52.0125 L5.90070733,24.5731417 C2.60984655,20.7196032 0.382630848,15.9971835 0.754840239,10.7056359 C1.82737873,-4.54220216 23.1060933,-1.18787206 27.2452438,6.50792721 Z"></path>
                        </g>
                        <path d="M7.4415274,32.994108 C5.28993008,23.4458519 -0.839619491,16.9371256 0.0965097606,12.6694634 C0.720595928,9.82435527 2.38397266,8.05508242 5.08663994,7.36164483 C6.48443387,1.72104436 10.9926061,-0.678122873 18.6111566,0.164143138 C30.0389824,1.42754215 37.0138911,6.16152808 34.0017728,16.578363 C31.2329277,16.578363 27.8903399,15.5795155 23.2682357,17.290863 C21.8016607,17.8338666 20.7527232,19.5177686 20.1214234,22.342569 L18.0327127,22.342569 C16.0055311,18.9903033 14.006717,17.7584371 12.0362705,18.6469705 C10.065824,19.5355038 9.61790943,21.6937549 10.6925269,25.1217238 L9.66362573,32.994108 L7.4415274,32.994108 Z" id="Hair" fill="#172B4E"></path>
                    </g>
                    <g id="Bottom/Skinny-Jeans-1" transform="translate(106.000000, 179.000000) scale(-1, 1) translate(-106.000000, -179.000000) translate(0.000000, 117.000000)">
                        <g id="Seat" transform="translate(0.750742, 30.034884)" fill="#C5CFD6">
                            <path d="M89.1246291,0 C97.9611851,-5.17596268e-15 105.124629,7.163444 105.124629,16 L105.124629,72.6744186 C105.124629,81.5109746 97.9611851,88.6744186 89.1246291,88.6744186 L16,88.6744186 C7.163444,88.6744186 -6.02326136e-15,81.5109746 0,72.6744186 L0,16 C-1.082166e-15,7.163444 7.163444,1.623249e-15 16,0 L89.1246291,0 Z M81.1008902,20.0232558 L24.0237389,20.0232558 C21.8145999,20.0232558 20.0237389,21.8141168 20.0237389,24.0232558 L20.0237389,24.0232558 L20.0237389,64.6511628 C20.0237389,66.8603018 21.8145999,68.6511628 24.0237389,68.6511628 L24.0237389,68.6511628 L81.1008902,68.6511628 C83.3100292,68.6511628 85.1008902,66.8603018 85.1008902,64.6511628 L85.1008902,64.6511628 L85.1008902,24.0232558 C85.1008902,21.8141168 83.3100292,20.0232558 81.1008902,20.0232558 L81.1008902,20.0232558 Z"></path>
                        </g>
                        <path d="M176.787271,115.133721 C162.687792,97.9167064 153.147748,85.1527817 148.167138,76.8419469 C139.639125,62.61178 132.659354,49.9495596 130.456712,45.1126484 C125.20423,33.5784133 142.548774,28.1774537 146.474238,33.5574035 C152.415585,41.7001712 165.104191,67.3231685 184.540059,110.426396 L176.787271,115.133721 Z" id="LegLower" fill="#D3DCE6"></path>
                        <path d="M147.894877,110.127907 L121.654933,44.0774626 C116.042731,32.0369069 143.145097,24.122357 147.269641,29.7257903 C156.633634,42.4473186 178.889679,92.6319026 181.679525,96.4220709 L147.894877,110.127907 Z" id="LegLower" fill="#2C47B8"></path>
                        <g id="Lower-Leg" transform="translate(108.265214, 75.504158) rotate(39.000000) translate(-108.265214, -75.504158) translate(96.765214, 35.504158)" fill="#D3DCE6">
                            <path d="M1.44012253,75.6538902 C0.720243069,66.642985 -0.61720375,35.4491084 0.720966155,21.0106185 C1.10550252,16.8615756 1.51063739,12.8501167 1.91891592,9.08701234 C3.13246416,-2.09826524 23.8728359,-1.74469152 22.2257904,8.88188274 C18.123996,35.3462526 10.9043703,72.4345345 10.3869127,75.6391709 C9.66167366,80.1306056 1.89254433,81.3169631 1.44012253,75.6538902 Z" id="LegLower"></path>
                        </g>
                        <g id="Right-Shoe" transform="translate(94.640426, 106.376958) rotate(30.000000) translate(-94.640426, -106.376958) translate(73.640426, 98.376958)" fill="#879BA6">
                            <path d="M0.980778202,5.17819971 C0.326926067,7.01559662 0,8.41355624 0,9.37207855 C0,10.6616379 0.214836271,12.5434256 0.644508813,15.0174419 C2.14052422,15.0174419 15.5854666,15.0174419 40.9793359,15.0174419 C42.0274951,11.5523511 41.4224368,9.68166012 39.1641611,9.40536888 C36.9058854,9.12907764 35.0298975,8.87960878 33.5361972,8.65696228 L15.0566073,0.418867709 C14.5521761,0.193995205 13.9609587,0.420622278 13.7360862,0.925053445 C13.7322416,0.933677547 13.7285194,0.942355667 13.7249206,0.951085197 L12.631556,3.60325285 L12.631556,3.60325285 C10.5409833,4.57864079 8.84217598,5.06633475 7.53513399,5.06633475 C6.57432482,5.06633475 5.28230165,4.71525737 3.65906449,4.01310261 L3.65906881,4.01309262 C2.64527519,3.5745615 1.46793336,4.04090389 1.02940223,5.05469751 C1.01183229,5.0953156 0.995615349,5.13650568 0.980778202,5.17819971 Z" id="shoe"></path>
                        </g>
                        <g id="Right-Shoe" transform="translate(169.522255, 107.982558)" fill="#879BA6">
                            <path d="M0.980778202,5.17819971 C0.326926067,7.01559662 0,8.41355624 0,9.37207855 C0,10.6616379 0.214836271,12.5434256 0.644508813,15.0174419 C2.14052422,15.0174419 15.5854666,15.0174419 40.9793359,15.0174419 C42.0274951,11.5523511 41.4224368,9.68166012 39.1641611,9.40536888 C36.9058854,9.12907764 35.0298975,8.87960878 33.5361972,8.65696228 L15.0566073,0.418867709 C14.5521761,0.193995205 13.9609587,0.420622278 13.7360862,0.925053445 C13.7322416,0.933677547 13.7285194,0.942355667 13.7249206,0.951085197 L12.631556,3.60325285 L12.631556,3.60325285 C10.5409833,4.57864079 8.84217598,5.06633475 7.53513399,5.06633475 C6.57432482,5.06633475 5.28230165,4.71525737 3.65906449,4.01310261 L3.65906881,4.01309262 C2.64527519,3.5745615 1.46793336,4.04090389 1.02940223,5.05469751 C1.01183229,5.0953156 0.995615349,5.13650568 0.980778202,5.17819971 Z" id="shoe"></path>
                        </g>
                        <path d="M112.212949,47.3764908 C90.4036516,43.8235664 75.7954883,41.3940904 68.3884591,40.0880628 C47.2755065,36.3653695 41.1187899,25.0042771 44.7589695,0.216128634 L83.6592259,0.216128634 C88.8070496,1.70268729 110.316654,10.8965703 148.18804,27.7977778 C155.001849,31.1801663 153.732894,41.1531528 152.487451,44.4388107 C152.436657,44.5728124 140.94988,64.2553536 118.02712,103.486434 L86.2050704,83.2148564 L112.272711,49.765219 C112.961133,48.3786799 112.941212,47.5824372 112.212949,47.3764908 Z" id="Leg-and-Butt" fill="#4364F0"></path>
                    </g>
                    <g id="Body/Long-Sleeve-1" transform="translate(133.000000, 105.500000) scale(-1, 1) translate(-133.000000, -105.500000) translate(57.000000, 39.000000)">
                        <path d="M24.5981371,69.3744385 L39.5811727,69.4332014 C30.3298396,99.2178133 25.3354944,115.021342 24.5981371,116.843787 C22.9390833,120.944289 26.4498643,127.189281 27.9512136,130.545294 C23.0613689,132.727472 23.5823871,124.645976 17.4139796,127.508024 C11.7837433,130.120369 7.50083656,134.853762 0.995912037,130.850814 C0.196169791,130.358675 -0.680217417,128.505683 1.43724487,127.057667 C6.71261564,123.450133 14.3147445,117.136298 15.3419118,115.05805 C16.742638,112.223988 19.8280464,96.9961177 24.5981371,69.3744385 L24.5981371,69.3744385 Z M112.409166,68.7963847 L135.279624,85.5455171 C141.482563,87.2147945 146.664919,89.2916576 150.82669,91.7761063 C151.809772,92.6694981 152.99792,94.4787648 148.920839,94.1660782 C144.843757,93.8533916 140.541179,93.7073608 139.978621,95.094252 C139.416063,96.4811431 141.883292,98.1397129 140.746117,100.010992 C139.988,101.258512 136.406353,98.1304028 130.001176,90.6266651 L107.353423,81.2604595 L112.409166,68.7963847 Z" id="Skin" fill="#D3DCE6"></path>
                        <path d="M63.6288809,9.71848289 L69.7126802,8.12162334 C94.355552,25.8593608 107.086079,62.9637928 136.932788,80.5982918 L130.903234,89.547478 C81.6476964,87.7935433 65.522283,42.5872961 63.6288809,9.71848289 Z" id="Coat-Back" fill="#425A70" transform="translate(100.280835, 48.834551) rotate(5.000000) translate(-100.280835, -48.834551) "></path>
                        <path d="M40.1509434,84.3763441 C65.0099382,84.3763441 83.2956937,84.3763441 95.0082099,84.3763441 C97.5149073,84.3763441 97.042568,80.7664932 96.6802097,78.9449427 C92.4981572,57.9220479 76.1730106,35.2603847 76.1730106,5.33482328 L60.3495925,2.86021505 C47.261593,23.8530543 42.7355358,49.69949 40.1509434,84.3763441 Z" id="Shirt" fill="#EEF2F6"></path>
                        <path d="M59.1581357,2.86021505 C59.6926243,2.86021505 60.1822509,2.89356107 60.6270156,2.96025309 L65.5834022,3.24258286 C79.6535651,50.7998433 83.6359291,82.687585 77.5304941,98.9058081 L77.3423931,99.3924731 L34.1649864,99.3935549 C31.6069669,105.342235 29.1591521,110.347251 26.8215419,114.408602 L26.8215419,114.408602 L15.0566038,114.408602 C13.9493355,78.7031697 22.4614231,48.3982039 40.5928666,23.4937048 C38.2943032,22.8369544 36.4739727,21.3002355 35.1320755,18.8854209 C29.348588,8.47773161 31.437276,2.74752774 37.6179899,0.86397737 C43.7987038,-1.019573 49.3106063,2.86021505 59.1581357,2.86021505 Z" id="Coat-Front" fill="#879BA6"></path>
                        <path d="M50.1886792,99.3924731 L34.1653616,99.3926825 C37.1494738,92.4530442 40.2835611,84.2291944 43.5676233,74.7211333 C44.9252017,86.0516007 47.1323239,94.275866 50.1886792,99.3924731 Z" id="Shade" fill-opacity="0.1" fill="#000000"></path>
                    </g>
                </g>
                <g id="Group-14" transform="translate(0.000000, 96.000000)" stroke-linecap="square" stroke-linejoin="round" stroke-width="8">
                    <g id="Group-8" transform="translate(4.000000, 4.000000)" stroke="#BFCAD6">
                        <polyline id="Path" transform="translate(16.500000, 16.500000) rotate(-45.000000) translate(-16.500000, -16.500000) " points="5 28 5 5 5 5 28 5"></polyline>
                        <polyline id="Path-Copy" transform="translate(42.156854, 16.500000) rotate(-225.000000) translate(-42.156854, -16.500000) " points="30.6568542 28 30.6568542 5 30.6568542 5 53.6568542 5"></polyline>
                    </g>
                    <g id="Group-8-Copy" stroke="#D3DCE6">
                        <polyline id="Path" transform="translate(16.500000, 16.500000) rotate(-45.000000) translate(-16.500000, -16.500000) " points="5 28 5 5 5 5 28 5"></polyline>
                        <polyline id="Path-Copy" transform="translate(42.156854, 16.500000) rotate(-225.000000) translate(-42.156854, -16.500000) " points="30.6568542 28 30.6568542 5 30.6568542 5 53.6568542 5"></polyline>
                    </g>
                </g>
                <g id="Group-13" transform="translate(47.000000, 149.000000)" stroke-linecap="square" stroke-width="8">
                    <g id="Group-9">
                        <g id="Group-6" transform="translate(4.763456, 4.236544)" stroke="#BFCAD6">
                            <polyline id="Path-Copy-2" stroke-linejoin="round" transform="translate(16.500000, 16.263456) rotate(-45.000000) translate(-16.500000, -16.263456) " points="5 27.763456 5 4.76345597 5 4.76345597 28 4.76345597"></polyline>
                            <polyline id="Path-Copy-3" stroke-linejoin="round" transform="translate(57.156854, 16.263456) rotate(-225.000000) translate(-57.156854, -16.263456) " points="45.6568542 27.763456 45.6568542 4.76345597 45.6568542 4.76345597 68.6568542 4.76345597"></polyline>
                            <path d="M44.0478648,0 L30.0165568,32.5269119" id="Path-18"></path>
                        </g>
                        <g id="Group-6-Copy" stroke="#D3DCE6">
                            <polyline id="Path-Copy-2" stroke-linejoin="round" transform="translate(16.500000, 16.263456) rotate(-45.000000) translate(-16.500000, -16.263456) " points="5 27.763456 5 4.76345597 5 4.76345597 28 4.76345597"></polyline>
                            <polyline id="Path-Copy-3" stroke-linejoin="round" transform="translate(57.156854, 16.263456) rotate(-225.000000) translate(-57.156854, -16.263456) " points="45.6568542 27.763456 45.6568542 4.76345597 45.6568542 4.76345597 68.6568542 4.76345597"></polyline>
                            <path d="M44.0478648,0 L30.0165568,32.5269119" id="Path-18"></path>
                        </g>
                    </g>
                </g>
            </g>
        </g>
    </g>
</svg>