<?xml version="1.0" encoding="UTF-8"?>
<svg width="24px" height="24px" viewBox="0 0 24 24" version="1.1" xmlns="http://www.w3.org/2000/svg" xmlns:xlink="http://www.w3.org/1999/xlink">
    <!-- Generator: Sketch 54.1 (76490) - https://sketchapp.com -->
    <title>Icon/Feather/cloud</title>
    <desc>Created with Sketch.</desc>
    <defs>
        <path d="M18.0063746,9.00111106 C21.3200831,9.00111106 24.0063746,11.6874026 24.0063746,15.0011111 C24.0063746,18.3148196 21.3200831,21.0011111 18.0063746,21.0011111 L9.00712041,21.0011108 C4.32921689,21.0045994 0.428547864,17.4238431 0.0326909283,12.7627176 C-0.363166008,8.1015921 2.87778487,3.91431707 7.48927975,3.1288819 C11.8407754,2.38773009 16.0434586,4.90883414 17.4861391,9.00111106 L18.0063746,9.00111106 Z M18.0063746,11.0011111 L16.7463746,11.0011111 C16.2903765,11.0011111 15.8921285,10.6926296 15.7781289,10.2511113 C14.8685353,6.72827459 11.4118044,4.48959485 7.82508615,5.10048887 C4.2383679,5.7113829 1.71762833,8.96815236 2.02551706,12.5934722 C2.33340579,16.218792 5.36725948,19.0038247 9.00637464,19.0011111 L18.0063746,19.0011111 C20.2155136,19.0011111 22.0063746,17.2102501 22.0063746,15.0011111 C22.0063746,12.7919721 20.2155136,11.0011111 18.0063746,11.0011111 Z" id="path-1"></path>
    </defs>
    <g id="Icon/Feather/cloud" stroke="none" stroke-width="1" fill="none" fill-rule="evenodd">
        <mask id="mask-2" fill="white">
            <use xlink:href="#path-1"></use>
        </mask>
        <use id="Shape" fill="#000000" fill-rule="nonzero" xlink:href="#path-1"></use>
        <g id="Color/Neutral/Black" mask="url(#mask-2)" fill="#172B4E" fill-rule="nonzero">
            <rect id="Rectangle" x="0" y="0" width="24" height="24"></rect>
        </g>
    </g>
</svg>