<?xml version="1.0" encoding="UTF-8"?>
<svg width="24px" height="24px" viewBox="0 0 24 24" version="1.1" xmlns="http://www.w3.org/2000/svg" xmlns:xlink="http://www.w3.org/1999/xlink">
    <!-- Generator: Sketch 54.1 (76490) - https://sketchapp.com -->
    <title>Icon/Feather/package</title>
    <desc>Created with Sketch.</desc>
    <defs>
        <path d="M17.4576955,9.14816142 C17.4512475,9.15147316 17.4447657,9.15471399 17.4382514,9.15788346 L13.0000726,11.3769729 L13.0000726,21.1459051 L20.4450727,17.4234082 C20.7849016,17.2545432 20.9998714,16.9078802 21.0000726,16.5289389 L21.0000727,7.37697278 L17.4576988,9.14815977 Z M9.24113959,3.26143837 L17.0000726,7.14090487 L19.7590046,5.76143886 L12.4441545,2.10401382 C12.1640373,1.96517702 11.8350854,1.96532769 11.5572862,2.10336605 L9.24113959,3.26143837 Z M7.00507066,4.37947188 L4.24113745,5.7614373 L12.0000726,9.64090487 L14.7640046,8.25893886 L7.00507066,4.37947188 Z M6.46899772,2.41144394 C6.52310778,2.37760796 6.58021264,2.34910432 6.6394343,2.32622572 L10.6650726,0.313408293 C11.5060215,-0.104469431 12.4941237,-0.104469431 13.3350726,0.313408293 L21.3350725,4.31340822 C22.354559,4.82000324 22.9994684,5.85999226 23.0000726,6.99893886 L23.0000725,16.5294695 C22.9994684,17.6678855 22.354559,18.7078745 21.3372862,19.2133661 L13.3375726,23.2132228 C12.4925207,23.6360871 11.4976245,23.6360871 10.652859,23.2133661 L2.65009682,19.2119796 C1.63158543,18.698783 0.992159815,17.6524502 1.0000726,16.5189389 L1.00007274,6.99840822 C1.00067683,5.85999226 1.64558623,4.82000324 2.66285901,4.31451167 L6.46899772,2.41144394 Z M11.0000726,21.1509049 L11.0000726,11.3769729 L3.00007164,7.37697237 L3.00004839,16.5258981 C2.99740272,16.906055 3.21054459,17.2548326 3.5472862,17.4245117 L11.0000726,21.1509049 Z" id="path-1"></path>
    </defs>
    <g id="Icon/Feather/package" stroke="none" stroke-width="1" fill="none" fill-rule="evenodd">
        <mask id="mask-2" fill="white">
            <use xlink:href="#path-1"></use>
        </mask>
        <use id="Combined-Shape" fill="#000000" fill-rule="nonzero" xlink:href="#path-1"></use>
        <g id="Color/Neutral/Black" mask="url(#mask-2)" fill="#172B4E" fill-rule="nonzero">
            <rect id="Rectangle" x="0" y="0" width="24" height="24"></rect>
        </g>
    </g>
</svg>