<?xml version="1.0" encoding="UTF-8"?>
<svg width="24px" height="24px" viewBox="0 0 24 24" version="1.1" xmlns="http://www.w3.org/2000/svg" xmlns:xlink="http://www.w3.org/1999/xlink">
    <!-- Generator: Sketch 54.1 (76490) - https://sketchapp.com -->
    <title>Icon/Feather/rotate-ccw</title>
    <desc>Created with Sketch.</desc>
    <defs>
        <path d="M3.56682772,15.3232029 C5.04683484,19.5239996 9.12664905,22.2396445 13.5731779,21.9837254 C18.0197068,21.7278063 21.7610163,18.5620181 22.7492949,14.2191597 C23.7375736,9.8763013 21.7345751,5.40331479 17.8366436,3.24849603 C13.9387121,1.09367728 9.08553025,1.77649298 5.93349439,4.92320294 L1.31522644,9.2621543 C0.912747237,9.64034596 0.893058297,10.2732047 1.27124996,10.6756839 C1.64944163,11.0781631 2.28230041,11.0978521 2.68477961,10.7196604 L7.32477961,6.35966042 C9.86814035,3.82124382 13.7506858,3.27499125 16.869031,4.99884626 C19.9873762,6.72270126 21.589775,10.3010905 20.7991521,13.7753772 C20.0085292,17.2496639 17.0154816,19.7822945 13.4582585,19.9870298 C9.90103539,20.1917651 6.63718402,18.0192491 5.45317833,14.6586118 C5.26965655,14.1377104 4.69860878,13.8642103 4.17770745,14.0477321 C3.65680611,14.2312538 3.38330594,14.8023016 3.56682772,15.3232029 Z M3.00000303,8.99090736 L3.00000303,3.99090736 C3.00000303,3.43862261 2.55228778,2.99090736 2.00000303,2.99090736 C1.44771828,2.99090736 1.00000303,3.43862261 1.00000303,3.99090736 L1.00000303,9.99090736 C1.00000303,10.5431921 1.44771828,10.9909074 2.00000303,10.9909074 L8.00000303,10.9909074 C8.55228778,10.9909074 9.00000303,10.5431921 9.00000303,9.99090736 C9.00000303,9.43862261 8.55228778,8.99090736 8.00000303,8.99090736 L3.00000303,8.99090736 Z" id="path-1"></path>
    </defs>
    <g id="Icon/Feather/rotate-ccw" stroke="none" stroke-width="1" fill="none" fill-rule="evenodd">
        <mask id="mask-2" fill="white">
            <use xlink:href="#path-1"></use>
        </mask>
        <use id="Combined-Shape" fill="#000000" fill-rule="nonzero" xlink:href="#path-1"></use>
        <g id="Color/Neutral/Black" mask="url(#mask-2)" fill="#172B4E" fill-rule="nonzero">
            <rect id="Rectangle" x="0" y="0" width="24" height="24"></rect>
        </g>
    </g>
</svg>