<?xml version="1.0" encoding="UTF-8"?>
<svg width="24px" height="24px" viewBox="0 0 24 24" version="1.1" xmlns="http://www.w3.org/2000/svg" xmlns:xlink="http://www.w3.org/1999/xlink">
    <!-- Generator: Sketch 54.1 (76490) - https://sketchapp.com -->
    <title>Icon/Feather/trending-down</title>
    <desc>Created with Sketch.</desc>
    <defs>
        <path d="M22,15.5857864 L22,12 C22,11.4477153 22.4477153,11 23,11 C23.5522847,11 24,11.4477153 24,12 L24,18 C24,18.5522847 23.5522847,19 23,19 L17,19 C16.4477153,19 16,18.5522847 16,18 C16,17.4477153 16.4477153,17 17,17 L20.5857864,17 L13.5,9.91421356 L9.20710678,14.2071068 C8.81658249,14.5976311 8.18341751,14.5976311 7.79289322,14.2071068 L0.292893219,6.70710678 C-0.0976310729,6.31658249 -0.0976310729,5.68341751 0.292893219,5.29289322 C0.683417511,4.90236893 1.31658249,4.90236893 1.70710678,5.29289322 L8.5,12.0857864 L12.7928932,7.79289322 C13.1834175,7.40236893 13.8165825,7.40236893 14.2071068,7.79289322 L22,15.5857864 Z" id="path-1"></path>
    </defs>
    <g id="Icon/Feather/trending-down" stroke="none" stroke-width="1" fill="none" fill-rule="evenodd">
        <mask id="mask-2" fill="white">
            <use xlink:href="#path-1"></use>
        </mask>
        <use id="Combined-Shape" fill="#000000" fill-rule="nonzero" xlink:href="#path-1"></use>
        <g id="Color/Neutral/Black" mask="url(#mask-2)" fill="#172B4E" fill-rule="nonzero">
            <rect id="Rectangle" x="0" y="0" width="24" height="24"></rect>
        </g>
    </g>
</svg>