<?xml version="1.0" encoding="UTF-8"?>
<svg width="24px" height="24px" viewBox="0 0 24 24" version="1.1" xmlns="http://www.w3.org/2000/svg" xmlns:xlink="http://www.w3.org/1999/xlink">
    <!-- Generator: Sketch 54.1 (76490) - https://sketchapp.com -->
    <title>Icon/Feather/video</title>
    <desc>Created with Sketch.</desc>
    <defs>
        <path d="M17,13.9431893 L17,17 C17,18.6568542 15.6568542,20 14,20 L3,20 C1.34314575,20 3.33066907e-16,18.6568542 0,17 L0,7 C-1.66533454e-16,5.34314575 1.34314575,4 3,4 L14,4 C15.6568542,4 17,5.34314575 17,7 L17,10.0568107 L22.4187618,6.18626653 C23.0806303,5.71350333 24,6.18662744 24,7 L24,17 C24,17.8133726 23.0806303,18.2864967 22.4187618,17.8137335 L17,13.9431893 Z M3,6 C2.44771525,6 2,6.44771525 2,7 L2,17 C2,17.5522847 2.44771525,18 3,18 L14,18 C14.5522847,18 15,17.5522847 15,17 L15,7 C15,6.44771525 14.5522847,6 14,6 L3,6 Z M17.7204651,12 L22,15.0568107 L22,8.94318932 L17.7204651,12 Z" id="path-1"></path>
    </defs>
    <g id="Icon/Feather/video" stroke="none" stroke-width="1" fill="none" fill-rule="evenodd">
        <mask id="mask-2" fill="white">
            <use xlink:href="#path-1"></use>
        </mask>
        <use id="Combined-Shape" fill="#000000" fill-rule="nonzero" xlink:href="#path-1"></use>
        <g id="Color/Neutral/Black" mask="url(#mask-2)" fill="#172B4E" fill-rule="nonzero">
            <rect id="Rectangle" x="0" y="0" width="24" height="24"></rect>
        </g>
    </g>
</svg>