<?xml version="1.0" encoding="UTF-8"?>
<svg width="24px" height="24px" viewBox="0 0 24 24" version="1.1" xmlns="http://www.w3.org/2000/svg" xmlns:xlink="http://www.w3.org/1999/xlink">
    <!-- Generator: Sketch 54.1 (76490) - https://sketchapp.com -->
    <title>Icon/Feather/watch</title>
    <desc>Created with Sketch.</desc>
    <defs>
        <path d="M6.53044537,6.16183268 L6.84405819,2.73001734 C6.9836606,1.18516667 8.27791337,0.00147821247 9.83,1.6891688e-05 L14.1759425,2.51233377e-05 C15.7328381,-0.00629201819 17.0358336,1.17943386 17.1758505,2.72901228 L17.4914358,6.18241738 C19.0360537,7.6409591 20,9.70791714 20,12.0000169 C20,14.3029209 19.0269448,16.3785556 17.4695546,17.8382011 L17.1559425,21.2700087 C17.0158336,22.8205999 15.7128381,24.0063258 14.16,24.0000169 L9.83405749,24.0000087 C8.2771619,24.0063258 6.97416643,22.8205999 6.83414953,21.2710215 L6.51950668,17.8279298 C4.96850017,16.3688267 4,14.2975245 4,12.0000169 C4,9.69711292 4.97305515,7.62147815 6.53044537,6.16183268 Z M8.67019285,4.72378917 C9.68402414,4.25907357 10.8117591,4.00001689 12,4.00001689 C13.1964038,4.00001689 14.3314675,4.2626451 15.3506853,4.73339571 L15.1840575,2.91000866 C15.1373545,2.39314491 14.7030227,1.99790295 14.18,2.00001689 L9.83094181,2.00001645 C9.31389353,2.00050341 8.88247594,2.39506623 8.83585047,2.9110215 L8.67019285,4.72378917 Z M8.18646258,7.36763473 C8.15315642,7.39992952 8.11764795,7.42988772 8.08021443,7.45727851 C6.80625015,8.55752415 6,10.1846156 6,12.0000169 C6,15.3137254 8.6862915,18.0000169 12,18.0000169 C13.4483408,18.0000169 14.7768231,17.4868412 15.8135374,16.632399 C15.8468436,16.6001043 15.8823521,16.5701461 15.9197856,16.5427553 C17.1937499,15.4425096 18,13.8154182 18,12.0000169 C18,8.68630839 15.3137085,6.00001689 12,6.00001689 C10.5516592,6.00001689 9.22317693,6.5131926 8.18646258,7.36763473 Z M8.6597545,19.2714508 L8.82594251,21.0900251 C8.87264549,21.6068889 9.30697731,22.0021308 9.83,22.0000169 L14.1640575,22.0000251 C14.6830227,22.0021308 15.1173545,21.6068889 15.1641495,21.0890123 L15.3298071,19.2762446 C14.3159759,19.7409602 13.1882409,20.0000169 12,20.0000169 C10.8076795,20.0000169 9.67628113,19.7391783 8.6597545,19.2714508 Z M13,9.00001689 L13,11.5858033 L14.2071068,12.7929101 C14.5976311,13.1834344 14.5976311,13.8165994 14.2071068,14.2071237 C13.8165825,14.597648 13.1834175,14.597648 12.7928932,14.2071237 L11.2928932,12.7071237 C11.1053568,12.5195873 11,12.2652334 11,12.0000169 L11,9.00001689 C11,8.44773214 11.4477153,8.00001689 12,8.00001689 C12.5522847,8.00001689 13,8.44773214 13,9.00001689 Z" id="path-1"></path>
    </defs>
    <g id="Icon/Feather/watch" stroke="none" stroke-width="1" fill="none" fill-rule="evenodd">
        <mask id="mask-2" fill="white">
            <use xlink:href="#path-1"></use>
        </mask>
        <use id="Combined-Shape" fill="#000000" fill-rule="nonzero" xlink:href="#path-1"></use>
        <g id="Color/Neutral/Black" mask="url(#mask-2)" fill="#172B4E" fill-rule="nonzero">
            <rect id="Rectangle" x="0" y="0" width="24" height="24"></rect>
        </g>
    </g>
</svg>