<?xml version="1.0" encoding="UTF-8"?>
<svg width="24px" height="24px" viewBox="0 0 24 24" version="1.1" xmlns="http://www.w3.org/2000/svg" xmlns:xlink="http://www.w3.org/1999/xlink">
    <!-- Generator: Sketch 54.1 (76490) - https://sketchapp.com -->
    <title>Icon/Feather/zoom-out</title>
    <desc>Created with Sketch.</desc>
    <defs>
        <path d="M18.0318994,16.6176858 L21.7071068,20.2928932 C22.0976311,20.6834175 22.0976311,21.3165825 21.7071068,21.7071068 C21.3165825,22.0976311 20.6834175,22.0976311 20.2928932,21.7071068 L16.6176858,18.0318994 C15.078015,19.2635271 13.1250137,20 11,20 C6.02943725,20 2,15.9705627 2,11 C2,6.02943725 6.02943725,2 11,2 C15.9705627,2 20,6.02943725 20,11 C20,13.1250137 19.2635271,15.078015 18.0318994,16.6176858 Z M16.0413859,15.8563911 C17.2541765,14.5976949 18,12.8859457 18,11 C18,7.13400675 14.8659932,4 11,4 C7.13400675,4 4,7.13400675 4,11 C4,14.8659932 7.13400675,18 11,18 C12.8859457,18 14.5976949,17.2541765 15.8563911,16.0413859 C15.8827083,16.0071587 15.9115424,15.9742441 15.9428932,15.9428932 C15.9742441,15.9115424 16.0071587,15.8827083 16.0413859,15.8563911 Z M8,12 C7.44771525,12 7,11.5522847 7,11 C7,10.4477153 7.44771525,10 8,10 L14,10 C14.5522847,10 15,10.4477153 15,11 C15,11.5522847 14.5522847,12 14,12 L8,12 Z" id="path-1"></path>
    </defs>
    <g id="Icon/Feather/zoom-out" stroke="none" stroke-width="1" fill="none" fill-rule="evenodd">
        <mask id="mask-2" fill="white">
            <use xlink:href="#path-1"></use>
        </mask>
        <use id="Combined-Shape" fill="#000000" fill-rule="nonzero" xlink:href="#path-1"></use>
        <g id="Color/Neutral/Black" mask="url(#mask-2)" fill="#172B4E" fill-rule="nonzero">
            <rect id="Rectangle" x="0" y="0" width="24" height="24"></rect>
        </g>
    </g>
</svg>