<?xml version="1.0" encoding="UTF-8"?>
<svg width="24px" height="24px" viewBox="0 0 24 24" version="1.1" xmlns="http://www.w3.org/2000/svg" xmlns:xlink="http://www.w3.org/1999/xlink">
    <!-- Generator: Sketch 54.1 (76490) - https://sketchapp.com -->
    <title>Icon/Feather/activity</title>
    <desc>Created with Sketch.</desc>
    <defs>
        <path d="M15,17.8377223 L9.9486833,2.68377223 C9.64478453,1.77207592 8.35521547,1.77207592 8.0513167,2.68377223 L5.27924078,11 L2,11 C1.44771525,11 1,11.4477153 1,12 C1,12.5522847 1.44771525,13 2,13 L6,13 C6.43043041,13 6.81256925,12.7245699 6.9486833,12.3162278 L9,6.16227766 L14.0513167,21.3162278 C14.3552155,22.2279241 15.6447845,22.2279241 15.9486833,21.3162278 L18.7207592,13 L22,13 C22.5522847,13 23,12.5522847 23,12 C23,11.4477153 22.5522847,11 22,11 L18,11 C17.5695696,11 17.1874307,11.2754301 17.0513167,11.6837722 L15,17.8377223 Z" id="path-1"></path>
    </defs>
    <g id="Icon/Feather/activity" stroke="none" stroke-width="1" fill="none" fill-rule="evenodd">
        <mask id="mask-2" fill="white">
            <use xlink:href="#path-1"></use>
        </mask>
        <use id="Shape" fill="#000000" fill-rule="nonzero" xlink:href="#path-1"></use>
        <g id="Color/Neutral/Black" mask="url(#mask-2)" fill="#172B4E" fill-rule="nonzero">
            <rect id="Rectangle" x="0" y="0" width="24" height="24"></rect>
        </g>
    </g>
</svg>