<?xml version="1.0" encoding="UTF-8"?>
<svg width="24px" height="24px" viewBox="0 0 24 24" version="1.1" xmlns="http://www.w3.org/2000/svg" xmlns:xlink="http://www.w3.org/1999/xlink">
    <!-- Generator: Sketch 54.1 (76490) - https://sketchapp.com -->
    <title>Icon/Feather/alert-triangle</title>
    <desc>Created with Sketch.</desc>
    <defs>
        <path d="M9.87915829,3.44887293 C10.4258742,2.54753799 11.3983964,2 12.4470257,2 C13.495655,2 14.4681772,2.54753799 15.0148931,3.44887293 L23.4930162,17.6026836 C24.0260538,18.5257831 24.0292363,19.662404 23.5013765,20.5884739 C22.9735166,21.5145439 21.9938982,22.0909683 20.9170257,22.102744 L3.96603518,22.1026836 C2.9001532,22.0909683 1.92053484,21.5145439 1.39267496,20.5884739 C0.864815078,19.662404 0.867997619,18.5257831 1.40915829,17.5888729 L9.87915829,3.44887293 Z M3.13301624,18.6028044 C2.95533705,18.9105042 2.95427621,19.2893779 3.1302295,19.5980678 C3.30618279,19.9067578 3.63272225,20.0988993 3.97702571,20.102744 L20.9060352,20.1028044 C21.2613292,20.0988993 21.5878686,19.9067578 21.7638219,19.5980678 C21.9397752,19.2893779 21.9387144,18.9105042 21.7691583,18.6166151 L13.3020257,4.481372 C13.1207429,4.18251266 12.7965688,4 12.4470257,4 C12.098249,4 11.7747302,4.1817132 11.5932202,4.47940787 L3.13301624,18.6028044 Z M11.4470257,9.102744 C11.4470257,8.55045925 11.894741,8.102744 12.4470257,8.102744 C12.9993105,8.102744 13.4470257,8.55045925 13.4470257,9.102744 L13.4470257,13.102744 C13.4470257,13.6550288 12.9993105,14.102744 12.4470257,14.102744 C11.894741,14.102744 11.4470257,13.6550288 11.4470257,13.102744 L11.4470257,9.102744 Z M11.7399189,16.8098508 C11.3493946,16.4193265 11.3493946,15.7861615 11.7399189,15.3956372 C12.1304432,15.0051129 12.7636082,15.0051129 13.1541325,15.3956372 C13.5446568,15.7861615 13.5446568,16.4193265 13.1541325,16.8098508 C12.7636082,17.2003751 12.1304432,17.2003751 11.7399189,16.8098508 Z" id="path-1"></path>
    </defs>
    <g id="Icon/Feather/alert-triangle" stroke="none" stroke-width="1" fill="none" fill-rule="evenodd">
        <mask id="mask-2" fill="white">
            <use xlink:href="#path-1"></use>
        </mask>
        <use id="Combined-Shape" fill="#000000" fill-rule="nonzero" xlink:href="#path-1"></use>
        <g id="Color/Neutral/Black" mask="url(#mask-2)" fill="#172B4E" fill-rule="nonzero">
            <rect id="Rectangle" x="0" y="0" width="24" height="24"></rect>
        </g>
    </g>
</svg>