<?xml version="1.0" encoding="UTF-8"?>
<svg width="24px" height="24px" viewBox="0 0 24 24" version="1.1" xmlns="http://www.w3.org/2000/svg" xmlns:xlink="http://www.w3.org/1999/xlink">
    <!-- Generator: Sketch 54.1 (76490) - https://sketchapp.com -->
    <title>Icon/Feather/anchor</title>
    <desc>Created with Sketch.</desc>
    <defs>
        <path d="M13,20.9450712 C17.1716166,20.4839224 20.4839224,17.1716166 20.9450712,13 L19,13 C18.4477153,13 18,12.5522847 18,12 C18,11.4477153 18.4477153,11 19,11 L22,11 C22.5522847,11 23,11.4477153 23,12 C23,18.0751322 18.0751322,23 12,23 C5.92486775,23 1,18.0751322 1,12 C1,11.4477153 1.44771525,11 2,11 L5,11 C5.55228475,11 6,11.4477153 6,12 C6,12.5522847 5.55228475,13 5,13 L3.05492878,13 C3.5160776,17.1716166 6.82838339,20.4839224 11,20.9450712 L11,8.87398251 C9.27477279,8.42993972 8,6.86383943 8,5 C8,2.790861 9.790861,1 12,1 C14.209139,1 16,2.790861 16,5 C16,6.86383943 14.7252272,8.42993972 13,8.87398251 L13,20.9450712 Z M12,7 C13.1045695,7 14,6.1045695 14,5 C14,3.8954305 13.1045695,3 12,3 C10.8954305,3 10,3.8954305 10,5 C10,6.1045695 10.8954305,7 12,7 Z" id="path-1"></path>
    </defs>
    <g id="Icon/Feather/anchor" stroke="none" stroke-width="1" fill="none" fill-rule="evenodd">
        <mask id="mask-2" fill="white">
            <use xlink:href="#path-1"></use>
        </mask>
        <use id="Combined-Shape" fill="#000000" fill-rule="nonzero" xlink:href="#path-1"></use>
        <g id="Color/Neutral/Black" mask="url(#mask-2)" fill="#172B4E" fill-rule="nonzero">
            <rect id="Rectangle" x="0" y="0" width="24" height="24"></rect>
        </g>
    </g>
</svg>