<?xml version="1.0" encoding="UTF-8"?>
<svg width="24px" height="24px" viewBox="0 0 24 24" version="1.1" xmlns="http://www.w3.org/2000/svg" xmlns:xlink="http://www.w3.org/1999/xlink">
    <!-- Generator: Sketch 54.1 (76490) - https://sketchapp.com -->
    <title>Icon/Feather/aperture</title>
    <desc>Created with Sketch.</desc>
    <defs>
        <path d="M10.7006739,22.9240666 C6.77630413,22.4622628 3.48405444,19.9346674 1.94099205,16.4583476 C1.92129324,16.4202172 1.90397555,16.3806569 1.88923569,16.3398635 C1.3169544,15.008356 1,13.5411923 1,12 C1,9.58665616 1.7771798,7.35483238 3.09491382,5.54115427 C3.12637176,5.48920482 3.16273756,5.43985323 3.20380635,5.39386441 C5.21094153,2.72557172 8.40395633,1 12,1 C12.3926504,1 12.7804957,1.02057288 13.1625168,1.06069953 C13.2081621,1.06260309 13.2538733,1.06765207 13.2993261,1.07593335 C17.2236959,1.53773724 20.5159456,4.06533264 22.059008,7.54165239 C22.0787068,7.57978281 22.0960244,7.61934307 22.1107643,7.66013648 C22.6830456,8.99164398 23,10.4588077 23,12 C23,14.4133438 22.2228202,16.6451676 20.9050862,18.4588457 C20.8736282,18.5107952 20.8372624,18.5601468 20.7961937,18.6061356 C18.7890585,21.2744283 15.5960437,23 12,23 C11.6073496,23 11.2195043,22.9794271 10.8374832,22.9393005 C10.7918379,22.9373969 10.7461267,22.9323479 10.7006739,22.9240666 Z M10.3547043,20.8499559 L12.5779183,17 L9.70919065,17 C9.69700708,17.0002228 9.68483216,17.0002223 9.67267208,17 L4.51554904,17 C5.8393161,18.9776052 7.92608692,20.4013095 10.3547043,20.8499559 Z M12.5885082,20.9810663 C15.0883911,20.8197066 17.310296,19.6376972 18.8418025,17.8474581 L16.6199296,13.9998245 L15.1812933,16.4911215 C15.1781843,16.4966251 15.1750257,16.5020947 15.1718172,16.5075313 L12.5885082,20.9810663 Z M15.4651718,12.000122 L13.732707,9 L10.2671522,9 L8.53482822,11.999878 L10.267293,15 L13.7328478,15 L15.4651718,12.000122 Z M17.4974295,11.5199925 L20.0737146,15.9813642 C20.6667543,14.7810442 21,13.429439 21,12 C21,10.9480937 20.8195373,9.93833678 20.4878829,9 L16.0422226,9 L17.4733948,11.4783714 C17.4817498,11.4920677 17.4897626,11.5059461 17.4974295,11.5199925 Z M3.51211712,15 L7.95777741,15 L6.52660522,12.5216286 C6.51825025,12.5079324 6.51023743,12.494054 6.50257049,12.4800075 L3.9262854,8.01863578 C3.33324567,9.21895575 3,10.570561 3,12 C3,13.0519063 3.18046266,14.0616632 3.51211712,15 Z M5.15819751,6.15254193 L7.38007042,10.0001755 L8.81870672,7.50887851 C8.82181565,7.50337489 8.82497426,7.49790526 8.82818284,7.49246865 L11.4114918,3.01893366 C8.91160885,3.18029337 6.68970404,4.36230285 5.15819751,6.15254193 Z M13.6452957,3.1500441 L11.4220817,7 L14.2908094,7 C14.3029929,6.9997772 14.3151678,6.99977775 14.3273279,7 L19.484451,7 C18.1606839,5.02239483 16.0739131,3.59869046 13.6452957,3.1500441 Z" id="path-1"></path>
    </defs>
    <g id="Icon/Feather/aperture" stroke="none" stroke-width="1" fill="none" fill-rule="evenodd">
        <mask id="mask-2" fill="white">
            <use xlink:href="#path-1"></use>
        </mask>
        <use id="Combined-Shape" fill="#000000" xlink:href="#path-1"></use>
        <g id="Color/Neutral/Black" mask="url(#mask-2)" fill="#172B4E" fill-rule="nonzero">
            <rect id="Rectangle" x="0" y="0" width="24" height="24"></rect>
        </g>
    </g>
</svg>