<?xml version="1.0" encoding="UTF-8"?>
<svg width="24px" height="24px" viewBox="0 0 24 24" version="1.1" xmlns="http://www.w3.org/2000/svg" xmlns:xlink="http://www.w3.org/1999/xlink">
    <!-- Generator: Sketch 54.1 (76490) - https://sketchapp.com -->
    <title>Icon/Feather/Arrow-right</title>
    <desc>Created with Sketch.</desc>
    <defs>
        <path d="M6.41421356,13 L10.7071068,17.2928932 C11.0976311,17.6834175 11.0976311,18.3165825 10.7071068,18.7071068 C10.3165825,19.0976311 9.68341751,19.0976311 9.29289322,18.7071068 L3.29289322,12.7071068 C2.90236893,12.3165825 2.90236893,11.6834175 3.29289322,11.2928932 L9.29289322,5.29289322 C9.68341751,4.90236893 10.3165825,4.90236893 10.7071068,5.29289322 C11.0976311,5.68341751 11.0976311,6.31658249 10.7071068,6.70710678 L6.41421356,11 L20,11 C20.5522847,11 21,11.4477153 21,12 C21,12.5522847 20.5522847,13 20,13 L6.41421356,13 Z" id="path-1"></path>
    </defs>
    <g id="Icon/Feather/Arrow-right" stroke="none" stroke-width="1" fill="none" fill-rule="evenodd">
        <mask id="mask-2" fill="white">
            <use xlink:href="#path-1"></use>
        </mask>
        <use id="Combined-Shape" fill="#172B4E" fill-rule="nonzero" transform="translate(12.000000, 12.000000) rotate(-180.000000) translate(-12.000000, -12.000000) " xlink:href="#path-1"></use>
    </g>
</svg>