<?xml version="1.0" encoding="UTF-8"?>
<svg width="24px" height="24px" viewBox="0 0 24 24" version="1.1" xmlns="http://www.w3.org/2000/svg" xmlns:xlink="http://www.w3.org/1999/xlink">
    <!-- Generator: Sketch 54.1 (76490) - https://sketchapp.com -->
    <title>Icon/Feather/arrow-down-left</title>
    <desc>Created with Sketch.</desc>
    <defs>
        <path d="M8.41421356,17 L15,17 C15.5522847,17 16,17.4477153 16,18 C16,18.5522847 15.5522847,19 15,19 L6,19 C5.44771525,19 5,18.5522847 5,18 L5,9 C5,8.44771525 5.44771525,8 6,8 C6.55228475,8 7,8.44771525 7,9 L7,15.5857864 L17.2928932,5.29289322 C17.6834175,4.90236893 18.3165825,4.90236893 18.7071068,5.29289322 C19.0976311,5.68341751 19.0976311,6.31658249 18.7071068,6.70710678 L8.41421356,17 Z" id="path-1"></path>
    </defs>
    <g id="Icon/Feather/arrow-down-left" stroke="none" stroke-width="1" fill="none" fill-rule="evenodd">
        <mask id="mask-2" fill="white">
            <use xlink:href="#path-1"></use>
        </mask>
        <use id="Combined-Shape" fill="#000000" fill-rule="nonzero" xlink:href="#path-1"></use>
        <g id="Color/Neutral/Black" mask="url(#mask-2)" fill="#172B4E" fill-rule="nonzero">
            <rect id="Rectangle" x="0" y="0" width="24" height="24"></rect>
        </g>
    </g>
</svg>