<?xml version="1.0" encoding="UTF-8"?>
<svg width="24px" height="24px" viewBox="0 0 24 24" version="1.1" xmlns="http://www.w3.org/2000/svg" xmlns:xlink="http://www.w3.org/1999/xlink">
    <!-- Generator: Sketch 54.1 (76490) - https://sketchapp.com -->
    <title>Icon/Feather/at-sign</title>
    <desc>Created with Sketch.</desc>
    <defs>
        <path d="M17.0006516,12.0004491 L17.0006516,13.0004491 C17.0006516,14.1050186 17.8960821,15.0004491 19.0006516,15.0004491 C20.1052211,15.0004491 21.0006516,14.1050186 21.0006516,13.0004491 L21.0006516,12.0005121 C21.0003882,7.81812622 18.1189726,4.18708499 14.0460263,3.23657987 C9.97307995,2.28607476 5.78208504,4.2666247 3.93058195,8.0168631 C2.07907886,11.7671015 3.05505719,16.2986005 6.28621699,18.9541528 C9.51737679,21.6097051 14.1521006,21.6894027 17.4726516,19.1465121 C17.9111309,18.810723 18.5387995,18.8939698 18.8745886,19.3324491 C19.2103778,19.7709284 19.1271309,20.398597 18.6886516,20.7343862 C14.6302004,23.8423636 8.96553793,23.7449554 5.01634262,20.4992803 C1.06714731,17.2536053 -0.125715093,11.7151065 2.13723313,7.13148182 C4.40018135,2.54785711 9.52250847,0.127184956 14.500554,1.28891343 C19.4785995,2.45064191 23.0003297,6.88858119 23.0006516,12.0004491 L23.0006516,13.0004491 C23.0006516,15.2095881 21.2097906,17.0004491 19.0006516,17.0004491 C17.6557535,17.0004491 16.4658789,16.3367144 15.7407254,15.3189423 C14.8248032,16.3504679 13.488633,17.0004491 12.0006516,17.0004491 C9.23922786,17.0004491 7.00065161,14.7618729 7.00065161,12.0004491 C7.00065161,9.23902538 9.23922786,7.00044913 12.0006516,7.00044913 C14.7620754,7.00044913 17.0006516,9.23902538 17.0006516,12.0004491 Z M12.0006516,15.0004491 C13.6575059,15.0004491 15.0006516,13.6573034 15.0006516,12.0004491 C15.0006516,10.3435949 13.6575059,9.00044913 12.0006516,9.00044913 C10.3437974,9.00044913 9.00065161,10.3435949 9.00065161,12.0004491 C9.00065161,13.6573034 10.3437974,15.0004491 12.0006516,15.0004491 Z" id="path-1"></path>
    </defs>
    <g id="Icon/Feather/at-sign" stroke="none" stroke-width="1" fill="none" fill-rule="evenodd">
        <mask id="mask-2" fill="white">
            <use xlink:href="#path-1"></use>
        </mask>
        <use id="Combined-Shape" fill="#000000" fill-rule="nonzero" xlink:href="#path-1"></use>
        <g id="Color/Neutral/Black" mask="url(#mask-2)" fill="#172B4E" fill-rule="nonzero">
            <rect id="Rectangle" x="0" y="0" width="24" height="24"></rect>
        </g>
    </g>
</svg>