<?xml version="1.0" encoding="UTF-8"?>
<svg width="24px" height="24px" viewBox="0 0 24 24" version="1.1" xmlns="http://www.w3.org/2000/svg" xmlns:xlink="http://www.w3.org/1999/xlink">
    <!-- Generator: Sketch 54.1 (76490) - https://sketchapp.com -->
    <title>Icon/Feather/award</title>
    <desc>Created with Sketch.</desc>
    <defs>
        <path d="M9.01496516,15.424523 L8.26444368,21.0751434 L11.4855042,19.1425071 C11.8021866,18.9524976 12.1978134,18.9524976 12.5144958,19.1425071 L15.7358817,21.0753387 L14.9861004,15.4240941 C14.0634431,15.7955523 13.0555972,16 12,16 C10.9448091,16 9.93733283,15.7957097 9.01496516,15.424523 Z M7.13949704,14.3546913 C5.23083455,12.8926088 4,10.5900428 4,8 C4,3.581722 7.581722,0 12,0 C16.418278,0 20,3.581722 20,8 C20,10.5895337 18.7696493,12.8917035 16.8616285,14.353829 L17.9913131,22.8684771 C18.1014481,23.6985855 17.2035539,24.2883227 16.4855042,23.8574929 L12,21.1661904 L7.51449576,23.8574929 C6.79638903,24.288357 5.89844315,23.6984938 6.0087057,22.8683352 L7.13949704,14.3546913 Z M15.3305913,12.9914684 C16.9401106,11.9153689 18,10.0814597 18,8 C18,4.6862915 15.3137085,2 12,2 C8.6862915,2 6,4.6862915 6,8 C6,11.3137085 8.6862915,14 12,14 C13.1638413,14 14.2502872,13.6686308 15.170137,13.0950932 C15.2198314,13.0557718 15.2734995,13.0209907 15.3305913,12.9914684 Z" id="path-1"></path>
    </defs>
    <g id="Icon/Feather/award" stroke="none" stroke-width="1" fill="none" fill-rule="evenodd">
        <mask id="mask-2" fill="white">
            <use xlink:href="#path-1"></use>
        </mask>
        <use id="Combined-Shape" fill="#000000" fill-rule="nonzero" xlink:href="#path-1"></use>
        <g id="Color/Neutral/Black" mask="url(#mask-2)" fill="#172B4E" fill-rule="nonzero">
            <rect id="Rectangle" x="0" y="0" width="24" height="24"></rect>
        </g>
    </g>
</svg>