<?xml version="1.0" encoding="UTF-8"?>
<svg width="24px" height="24px" viewBox="0 0 24 24" version="1.1" xmlns="http://www.w3.org/2000/svg" xmlns:xlink="http://www.w3.org/1999/xlink">
    <!-- Generator: Sketch 54.1 (76490) - https://sketchapp.com -->
    <title>Icon/Feather/battery</title>
    <desc>Created with Sketch.</desc>
    <defs>
        <path d="M3,7 C2.44771525,7 2,7.44771525 2,8 L2,16 C2,16.5522847 2.44771525,17 3,17 L17,17 C17.5522847,17 18,16.5522847 18,16 L18,8 C18,7.44771525 17.5522847,7 17,7 L3,7 Z M3,5 L17,5 C18.6568542,5 20,6.34314575 20,8 L20,16 C20,17.6568542 18.6568542,19 17,19 L3,19 C1.34314575,19 2.22044605e-16,17.6568542 0,16 L0,8 C-2.22044605e-16,6.34314575 1.34314575,5 3,5 Z M24,13 C24,13.5522847 23.5522847,14 23,14 C22.4477153,14 22,13.5522847 22,13 L22,11 C22,10.4477153 22.4477153,10 23,10 C23.5522847,10 24,10.4477153 24,11 L24,13 Z" id="path-1"></path>
    </defs>
    <g id="Icon/Feather/battery" stroke="none" stroke-width="1" fill="none" fill-rule="evenodd">
        <mask id="mask-2" fill="white">
            <use xlink:href="#path-1"></use>
        </mask>
        <use id="Combined-Shape" fill="#000000" fill-rule="nonzero" xlink:href="#path-1"></use>
        <g id="Color/Neutral/Black" mask="url(#mask-2)" fill="#172B4E" fill-rule="nonzero">
            <rect id="Rectangle" x="0" y="0" width="24" height="24"></rect>
        </g>
    </g>
</svg>