<?xml version="1.0" encoding="UTF-8"?>
<svg width="24px" height="24px" viewBox="0 0 24 24" version="1.1" xmlns="http://www.w3.org/2000/svg" xmlns:xlink="http://www.w3.org/1999/xlink">
    <!-- Generator: Sketch 54.1 (76490) - https://sketchapp.com -->
    <title>Icon/Feather/battery-charging</title>
    <desc>Created with Sketch.</desc>
    <defs>
        <path d="M5,17.0001063 L3,17.0001063 C2.44771525,17.0001063 2,16.552391 2,16.0001063 L2,8.00010627 C2,7.44782152 2.44771525,7.00010627 3,7.00010627 L6.19,7.00010627 C6.74228475,7.00010627 7.19,6.55239102 7.19,6.00010627 C7.19,5.44782152 6.74228475,5.00010627 6.19,5.00010627 L3,5.00010627 C1.34314575,5.00010627 -2.22044605e-16,6.34325202 0,8.00010627 L0,16.0001063 C3.33066907e-16,17.6569605 1.34314575,19.0001063 3,19.0001063 L5,19.0001063 C5.55228475,19.0001063 6,18.552391 6,18.0001063 C6,17.4478215 5.55228475,17.0001063 5,17.0001063 Z M15,7.00010627 C14.4477153,7.00010627 14,6.55239102 14,6.00010627 C14,5.44782152 14.4477153,5.00010627 15,5.00010627 L17,5.00010627 C18.6568542,5.00010627 20,6.34325202 20,8.00010627 L20,16.0001063 C20,17.6569605 18.6568542,19.0001063 17,19.0001063 L13.81,19.0001063 C13.2577153,19.0001063 12.81,18.552391 12.81,18.0001063 C12.81,17.4478215 13.2577153,17.0001063 13.81,17.0001063 L17,17.0001063 C17.5522847,17.0001063 18,16.552391 18,16.0001063 L18,8.00010627 C18,7.44782152 17.5522847,7.00010627 17,7.00010627 L15,7.00010627 Z M24,13.0001063 C24,13.552391 23.5522847,14.0001063 23,14.0001063 C22.4477153,14.0001063 22,13.552391 22,13.0001063 L22,11.0001063 C22,10.4478215 22.4477153,10.0001063 23,10.0001063 C23.5522847,10.0001063 24,10.4478215 24,11.0001063 L24,13.0001063 Z M11.1314829,13.0001063 L7,13.0001063 C6.20130462,13.0001063 5.72491322,12.1099608 6.16794971,11.4454061 L10.1679497,5.44540608 C10.4743022,4.98587739 11.0951715,4.86170352 11.5547002,5.16805598 C12.0142289,5.47440844 12.1384028,6.09527778 11.8320503,6.55480647 L8.86851709,11.0001063 L13,11.0001063 C13.7986954,11.0001063 14.2750868,11.8902517 13.8320503,12.5548065 L9.83205029,18.5548065 C9.52569784,19.0143352 8.90482849,19.138509 8.4452998,18.8321566 C7.98577112,18.5258041 7.86159725,17.9049348 8.16794971,17.4454061 L11.1314829,13.0001063 Z" id="path-1"></path>
    </defs>
    <g id="Icon/Feather/battery-charging" stroke="none" stroke-width="1" fill="none" fill-rule="evenodd">
        <mask id="mask-2" fill="white">
            <use xlink:href="#path-1"></use>
        </mask>
        <use id="Combined-Shape" fill="#000000" fill-rule="nonzero" xlink:href="#path-1"></use>
        <g id="Color/Neutral/Black" mask="url(#mask-2)" fill="#172B4E" fill-rule="nonzero">
            <rect id="Rectangle" x="0" y="0" width="24" height="24"></rect>
        </g>
    </g>
</svg>