<?xml version="1.0" encoding="UTF-8"?>
<svg width="24px" height="24px" viewBox="0 0 24 24" version="1.1" xmlns="http://www.w3.org/2000/svg" xmlns:xlink="http://www.w3.org/1999/xlink">
    <!-- Generator: Sketch 54.1 (76490) - https://sketchapp.com -->
    <title>Icon/Feather/bell-off</title>
    <desc>Created with Sketch.</desc>
    <defs>
        <path d="M9.0514287,3.77091781 C10.9095895,2.72242214 13.1847676,2.73955384 15.0269286,3.81591229 C16.8690897,4.89227074 18.0010899,6.86592332 18.0000001,8.99948924 L18,13 C18,13.5522847 18.4477153,14 19,14 C19.5522847,14 20,13.5522847 20,13 L20,9 C20.0014529,6.1557562 18.4921192,3.52421943 16.0359046,2.08907483 C13.5796899,0.653930228 10.546119,0.631087966 8.0685713,2.02908219 C7.58757667,2.30049077 7.41767361,2.91043408 7.68908219,3.3914287 C7.96049077,3.87242333 8.57043408,4.04232639 9.0514287,3.77091781 Z M14.5857864,16 L6.16784743,7.58206099 C6.05614219,8.04450002 5.999396,8.52038446 6,9 L6,14 C6,14.7285743 5.80521143,15.4116533 5.46487122,16 L14.5857864,16 Z M16.5857864,18 L2,18 C0.666666667,18 0.666666667,16 2,16 C3.1045695,16 4,15.1045695 4,14 L4.00000079,9.00126017 C3.99870009,7.96909962 4.19712871,6.94884115 4.58182863,5.99604219 L0.292893219,1.70710678 C-0.0976310729,1.31658249 -0.0976310729,0.683417511 0.292893219,0.292893219 C0.683417511,-0.0976310729 1.31658249,-0.0976310729 1.70710678,0.292893219 L6.47095214,5.05673858 C6.48211925,5.0673975 6.49300653,5.07828744 6.50361023,5.08939667 L23.7071068,22.2928932 C24.0976311,22.6834175 24.0976311,23.3165825 23.7071068,23.7071068 C23.3165825,24.0976311 22.6834175,24.0976311 22.2928932,23.7071068 L16.5857864,18 Z M12.865,20.4982281 C13.1421209,20.0205018 13.7540456,19.8578791 14.2317719,20.135 C14.7094982,20.4121209 14.8721209,21.0240456 14.595,21.5017719 C14.0583034,22.4269784 13.0696029,22.9964563 12,22.9964563 C10.9303971,22.9964563 9.94169664,22.4269784 9.405,21.5017719 C9.12787905,21.0240456 9.29050183,20.4121209 9.76822814,20.135 C10.2459544,19.8578791 10.8578791,20.0205018 11.135,20.4982281 C11.3138989,20.8066303 11.6434657,20.9964563 12,20.9964563 C12.3565343,20.9964563 12.6861011,20.8066303 12.865,20.4982281 Z" id="path-1"></path>
    </defs>
    <g id="Icon/Feather/bell-off" stroke="none" stroke-width="1" fill="none" fill-rule="evenodd">
        <mask id="mask-2" fill="white">
            <use xlink:href="#path-1"></use>
        </mask>
        <use id="Combined-Shape" fill="#000000" fill-rule="nonzero" xlink:href="#path-1"></use>
        <g id="Color/Neutral/Black" mask="url(#mask-2)" fill="#172B4E" fill-rule="nonzero">
            <rect id="Rectangle" x="0" y="0" width="24" height="24"></rect>
        </g>
    </g>
</svg>