<?xml version="1.0" encoding="UTF-8"?>
<svg width="24px" height="24px" viewBox="0 0 24 24" version="1.1" xmlns="http://www.w3.org/2000/svg" xmlns:xlink="http://www.w3.org/1999/xlink">
    <!-- Generator: Sketch 54.1 (76490) - https://sketchapp.com -->
    <title>Icon/Feather/bluetooth</title>
    <desc>Created with Sketch.</desc>
    <defs>
        <path d="M13.5,20.5877912 L16.5857864,17.5020048 L13.5,14.4162183 L13.5,20.5877912 Z M16.5857864,6.50200475 L13.5,3.41621832 L13.5,9.58779119 L16.5857864,6.50200475 Z M13.5,9.58779119 L13.5,14.4162183 L11.0857864,12.0020048 L13.5,9.58779119 Z M7.70710678,18.2091115 C7.31658249,18.5996358 6.68341751,18.5996358 6.29289322,18.2091115 C5.90236893,17.8185872 5.90236893,17.1854223 6.29289322,16.794898 L11.0857864,12.0020048 L6.29289322,7.20911154 C5.90236893,6.81858724 5.90236893,6.18542227 6.29289322,5.79489797 C6.68341751,5.40437368 7.31658249,5.40437368 7.70710678,5.79489797 L18.7071068,16.794898 C19.0976311,17.1854223 19.0976311,17.8185872 18.7071068,18.2091115 L13.2071068,23.7091115 C12.5771419,24.3390764 11.5,23.8929096 11.5,23.0020048 L11.5,1.00200475 C11.5,0.111099904 12.5771419,-0.335066888 13.2071068,0.294897973 L18.7071068,5.79489797 C19.0976311,6.18542227 19.0976311,6.81858724 18.7071068,7.20911154 L7.70710678,18.2091115 Z" id="path-1"></path>
    </defs>
    <g id="Icon/Feather/bluetooth" stroke="none" stroke-width="1" fill="none" fill-rule="evenodd">
        <mask id="mask-2" fill="white">
            <use xlink:href="#path-1"></use>
        </mask>
        <use id="Shape" fill="#000000" fill-rule="nonzero" xlink:href="#path-1"></use>
        <g id="Color/Neutral/Black" mask="url(#mask-2)" fill="#172B4E" fill-rule="nonzero">
            <rect id="Rectangle" x="0" y="0" width="24" height="24"></rect>
        </g>
    </g>
</svg>