<?xml version="1.0" encoding="UTF-8"?>
<svg width="24px" height="24px" viewBox="0 0 24 24" version="1.1" xmlns="http://www.w3.org/2000/svg" xmlns:xlink="http://www.w3.org/1999/xlink">
    <!-- Generator: Sketch 54.1 (76490) - https://sketchapp.com -->
    <title>Icon/Feather/briefcase</title>
    <desc>Created with Sketch.</desc>
    <defs>
        <path d="M7,6 L7,5 C7,3.34314575 8.34314575,2 10,2 L14,2 C15.6568542,2 17,3.34314575 17,5 L17,6 L20,6 C21.6568542,6 23,7.34314575 23,9 L23,19 C23,20.6568542 21.6568542,22 20,22 L4,22 C2.34314575,22 1,20.6568542 1,19 L1,9 C1,7.34314575 2.34314575,6 4,6 L7,6 Z M9,6 L15,6 L15,5 C15,4.44771525 14.5522847,4 14,4 L10,4 C9.44771525,4 9,4.44771525 9,5 L9,6 Z M7,8 L4,8 C3.44771525,8 3,8.44771525 3,9 L3,19 C3,19.5522847 3.44771525,20 4,20 L7,20 L7,8 Z M9,8 L9,20 L15,20 L15,8 L9,8 Z M17,8 L17,20 L20,20 C20.5522847,20 21,19.5522847 21,19 L21,9 C21,8.44771525 20.5522847,8 20,8 L17,8 Z" id="path-1"></path>
    </defs>
    <g id="Icon/Feather/briefcase" stroke="none" stroke-width="1" fill="none" fill-rule="evenodd">
        <mask id="mask-2" fill="white">
            <use xlink:href="#path-1"></use>
        </mask>
        <use id="Combined-Shape" fill="#000000" fill-rule="nonzero" xlink:href="#path-1"></use>
        <g id="Color/Neutral/Black" mask="url(#mask-2)" fill="#172B4E" fill-rule="nonzero">
            <rect id="Rectangle" x="0" y="0" width="24" height="24"></rect>
        </g>
    </g>
</svg>