<?xml version="1.0" encoding="UTF-8"?>
<svg width="24px" height="24px" viewBox="0 0 24 24" version="1.1" xmlns="http://www.w3.org/2000/svg" xmlns:xlink="http://www.w3.org/1999/xlink">
    <!-- Generator: Sketch 54.1 (76490) - https://sketchapp.com -->
    <title>Icon/Feather/check-square</title>
    <desc>Created with Sketch.</desc>
    <defs>
        <path d="M11,12.5857864 L21.2928932,2.29289322 C21.6834175,1.90236893 22.3165825,1.90236893 22.7071068,2.29289322 C23.0976311,2.68341751 23.0976311,3.31658249 22.7071068,3.70710678 L11.7071068,14.7071068 C11.3165825,15.0976311 10.6834175,15.0976311 10.2928932,14.7071068 L7.29289322,11.7071068 C6.90236893,11.3165825 6.90236893,10.6834175 7.29289322,10.2928932 C7.68341751,9.90236893 8.31658249,9.90236893 8.70710678,10.2928932 L11,12.5857864 Z M19,12 C19,11.4477153 19.4477153,11 20,11 C20.5522847,11 21,11.4477153 21,12 L21,19 C21,20.6568542 19.6568542,22 18,22 L4,22 C2.34314575,22 1,20.6568542 1,19 L1,5 C1,3.34314575 2.34314575,2 4,2 L15,2 C15.5522847,2 16,2.44771525 16,3 C16,3.55228475 15.5522847,4 15,4 L4,4 C3.44771525,4 3,4.44771525 3,5 L3,19 C3,19.5522847 3.44771525,20 4,20 L18,20 C18.5522847,20 19,19.5522847 19,19 L19,12 Z" id="path-1"></path>
    </defs>
    <g id="Icon/Feather/check-square" stroke="none" stroke-width="1" fill="none" fill-rule="evenodd">
        <mask id="mask-2" fill="white">
            <use xlink:href="#path-1"></use>
        </mask>
        <use id="Combined-Shape" fill="#000000" fill-rule="nonzero" xlink:href="#path-1"></use>
        <g id="Color/Neutral/Black" mask="url(#mask-2)" fill="#172B4E" fill-rule="nonzero">
            <rect id="Rectangle" x="0" y="0" width="24" height="24"></rect>
        </g>
    </g>
</svg>