<?xml version="1.0" encoding="UTF-8"?>
<svg width="24px" height="24px" viewBox="0 0 24 24" version="1.1" xmlns="http://www.w3.org/2000/svg" xmlns:xlink="http://www.w3.org/1999/xlink">
    <!-- Generator: Sketch 54.1 (76490) - https://sketchapp.com -->
    <title>Icon/Feather/chevrons-down</title>
    <desc>Created with Sketch.</desc>
    <defs>
        <path d="M7.70710678,12.2928932 L12,16.5857864 L16.2928932,12.2928932 C16.6834175,11.9023689 17.3165825,11.9023689 17.7071068,12.2928932 C18.0976311,12.6834175 18.0976311,13.3165825 17.7071068,13.7071068 L12.7071068,18.7071068 C12.3165825,19.0976311 11.6834175,19.0976311 11.2928932,18.7071068 L6.29289322,13.7071068 C5.90236893,13.3165825 5.90236893,12.6834175 6.29289322,12.2928932 C6.68341751,11.9023689 7.31658249,11.9023689 7.70710678,12.2928932 Z M7.70710678,5.29289322 L12,9.58578644 L16.2928932,5.29289322 C16.6834175,4.90236893 17.3165825,4.90236893 17.7071068,5.29289322 C18.0976311,5.68341751 18.0976311,6.31658249 17.7071068,6.70710678 L12.7071068,11.7071068 C12.3165825,12.0976311 11.6834175,12.0976311 11.2928932,11.7071068 L6.29289322,6.70710678 C5.90236893,6.31658249 5.90236893,5.68341751 6.29289322,5.29289322 C6.68341751,4.90236893 7.31658249,4.90236893 7.70710678,5.29289322 Z" id="path-1"></path>
    </defs>
    <g id="Icon/Feather/chevrons-down" stroke="none" stroke-width="1" fill="none" fill-rule="evenodd">
        <mask id="mask-2" fill="white">
            <use xlink:href="#path-1"></use>
        </mask>
        <use id="Combined-Shape" fill="#000000" fill-rule="nonzero" xlink:href="#path-1"></use>
        <g id="Color/Neutral/Black" mask="url(#mask-2)" fill="#172B4E" fill-rule="nonzero">
            <rect id="Rectangle" x="0" y="0" width="24" height="24"></rect>
        </g>
    </g>
</svg>