<?xml version="1.0" encoding="UTF-8"?>
<svg width="24px" height="24px" viewBox="0 0 24 24" version="1.1" xmlns="http://www.w3.org/2000/svg" xmlns:xlink="http://www.w3.org/1999/xlink">
    <!-- Generator: Sketch 54.1 (76490) - https://sketchapp.com -->
    <title>Icon/Feather/chevrons-up</title>
    <desc>Created with Sketch.</desc>
    <defs>
        <path d="M16.2928932,11.7071068 L12,7.41421356 L7.70710678,11.7071068 C7.31658249,12.0976311 6.68341751,12.0976311 6.29289322,11.7071068 C5.90236893,11.3165825 5.90236893,10.6834175 6.29289322,10.2928932 L11.2928932,5.29289322 C11.6834175,4.90236893 12.3165825,4.90236893 12.7071068,5.29289322 L17.7071068,10.2928932 C18.0976311,10.6834175 18.0976311,11.3165825 17.7071068,11.7071068 C17.3165825,12.0976311 16.6834175,12.0976311 16.2928932,11.7071068 Z M12,14.4142136 L7.70710678,18.7071068 C7.31658249,19.0976311 6.68341751,19.0976311 6.29289322,18.7071068 C5.90236893,18.3165825 5.90236893,17.6834175 6.29289322,17.2928932 L11.2928932,12.2928932 C11.6834175,11.9023689 12.3165825,11.9023689 12.7071068,12.2928932 L17.7071068,17.2928932 C18.0976311,17.6834175 18.0976311,18.3165825 17.7071068,18.7071068 C17.3165825,19.0976311 16.6834175,19.0976311 16.2928932,18.7071068 L12,14.4142136 Z" id="path-1"></path>
    </defs>
    <g id="Icon/Feather/chevrons-up" stroke="none" stroke-width="1" fill="none" fill-rule="evenodd">
        <mask id="mask-2" fill="white">
            <use xlink:href="#path-1"></use>
        </mask>
        <use id="Combined-Shape" fill="#000000" fill-rule="nonzero" xlink:href="#path-1"></use>
        <g id="Color/Neutral/Black" mask="url(#mask-2)" fill="#172B4E" fill-rule="nonzero">
            <rect id="Rectangle" x="0" y="0" width="24" height="24"></rect>
        </g>
    </g>
</svg>