<?xml version="1.0" encoding="UTF-8"?>
<svg width="24px" height="24px" viewBox="0 0 24 24" version="1.1" xmlns="http://www.w3.org/2000/svg" xmlns:xlink="http://www.w3.org/1999/xlink">
    <!-- Generator: Sketch 54.1 (76490) - https://sketchapp.com -->
    <title>Icon/Feather/clipboard</title>
    <desc>Created with Sketch.</desc>
    <defs>
        <path d="M17,3 L18,3 C19.6568542,3 21,4.34314575 21,6 L21,20 C21,21.6568542 19.6568542,23 18,23 L6,23 C4.34314575,23 3,21.6568542 3,20 L3,6 C3,4.34314575 4.34314575,3 6,3 L7,3 C7,1.8954305 7.8954305,1 9,1 L15,1 C16.1045695,1 17,1.8954305 17,3 Z M7,5 L6,5 C5.44771525,5 5,5.44771525 5,6 L5,20 C5,20.5522847 5.44771525,21 6,21 L18,21 C18.5522847,21 19,20.5522847 19,20 L19,6 C19,5.44771525 18.5522847,5 18,5 L17,5 C17,6.1045695 16.1045695,7 15,7 L9,7 C7.8954305,7 7,6.1045695 7,5 Z M9,3 L9,5 L15,5 L15,3 L9,3 Z" id="path-1"></path>
    </defs>
    <g id="Icon/Feather/clipboard" stroke="none" stroke-width="1" fill="none" fill-rule="evenodd">
        <mask id="mask-2" fill="white">
            <use xlink:href="#path-1"></use>
        </mask>
        <use id="Combined-Shape" fill="#000000" fill-rule="nonzero" xlink:href="#path-1"></use>
        <g id="Color/Neutral/Black" mask="url(#mask-2)" fill="#172B4E" fill-rule="nonzero">
            <rect id="Rectangle" x="0" y="0" width="24" height="24"></rect>
        </g>
    </g>
</svg>