<?xml version="1.0" encoding="UTF-8"?>
<svg width="24px" height="24px" viewBox="0 0 24 24" version="1.1" xmlns="http://www.w3.org/2000/svg" xmlns:xlink="http://www.w3.org/1999/xlink">
    <!-- Generator: Sketch 54.1 (76490) - https://sketchapp.com -->
    <title>Icon/Feather/cloud-snow</title>
    <desc>Created with Sketch.</desc>
    <defs>
        <path d="M9.50653377,0.0143373224 C13.1536872,0.219710299 16.2864712,2.60298831 17.4859423,5.99981349 L18.0076097,5.99981378 C20.8460734,6.00315375 23.2938462,7.99507517 23.8739216,10.7736359 C24.4539969,13.5521967 23.0076462,16.3570875 20.4076097,17.4958138 C19.9017165,17.7173775 19.3119961,17.486883 19.0904323,16.9809898 C18.8688686,16.4750966 19.0993631,15.8853762 19.6052563,15.6638124 C21.338614,14.9046616 22.3028478,13.0347343 21.9161309,11.1823605 C21.529414,9.32998666 19.8975655,8.00203904 18.006433,7.99981308 L16.746433,7.99981308 C16.2904486,7.99981308 15.8922091,7.69134996 15.7781965,7.24984923 C15.0165915,4.30062067 12.4352527,2.18242326 9.39409093,2.01117397 C6.35292916,1.83992468 3.55010935,3.65493751 2.46222389,6.50002037 C1.37433843,9.34510323 2.25113512,12.5671054 4.63069652,14.4685992 C5.06214902,14.8133704 5.13241809,15.4426241 4.78764688,15.8740766 C4.44287567,16.3055291 3.81362203,16.3757981 3.38216953,16.0310269 C0.322733438,13.5862492 -0.804576584,9.44367494 0.594133291,5.78571126 C1.99284317,2.12774758 5.59646863,-0.205840337 9.50653377,0.0143373224 Z M9.50643302,17.4998131 C9.50643302,18.0520978 9.05871777,18.4998131 8.50643302,18.4998131 C7.95414827,18.4998131 7.50643302,18.0520978 7.50643302,17.4998131 L7.50643302,15.4998131 C7.50643302,14.9475283 7.95414827,14.4998131 8.50643302,14.4998131 C9.05871777,14.4998131 9.50643302,14.9475283 9.50643302,15.4998131 L9.50643302,17.4998131 Z M9.50643302,22.4998131 C9.50643302,23.0520978 9.05871777,23.4998131 8.50643302,23.4998131 C7.95414827,23.4998131 7.50643302,23.0520978 7.50643302,22.4998131 L7.50643302,20.4998131 C7.50643302,19.9475283 7.95414827,19.4998131 8.50643302,19.4998131 C9.05871777,19.4998131 9.50643302,19.9475283 9.50643302,20.4998131 L9.50643302,22.4998131 Z M13.506433,20.4998131 C13.506433,21.0520978 13.0587178,21.4998131 12.506433,21.4998131 C11.9541483,21.4998131 11.506433,21.0520978 11.506433,20.4998131 L11.506433,18.4998131 C11.506433,17.9475283 11.9541483,17.4998131 12.506433,17.4998131 C13.0587178,17.4998131 13.506433,17.9475283 13.506433,18.4998131 L13.506433,20.4998131 Z M17.506433,22.4998131 C17.506433,23.0520978 17.0587178,23.4998131 16.506433,23.4998131 C15.9541483,23.4998131 15.506433,23.0520978 15.506433,22.4998131 L15.506433,20.4998131 C15.506433,19.9475283 15.9541483,19.4998131 16.506433,19.4998131 C17.0587178,19.4998131 17.506433,19.9475283 17.506433,20.4998131 L17.506433,22.4998131 Z M17.506433,17.4998131 C17.506433,18.0520978 17.0587178,18.4998131 16.506433,18.4998131 C15.9541483,18.4998131 15.506433,18.0520978 15.506433,17.4998131 L15.506433,15.4998131 C15.506433,14.9475283 15.9541483,14.4998131 16.506433,14.4998131 C17.0587178,14.4998131 17.506433,14.9475283 17.506433,15.4998131 L17.506433,17.4998131 Z" id="path-1"></path>
    </defs>
    <g id="Icon/Feather/cloud-snow" stroke="none" stroke-width="1" fill="none" fill-rule="evenodd">
        <mask id="mask-2" fill="white">
            <use xlink:href="#path-1"></use>
        </mask>
        <use id="Combined-Shape" fill="#000000" fill-rule="nonzero" xlink:href="#path-1"></use>
        <g id="Color/Neutral/Black" mask="url(#mask-2)" fill="#172B4E" fill-rule="nonzero">
            <rect id="Rectangle" x="0" y="0" width="24" height="24"></rect>
        </g>
    </g>
</svg>