<?xml version="1.0" encoding="UTF-8"?>
<svg width="24px" height="24px" viewBox="0 0 24 24" version="1.1" xmlns="http://www.w3.org/2000/svg" xmlns:xlink="http://www.w3.org/1999/xlink">
    <!-- Generator: Sketch 54.1 (76490) - https://sketchapp.com -->
    <title>Icon/Feather/cloud-lightning</title>
    <desc>Created with Sketch.</desc>
    <defs>
        <path d="M8.99420829,0.00067793094 C12.8344851,0.000677892976 16.2196939,2.43168686 17.4795185,6.0000003 L17.998995,6.00000051 C21.0815136,5.99690257 23.6648588,8.33009128 23.9746481,11.3970052 C24.2844374,14.4639192 22.2198663,17.2665944 19.198995,17.8800005 C18.6577557,17.9899024 18.1299014,17.6402343 18.0199995,17.098995 C17.9100976,16.5577557 18.2597657,16.0299014 18.801005,15.9199995 C20.8149192,15.5110621 22.1912999,13.642612 21.9847738,11.5980027 C21.7782476,9.55339335 20.0560174,7.99793421 18,8 L16.74,8 C16.2840343,8 15.8858061,7.69156165 15.771776,7.25008474 C14.9735656,4.15974634 12.1859682,2.0006779 8.99420831,2.00067793 C5.8024484,2.00067796 3.01485107,4.15974646 2.21664068,7.25008488 C1.41843029,10.3404233 2.8117566,13.5793919 5.60427605,15.1250847 C6.0874784,15.392543 6.26237353,16.0010737 5.99491526,16.484276 C5.72745698,16.9674784 5.11892631,17.1423735 4.63572395,16.8749153 C1.0453418,14.8875958 -0.74607774,10.7232077 0.280192764,6.74991543 C1.30646327,2.77662318 4.89051697,0.000677971508 8.99420829,0.00067793094 Z M10.1679497,22.4452998 L13.1314829,18 L9,18 C8.20130462,18 7.72491322,17.1098545 8.16794971,16.4452998 L12.1679497,10.4452998 C12.4743022,9.98577112 13.0951715,9.86159725 13.5547002,10.1679497 C14.0142289,10.4743022 14.1384028,11.0951715 13.8320503,11.5547002 L10.8685171,16 L15,16 C15.7986954,16 16.2750868,16.8901455 15.8320503,17.5547002 L11.8320503,23.5547002 C11.5256978,24.0142289 10.9048285,24.1384028 10.4452998,23.8320503 C9.98577112,23.5256978 9.86159725,22.9048285 10.1679497,22.4452998 Z" id="path-1"></path>
    </defs>
    <g id="Icon/Feather/cloud-lightning" stroke="none" stroke-width="1" fill="none" fill-rule="evenodd">
        <mask id="mask-2" fill="white">
            <use xlink:href="#path-1"></use>
        </mask>
        <use id="Combined-Shape" fill="#000000" fill-rule="nonzero" xlink:href="#path-1"></use>
        <g id="Color/Neutral/Black" mask="url(#mask-2)" fill="#172B4E" fill-rule="nonzero">
            <rect id="Rectangle" x="0" y="0" width="24" height="24"></rect>
        </g>
    </g>
</svg>