<?xml version="1.0" encoding="UTF-8"?>
<svg width="24px" height="24px" viewBox="0 0 24 24" version="1.1" xmlns="http://www.w3.org/2000/svg" xmlns:xlink="http://www.w3.org/1999/xlink">
    <!-- Generator: Sketch 54.1 (76490) - https://sketchapp.com -->
    <title>Icon/Feather/corner-up-right</title>
    <desc>Created with Sketch.</desc>
    <defs>
        <path d="M17.5857864,10 L8,10 C6.34314575,10 5,11.3431458 5,13 L5,20 C5,20.5522847 4.55228475,21 4,21 C3.44771525,21 3,20.5522847 3,20 L3,13 C3,10.2385763 5.23857625,8 8,8 L17.5857864,8 L14.2928932,4.70710678 C13.9023689,4.31658249 13.9023689,3.68341751 14.2928932,3.29289322 C14.6834175,2.90236893 15.3165825,2.90236893 15.7071068,3.29289322 L20.7071068,8.29289322 C21.0976311,8.68341751 21.0976311,9.31658249 20.7071068,9.70710678 L15.7071068,14.7071068 C15.3165825,15.0976311 14.6834175,15.0976311 14.2928932,14.7071068 C13.9023689,14.3165825 13.9023689,13.6834175 14.2928932,13.2928932 L17.5857864,10 Z" id="path-1"></path>
    </defs>
    <g id="Icon/Feather/corner-up-right" stroke="none" stroke-width="1" fill="none" fill-rule="evenodd">
        <mask id="mask-2" fill="white">
            <use xlink:href="#path-1"></use>
        </mask>
        <use id="Combined-Shape" fill="#000000" fill-rule="nonzero" xlink:href="#path-1"></use>
        <g id="Color/Neutral/Black" mask="url(#mask-2)" fill="#172B4E" fill-rule="nonzero">
            <rect id="Rectangle" x="0" y="0" width="24" height="24"></rect>
        </g>
    </g>
</svg>