<?xml version="1.0" encoding="UTF-8"?>
<svg width="24px" height="24px" viewBox="0 0 24 24" version="1.1" xmlns="http://www.w3.org/2000/svg" xmlns:xlink="http://www.w3.org/1999/xlink">
    <!-- Generator: Sketch 54.1 (76490) - https://sketchapp.com -->
    <title>Icon/Feather/corner-left-down</title>
    <desc>Created with Sketch.</desc>
    <defs>
        <path d="M8,17.5857864 L8,8 C8,5.23857625 10.2385763,3 13,3 L20,3 C20.5522847,3 21,3.44771525 21,4 C21,4.55228475 20.5522847,5 20,5 L13,5 C11.3431458,5 10,6.34314575 10,8 L10,17.5857864 L13.2928932,14.2928932 C13.6834175,13.9023689 14.3165825,13.9023689 14.7071068,14.2928932 C15.0976311,14.6834175 15.0976311,15.3165825 14.7071068,15.7071068 L9.70710678,20.7071068 C9.31658249,21.0976311 8.68341751,21.0976311 8.29289322,20.7071068 L3.29289322,15.7071068 C2.90236893,15.3165825 2.90236893,14.6834175 3.29289322,14.2928932 C3.68341751,13.9023689 4.31658249,13.9023689 4.70710678,14.2928932 L8,17.5857864 Z" id="path-1"></path>
    </defs>
    <g id="Icon/Feather/corner-left-down" stroke="none" stroke-width="1" fill="none" fill-rule="evenodd">
        <mask id="mask-2" fill="white">
            <use xlink:href="#path-1"></use>
        </mask>
        <use id="Combined-Shape" fill="#000000" fill-rule="nonzero" xlink:href="#path-1"></use>
        <g id="Color/Neutral/Black" mask="url(#mask-2)" fill="#172B4E" fill-rule="nonzero">
            <rect id="Rectangle" x="0" y="0" width="24" height="24"></rect>
        </g>
    </g>
</svg>