<?xml version="1.0" encoding="UTF-8"?>
<svg width="24px" height="24px" viewBox="0 0 24 24" version="1.1" xmlns="http://www.w3.org/2000/svg" xmlns:xlink="http://www.w3.org/1999/xlink">
    <!-- Generator: Sketch 54.1 (76490) - https://sketchapp.com -->
    <title>Icon/Feather/corner-left-up</title>
    <desc>Created with Sketch.</desc>
    <defs>
        <path d="M10,6.41421356 L10,16 C10,17.6568542 11.3431458,19 13,19 L20,19 C20.5522847,19 21,19.4477153 21,20 C21,20.5522847 20.5522847,21 20,21 L13,21 C10.2385763,21 8,18.7614237 8,16 L8,6.41421356 L4.70710678,9.70710678 C4.31658249,10.0976311 3.68341751,10.0976311 3.29289322,9.70710678 C2.90236893,9.31658249 2.90236893,8.68341751 3.29289322,8.29289322 L8.29289322,3.29289322 C8.68341751,2.90236893 9.31658249,2.90236893 9.70710678,3.29289322 L14.7071068,8.29289322 C15.0976311,8.68341751 15.0976311,9.31658249 14.7071068,9.70710678 C14.3165825,10.0976311 13.6834175,10.0976311 13.2928932,9.70710678 L10,6.41421356 Z" id="path-1"></path>
    </defs>
    <g id="Icon/Feather/corner-left-up" stroke="none" stroke-width="1" fill="none" fill-rule="evenodd">
        <mask id="mask-2" fill="white">
            <use xlink:href="#path-1"></use>
        </mask>
        <use id="Combined-Shape" fill="#000000" fill-rule="nonzero" xlink:href="#path-1"></use>
        <g id="Color/Neutral/Black" mask="url(#mask-2)" fill="#172B4E" fill-rule="nonzero">
            <rect id="Rectangle" x="0" y="0" width="24" height="24"></rect>
        </g>
    </g>
</svg>