<?xml version="1.0" encoding="UTF-8"?>
<svg width="100%" height="100%" viewBox="0 0 322 293" version="1.1" xmlns="http://www.w3.org/2000/svg" xmlns:xlink="http://www.w3.org/1999/xlink">
    <!-- Generator: Sketch 57.1 (83088) - https://sketch.com -->
    <title>Illu design guidelines</title>
    <desc>Created with Sketch.</desc>
    <g id="Drawbotics-illu" stroke="none" stroke-width="1" fill="none" fill-rule="evenodd">
        <g id="Annotate" transform="translate(-150.000000, -257.000000)">
            <g id="Illu-design-guidelines" transform="translate(150.000000, 233.000000)">
                <g id="Top-Leaves" transform="translate(270.000000, 109.000000) rotate(32.000000) translate(-270.000000, -109.000000) translate(191.000000, 30.000000)" fill="#C1DEE2">
                    <path d="M136.011113,89.7607961 C136.167146,82.9517172 133.377561,76.6762981 130.289677,70.7535927 C124.278465,59.2235264 121.271876,52.3252857 122.243478,38.6317338 C122.815162,30.578323 123.498299,22.0692691 119.387677,14.7560326 C116.394855,9.4305803 110.116814,3.73340188 103.48737,4.69648071 C92.9931541,7.08680437 87.1346976,17.0860409 84.8886063,27.0144724 C82.1049217,39.3201156 85.292457,48.5011612 94.5849549,56.3860824 C99.8212453,60.8277836 102.774731,65.4032276 104.202631,72.1677255 C105.345345,77.5770948 105.020822,83.7803977 106.975171,88.9825969 C109.897187,96.7593438 115.172814,101.508522 123.108216,102.952813 C120.244548,87.5383064 116.221776,71.6111197 109.771312,57.3203147 C109.192415,55.906182 105.031312,49.8615347 106.762756,48.3346384 C108.669901,46.6536757 111.817445,56.3185554 111.792532,56.2582401 C113.621005,60.5530865 115.163635,64.9869205 116.646606,69.4391114 C116.638739,69.4404226 116.630216,69.439767 116.621693,69.4410782 C118.152523,74.0125886 119.644017,78.6313023 121.06864,83.2801737 C121.621967,85.2305886 122.139893,87.1921488 122.600125,89.179933 C123.275395,92.0967048 123.355378,99.7783894 125.270391,102.059228 C125.680142,102.546995 126.097104,102.880696 126.517345,103.099012 C127.284399,106.315394 128.000316,109.538987 128.627727,112.769136 C130.266075,121.205418 131.21342,129.858705 130.151345,138.437252 C129.841245,140.940995 126.655677,149.648696 127.711196,151.871842 C129.640631,155.937883 130.725652,149.667709 131.13737,147.802522 C134.541909,132.355236 133.311345,117.852672 129.596706,102.729252 C133.011735,100.376954 135.947519,92.5195679 136.011113,89.7607961" id="Leaf" opacity="0.5" transform="translate(109.967187, 78.903261) rotate(-18.000000) translate(-109.967187, -78.903261) "></path>
                    <path d="M73.3346382,65.9923713 C68.3510749,66.7213489 63.6468164,73.0201827 61.3256584,77.2199078 C58.4533991,82.4166059 56.4502131,88.3460508 54.9410663,94.0546163 C52.4547281,103.458201 52.1187364,113.895321 52.0879528,123.526193 C52.0841987,124.686752 51.8420595,138.862992 53.4994932,138.630428 C55.141535,138.400125 54.1016503,123.685256 54.2416781,120.638175 C54.5397533,114.135424 54.0941421,107.722381 55.6194315,101.302176 C57.1984046,94.6543078 60.0935639,88.3893975 63.7519311,82.6472854 C64.2215686,81.9103924 65.215278,79.1705071 66.3441348,79.8033682 C67.4482146,80.422283 64.3897521,84.072071 63.9554031,84.7814484 C62.1620712,87.7109282 60.6048719,90.8130407 59.3153397,93.9999618 C56.8992031,99.9708688 55.6438332,106.219194 55.6866299,112.652968 C59.4793937,113.235321 62.7837496,111.014465 64.0560129,107.313792 C65.1552124,104.115186 65.2625796,100.394535 66.5111921,97.3700697 C67.3712557,95.2871689 68.7392485,93.5182486 70.4120739,92.0226007 C74.8250145,88.0776785 79.4320419,87.0908826 80.7474774,80.5436536 C81.7787277,75.4110332 80.4982054,64.9494132 73.3346382,65.9923713" id="Leaf" opacity="0.462425595" transform="translate(66.567058, 102.276532) scale(-1, 1) rotate(58.000000) translate(-66.567058, -102.276532) "></path>
                    <path d="M19.2329972,35.3238267 C26.4586454,34.796891 34.5279536,40.5630925 38.0133534,46.5636733 C40.8230845,51.401719 40.3497461,57.7547049 38.6142844,62.8946687 C37.4521478,66.3357997 34.9157813,71.2420528 30.686035,71.2898648 C25.394139,71.3497135 25.1389538,64.8800394 25.0366103,61.0978713 C24.9006013,56.0695805 24.2582616,51.6892601 20.2527283,48.2618374 C19.3191811,47.4634094 18.2987767,46.7609399 17.3558032,45.9735455 C15.8792299,44.7411311 14.2474582,43.4792939 14.0572475,41.4404271 C13.7946558,38.6275398 15.3998317,38.1213338 17.8506876,38.643923 C18.2684777,38.7328601 22.4770146,40.600874 21.8538643,39.1243841 C21.6636537,38.6733458 20.9687956,38.3159256 20.0918067,38.0481112 C17.8224084,37.8040356 15.1160307,37.5208411 14.337682,37.6900222 C5.94080747,39.5122302 2.67154084,51.0175508 1.80330496,58.3274466 C1.70500364,59.1551918 1.62643475,59.9857694 1.55809224,60.8176124 L0.0186007048,60.8175862 C0.12645327,58.8640177 0.266929323,56.9136274 0.597066437,54.9819397 C1.83461397,47.7412543 5.70413829,37.1065813 14.1908999,35.9313408 C14.50399,35.8875409 15.6556903,35.8801852 17.0507928,35.961098 C17.7119853,35.5956533 18.4526285,35.3746479 19.2329972,35.3238267 Z" id="Leaf-Me-Alone!" opacity="0.5" transform="translate(20.018602, 53.290277) scale(-1, 1) translate(-20.018602, -53.290277) "></path>
                </g>
                <path d="M44.2462272,317 C171.363761,316.142857 242.768342,315.714286 258.45997,315.714286 C281.997414,315.714286 311.445392,305.230606 216.145038,308.706148 C120.844684,312.181689 78.9436721,314.241037 50.0582478,315.4558 C30.8012983,316.265642 28.8639581,316.780375 44.2462272,317 Z" id="Path-3-Copy" fill="#D3DCE6" fill-rule="nonzero" opacity="0.436081659"></path>
                <g id="Group-2" transform="translate(181.000000, 82.500000) rotate(-18.000000) translate(-181.000000, -82.500000) translate(168.000000, 59.000000)">
                    <path d="M7.69162511e-13,0.864441638 C2.50220414,8.99449807 4.52306789,15.1133333 6.06259123,19.2209473 C7.60211456,23.3285613 10.125329,28.1614877 13.6322346,33.7197266 L15.2484455,32.9606934 C13.5817234,26.5019522 11.9939955,21.3016755 10.4852619,17.3598633 C8.97652838,13.4180511 6.23502179,7.63142998 2.26074219,-3.55271368e-15 L7.69162511e-13,0.864441638 Z" id="Path-15" fill="#4673D1" transform="translate(7.624223, 16.859863) rotate(-180.000000) translate(-7.624223, -16.859863) "></path>
                    <path d="M17.5136941,33.2412109 C19.6983242,34.3352865 21.0195617,36.2430827 21.4774068,38.9645996 C21.9352518,41.6861165 20.3559875,44.3075358 16.7396138,46.8288574 C18.7590256,44.7626139 19.0170523,42.6252441 17.5136941,40.416748 C15.2586568,37.1040039 13.5289205,37.7597656 14.7745259,34.402832 C15.6049296,32.1648763 16.5179856,31.7776693 17.5136941,33.2412109 Z" id="Path-16" fill="#425A70" transform="translate(17.956002, 39.601030) scale(-1, 1) rotate(54.000000) translate(-17.956002, -39.601030) "></path>
                </g>
                <g id="ðŸ˜Human/Standing-Copy" transform="translate(0.000000, 24.000000)">
                    <g id="Head/Front">
                        <g id="Head" transform="translate(82.563232, 25.591493)" fill="#D3DCE6">
                            <path d="M25.6035574,6.15134162 C29.4932997,13.4254688 29.0310972,31.8768957 24.0039518,33.1769852 C21.9990893,33.6954704 17.7280866,32.4253501 13.3812495,29.7966132 L16.109899,49.1626052 L0,49.1626052 L5.54546749,23.227086 C2.45272894,19.5846251 0.359563301,15.1208264 0.709356666,10.1190474 C1.71726839,-4.29332356 21.713815,-1.12278558 25.6035574,6.15134162 Z"></path>
                        </g>
                        <path d="M98.9845558,23.359145 C96.8613178,23.0098084 91.1444057,22.7696297 90.090105,22.7697848 C89.4163571,22.7697848 88.6862196,22.9242186 88.2871784,22.3035374 C87.960396,21.7952705 88.0801084,20.9356512 87.9825821,20.3458258 C87.8693407,19.6606422 87.7084916,18.9842967 87.5457938,18.3096568 C87.0828135,16.3899334 86.3827197,14.5635525 85.4031429,12.8488104 C83.5650883,9.63175025 80.8724077,7.11181283 77.4730082,5.64546726 C73.7190938,4.02639352 69.471231,3.65565943 65.4333656,3.98406378 C61.1123197,4.33541612 57.2007917,5.76656443 53.1210192,7.11336337 C49.233218,8.39674523 45.1611491,8.90191113 41.0949348,8.27518291 C36.9980606,7.64380306 33.9024871,5.41598736 30.4468521,3.30151612 C26.9092518,1.13680739 22.8664562,-0.278990579 18.6843813,0.0464677429 C14.7805568,0.35037356 11.1825612,1.96758666 7.95448745,4.12795388 C4.93425412,6.14923767 2.4421726,8.58110442 1.03520576,12.0037662 C-0.478377475,15.6855231 -0.476990846,19.7268503 2.01200928,22.9806582 C5.61971135,27.6970904 12.3172864,28.9167451 17.8893804,28.7954929 C21.1123698,28.7255635 24.277737,28.135273 27.3206186,27.0615241 C31.3786672,25.6294455 34.8854534,23.2022304 38.6818912,21.2328897 C40.4635561,20.3087679 42.3051543,19.5497786 44.2354968,19.0030583 C46.1086793,18.4723085 47.953667,18.2288737 49.6496691,19.364179 C51.4438137,20.5652272 53.0515337,21.745033 55.1040536,22.4968898 C57.0730677,23.2182009 59.1587126,23.6216514 61.2565292,23.6053707 C65.3381504,23.5737397 69.3616873,22.2978005 73.3259072,21.4431429 C76.558603,20.7463302 80.0174735,20.0518434 83.3131839,20.7216767 C84.6884124,21.001239 86.6971764,21.5783499 87.193898,23.0122892 C78.8339081,24.5324385 75.550531,34.9055504 77.9073391,42.5204068 C79.1793407,46.6304228 86.8255167,51.4349882 89.7984506,49.2742907 C91.6818897,47.9054266 90.5384486,46.1083561 89.7984506,44.922038 C88.3813151,42.650187 87.896457,39.7319158 90.5187276,38.1502101 C92.7806286,36.7860451 95.1588617,40.0255749 95.2038501,40.0220087 C95.8255224,39.9728566 101.197311,36.9248513 104.898376,32.4770386 C108.54949,32.6941868 109.103416,30.2787937 108.231602,28.303456 C107.359787,26.3281183 101.918202,23.8421382 98.9845558,23.359145 Z" id="hair" fill="#172B4E"></path>
                    </g>
                    <g id="Bottom/Skinny-Jeans-1" transform="translate(7.000000, 112.000000)">
                        <path d="M123.083422,12.2410053 C110.209749,22.7420897 115.255517,114.993974 114.396942,116.154003 C114.015354,116.669571 93.5947734,121.030119 53.1352016,129.235647 L54.8931415,136.377805 C102.231812,134.098561 127.278063,131.202079 130.031896,127.688356 C133.974597,122.657712 138.813761,94.4965148 144.549388,43.2047653 L123.083422,12.2410053 Z" id="Leg" fill="#D3DCE6" transform="translate(98.842295, 74.309405) rotate(-55.000000) translate(-98.842295, -74.309405) "></path>
                        <path d="M59.9734382,121.729438 L63.0681991,133.232806 C98.364496,137.343963 121.621193,132.358418 129.797911,124.572808 C135.249057,119.382402 140.100912,91.2977818 144.353477,40.3189469 L121.390579,7.52452973 C90.7427623,30.6519401 109.149127,106.544389 108.367674,108.279045 C107.586222,110.013702 88.9772733,111.357595 59.9734382,121.729438 Z" id="Pant" fill="#425A70" transform="translate(102.163458, 71.116823) rotate(-55.000000) translate(-102.163458, -71.116823) "></path>
                        <g id="Right-Show" transform="translate(131.807869, 151.191091) rotate(20.000000) translate(-131.807869, -151.191091) translate(111.807869, 143.691091)" fill="#879BA6">
                            <path d="M0.883864885,4.99493528 C0.294621628,6.66585696 -9.09494702e-13,7.94205079 -9.09494702e-13,8.82351677 C-9.09494702e-13,10.0375963 0.202921293,11.8092402 0.608763879,14.1384485 C2.02180917,14.1384485 14.7210851,14.1384485 38.7065917,14.1384485 C39.6966192,10.8761747 39.1251179,9.11497807 36.9920879,8.85485857 C34.8590578,8.59473907 33.0871135,8.35987199 31.676255,8.15025732 L14.2719582,0.416746389 C13.7672554,0.192484251 13.1763125,0.419826345 12.9520504,0.924529167 C12.9485355,0.932439462 12.9451234,0.940395061 12.9418151,0.948393953 L11.9310005,3.39234907 L11.9310005,3.39234907 C9.9563726,4.31064609 8.35178238,4.7697946 7.1172299,4.7697946 C6.22898273,4.7697946 5.04103879,4.45315735 3.55339809,3.81988285 L3.5534065,3.81986308 C2.53707891,3.38722209 1.3624578,3.86039357 0.929816806,4.87672116 C0.913253614,4.91563016 0.897928603,4.95505469 0.883864885,4.99493528 Z" id="shoe"></path>
                        </g>
                        <polygon id="Leg" fill="#B9C4D0" points="70.9245283 18.8512647 35.9715952 102.488206 1.61830228 173.196189 9.72335595 173.196189 98.3984532 18.8512647"></polygon>
                        <g id="Left-Shot" transform="translate(0.000000, 165.621825)" fill="#879BA6">
                            <path d="M0.883864885,4.99493528 C0.294621628,6.66585696 0,7.94205079 0,8.82351677 C0,10.0375963 0.202921293,11.8092402 0.608763879,14.1384485 C2.02180917,14.1384485 14.7210851,14.1384485 38.7065917,14.1384485 C39.6966192,10.8761747 39.1251179,9.11497807 36.9920879,8.85485857 C34.8590578,8.59473907 33.0871135,8.35987199 31.676255,8.15025732 L14.2719582,0.416746389 C13.7672554,0.192484251 13.1763125,0.419826345 12.9520504,0.924529167 C12.9485355,0.932439462 12.9451234,0.940395061 12.9418151,0.948393953 L11.9310005,3.39234907 L11.9310005,3.39234907 C9.9563726,4.31064609 8.35178238,4.7697946 7.1172299,4.7697946 C6.22898273,4.7697946 5.04103879,4.45315735 3.55339809,3.81988285 L3.5534065,3.81986308 C2.53707891,3.38722209 1.3624578,3.86039357 0.929816806,4.87672116 C0.913253614,4.91563016 0.897928603,4.95505469 0.883864885,4.99493528 Z" id="shoe"></path>
                        </g>
                        <path d="M4.72056693,158.507418 L22.730086,161.873715 C36.6549955,141.468558 94.9313106,57.8005622 101.320755,18.8512647 L61.227506,18.8512647 C39.8899005,47.0076631 17.9938816,137.76472 4.72056693,158.507418 Z" id="Pant" fill="#879BA6"></path>
                    </g>
                    <g id="Body/Long-Sleeve-1" transform="translate(59.000000, 46.000000)">
                        <path d="M73.3649543,61.1562579 L94.8137917,76.8689824 C100.631158,78.4349678 105.49138,80.3833181 109.394456,82.7140333 C110.316431,83.5521436 111.430724,85.249456 107.607072,84.9561179 C103.783421,84.6627798 99.7482897,84.5257852 99.2207001,85.8268579 C98.6931105,87.1279306 101.006977,88.6838708 99.9404888,90.4393586 C99.2294966,91.6096838 95.8704839,88.6751368 89.8634506,81.6357177 L68.6234749,72.8490769 L73.3649543,61.1562579 Z M115.277479,3.36947677 C112.741517,6.23935017 110.203443,9.37180546 110.927503,10.5751557 C111.651563,11.778506 114.289687,10.8713728 115.053211,12.7775524 C115.562227,14.0483388 111.191477,14.9585027 101.940961,15.5080439 L82.1242975,27.1425871 L75.6171287,16.3280053 L101.104151,8.69527744 C105.858776,5.00285444 110.343478,2.30312808 114.558257,0.596098359 C115.784063,0.365923198 117.813441,0.499603365 115.277479,3.36947677 Z" id="Skin" fill="#D3DCE6"></path>
                        <path d="M32.286105,25.2694191 C49.1918209,43.2331482 69.8172141,54.9495429 97.9503343,65.3360338 L91.6939795,77.809299 C62.6622775,75.0948772 47.1418391,72.9223941 34.9844238,54.9281054 C31.933159,50.4119038 26.4817862,34.8694867 23.2152707,26.7985461 L32.286105,25.2694191 Z" id="Coat-Back" fill="#2C47B8" transform="translate(60.582802, 51.539359) rotate(15.000000) translate(-60.582802, -51.539359) "></path>
                        <path d="M7.39655172,91.2298137 L59.1724138,91.2298137 C47.4443141,55.5464668 41.4531556,31.0556358 41.1989381,17.7573207 C41.1859778,17.0793598 39.9308752,15.8846968 39.3755903,16.0411486 C35.314852,17.1852634 30.9695414,16.7574685 26.3396587,14.757764 C14.0652054,34.4516021 9.82048665,58.6987043 7.39655172,91.2298137 Z" id="Shirt" fill="#F1F5F9"></path>
                        <path d="M97.4480059,8.72049689 L100.189655,22.3871794 C79.2012883,35.8536077 57.9488054,46.2853006 39.326391,44.8036902 C47.4135412,79.4081702 47.0407319,107.735679 29.1877831,107.735679 L29.1877831,107.735679 L1.58093011,107.735679 C-2.80367541,78.3395421 8.71992591,37.5810586 19.4031422,17.0228086 C19.8111021,16.2377509 20.6796895,14.757764 22.7255694,14.757764 L22.7255694,14.757764 L30.7473064,14.757764 C30.7508582,14.7684327 30.7544094,14.7791014 30.7579602,14.7897701 C45.5989781,14.9107673 69.6780626,17.6145487 97.4480059,8.72049689 Z" id="Coat-Front" fill="#4364F0"></path>
                    </g>
                </g>
                <path d="M192.663086,101.937475 C197.78872,99.4987366 209.045898,105.095703 209.045898,111.12207 C209.045898,117.148438 205.074219,131.978144 216.518555,139.425781 C227.962891,146.873419 267,149.691665 275.55957,166.748047 C279.40904,174.418762 282,192.286177 267,196.821289 C252,201.356401 239.90402,192.5352 234.883078,180.420898 C224.683784,155.8125 202.878773,161.273438 195.78509,151.599609 C188.691406,141.925781 192.663086,134.300781 200.625634,118.875 C208.588182,103.449219 187.537452,104.376214 192.663086,101.937475 Z" id="Path-17" fill="#E0EEF0"></path>
            </g>
        </g>
    </g>
</svg>