<?xml version="1.0" encoding="UTF-8"?>
<svg width="24px" height="24px" viewBox="0 0 24 24" version="1.1" xmlns="http://www.w3.org/2000/svg" xmlns:xlink="http://www.w3.org/1999/xlink">
    <!-- Generator: Sketch 54.1 (76490) - https://sketchapp.com -->
    <title>Icon/Feather/download-cloud</title>
    <desc>Created with Sketch.</desc>
    <defs>
        <path d="M13.009096,18.5976927 L15.3019892,16.3047995 C15.6925135,15.9142752 16.3256785,15.9142752 16.7162028,16.3047995 C17.1067271,16.6953237 17.1067271,17.3284887 16.7162028,17.719013 L12.7162028,21.719013 C12.3256785,22.1095373 11.6925135,22.1095373 11.3019892,21.719013 L7.30198923,17.719013 C6.91146494,17.3284887 6.91146494,16.6953237 7.30198923,16.3047995 C7.69251352,15.9142752 8.3256785,15.9142752 8.71620279,16.3047995 L11.009096,18.5976927 L11.009096,12.0119062 C11.009096,11.4596215 11.4568113,11.0119062 12.009096,11.0119062 C12.5613808,11.0119062 13.009096,11.4596215 13.009096,12.0119062 L13.009096,18.5976927 Z M10.0299198,2.05936364 C13.4718329,2.45579462 16.355456,4.78619668 17.4897039,8.01190641 L18.0083138,8.01190654 C20.6256263,8.00985924 22.9422694,9.7046199 23.7327887,12.1996967 C24.5233081,14.6947734 23.6052769,17.4143814 21.4643138,18.9199065 C21.0125447,19.2375905 20.3887797,19.1288931 20.0710957,18.677124 C19.7534117,18.2253549 19.8621091,17.6015899 20.3138782,17.2839059 C21.7411869,16.2802225 22.3532078,14.4671505 21.8261948,12.803766 C21.2991819,11.1403815 19.7547532,10.0105411 18.009096,10.0119062 L16.749096,10.0119062 C16.2925377,10.0119062 15.8939499,9.70268162 15.7804753,9.2604498 C15.0597505,6.45165053 12.6818255,4.37802569 9.8010777,4.04622833 C6.92032986,3.71443097 4.1332532,5.19316378 2.79285002,7.76456747 C1.45244684,10.3359711 1.83626401,13.4676051 3.75797529,15.6391998 C4.12397795,16.0527944 4.08539705,16.6847829 3.67180245,17.0507855 C3.25820784,17.4167882 2.62621939,17.3782073 2.26021673,16.9646127 C-0.210554911,14.1725624 -0.704034132,10.1461758 1.01934138,6.84008539 C2.74271689,3.53399494 6.32610118,1.63276704 10.0299198,2.05936364 Z" id="path-1"></path>
    </defs>
    <g id="Icon/Feather/download-cloud" stroke="none" stroke-width="1" fill="none" fill-rule="evenodd">
        <mask id="mask-2" fill="white">
            <use xlink:href="#path-1"></use>
        </mask>
        <use id="Combined-Shape" fill="#000000" fill-rule="nonzero" xlink:href="#path-1"></use>
        <g id="Color/Neutral/Black" mask="url(#mask-2)" fill="#172B4E" fill-rule="nonzero">
            <rect id="Rectangle" x="0" y="0" width="24" height="24"></rect>
        </g>
    </g>
</svg>