<?xml version="1.0" encoding="UTF-8"?>
<svg width="24px" height="24px" viewBox="0 0 24 24" version="1.1" xmlns="http://www.w3.org/2000/svg" xmlns:xlink="http://www.w3.org/1999/xlink">
    <!-- Generator: Sketch 57.1 (83088) - https://sketch.com -->
    <title>Icon/Service/drone-shooting</title>
    <desc>Created with Sketch.</desc>
    <defs>
        <path d="M24,3.3 C24,2.7 23.6,2.3 23,2.3 L15.1,2.3 C14.5,2.3 14.1,2.7 14.1,3.3 C14.1,3.9 14.5,4.3 15.1,4.3 L18.1,4.3 C18.1,4.3 18.1,4.4 18.1,4.4 L18.1,7.4 L6.2,7.4 L6.2,4.4 C6.2,4.4 6.2,4.3 6.2,4.3 L9,4.3 C9.6,4.3 10,3.9 10,3.3 C10,2.7 9.6,2.3 9,2.3 L1,2.3 C0.4,2.3 0,2.7 0,3.3 C0,3.9 0.4,4.3 1,4.3 L4.2,4.3 C4.2,4.3 4.2,4.4 4.2,4.4 L4.2,7.4 L2.2,7.4 C1.6,7.4 1.2,7.8 1.2,8.4 L1.2,11 C1.2,12.7 2.6,14 4.2,14 L11,14 L11,16.5 L9.3,16.5 C8.3,16.5 7.5,17.3 7.5,18.3 L7.5,20.9 C7.5,21.9 8.3,22.7 9.3,22.7 L14.7,22.7 C15.7,22.7 16.5,21.9 16.5,20.9 L16.5,18.3 C16.5,17.3 15.7,16.5 14.7,16.5 L13,16.5 L13,14 L20,14 C21.7,14 23,12.6 23,11 L23,8.4 C23,7.8 22.6,7.4 22,7.4 L20.1,7.4 L20.1,4.4 C20.1,4.4 20.1,4.3 20.1,4.3 L23,4.3 C23.5,4.3 24,3.9 24,3.3 Z M14.5,20.7 L9.5,20.7 L9.5,18.5 L14.5,18.5 L14.5,20.7 Z M21,11 C21,11.6 20.5,12 20,12 L4.2,12 C3.6,12 3.2,11.5 3.2,11 L3.2,9.4 L5.1,9.4 C5.1,9.4 5.1,9.4 5.2,9.4 C5.3,9.4 5.2,9.4 5.3,9.4 L19,9.4 C19,9.4 19,9.4 19.1,9.4 C19.2,9.4 19.1,9.4 19.2,9.4 L21,9.4 L21,11 Z" id="path-1"></path>
    </defs>
    <g id="Icon/Service/drone-shooting" stroke="none" stroke-width="1" fill="none" fill-rule="evenodd">
        <mask id="mask-2" fill="white">
            <use xlink:href="#path-1"></use>
        </mask>
        <use id="Shape" fill="#172B4E" fill-rule="nonzero" xlink:href="#path-1"></use>
        <g id="Color/Neutral/Darkest" mask="url(#mask-2)" fill="#172B4E" fill-rule="nonzero">
            <rect id="Rectangle" x="0" y="0" width="24" height="24"></rect>
        </g>
    </g>
</svg>