<?xml version="1.0" encoding="UTF-8"?>
<svg width="24px" height="24px" viewBox="0 0 24 24" version="1.1" xmlns="http://www.w3.org/2000/svg" xmlns:xlink="http://www.w3.org/1999/xlink">
    <!-- Generator: Sketch 56.2 (81672) - https://sketch.com -->
    <title>Icon/Service/exterior-restyling</title>
    <desc>Created with Sketch.</desc>
    <defs>
        <path d="M12,7 C11.4,7 11,6.6 11,6 L11,2 C11,1.4 11.4,1 12,1 C12.6,1 13,1.4 13,2 L13,6 C13,6.6 12.6,7 12,7 Z M12,23 C11.4,23 11,22.6 11,22 L11,18 C11,17.4 11.4,17 12,17 C12.6,17 13,17.4 13,18 L13,22 C13,22.6 12.6,23 12,23 Z M7.8,8.8 C7.5,8.8 7.3,8.7 7.1,8.5 L4.2,5.6 C3.8,5.2 3.8,4.6 4.2,4.2 C4.6,3.8 5.2,3.8 5.6,4.2 L8.4,7 C8.8,7.4 8.8,8 8.4,8.4 C8.3,8.7 8,8.8 7.8,8.8 Z M19.1,20.1 C18.8,20.1 18.6,20 18.4,19.8 L15.6,17 C15.2,16.6 15.2,16 15.6,15.6 C16,15.2 16.6,15.2 17,15.6 L19.8,18.4 C20.2,18.8 20.2,19.4 19.8,19.8 C19.6,20 19.3,20.1 19.1,20.1 Z M6,13 L2,13 C1.4,13 1,12.6 1,12 C1,11.4 1.4,11 2,11 L6,11 C6.6,11 7,11.4 7,12 C7,12.6 6.6,13 6,13 Z M22,13 L18,13 C17.4,13 17,12.6 17,12 C17,11.4 17.4,11 18,11 L22,11 C22.6,11 23,11.4 23,12 C23,12.6 22.6,13 22,13 Z M4.9,20.1 C4.6,20.1 4.4,20 4.2,19.8 C3.8,19.4 3.8,18.8 4.2,18.4 L7,15.6 C7.4,15.2 8,15.2 8.4,15.6 C8.8,16 8.8,16.6 8.4,17 L5.6,19.8 C5.4,20 5.2,20.1 4.9,20.1 Z M16.2,8.8 C15.9,8.8 15.7,8.7 15.5,8.5 C15.1,8.1 15.1,7.5 15.5,7.1 L18.3,4.3 C18.7,3.9 19.3,3.9 19.7,4.3 C20.1,4.7 20.1,5.3 19.7,5.7 L16.9,8.5 C16.8,8.7 16.5,8.8 16.2,8.8 Z" id="path-1"></path>
    </defs>
    <g id="Icon/Service/exterior-restyling" stroke="none" stroke-width="1" fill="none" fill-rule="evenodd">
        <mask id="mask-2" fill="white">
            <use xlink:href="#path-1"></use>
        </mask>
        <use id="Combined-Shape" fill="#172B4E" fill-rule="nonzero" xlink:href="#path-1"></use>
        <g id="Color/Neutral/Black" mask="url(#mask-2)" fill="#172B4E" fill-rule="nonzero">
            <rect id="Rectangle" x="0" y="0" width="24" height="24"></rect>
        </g>
    </g>
</svg>