<?xml version="1.0" encoding="UTF-8"?>
<svg width="24px" height="24px" viewBox="0 0 24 24" version="1.1" xmlns="http://www.w3.org/2000/svg" xmlns:xlink="http://www.w3.org/1999/xlink">
    <!-- Generator: Sketch 54.1 (76490) - https://sketchapp.com -->
    <title>Icon/Feather/external-link</title>
    <desc>Created with Sketch.</desc>
    <defs>
        <path d="M18.5857864,4 L15,4 C14.4477153,4 14,3.55228475 14,3 C14,2.44771525 14.4477153,2 15,2 L21,2 C21.5522847,2 22,2.44771525 22,3 L22,9 C22,9.55228475 21.5522847,10 21,10 C20.4477153,10 20,9.55228475 20,9 L20,5.41421356 L10.7071068,14.7071068 C10.3165825,15.0976311 9.68341751,15.0976311 9.29289322,14.7071068 C8.90236893,14.3165825 8.90236893,13.6834175 9.29289322,13.2928932 L18.5857864,4 Z M17,13 C17,12.4477153 17.4477153,12 18,12 C18.5522847,12 19,12.4477153 19,13 L19,19 C19,20.6568542 17.6568542,22 16,22 L5,22 C3.34314575,22 2,20.6568542 2,19 L2,8 C2,6.34314575 3.34314575,5 5,5 L11,5 C11.5522847,5 12,5.44771525 12,6 C12,6.55228475 11.5522847,7 11,7 L5,7 C4.44771525,7 4,7.44771525 4,8 L4,19 C4,19.5522847 4.44771525,20 5,20 L16,20 C16.5522847,20 17,19.5522847 17,19 L17,13 Z" id="path-1"></path>
    </defs>
    <g id="Icon/Feather/external-link" stroke="none" stroke-width="1" fill="none" fill-rule="evenodd">
        <mask id="mask-2" fill="white">
            <use xlink:href="#path-1"></use>
        </mask>
        <use id="Combined-Shape" fill="#000000" fill-rule="nonzero" xlink:href="#path-1"></use>
        <g id="Color/Neutral/Black" mask="url(#mask-2)" fill="#172B4E" fill-rule="nonzero">
            <rect id="Rectangle" x="0" y="0" width="24" height="24"></rect>
        </g>
    </g>
</svg>