<?xml version="1.0" encoding="UTF-8"?>
<svg width="24px" height="25px" viewBox="0 0 24 25" version="1.1" xmlns="http://www.w3.org/2000/svg" xmlns:xlink="http://www.w3.org/1999/xlink">
    <!-- Generator: Sketch 56.2 (81672) - https://sketch.com -->
    <title>Icon/Service/exterior-3d</title>
    <desc>Created with Sketch.</desc>
    <defs>
        <path d="M11.5,14.4 C11.2,14.4 11,14.3 10.8,14.1 C10.6,13.9 10.5,13.6 10.5,13.4 L10.6,10.3 C10.6,10 10.7,9.8 10.9,9.6 L18.2,2.3 C18.6,1.9 19.2,1.9 19.6,2.3 L22.6,5.3 C23,5.7 23,6.3 22.6,6.7 L15.3,14 C15.1,14.2 14.9,14.3 14.6,14.3 L11.5,14.4 Z M12.6,10.7 L12.5,12.3 L14.1,12.2 L20.5,6 L18.9,4.4 L12.6,10.7 Z M19.1,24.3 L5.2,24.3 C3.3,24.3 1.8,22.8 1.8,20.9 L1.8,9.2 C1.8,8.9 1.9,8.6 2.2,8.4 L11.4,1.2 C11.8,0.9 12.3,0.9 12.6,1.2 L14.9,3 C15.3,3.3 15.4,4 15.1,4.4 C14.8,4.8 14.1,4.9 13.7,4.6 L12.1,3.3 L3.9,9.7 L3.9,21 C3.9,21.8 4.5,22.4 5.3,22.4 L19.2,22.4 C20,22.4 20.6,21.8 20.6,21 L20.6,10.2 C20.6,9.6 21,9.2 21.6,9.2 C22.2,9.2 22.6,9.6 22.6,10.2 L22.6,21 C22.5,22.8 21,24.3 19.1,24.3 Z" id="path-1"></path>
    </defs>
    <g id="Icon/Service/exterior-3d" stroke="none" stroke-width="1" fill="none" fill-rule="evenodd">
        <mask id="mask-2" fill="white">
            <use xlink:href="#path-1"></use>
        </mask>
        <use id="Mask" fill="#172B4E" fill-rule="nonzero" xlink:href="#path-1"></use>
        <g id="Color/Neutral/Black" mask="url(#mask-2)" fill="#172B4E" fill-rule="nonzero">
            <rect id="Rectangle" x="0" y="0" width="24" height="24"></rect>
        </g>
    </g>
</svg>