<?xml version="1.0" encoding="UTF-8"?>
<svg width="24px" height="24px" viewBox="0 0 24 24" version="1.1" xmlns="http://www.w3.org/2000/svg" xmlns:xlink="http://www.w3.org/1999/xlink">
    <!-- Generator: Sketch 54.1 (76490) - https://sketchapp.com -->
    <title>Icon/Feather/film</title>
    <desc>Created with Sketch.</desc>
    <defs>
        <path d="M21,8 L18,8 L18,11 L21,11 L21,8 Z M21,6 L21,4.18 C21,3.528304 20.471696,3 19.82,3 L18,3 L18,6 L21,6 Z M21,16 L21,13 L18,13 L18,16 L21,16 Z M21,18 L18,18 L18,21 L19.82,21 C20.471696,21 21,20.471696 21,19.82 L21,18 Z M3,16 L6,16 L6,13 L3,13 L3,16 Z M3,18 L3,19.82 C3,20.471696 3.528304,21 4.18,21 L6,21 L6,18 L3,18 Z M3,8 L3,11 L6,11 L6,8 L3,8 Z M3,6 L6,6 L6,3 L4.18,3 C3.528304,3 3,3.528304 3,4.18 L3,6 Z M8,11 L16,11 L16,3 L8,3 L8,11 Z M8,13 L8,21 L16,21 L16,13 L8,13 Z M4.18,1 L19.82,1 C21.5762655,1 23,2.4237345 23,4.18 L23,19.82 C23,21.5762655 21.5762655,23 19.82,23 L4.18,23 C2.4237345,23 1,21.5762655 1,19.82 L1,4.18 C1,2.4237345 2.4237345,1 4.18,1 Z" id="path-1"></path>
    </defs>
    <g id="Icon/Feather/film" stroke="none" stroke-width="1" fill="none" fill-rule="evenodd">
        <mask id="mask-2" fill="white">
            <use xlink:href="#path-1"></use>
        </mask>
        <use id="Combined-Shape" fill="#000000" xlink:href="#path-1"></use>
        <g id="Color/Neutral/Black" mask="url(#mask-2)" fill="#172B4E" fill-rule="nonzero">
            <rect id="Rectangle" x="0" y="0" width="24" height="24"></rect>
        </g>
    </g>
</svg>