<?xml version="1.0" encoding="UTF-8"?>
<svg width="24px" height="24px" viewBox="0 0 24 24" version="1.1" xmlns="http://www.w3.org/2000/svg" xmlns:xlink="http://www.w3.org/1999/xlink">
    <!-- Generator: Sketch 54.1 (76490) - https://sketchapp.com -->
    <title>Icon/Feather/github</title>
    <desc>Created with Sketch.</desc>
    <defs>
        <path d="M8.71265211,19.0421737 C6.56106042,19.6876512 5.69163668,19.3460273 4.61558546,18.0136682 C4.54424327,17.9253328 4.24513677,17.5456297 4.1651046,17.4467328 C3.52205015,16.6521012 3.00752835,16.2211057 2.24253563,16.0298575 C1.70674072,15.8959088 1.16380623,16.2216695 1.0298575,16.7574644 C0.895908773,17.2932593 1.22166947,17.8361938 1.75746437,17.9701425 C1.98784881,18.0277386 2.21940206,18.221702 2.6104056,18.7048707 C2.67961761,18.790397 2.97791514,19.1690732 3.05965459,19.2702824 C4.61387935,21.1947126 6.29536503,21.8554211 9.28734789,20.9578263 C9.81634074,20.7991284 10.1165241,20.241645 9.95782629,19.7126521 C9.79912843,19.1836593 9.24164496,18.8834759 8.71265211,19.0421737 Z M22.5,9.52 C22.4997335,8.06998109 22.0104843,6.66887921 21.121072,5.53861936 C21.4626961,4.23745567 21.3636281,2.85309694 20.8291323,1.60605109 C20.7120136,1.33279831 20.4793858,1.12582396 20.1943649,1.04128389 C20.1370915,1.02429601 20.0672424,1.00892424 19.9849234,0.996975077 C19.0450875,0.860551507 17.6673287,1.23159283 15.8209669,2.40284681 C13.6373839,1.88453947 11.3626161,1.88453947 9.17903312,2.40284681 C7.33267133,1.23159283 5.95491251,0.860551507 5.01507659,0.996975077 C4.93275762,1.00892424 4.86290847,1.02429601 4.80563505,1.04128389 C4.52061425,1.12582396 4.28798642,1.33279831 4.17086766,1.60605109 C3.63637375,2.85309257 3.53730464,4.23744598 3.87892438,5.5386057 C2.98201917,6.67833877 2.49224131,8.09319784 2.50001413,9.55531606 C2.5000016,14.1665442 4.55978674,16.4211526 8.30065258,17.2796129 C8.06095032,17.8827792 7.95592234,18.5384189 8.00246419,19.2001592 L8,23 C8,23.5522847 8.44771525,24 9,24 C9.55228475,24 10,23.5522847 10,23 L10,19.13 C9.95032666,18.3886127 10.1906659,17.7289582 10.6586041,17.2454194 C11.2322801,16.6526176 10.8819017,15.659304 10.0632567,15.5576252 C6.26855422,15.0863086 4.5,13.5991978 4.5,9.55 C4.49388303,8.39670147 4.93266315,7.29097559 5.72425058,6.45953688 C5.98813459,6.18236801 6.07069048,5.77890224 5.93688382,5.42035917 C5.64943234,4.6501155 5.60374141,3.81614188 5.79720591,3.02756394 C5.86741475,3.04343043 5.9444167,3.06314488 6.02838423,3.08731672 C6.67275541,3.27281271 7.47580192,3.66217096 8.44319513,4.31064333 C8.68365831,4.47183293 8.98217405,4.52090675 9.26158445,4.44518059 C11.3822756,3.87042821 13.6177244,3.87042821 15.7384155,4.44518059 C16.0178259,4.52090675 16.3163417,4.47183293 16.5568049,4.31064333 C17.5241981,3.66217096 18.3272446,3.27281271 18.9716158,3.08731672 C19.0555833,3.06314488 19.1325852,3.04343043 19.2027941,3.02756394 C19.3962586,3.81614188 19.3505677,4.6501155 19.0631162,5.42035917 C18.9293121,5.77889532 19.0118621,6.18235314 19.2757353,6.45952205 C20.0614619,7.28483873 20.4997906,8.38066027 20.5,9.52018382 C20.5,13.6076942 18.7180589,15.1060615 14.9492211,15.5261549 C14.1231893,15.6182285 13.7634872,16.6193012 14.3420118,17.2160552 C14.8156539,17.704622 15.0564459,18.3732041 15.00308,19.0515745 L15,23 C15,23.5522847 15.4477153,24 16,24 C16.5522847,24 17,23.5522847 17,23 L17,19.13 C17.0508078,18.5050805 16.9483905,17.8630072 16.7094009,17.2631898 C20.4298333,16.4383605 22.5,14.1621477 22.5,9.52 Z" id="path-1"></path>
    </defs>
    <g id="Icon/Feather/github" stroke="none" stroke-width="1" fill="none" fill-rule="evenodd">
        <mask id="mask-2" fill="white">
            <use xlink:href="#path-1"></use>
        </mask>
        <use id="Shape" fill="#000000" fill-rule="nonzero" xlink:href="#path-1"></use>
        <g id="Color/Neutral/Black" mask="url(#mask-2)" fill="#172B4E" fill-rule="nonzero">
            <rect id="Rectangle" x="0" y="0" width="24" height="24"></rect>
        </g>
    </g>
</svg>