<?xml version="1.0" encoding="UTF-8"?>
<svg width="24px" height="24px" viewBox="0 0 24 24" version="1.1" xmlns="http://www.w3.org/2000/svg" xmlns:xlink="http://www.w3.org/1999/xlink">
    <!-- Generator: Sketch 54.1 (76490) - https://sketchapp.com -->
    <title>Icon/Feather/hash</title>
    <desc>Created with Sketch.</desc>
    <defs>
        <path d="M13.5494017,16.0000882 L9.56170946,16.0000882 L8.99388373,21.1105197 C8.93289409,21.6594265 8.4384753,22.0549616 7.88956847,21.9939719 C7.34066164,21.9329823 6.94512662,21.4385635 7.00611627,20.8896567 L7.54940165,16.0000882 L4,16.0000882 C3.44771525,16.0000882 3,15.5523729 3,15.0000882 C3,14.4478034 3.44771525,14.0000882 4,14.0000882 L7.77162387,14.0000882 L8.21606832,10.0000882 L4,10.0000882 C3.44771525,10.0000882 3,9.55237294 3,9.00008819 C3,8.44780344 3.44771525,8.00008819 4,8.00008819 L8.43829054,8.00008819 L9.00611627,2.88965667 C9.06710591,2.34074984 9.5615247,1.94521481 10.1104315,2.00620446 C10.6593384,2.06719411 11.0548734,2.56161289 10.9938837,3.11051972 L10.4505983,8.00008819 L14.4382905,8.00008819 L15.0061163,2.88965667 C15.0671059,2.34074984 15.5615247,1.94521481 16.1104315,2.00620446 C16.6593384,2.06719411 17.0548734,2.56161289 16.9938837,3.11051972 L16.4505983,8.00008819 L20,8.00008819 C20.5522847,8.00008819 21,8.44780344 21,9.00008819 C21,9.55237294 20.5522847,10.0000882 20,10.0000882 L16.2283761,10.0000882 L15.7839317,14.0000882 L20,14.0000882 C20.5522847,14.0000882 21,14.4478034 21,15.0000882 C21,15.5523729 20.5522847,16.0000882 20,16.0000882 L15.5617095,16.0000882 L14.9938837,21.1105197 C14.9328941,21.6594265 14.4384753,22.0549616 13.8895685,21.9939719 C13.3406616,21.9329823 12.9451266,21.4385635 13.0061163,20.8896567 L13.5494017,16.0000882 Z M13.7716239,14.0000882 L14.2160683,10.0000882 L10.2283761,10.0000882 L9.78393168,14.0000882 L13.7716239,14.0000882 Z" id="path-1"></path>
    </defs>
    <g id="Icon/Feather/hash" stroke="none" stroke-width="1" fill="none" fill-rule="evenodd">
        <mask id="mask-2" fill="white">
            <use xlink:href="#path-1"></use>
        </mask>
        <use id="Combined-Shape" fill="#000000" fill-rule="nonzero" xlink:href="#path-1"></use>
        <g id="Color/Neutral/Black" mask="url(#mask-2)" fill="#172B4E" fill-rule="nonzero">
            <rect id="Rectangle" x="0" y="0" width="24" height="24"></rect>
        </g>
    </g>
</svg>