<?xml version="1.0" encoding="UTF-8"?>
<svg width="24px" height="24px" viewBox="0 0 24 24" version="1.1" xmlns="http://www.w3.org/2000/svg" xmlns:xlink="http://www.w3.org/1999/xlink">
    <!-- Generator: Sketch 56.2 (81672) - https://sketch.com -->
    <title>Icon/Service/interior-tour-3d</title>
    <desc>Created with Sketch.</desc>
    <defs>
        <path d="M12.9,5.4 C10.2,5.4 7.6,6.1 5.6,7.4 C5.2,7.8 5,8.4 5.3,8.9 C5.6,9.4 6.2,9.5 6.7,9.2 C8.3,8.1 10.5,7.5 12.8,7.5 C17.4,7.5 21.3,9.9 21.3,12.8 C21.3,15.7 17.4,18.1 12.8,18.1 C10.2,18.1 8.4,17.6 6.9,16.4 C5.9,15.6 5.1,14.9 4.1,14 L7.8,14 C8.4,14 8.8,13.6 8.8,13 C8.8,12.4 8.4,12 7.8,12 L2,12 C1.4,12 1,12.4 1,13 L1,18.9 C1,19.5 1.4,19.9 2,19.9 C2.6,19.9 3,19.5 3,18.9 L3,15.7 C3.9,16.6 4.8,17.3 5.7,18 C7.5,19.5 9.8,20.2 12.8,20.2 C18.7,20.2 23.3,17 23.3,12.9 C23.3,8.7 18.7,5.4 12.9,5.4 Z" id="path-1"></path>
    </defs>
    <g id="Icon/Service/interior-tour-3d" stroke="none" stroke-width="1" fill="none" fill-rule="evenodd">
        <mask id="mask-2" fill="white">
            <use xlink:href="#path-1"></use>
        </mask>
        <use id="Path" fill="#172B4E" fill-rule="nonzero" xlink:href="#path-1"></use>
        <g id="Color/Neutral/Black" mask="url(#mask-2)" fill="#172B4E" fill-rule="nonzero">
            <rect id="Rectangle" x="0" y="0" width="24" height="24"></rect>
        </g>
    </g>
</svg>