<?xml version="1.0" encoding="UTF-8"?>
<svg width="24px" height="24px" viewBox="0 0 24 24" version="1.1" xmlns="http://www.w3.org/2000/svg" xmlns:xlink="http://www.w3.org/1999/xlink">
    <!-- Generator: Sketch 56.2 (81672) - https://sketch.com -->
    <title>Icon/Service/interior-3d</title>
    <desc>Created with Sketch.</desc>
    <defs>
        <path d="M7.5,19.4 C7.2,19.4 7,19.3 6.8,19.1 C6.6,18.9 6.5,18.6 6.5,18.4 L6.6,15.3 C6.6,15 6.7,14.8 6.9,14.6 L14.2,7.3 C14.6,6.9 15.2,6.9 15.6,7.3 L18.6,10.3 C19,10.7 19,11.3 18.6,11.7 L11.3,19 C11.1,19.2 10.9,19.3 10.6,19.3 L7.5,19.4 Z M8.6,15.7 L8.5,17.3 L10.1,17.2 L16.5,11 L14.9,9.4 L8.6,15.7 Z M19.1,23.3 L5.2,23.3 C3.3,23.3 1.8,21.8 1.8,19.9 L1.8,8.2 C1.8,7.9 1.9,7.6 2.2,7.4 L11.4,0.2 C11.8,-0.1 12.3,-0.1 12.6,0.2 L21.8,7.1 C22.2,7.4 23,8.5 22,8.5 C21,8.5 21,9 20.6,8.7 L12.1,2.3 L3.9,8.7 L3.9,20 C3.9,20.8 4.5,21.4 5.3,21.4 L19.2,21.4 C20,21.4 20.6,20.8 20.6,20 L20.5,8.5 C20.5,7.9 20.9,7.5 21.5,7.5 C22.1,7.5 22.5,7.5 22.5,8.5 L22.6,20 C22.5,21.8 21,23.3 19.1,23.3 Z" id="path-1"></path>
    </defs>
    <g id="Icon/Service/interior-3d" stroke="none" stroke-width="1" fill="none" fill-rule="evenodd">
        <mask id="mask-2" fill="white">
            <use xlink:href="#path-1"></use>
        </mask>
        <use id="Mask" fill="#172B4E" fill-rule="nonzero" xlink:href="#path-1"></use>
        <g id="Color/Neutral/Black" mask="url(#mask-2)" fill="#172B4E" fill-rule="nonzero">
            <rect id="Rectangle" x="0" y="0" width="24" height="24"></rect>
        </g>
    </g>
</svg>