<?xml version="1.0" encoding="UTF-8"?>
<svg width="24px" height="24px" viewBox="0 0 24 24" version="1.1" xmlns="http://www.w3.org/2000/svg" xmlns:xlink="http://www.w3.org/1999/xlink">
    <!-- Generator: Sketch 54.1 (76490) - https://sketchapp.com -->
    <title>Icon/Feather/loader</title>
    <desc>Created with Sketch.</desc>
    <defs>
        <path d="M11,2 C11,1.44771525 11.4477153,1 12,1 C12.5522847,1 13,1.44771525 13,2 L13,6 C13,6.55228475 12.5522847,7 12,7 C11.4477153,7 11,6.55228475 11,6 L11,2 Z M11,18 C11,17.4477153 11.4477153,17 12,17 C12.5522847,17 13,17.4477153 13,18 L13,22 C13,22.5522847 12.5522847,23 12,23 C11.4477153,23 11,22.5522847 11,22 L11,18 Z M4.22289322,5.63710678 C3.83236893,5.24658249 3.83236893,4.61341751 4.22289322,4.22289322 C4.61341751,3.83236893 5.24658249,3.83236893 5.63710678,4.22289322 L8.46710678,7.05289322 C8.85763107,7.44341751 8.85763107,8.07658249 8.46710678,8.46710678 C8.07658249,8.85763107 7.44341751,8.85763107 7.05289322,8.46710678 L4.22289322,5.63710678 Z M15.5328932,16.9471068 C15.1423689,16.5565825 15.1423689,15.9234175 15.5328932,15.5328932 C15.9234175,15.1423689 16.5565825,15.1423689 16.9471068,15.5328932 L19.7771068,18.3628932 C20.1676311,18.7534175 20.1676311,19.3865825 19.7771068,19.7771068 C19.3865825,20.1676311 18.7534175,20.1676311 18.3628932,19.7771068 L15.5328932,16.9471068 Z M2,13 C1.44771525,13 1,12.5522847 1,12 C1,11.4477153 1.44771525,11 2,11 L6,11 C6.55228475,11 7,11.4477153 7,12 C7,12.5522847 6.55228475,13 6,13 L2,13 Z M18,13 C17.4477153,13 17,12.5522847 17,12 C17,11.4477153 17.4477153,11 18,11 L22,11 C22.5522847,11 23,11.4477153 23,12 C23,12.5522847 22.5522847,13 22,13 L18,13 Z M5.63710678,19.7771068 C5.24658249,20.1676311 4.61341751,20.1676311 4.22289322,19.7771068 C3.83236893,19.3865825 3.83236893,18.7534175 4.22289322,18.3628932 L7.05289322,15.5328932 C7.44341751,15.1423689 8.07658249,15.1423689 8.46710678,15.5328932 C8.85763107,15.9234175 8.85763107,16.5565825 8.46710678,16.9471068 L5.63710678,19.7771068 Z M16.9471068,8.46710678 C16.5565825,8.85763107 15.9234175,8.85763107 15.5328932,8.46710678 C15.1423689,8.07658249 15.1423689,7.44341751 15.5328932,7.05289322 L18.3628932,4.22289322 C18.7534175,3.83236893 19.3865825,3.83236893 19.7771068,4.22289322 C20.1676311,4.61341751 20.1676311,5.24658249 19.7771068,5.63710678 L16.9471068,8.46710678 Z" id="path-1"></path>
    </defs>
    <g id="Icon/Feather/loader" stroke="none" stroke-width="1" fill="none" fill-rule="evenodd">
        <mask id="mask-2" fill="white">
            <use xlink:href="#path-1"></use>
        </mask>
        <use id="Combined-Shape" fill="#000000" fill-rule="nonzero" xlink:href="#path-1"></use>
        <g id="Color/Neutral/Black" mask="url(#mask-2)" fill="#172B4E" fill-rule="nonzero">
            <rect id="Rectangle" x="0" y="0" width="24" height="24"></rect>
        </g>
    </g>
</svg>