<?xml version="1.0" encoding="UTF-8"?>
<svg width="24px" height="24px" viewBox="0 0 24 24" version="1.1" xmlns="http://www.w3.org/2000/svg" xmlns:xlink="http://www.w3.org/1999/xlink">
    <!-- Generator: Sketch 54.1 (76490) - https://sketchapp.com -->
    <title>Icon/Feather/log-out</title>
    <desc>Created with Sketch.</desc>
    <defs>
        <path d="M18.5857864,13 L9,13 C8.44771525,13 8,12.5522847 8,12 C8,11.4477153 8.44771525,11 9,11 L18.5857864,11 L16.2928932,8.70710678 C15.9023689,8.31658249 15.9023689,7.68341751 16.2928932,7.29289322 C16.6834175,6.90236893 17.3165825,6.90236893 17.7071068,7.29289322 L21.7071068,11.2928932 C22.0976311,11.6834175 22.0976311,12.3165825 21.7071068,12.7071068 L17.7071068,16.7071068 C17.3165825,17.0976311 16.6834175,17.0976311 16.2928932,16.7071068 C15.9023689,16.3165825 15.9023689,15.6834175 16.2928932,15.2928932 L18.5857864,13 Z M10,21 C10.5522847,21 11,21.4477153 11,22 C11,22.5522847 10.5522847,23 10,23 L5,23 C3.34314575,23 2,21.6568542 2,20 L2,4 C2,2.34314575 3.34314575,1 5,1 L10,1 C10.5522847,1 11,1.44771525 11,2 C11,2.55228475 10.5522847,3 10,3 L5,3 C4.44771525,3 4,3.44771525 4,4 L4,20 C4,20.5522847 4.44771525,21 5,21 L10,21 Z" id="path-1"></path>
    </defs>
    <g id="Icon/Feather/log-out" stroke="none" stroke-width="1" fill="none" fill-rule="evenodd">
        <mask id="mask-2" fill="white">
            <use xlink:href="#path-1"></use>
        </mask>
        <use id="Combined-Shape" fill="#000000" fill-rule="nonzero" xlink:href="#path-1"></use>
        <g id="Color/Neutral/Black" mask="url(#mask-2)" fill="#172B4E" fill-rule="nonzero">
            <rect id="Rectangle" x="0" y="0" width="24" height="24"></rect>
        </g>
    </g>
</svg>