<?xml version="1.0" encoding="UTF-8"?>
<svg width="24px" height="24px" viewBox="0 0 24 24" version="1.1" xmlns="http://www.w3.org/2000/svg" xmlns:xlink="http://www.w3.org/1999/xlink">
    <!-- Generator: Sketch 54.1 (76490) - https://sketchapp.com -->
    <title>Icon/Feather/maximize</title>
    <desc>Created with Sketch.</desc>
    <defs>
        <path d="M8,2 L5,2 C3.34314575,2 2,3.34314575 2,5 L2,8 C2,8.55228475 2.44771525,9 3,9 C3.55228475,9 4,8.55228475 4,8 L4,5 C4,4.44771525 4.44771525,4 5,4 L8,4 C8.55228475,4 9,3.55228475 9,3 C9,2.44771525 8.55228475,2 8,2 Z M22,8 L22,5 C22,3.34314575 20.6568542,2 19,2 L16,2 C15.4477153,2 15,2.44771525 15,3 C15,3.55228475 15.4477153,4 16,4 L19,4 C19.5522847,4 20,4.44771525 20,5 L20,8 C20,8.55228475 20.4477153,9 21,9 C21.5522847,9 22,8.55228475 22,8 Z M16,22 L19,22 C20.6568542,22 22,20.6568542 22,19 L22,16 C22,15.4477153 21.5522847,15 21,15 C20.4477153,15 20,15.4477153 20,16 L20,19 C20,19.5522847 19.5522847,20 19,20 L16,20 C15.4477153,20 15,20.4477153 15,21 C15,21.5522847 15.4477153,22 16,22 Z M2,16 L2,19 C2,20.6568542 3.34314575,22 5,22 L8,22 C8.55228475,22 9,21.5522847 9,21 C9,20.4477153 8.55228475,20 8,20 L5,20 C4.44771525,20 4,19.5522847 4,19 L4,16 C4,15.4477153 3.55228475,15 3,15 C2.44771525,15 2,15.4477153 2,16 Z" id="path-1"></path>
    </defs>
    <g id="Icon/Feather/maximize" stroke="none" stroke-width="1" fill="none" fill-rule="evenodd">
        <mask id="mask-2" fill="white">
            <use xlink:href="#path-1"></use>
        </mask>
        <use id="Shape" fill="#000000" fill-rule="nonzero" xlink:href="#path-1"></use>
        <g id="Color/Neutral/Black" mask="url(#mask-2)" fill="#172B4E" fill-rule="nonzero">
            <rect id="Rectangle" x="0" y="0" width="24" height="24"></rect>
        </g>
    </g>
</svg>