<?xml version="1.0" encoding="UTF-8"?>
<svg width="24px" height="24px" viewBox="0 0 24 24" version="1.1" xmlns="http://www.w3.org/2000/svg" xmlns:xlink="http://www.w3.org/1999/xlink">
    <!-- Generator: Sketch 54.1 (76490) - https://sketchapp.com -->
    <title>Icon/Feather/maximize-2</title>
    <desc>Created with Sketch.</desc>
    <defs>
        <path d="M4,18.5857864 L9.29289322,13.2928932 C9.68341751,12.9023689 10.3165825,12.9023689 10.7071068,13.2928932 C11.0976311,13.6834175 11.0976311,14.3165825 10.7071068,14.7071068 L5.41421356,20 L9,20 C9.55228475,20 10,20.4477153 10,21 C10,21.5522847 9.55228475,22 9,22 L3,22 C2.44771525,22 2,21.5522847 2,21 L2,15 C2,14.4477153 2.44771525,14 3,14 C3.55228475,14 4,14.4477153 4,15 L4,18.5857864 Z M18.5857864,4 L15,4 C14.4477153,4 14,3.55228475 14,3 C14,2.44771525 14.4477153,2 15,2 L21,2 C21.5522847,2 22,2.44771525 22,3 L22,9 C22,9.55228475 21.5522847,10 21,10 C20.4477153,10 20,9.55228475 20,9 L20,5.41421356 L14.7071068,10.7071068 C14.3165825,11.0976311 13.6834175,11.0976311 13.2928932,10.7071068 C12.9023689,10.3165825 12.9023689,9.68341751 13.2928932,9.29289322 L18.5857864,4 Z" id="path-1"></path>
    </defs>
    <g id="Icon/Feather/maximize-2" stroke="none" stroke-width="1" fill="none" fill-rule="evenodd">
        <mask id="mask-2" fill="white">
            <use xlink:href="#path-1"></use>
        </mask>
        <use id="Combined-Shape" fill="#000000" fill-rule="nonzero" xlink:href="#path-1"></use>
        <g id="Color/Neutral/Black" mask="url(#mask-2)" fill="#172B4E" fill-rule="nonzero">
            <rect id="Rectangle" x="0" y="0" width="24" height="24"></rect>
        </g>
    </g>
</svg>