<?xml version="1.0" encoding="UTF-8"?>
<svg width="24px" height="24px" viewBox="0 0 24 24" version="1.1" xmlns="http://www.w3.org/2000/svg" xmlns:xlink="http://www.w3.org/1999/xlink">
    <!-- Generator: Sketch 57.1 (83088) - https://sketch.com -->
    <title>Icon/Service/media-kit</title>
    <desc>Created with Sketch.</desc>
    <defs>
        <path d="M14.7,5 C14.9625,5.175 15.071875,5.4265625 15.1621094,5.7546875 L15.2,5.9 L15.2,18.6 C15.2,18.9 15.1,19.2 14.8,19.4 C14.6,19.5 14.4,19.6 14.2,19.6 C14.12,19.6 13.976,19.6 13.8704,19.5488 L13.8,19.5 L6.1,16.3 L4.5,16.3 L4.5,19.5 C4.5,20.1 4.1,20.5 3.5,20.5 C2.94285714,20.5 2.55816327,20.155102 2.50604956,19.6254373 L2.5,19.5 L2.5,16.3 L1.4,16.3 C0.842857143,16.3 0.458163265,15.955102 0.406049563,15.4254373 L0.4,15.3 L0.4,9 C0.4,8.44285714 0.744897959,8.05816327 1.27456268,8.00604956 L1.4,8 L6.2,8 L13.8,4.9 C14.1,4.8 14.4,4.8 14.7,5 Z M21.3,6 C22.8,7.7 23.7,10 23.7,12.3 C23.7,14.6 22.9,16.8 21.4,18.5 C21.2,18.8 20.9,18.9 20.6,18.9 C20.4,18.9 20.2,18.9 20,18.7 C19.6,18.4 19.5,17.7 19.9,17.3 C21.1,16 21.7,14.2 21.7,12.4 C21.7,10.5 21,8.7 19.8,7.3 C19.4,6.9 19.5,6.3 19.9,5.9 C20.3,5.5 20.9,5.6 21.3,6 Z M13.1,7.3 L7.3,9.7 L7.3,14.7 L13.1,17.1 L13.1,7.3 Z M17,8 C17.4,7.6 18.1,7.7 18.4,8.1 C19.4,9.3 19.9,10.8 20,12.3 C20,13.8 19.5,15.2 18.6,16.4 C18.4,16.7 18.1,16.8 17.8,16.8 C17.6,16.8 17.4,16.7 17.2,16.6 C16.7,16.3 16.7,15.6 17,15.2 C17.7,14.4 18,13.4 18,12.4 C18,11.3 17.6,10.2 16.9,9.4 C16.5,9 16.6,8.3 17,8 Z M5.3,10 L2.4,10 L2.4,14.3 L5.3,14.3 L5.3,10 Z" id="path-1"></path>
    </defs>
    <g id="Icon/Service/media-kit" stroke="none" stroke-width="1" fill="none" fill-rule="evenodd">
        <mask id="mask-2" fill="white">
            <use xlink:href="#path-1"></use>
        </mask>
        <use id="Combined-Shape" fill="#172B4E" fill-rule="nonzero" xlink:href="#path-1"></use>
        <g id="Color/Neutral/Darkest" mask="url(#mask-2)" fill="#172B4E" fill-rule="nonzero">
            <rect id="Rectangle" x="0" y="0" width="24" height="24"></rect>
        </g>
    </g>
</svg>