<?xml version="1.0" encoding="UTF-8"?>
<svg width="24px" height="24px" viewBox="0 0 24 24" version="1.1" xmlns="http://www.w3.org/2000/svg" xmlns:xlink="http://www.w3.org/1999/xlink">
    <!-- Generator: Sketch 54.1 (76490) - https://sketchapp.com -->
    <title>Icon/Feather/mic</title>
    <desc>Created with Sketch.</desc>
    <defs>
        <path d="M11,22 L11,19.9381062 C7.05368847,19.4460081 4.00000006,16.0796176 4,12 L4,10 C4,9.44771525 4.44771525,9 5,9 C5.55228475,9 6,9.44771525 6,10 L6,12 C6.00000005,15.3137084 8.68629154,17.9999999 12,18 C15.3137085,17.9999999 18,15.3137084 18,12 L18,10 C18,9.44771525 18.4477153,9 19,9 C19.5522847,9 20,9.44771525 20,10 L20,12 C19.9999999,16.0796176 16.9463115,19.4460081 13,19.9381062 L13,22 L16,22 C16.5522847,22 17,22.4477153 17,23 C17,23.5522847 16.5522847,24 16,24 L8,24 C7.44771525,24 7,23.5522847 7,23 C7,22.4477153 7.44771525,22 8,22 L11,22 Z M12,0 C14.209139,0 16,1.790861 16,4 L16,12 C16,14.209139 14.209139,16 12,16 C9.790861,16 8,14.209139 8,12 L8,4 C8,1.790861 9.790861,-6.66133815e-16 12,0 Z M12,2 C10.8954305,2 10,2.8954305 10,4 L10,12 C10,13.1045695 10.8954305,14 12,14 C13.1045695,14 14,13.1045695 14,12 L14,4 C14,2.8954305 13.1045695,2 12,2 Z" id="path-1"></path>
    </defs>
    <g id="Icon/Feather/mic" stroke="none" stroke-width="1" fill="none" fill-rule="evenodd">
        <mask id="mask-2" fill="white">
            <use xlink:href="#path-1"></use>
        </mask>
        <use id="Combined-Shape" fill="#000000" fill-rule="nonzero" xlink:href="#path-1"></use>
        <g id="Color/Neutral/Black" mask="url(#mask-2)" fill="#172B4E" fill-rule="nonzero">
            <rect id="Rectangle" x="0" y="0" width="24" height="24"></rect>
        </g>
    </g>
</svg>