<?xml version="1.0" encoding="UTF-8"?>
<svg width="24px" height="24px" viewBox="0 0 24 24" version="1.1" xmlns="http://www.w3.org/2000/svg" xmlns:xlink="http://www.w3.org/1999/xlink">
    <!-- Generator: Sketch 54.1 (76490) - https://sketchapp.com -->
    <title>Icon/Feather/minimize</title>
    <desc>Created with Sketch.</desc>
    <defs>
        <path d="M7,3 L7,6 C7,6.55228475 6.55228475,7 6,7 L3,7 C2.44771525,7 2,7.44771525 2,8 C2,8.55228475 2.44771525,9 3,9 L6,9 C7.65685425,9 9,7.65685425 9,6 L9,3 C9,2.44771525 8.55228475,2 8,2 C7.44771525,2 7,2.44771525 7,3 Z M21,7 L18,7 C17.4477153,7 17,6.55228475 17,6 L17,3 C17,2.44771525 16.5522847,2 16,2 C15.4477153,2 15,2.44771525 15,3 L15,6 C15,7.65685425 16.3431458,9 18,9 L21,9 C21.5522847,9 22,8.55228475 22,8 C22,7.44771525 21.5522847,7 21,7 Z M17,21 L17,18 C17,17.4477153 17.4477153,17 18,17 L21,17 C21.5522847,17 22,16.5522847 22,16 C22,15.4477153 21.5522847,15 21,15 L18,15 C16.3431458,15 15,16.3431458 15,18 L15,21 C15,21.5522847 15.4477153,22 16,22 C16.5522847,22 17,21.5522847 17,21 Z M3,17 L6,17 C6.55228475,17 7,17.4477153 7,18 L7,21 C7,21.5522847 7.44771525,22 8,22 C8.55228475,22 9,21.5522847 9,21 L9,18 C9,16.3431458 7.65685425,15 6,15 L3,15 C2.44771525,15 2,15.4477153 2,16 C2,16.5522847 2.44771525,17 3,17 Z" id="path-1"></path>
    </defs>
    <g id="Icon/Feather/minimize" stroke="none" stroke-width="1" fill="none" fill-rule="evenodd">
        <mask id="mask-2" fill="white">
            <use xlink:href="#path-1"></use>
        </mask>
        <use id="Shape" fill="#000000" fill-rule="nonzero" xlink:href="#path-1"></use>
        <g id="Color/Neutral/Black" mask="url(#mask-2)" fill="#172B4E" fill-rule="nonzero">
            <rect id="Rectangle" x="0" y="0" width="24" height="24"></rect>
        </g>
    </g>
</svg>