<?xml version="1.0" encoding="UTF-8"?>
<svg width="24px" height="24px" viewBox="0 0 24 24" version="1.1" xmlns="http://www.w3.org/2000/svg" xmlns:xlink="http://www.w3.org/1999/xlink">
    <!-- Generator: Sketch 54.1 (76490) - https://sketchapp.com -->
    <title>Icon/Feather/monitor</title>
    <desc>Created with Sketch.</desc>
    <defs>
        <path d="M13,18 L13,20 L16,20 C16.5522847,20 17,20.4477153 17,21 C17,21.5522847 16.5522847,22 16,22 L8,22 C7.44771525,22 7,21.5522847 7,21 C7,20.4477153 7.44771525,20 8,20 L11,20 L11,18 L4,18 C2.34314575,18 1,16.6568542 1,15 L1,5 C1,3.34314575 2.34314575,2 4,2 L20,2 C21.6568542,2 23,3.34314575 23,5 L23,15 C23,16.6568542 21.6568542,18 20,18 L13,18 Z M4,4 C3.44771525,4 3,4.44771525 3,5 L3,15 C3,15.5522847 3.44771525,16 4,16 L20,16 C20.5522847,16 21,15.5522847 21,15 L21,5 C21,4.44771525 20.5522847,4 20,4 L4,4 Z" id="path-1"></path>
    </defs>
    <g id="Icon/Feather/monitor" stroke="none" stroke-width="1" fill="none" fill-rule="evenodd">
        <mask id="mask-2" fill="white">
            <use xlink:href="#path-1"></use>
        </mask>
        <use id="Combined-Shape" fill="#000000" fill-rule="nonzero" xlink:href="#path-1"></use>
        <g id="Color/Neutral/Black" mask="url(#mask-2)" fill="#172B4E" fill-rule="nonzero">
            <rect id="Rectangle" x="0" y="0" width="24" height="24"></rect>
        </g>
    </g>
</svg>