<?xml version="1.0" encoding="UTF-8"?>
<svg width="24px" height="24px" viewBox="0 0 24 24" version="1.1" xmlns="http://www.w3.org/2000/svg" xmlns:xlink="http://www.w3.org/1999/xlink">
    <!-- Generator: Sketch 54.1 (76490) - https://sketchapp.com -->
    <title>Icon/Feather/more-horizontal</title>
    <desc>Created with Sketch.</desc>
    <defs>
        <path d="M12,15 C10.3431458,15 9,13.6568542 9,12 C9,10.3431458 10.3431458,9 12,9 C13.6568542,9 15,10.3431458 15,12 C15,13.6568542 13.6568542,15 12,15 Z M20,15 C18.3431458,15 17,13.6568542 17,12 C17,10.3431458 18.3431458,9 20,9 C21.6568542,9 23,10.3431458 23,12 C23,13.6568542 21.6568542,15 20,15 Z M4,15 C2.34314575,15 1,13.6568542 1,12 C1,10.3431458 2.34314575,9 4,9 C5.65685425,9 7,10.3431458 7,12 C7,13.6568542 5.65685425,15 4,15 Z M4,13 C4.55228475,13 5,12.5522847 5,12 C5,11.4477153 4.55228475,11 4,11 C3.44771525,11 3,11.4477153 3,12 C3,12.5522847 3.44771525,13 4,13 Z M20,13 C20.5522847,13 21,12.5522847 21,12 C21,11.4477153 20.5522847,11 20,11 C19.4477153,11 19,11.4477153 19,12 C19,12.5522847 19.4477153,13 20,13 Z M12,13 C12.5522847,13 13,12.5522847 13,12 C13,11.4477153 12.5522847,11 12,11 C11.4477153,11 11,11.4477153 11,12 C11,12.5522847 11.4477153,13 12,13 Z" id="path-1"></path>
    </defs>
    <g id="Icon/Feather/more-horizontal" stroke="none" stroke-width="1" fill="none" fill-rule="evenodd">
        <mask id="mask-2" fill="white">
            <use xlink:href="#path-1"></use>
        </mask>
        <use id="Combined-Shape" fill="#000000" fill-rule="nonzero" xlink:href="#path-1"></use>
        <g id="Color/Neutral/Black" mask="url(#mask-2)" fill="#172B4E" fill-rule="nonzero">
            <rect id="Rectangle" x="0" y="0" width="24" height="24"></rect>
        </g>
    </g>
</svg>