<?xml version="1.0" encoding="UTF-8"?>
<svg width="24px" height="24px" viewBox="0 0 24 24" version="1.1" xmlns="http://www.w3.org/2000/svg" xmlns:xlink="http://www.w3.org/1999/xlink">
    <!-- Generator: Sketch 54.1 (76490) - https://sketchapp.com -->
    <title>Icon/Feather/move</title>
    <desc>Created with Sketch.</desc>
    <defs>
        <path d="M11,13 L4.41421356,13 L5.70710678,14.2928932 C6.09763107,14.6834175 6.09763107,15.3165825 5.70710678,15.7071068 C5.31658249,16.0976311 4.68341751,16.0976311 4.29289322,15.7071068 L1.29289322,12.7071068 C0.902368927,12.3165825 0.902368927,11.6834175 1.29289322,11.2928932 L4.29289322,8.29289322 C4.68341751,7.90236893 5.31658249,7.90236893 5.70710678,8.29289322 C6.09763107,8.68341751 6.09763107,9.31658249 5.70710678,9.70710678 L4.41421356,11 L11,11 L11,4.41421356 L9.70710678,5.70710678 C9.31658249,6.09763107 8.68341751,6.09763107 8.29289322,5.70710678 C7.90236893,5.31658249 7.90236893,4.68341751 8.29289322,4.29289322 L11.2928932,1.29289322 C11.6834175,0.902368927 12.3165825,0.902368927 12.7071068,1.29289322 L15.7071068,4.29289322 C16.0976311,4.68341751 16.0976311,5.31658249 15.7071068,5.70710678 C15.3165825,6.09763107 14.6834175,6.09763107 14.2928932,5.70710678 L13,4.41421356 L13,11 L19.5857864,11 L18.2928932,9.70710678 C17.9023689,9.31658249 17.9023689,8.68341751 18.2928932,8.29289322 C18.6834175,7.90236893 19.3165825,7.90236893 19.7071068,8.29289322 L22.7071068,11.2928932 C23.0976311,11.6834175 23.0976311,12.3165825 22.7071068,12.7071068 L19.7071068,15.7071068 C19.3165825,16.0976311 18.6834175,16.0976311 18.2928932,15.7071068 C17.9023689,15.3165825 17.9023689,14.6834175 18.2928932,14.2928932 L19.5857864,13 L13,13 L13,19.5857864 L14.2928932,18.2928932 C14.6834175,17.9023689 15.3165825,17.9023689 15.7071068,18.2928932 C16.0976311,18.6834175 16.0976311,19.3165825 15.7071068,19.7071068 L12.7071068,22.7071068 C12.3165825,23.0976311 11.6834175,23.0976311 11.2928932,22.7071068 L8.29289322,19.7071068 C7.90236893,19.3165825 7.90236893,18.6834175 8.29289322,18.2928932 C8.68341751,17.9023689 9.31658249,17.9023689 9.70710678,18.2928932 L11,19.5857864 L11,13 Z" id="path-1"></path>
    </defs>
    <g id="Icon/Feather/move" stroke="none" stroke-width="1" fill="none" fill-rule="evenodd">
        <mask id="mask-2" fill="white">
            <use xlink:href="#path-1"></use>
        </mask>
        <use id="Combined-Shape" fill="#000000" fill-rule="nonzero" xlink:href="#path-1"></use>
        <g id="Color/Neutral/Black" mask="url(#mask-2)" fill="#172B4E" fill-rule="nonzero">
            <rect id="Rectangle" x="0" y="0" width="24" height="24"></rect>
        </g>
    </g>
</svg>