<?xml version="1.0" encoding="UTF-8"?>
<svg width="24px" height="24px" viewBox="0 0 24 24" version="1.1" xmlns="http://www.w3.org/2000/svg" xmlns:xlink="http://www.w3.org/1999/xlink">
    <!-- Generator: Sketch 54.1 (76490) - https://sketchapp.com -->
    <title>Icon/Feather/phone-call</title>
    <desc>Created with Sketch.</desc>
    <defs>
        <path d="M15.1296212,5.01910703 C17.5272086,5.48688701 19.4018413,7.36151965 19.8696212,9.75910703 C20.0586208,10.7278166 18.8789172,11.3556041 18.1810206,10.6577076 L14.2310206,6.70770763 C13.5331241,6.00981111 14.1609117,4.83010747 15.1296212,5.01910703 Z M15.0485402,1.00671502 C19.6924827,1.52261973 23.3601241,5.18564772 23.8818735,9.82893724 C23.9874607,10.768607 22.8505149,11.31636 22.1814658,10.6481525 L14.2314658,2.70815249 C13.5624167,2.03994497 14.1087382,0.902310576 15.0485402,1.00671502 Z M20.8881274,17.9206008 C20.9010301,17.3881921 20.5312165,16.951726 20.0373699,16.8820152 C19.002532,16.7455306 17.9864556,16.4924155 17.0062665,16.1266532 C16.640829,15.9892856 16.2288634,16.0771456 15.9552342,16.3477076 L14.6852342,17.6177076 C14.3669212,17.9360206 13.8751568,18.0024082 13.4838329,17.7798954 C10.8238155,16.2673677 8.6213606,14.0649128 7.10883291,11.4048954 C6.88632003,11.0135715 6.95270764,10.5218071 7.27102064,10.2034941 L8.53707512,8.93746173 C8.81158265,8.65986486 8.89944262,8.24789924 8.76123017,7.88020569 C8.39631276,6.90227267 8.14319766,5.88619632 8.00796907,4.86055241 C7.93771949,4.36353616 7.5099011,3.99561234 6.99812742,4.00060085 L3.99906915,4.0006004 C3.71836627,4.00086475 3.45069892,4.11909525 3.26145204,4.32641093 C3.07220515,4.53372661 2.97880575,4.81103657 3.00253616,5.07500127 C3.31419285,8.00980611 4.31278313,10.8299292 5.92214121,13.3142794 C7.37874217,15.606545 9.32218327,17.5499861 11.6222286,19.0115812 C14.0879999,20.610625 16.8944746,21.6089885 19.7981357,21.9246598 C20.0785676,21.9500039 20.3566895,21.8559455 20.5641746,21.6655923 C20.7716596,21.475239 20.8892786,21.2062324 20.8881274,20.9206008 L20.8881274,17.9206008 Z M22.8881274,17.9317776 L22.8881192,20.9165419 C22.8915479,21.7612595 22.5386911,22.5682794 21.916236,23.1393392 C21.2937808,23.710399 20.4594151,23.992574 19.6001051,23.9147493 C16.367448,23.5634947 13.2622533,22.4588658 10.5418059,20.6946146 C8.00172781,19.0805433 5.84818497,16.9270005 4.23884754,14.3943005 C2.46342782,11.6536805 1.358548,8.5333847 1.0121857,5.27060129 C0.936395512,4.43190979 1.21659371,3.59997992 1.78433437,2.97803287 C2.35207502,2.35608582 3.15507706,2.00139432 3.99812742,2.00060085 L6.98828577,2.00064928 C8.49408185,1.98582904 9.77753704,3.0896005 9.98954181,4.58984336 C10.1063032,5.47513828 10.322841,6.34438279 10.6341797,7.17873996 C11.0462822,8.27505251 10.7827023,9.51094936 9.9552342,10.3477076 L9.23814163,11.0648002 C10.4139976,12.909449 11.9792846,14.4747352 13.8239339,15.6505904 L14.5449883,14.9295485 C15.3777789,14.1060259 16.6136758,13.842446 17.7077323,14.2537036 C18.5443455,14.5658873 19.41359,14.7824251 20.3078197,14.9004059 C21.8116623,15.1125613 22.9189792,16.414789 22.8881274,17.9317776 Z" id="path-1"></path>
    </defs>
    <g id="Icon/Feather/phone-call" stroke="none" stroke-width="1" fill="none" fill-rule="evenodd">
        <mask id="mask-2" fill="white">
            <use xlink:href="#path-1"></use>
        </mask>
        <use id="Shape" fill="#000000" fill-rule="nonzero" xlink:href="#path-1"></use>
        <g id="Color/Neutral/Black" mask="url(#mask-2)" fill="#172B4E" fill-rule="nonzero">
            <rect id="Rectangle" x="0" y="0" width="24" height="24"></rect>
        </g>
    </g>
</svg>