<?xml version="1.0" encoding="UTF-8"?>
<svg width="24px" height="24px" viewBox="0 0 24 24" version="1.1" xmlns="http://www.w3.org/2000/svg" xmlns:xlink="http://www.w3.org/1999/xlink">
    <!-- Generator: Sketch 54.1 (76490) - https://sketchapp.com -->
    <title>Icon/Feather/radio</title>
    <desc>Created with Sketch.</desc>
    <defs>
        <path d="M11.9978645,15.07 C10.3410103,15.07 8.99786454,13.7268542 8.99786454,12.07 C8.99786454,10.4131458 10.3410103,9.07 11.9978645,9.07 C13.6547188,9.07 14.9978645,10.4131458 14.9978645,12.07 C14.9978645,13.7268542 13.6547188,15.07 11.9978645,15.07 Z M15.5311512,8.5375 C15.1404097,8.147193 15.1400575,7.51402812 15.5303645,7.12328666 C15.9206715,6.7325452 16.5538364,6.732193 16.9445779,7.1225 C18.2590172,8.4354778 18.9975845,10.2171353 18.9975845,12.075 C18.9975845,13.9328647 18.2590172,15.7145222 16.9445779,17.0275 C16.5538364,17.417807 15.9206715,17.4174548 15.5303645,17.0267133 C15.1400575,16.6359719 15.1404097,16.002807 15.5311512,15.6125 C16.4700364,14.6746587 16.9975845,13.4020462 16.9975845,12.075 C16.9975845,10.7479538 16.4700364,9.47534129 15.5311512,8.5375 Z M8.46457788,15.6025 C8.85531934,15.992807 8.85567154,16.6259719 8.46536454,17.0167133 C8.07505754,17.4074548 7.44189265,17.407807 7.05115119,17.0175 C5.73671189,15.7045222 4.9981446,13.9228647 4.9981446,12.065 C4.9981446,10.2071353 5.73671189,8.4254778 7.05115119,7.1125 C7.44189265,6.722193 8.07505754,6.7225452 8.46536454,7.11328666 C8.85567154,7.50402812 8.85531934,8.137193 8.46457788,8.5275 C7.52569267,9.46534129 6.9981446,10.7379538 6.9981446,12.065 C6.9981446,13.3920462 7.52569267,14.6646587 8.46457788,15.6025 Z M18.360651,5.707 C17.9701857,5.31641674 17.9702813,4.68325177 18.3608645,4.29278645 C18.7514478,3.90232114 19.3846128,3.90241674 19.7750781,4.293 C24.0692794,8.58849837 24.0692794,15.5515016 19.7750781,19.847 C19.3846128,20.2375833 18.7514478,20.2376789 18.3608645,19.8472135 C17.9702813,19.4567482 17.9701857,18.8235833 18.360651,18.433 C21.8740884,14.9185013 21.8740884,9.22149866 18.360651,5.707 Z M5.63507808,18.433 C6.0255434,18.8235833 6.02544779,19.4567482 5.63486454,19.8472135 C5.24428128,20.2376789 4.61111631,20.2375833 4.22065099,19.847 C-0.0735503304,15.5515016 -0.0735503304,8.58849837 4.22065099,4.293 C4.61111631,3.90241674 5.24428128,3.90232114 5.63486454,4.29278645 C6.02544779,4.68325177 6.0255434,5.31641674 5.63507808,5.707 C2.12164064,9.22149866 2.12164064,14.9185013 5.63507808,18.433 Z M11.9978645,13.07 C12.5501493,13.07 12.9978645,12.6222847 12.9978645,12.07 C12.9978645,11.5177153 12.5501493,11.07 11.9978645,11.07 C11.4455798,11.07 10.9978645,11.5177153 10.9978645,12.07 C10.9978645,12.6222847 11.4455798,13.07 11.9978645,13.07 Z" id="path-1"></path>
    </defs>
    <g id="Icon/Feather/radio" stroke="none" stroke-width="1" fill="none" fill-rule="evenodd">
        <mask id="mask-2" fill="white">
            <use xlink:href="#path-1"></use>
        </mask>
        <use id="Combined-Shape" fill="#000000" fill-rule="nonzero" xlink:href="#path-1"></use>
        <g id="Color/Neutral/Black" mask="url(#mask-2)" fill="#172B4E" fill-rule="nonzero">
            <rect id="Rectangle" x="0" y="0" width="24" height="24"></rect>
        </g>
    </g>
</svg>