<?xml version="1.0" encoding="UTF-8"?>
<svg width="24px" height="24px" viewBox="0 0 24 24" version="1.1" xmlns="http://www.w3.org/2000/svg" xmlns:xlink="http://www.w3.org/1999/xlink">
    <!-- Generator: Sketch 54.1 (76490) - https://sketchapp.com -->
    <title>Icon/Feather/refresh-cw</title>
    <desc>Created with Sketch.</desc>
    <defs>
        <path d="M22.9324338,14.6379297 C22.9778517,14.7550094 23.0003031,14.8787317 23,15.002277 L23,21 C23,21.5522847 22.5522847,22 22,22 C21.4477153,22 21,21.5522847 21,21 L21,17.311618 L18.0672839,20.0669306 C15.639996,22.4954345 12.1365131,23.5088202 8.78760253,22.7510871 C5.43869191,21.9933541 2.71270799,19.5704733 1.56728395,16.3335985 C1.38304384,15.812951 1.65575607,15.2415267 2.17640376,15.0572866 C2.69705146,14.8730466 3.26847594,15.1457587 3.45271605,15.6664062 C4.36905528,18.2559061 6.54984242,20.1942107 9.22897091,20.8003972 C11.9080994,21.4065836 14.7108857,20.595875 16.6752234,18.6312484 L19.475452,16 L16,16 C15.4477153,16 15,15.5522847 15,15 C15,14.4477153 15.4477153,14 16,14 L22,14 C22.4198068,14 22.7791941,14.2586871 22.9274531,14.6253528 L22.9324338,14.6379297 Z M0.0675692019,9.3598938 C0.022151282,9.24281406 -0.000300055279,9.1190918 3.02767689e-06,8.99554651 L3.02767694e-06,2.9978235 C3.02767694e-06,2.44553875 0.447718278,1.9978235 1.00000303,1.9978235 C1.55228778,1.9978235 2.00000303,2.44553875 2.00000303,2.9978235 L2.00000303,6.68620553 L4.93271908,3.93089295 C7.36000703,1.50238902 10.8634899,0.489003311 14.2124005,1.24673637 C17.5613111,2.00446942 20.287295,4.42735017 21.4327191,7.66422502 C21.6169592,8.18487255 21.344247,8.75629683 20.8235993,8.94053688 C20.3029516,9.12477693 19.7315271,8.85206479 19.547287,8.33141727 C18.6309477,5.74191739 16.4501606,3.80361279 13.7710321,3.19742634 C11.0919036,2.5912399 8.28911734,3.40194847 6.32477961,5.3665751 L3.52455101,7.9978235 L7.00000303,7.9978235 C7.55228778,7.9978235 8.00000303,8.44553875 8.00000303,8.9978235 C8.00000303,9.55010825 7.55228778,9.9978235 7.00000303,9.9978235 L1.00000303,9.9978235 C0.580196187,9.9978235 0.220808961,9.73913638 0.0725499383,9.37247073 L0.0675692019,9.3598938 Z" id="path-1"></path>
    </defs>
    <g id="Icon/Feather/refresh-cw" stroke="none" stroke-width="1" fill="none" fill-rule="evenodd">
        <mask id="mask-2" fill="white">
            <use xlink:href="#path-1"></use>
        </mask>
        <use id="Combined-Shape" fill="#000000" transform="translate(11.500002, 11.998912) scale(-1, 1) translate(-11.500002, -11.998912) " xlink:href="#path-1"></use>
    </g>
</svg>