<?xml version="1.0" encoding="UTF-8"?>
<svg width="24px" height="24px" viewBox="0 0 24 24" version="1.1" xmlns="http://www.w3.org/2000/svg" xmlns:xlink="http://www.w3.org/1999/xlink">
    <!-- Generator: Sketch 57.1 (83088) - https://sketch.com -->
    <title>Icon/Service/revo-alt</title>
    <desc>Created with Sketch.</desc>
    <defs>
        <path d="M14.1,4.84210526 C14.7,4.84210526 15.1,5.24561404 15.1,5.85087719 L15.1,5.85087719 L15.1,9.78508772 C15.1,10.3903509 14.7,10.7938596 14.1,10.7938596 L14.1,10.7938596 L11.1,10.7938596 C9.5,10.7938596 8.2,9.48245614 8.2,7.86842105 C8.2,6.25438596 9.5,4.84210526 11.1,4.84210526 L11.1,4.84210526 Z M13.1,6.85964912 L11.1,6.85964912 C10.6,6.85964912 10.2,7.36403509 10.2,7.86842105 C10.2,8.37280702 10.6,8.77631579 11.1,8.77631579 L11.1,8.77631579 L13.1,8.77631579 L13.1,6.85964912 Z M20,0 C20.5,0 21,0.403508772 21,1.00877193 L21,1.00877193 L21,21.9912281 C21,22.5964912 20.6,23 20,23 L20,23 L13.9,23 C13.3,23 12.9,22.5964912 12.9,21.9912281 L12.9,21.9912281 L12.9,16.5438596 L10.3,22.3947368 C10.2,22.7982456 9.8,23 9.4,23 L9.4,23 L3,23 C2.7,23 2.4,22.7982456 2.2,22.495614 C2,22.1929825 2,21.7894737 2.1,21.4868421 L2.1,21.4868421 L5.4,14.5263158 C3.3,13.0131579 2,10.5921053 2,7.96929825 C2,3.53070175 5.5,0 9.9,0 L9.9,0 Z M19,2.01754386 L9.9,2.01754386 C6.6,2.01754386 4,4.74122807 4,7.96929825 C4,10.1885965 5.2,12.2061404 7.2,13.2149123 C7.6,13.4166667 7.8,14.0219298 7.6,14.5263158 L7.6,14.5263158 L4.6,20.8815789 L8.8,20.8815789 L11.4,14.9298246 C11.5,14.5263158 11.9,14.3245614 12.3,14.3245614 L12.3,14.3245614 L13.9,14.3245614 C14.5,14.3245614 14.9,14.7280702 14.9,15.3333333 L14.9,15.3333333 L14.9,20.8815789 L19,20.8815789 L19,2.01754386 Z" id="path-1"></path>
    </defs>
    <g id="Icon/Service/revo-alt" stroke="none" stroke-width="1" fill="none" fill-rule="evenodd">
        <mask id="mask-2" fill="white">
            <use xlink:href="#path-1"></use>
        </mask>
        <use id="Combined-Shape" fill="#172B4E" fill-rule="nonzero" xlink:href="#path-1"></use>
        <g id="Color/Neutral/Darkest" mask="url(#mask-2)" fill="#172B4E" fill-rule="nonzero">
            <g transform="translate(1.000000, 0.000000)" id="Rectangle">
                <rect x="0" y="0" width="24" height="24"></rect>
            </g>
        </g>
    </g>
</svg>