<?xml version="1.0" encoding="UTF-8"?>
<svg width="24px" height="24px" viewBox="0 0 24 24" version="1.1" xmlns="http://www.w3.org/2000/svg" xmlns:xlink="http://www.w3.org/1999/xlink">
    <!-- Generator: Sketch 54.1 (76490) - https://sketchapp.com -->
    <title>Icon/Feather/rotate-cw</title>
    <desc>Created with Sketch.</desc>
    <defs>
        <path d="M18.5438646,14.6664285 C17.3568617,18.0262369 14.0908114,20.1959445 10.5335679,19.9878411 C6.97632435,19.7797378 3.98554879,17.2439977 3.19840857,13.7686994 C2.41126834,10.293401 4.0175451,6.71644824 7.13795391,4.99588516 C10.2583627,3.27532209 14.1405645,3.82598114 16.6594201,6.34642845 L21.3111894,10.7275604 C21.7132611,11.1061852 22.3461407,11.0871777 22.7247655,10.6851059 C23.1033903,10.2830342 23.0843828,9.65015454 22.6823111,9.27152973 L18.0523111,4.91152973 C14.9255108,1.7821025 10.0727585,1.09377869 6.17224752,3.24448253 C2.27173652,5.39518638 0.263890566,9.86637732 1.24781585,14.2105003 C2.23174113,18.5546232 5.97021058,21.7242983 10.416765,21.9844275 C14.8633194,22.2445567 18.9458823,19.5324222 20.4296359,15.3326616 C20.6136111,14.8119203 20.3406082,14.2406346 19.8198668,14.0566594 C19.2991255,13.8726842 18.7278398,14.1456871 18.5438646,14.6664285 Z M15.9967502,8.99954505 C15.4444655,8.99954505 14.9967502,9.4472603 14.9967502,9.99954505 C14.9967502,10.5518298 15.4444655,10.999545 15.9967502,10.999545 L21.9967502,10.999545 C22.549035,10.999545 22.9967502,10.5518298 22.9967502,9.99954505 L22.9967502,3.99954505 C22.9967502,3.4472603 22.549035,2.99954505 21.9967502,2.99954505 C21.4444655,2.99954505 20.9967502,3.4472603 20.9967502,3.99954505 L20.9967502,8.99954505 L15.9967502,8.99954505 Z" id="path-1"></path>
    </defs>
    <g id="Icon/Feather/rotate-cw" stroke="none" stroke-width="1" fill="none" fill-rule="evenodd">
        <mask id="mask-2" fill="white">
            <use xlink:href="#path-1"></use>
        </mask>
        <use id="Combined-Shape" fill="#000000" fill-rule="nonzero" xlink:href="#path-1"></use>
        <g id="Color/Neutral/Black" mask="url(#mask-2)" fill="#172B4E" fill-rule="nonzero">
            <rect id="Rectangle" x="0" y="0" width="24" height="24"></rect>
        </g>
    </g>
</svg>