<?xml version="1.0" encoding="UTF-8"?>
<svg width="24px" height="24px" viewBox="0 0 24 24" version="1.1" xmlns="http://www.w3.org/2000/svg" xmlns:xlink="http://www.w3.org/1999/xlink">
    <!-- Generator: Sketch 54.1 (76490) - https://sketchapp.com -->
    <title>Icon/Feather/scissors</title>
    <desc>Created with Sketch.</desc>
    <defs>
        <path d="M12,10.5857864 L19.2928932,3.29289322 C19.6834175,2.90236893 20.3165825,2.90236893 20.7071068,3.29289322 C21.0976311,3.68341751 21.0976311,4.31658249 20.7071068,4.70710678 L9.44618091,15.9680327 C9.79807061,16.5635459 10,17.2581914 10,18 C10,20.209139 8.209139,22 6,22 C3.790861,22 2,20.209139 2,18 C2,15.790861 3.790861,14 6,14 C6.74180862,14 7.43645409,14.2019294 8.03196735,14.5538191 L10.5857864,12 L8.03196735,9.44618091 C7.43645409,9.79807061 6.74180862,10 6,10 C3.790861,10 2,8.209139 2,6 C2,3.790861 3.790861,2 6,2 C8.209139,2 10,3.790861 10,6 C10,6.74180862 9.79807061,7.43645409 9.44618091,8.03196735 L12,10.5857864 Z M7.44929484,7.37824533 C7.79055229,7.01950801 8,6.53421357 8,6 C8,4.8954305 7.1045695,4 6,4 C4.8954305,4 4,4.8954305 4,6 C4,7.1045695 4.8954305,8 6,8 C6.53421357,8 7.01950801,7.79055229 7.37824533,7.44929484 C7.38943124,7.43694437 7.40098053,7.4248059 7.41289322,7.41289322 C7.4248059,7.40098053 7.43694437,7.38943124 7.44929484,7.37824533 Z M7.37824533,16.5507052 C7.01950801,16.2094477 6.53421357,16 6,16 C4.8954305,16 4,16.8954305 4,18 C4,19.1045695 4.8954305,20 6,20 C7.1045695,20 8,19.1045695 8,18 C8,17.4657864 7.79055229,16.980492 7.44929484,16.6217547 C7.43694437,16.6105688 7.4248059,16.5990195 7.41289322,16.5871068 C7.40098053,16.5751941 7.38943124,16.5630556 7.37824533,16.5507052 Z M13.7635334,15.1877464 C13.3726559,14.7975757 13.3720829,14.164411 13.7622536,13.7735334 C14.1524243,13.3826559 14.785589,13.3820829 15.1764666,13.7722536 L20.7064666,19.2922536 C21.0973441,19.6824243 21.0979171,20.315589 20.7077464,20.7064666 C20.3175757,21.0973441 19.684411,21.0979171 19.2935334,20.7077464 L13.7635334,15.1877464 Z" id="path-1"></path>
    </defs>
    <g id="Icon/Feather/scissors" stroke="none" stroke-width="1" fill="none" fill-rule="evenodd">
        <mask id="mask-2" fill="white">
            <use xlink:href="#path-1"></use>
        </mask>
        <use id="Combined-Shape" fill="#000000" fill-rule="nonzero" xlink:href="#path-1"></use>
        <g id="Color/Neutral/Black" mask="url(#mask-2)" fill="#172B4E" fill-rule="nonzero">
            <rect id="Rectangle" x="0" y="0" width="24" height="24"></rect>
        </g>
    </g>
</svg>