<?xml version="1.0" encoding="UTF-8"?>
<svg width="24px" height="24px" viewBox="0 0 24 24" version="1.1" xmlns="http://www.w3.org/2000/svg" xmlns:xlink="http://www.w3.org/1999/xlink">
    <!-- Generator: Sketch 54.1 (76490) - https://sketchapp.com -->
    <title>Icon/Feather/Search</title>
    <desc>Created with Sketch.</desc>
    <defs>
        <path d="M17.1760252,15.7618116 L21.7071068,20.2928932 C22.0976311,20.6834175 22.0976311,21.3165825 21.7071068,21.7071068 C21.3165825,22.0976311 20.6834175,22.0976311 20.2928932,21.7071068 L15.7618116,17.1760252 C14.3145189,18.3182963 12.4868697,19 10.5,19 C5.80557963,19 2,15.1944204 2,10.5 C2,5.80557963 5.80557963,2 10.5,2 C15.1944204,2 19,5.80557963 19,10.5 C19,12.4868697 18.3182963,14.3145189 17.1760252,15.7618116 Z M15.1597589,15.0317433 C16.2986171,13.8609174 17,12.2623671 17,10.5 C17,6.91014913 14.0898509,4 10.5,4 C6.91014913,4 4,6.91014913 4,10.5 C4,14.0898509 6.91014913,17 10.5,17 C12.2623671,17 13.8609174,16.2986171 15.0317433,15.1597589 C15.0509347,15.1367843 15.071318,15.1144685 15.0928932,15.0928932 C15.1144685,15.071318 15.1367843,15.0509347 15.1597589,15.0317433 Z" id="path-1"></path>
    </defs>
    <g id="Icon/Feather/Search" stroke="none" stroke-width="1" fill="none" fill-rule="evenodd">
        <mask id="mask-2" fill="white">
            <use xlink:href="#path-1"></use>
        </mask>
        <use id="Combined-Shape" fill="#172B4E" fill-rule="nonzero" xlink:href="#path-1"></use>
    </g>
</svg>