<?xml version="1.0" encoding="UTF-8"?>
<svg width="24px" height="24px" viewBox="0 0 24 24" version="1.1" xmlns="http://www.w3.org/2000/svg" xmlns:xlink="http://www.w3.org/1999/xlink">
    <!-- Generator: Sketch 54.1 (76490) - https://sketchapp.com -->
    <title>Icon/Feather/server</title>
    <desc>Created with Sketch.</desc>
    <defs>
        <path d="M4,3 C3.44771525,3 3,3.44771525 3,4 L3,8 C3,8.55228475 3.44771525,9 4,9 L20,9 C20.5522847,9 21,8.55228475 21,8 L21,4 C21,3.44771525 20.5522847,3 20,3 L4,3 Z M4,1 L20,1 C21.6568542,1 23,2.34314575 23,4 L23,8 C23,9.65685425 21.6568542,11 20,11 L4,11 C2.34314575,11 1,9.65685425 1,8 L1,4 C1,2.34314575 2.34314575,1 4,1 Z M4,13 L20,13 C21.6568542,13 23,14.3431458 23,16 L23,20 C23,21.6568542 21.6568542,23 20,23 L4,23 C2.34314575,23 1,21.6568542 1,20 L1,16 C1,14.3431458 2.34314575,13 4,13 Z M4,15 C3.44771525,15 3,15.4477153 3,16 L3,20 C3,20.5522847 3.44771525,21 4,21 L20,21 C20.5522847,21 21,20.5522847 21,20 L21,16 C21,15.4477153 20.5522847,15 20,15 L4,15 Z" id="path-1"></path>
    </defs>
    <g id="Icon/Feather/server" stroke="none" stroke-width="1" fill="none" fill-rule="evenodd">
        <mask id="mask-2" fill="white">
            <use xlink:href="#path-1"></use>
        </mask>
        <use id="Combined-Shape" fill="#000000" fill-rule="nonzero" xlink:href="#path-1"></use>
        <g id="Color/Neutral/Black" mask="url(#mask-2)" fill="#172B4E" fill-rule="nonzero">
            <rect id="Rectangle" x="0" y="0" width="24" height="24"></rect>
        </g>
    </g>
</svg>