<?xml version="1.0" encoding="UTF-8"?>
<svg width="24px" height="24px" viewBox="0 0 24 24" version="1.1" xmlns="http://www.w3.org/2000/svg" xmlns:xlink="http://www.w3.org/1999/xlink">
    <!-- Generator: Sketch 54.1 (76490) - https://sketchapp.com -->
    <title>Icon/Feather/shield</title>
    <desc>Created with Sketch.</desc>
    <defs>
        <path d="M12.4472136,22.8944272 C12.1656861,23.0351909 11.8343139,23.0351909 11.5527864,22.8944272 C11.2759078,22.7559879 10.811078,22.4986714 10.2200011,22.1292483 C9.2398841,21.5166752 8.25994003,20.8062158 7.34149539,20.0025767 C4.64575967,17.6438079 3,14.9694485 3,12 L3,4 C3,3.54113236 3.31229737,3.14114925 3.75746437,3.0298575 L11.7574644,1.0298575 C11.9167044,0.9900475 12.0832956,0.9900475 12.2425356,1.0298575 L20.2425356,3.0298575 C20.6877026,3.14114925 21,3.54113236 21,4 L21,12 C21,14.9694485 19.3542403,17.6438079 16.6585046,20.0025767 C15.74006,20.8062158 14.7601159,21.5166752 13.7799989,22.1292483 C13.188922,22.4986714 12.7240922,22.7559879 12.4472136,22.8944272 Z M12.7200011,20.4332517 C13.6148841,19.8739498 14.50994,19.2250342 15.3414954,18.4974233 C17.6457597,16.4811921 19,14.2805515 19,12 L19,4.78077641 L12,3.03077641 L5,4.78077641 L5,12 C5,14.2805515 6.35424033,16.4811921 8.65850461,18.4974233 C9.49005997,19.2250342 10.3851159,19.8739498 11.2799989,20.4332517 C11.5371291,20.5939581 11.7785991,20.7373457 12,20.8627787 C12.2214009,20.7373457 12.4628709,20.5939581 12.7200011,20.4332517 Z" id="path-1"></path>
    </defs>
    <g id="Icon/Feather/shield" stroke="none" stroke-width="1" fill="none" fill-rule="evenodd">
        <mask id="mask-2" fill="white">
            <use xlink:href="#path-1"></use>
        </mask>
        <use id="Shape" fill="#000000" fill-rule="nonzero" xlink:href="#path-1"></use>
        <g id="Color/Neutral/Black" mask="url(#mask-2)" fill="#172B4E" fill-rule="nonzero">
            <rect id="Rectangle" x="0" y="0" width="24" height="24"></rect>
        </g>
    </g>
</svg>