<?xml version="1.0" encoding="UTF-8"?>
<svg width="24px" height="24px" viewBox="0 0 24 24" version="1.1" xmlns="http://www.w3.org/2000/svg" xmlns:xlink="http://www.w3.org/1999/xlink">
    <!-- Generator: Sketch 57.1 (83088) - https://sketch.com -->
    <title>Icon/Service/site-plan</title>
    <desc>Created with Sketch.</desc>
    <defs>
        <path d="M22.4,2.5 L1.8,2.5 C1.2,2.5 0.8,2.9 0.8,3.5 L0.8,20.5 C0.8,21.1 1.2,21.5 1.8,21.5 L22.4,21.5 C23,21.5 23.4,21.1 23.4,20.5 L23.4,3.5 C23.4,3 23,2.5 22.4,2.5 Z M21.4,19.5 L2.8,19.5 L2.8,4.5 L8.4,4.5 L8.4,6.9 L5.9,6.9 C5.9,6.9 5.8,6.9 5.8,6.9 C5.7,7 5.6,7 5.5,7 C5.5,7 5.4,7.1 5.3,7.1 C5.3,7.1 5.2,7.1 5.2,7.2 C5.2,7.2 5.2,7.2 5.2,7.2 C5.1,7.3 5.1,7.3 5.1,7.4 C5,7.4 5,7.5 5,7.5 C5,7.5 5,7.6 5,7.7 C5,7.8 5,7.8 5,7.9 C5,7.9 5,7.9 5,7.9 L5,16.4 C5,16.4 5,16.4 5,16.4 C5,16.5 5,16.5 5,16.6 C5,16.7 5,16.7 5,16.8 C5,16.8 5.1,16.9 5.1,16.9 C5.1,17 5.2,17 5.2,17.1 C5.2,17.1 5.2,17.1 5.2,17.1 C5.2,17.1 5.3,17.2 5.4,17.2 C5.4,17.2 5.5,17.3 5.5,17.3 C5.6,17.3 5.7,17.4 5.9,17.4 L18.7,17.4 C19.3,17.4 19.7,17 19.7,16.4 L19.7,7.9 C19.7,7.3 19.3,6.9 18.7,6.9 L10.5,6.9 L10.5,4.5 L21.5,4.5 L21.5,19.5 L21.4,19.5 Z M6.9,10.6 L8.4,12.2 L6.9,13.8 L6.9,10.6 Z M10.1,13.2 L13.8,13.2 L15.8,15.5 L8.1,15.5 L10.1,13.2 Z M15.7,12.2 L17.7,10 L17.7,14.5 L15.7,12.2 Z M13.9,11.2 L10.2,11.2 L8.2,8.9 L16,8.9 L13.9,11.2 Z" id="path-1"></path>
    </defs>
    <g id="Icon/Service/site-plan" stroke="none" stroke-width="1" fill="none" fill-rule="evenodd">
        <mask id="mask-2" fill="white">
            <use xlink:href="#path-1"></use>
        </mask>
        <use id="Shape" fill="#172B4E" fill-rule="nonzero" xlink:href="#path-1"></use>
        <g id="Color/Neutral/Darkest" mask="url(#mask-2)" fill="#172B4E" fill-rule="nonzero">
            <rect id="Rectangle" x="0" y="0" width="24" height="24"></rect>
        </g>
    </g>
</svg>