<?xml version="1.0" encoding="UTF-8"?>
<svg width="24px" height="24px" viewBox="0 0 24 24" version="1.1" xmlns="http://www.w3.org/2000/svg" xmlns:xlink="http://www.w3.org/1999/xlink">
    <!-- Generator: Sketch 54.1 (76490) - https://sketchapp.com -->
    <title>Icon/Feather/skip-back</title>
    <desc>Created with Sketch.</desc>
    <defs>
        <path d="M18,6.08250215 L10.6007811,12.0018773 L18,17.9212525 L18,6.08250215 Z M18.375305,20.7827461 L8.37530495,12.7827461 C7.87489835,12.3824208 7.87489835,11.6213338 8.37530495,11.2210085 L18.375305,3.22100849 C19.0300683,2.69719782 20,3.16337109 20,4.0018773 L20,20.0018773 C20,20.8403835 19.0300683,21.3065568 18.375305,20.7827461 Z M6,19.0018773 C6,19.5541621 5.55228475,20.0018773 5,20.0018773 C4.44771525,20.0018773 4,19.5541621 4,19.0018773 L4,5.0018773 C4,4.44959255 4.44771525,4.0018773 5,4.0018773 C5.55228475,4.0018773 6,4.44959255 6,5.0018773 L6,19.0018773 Z" id="path-1"></path>
    </defs>
    <g id="Icon/Feather/skip-back" stroke="none" stroke-width="1" fill="none" fill-rule="evenodd">
        <mask id="mask-2" fill="white">
            <use xlink:href="#path-1"></use>
        </mask>
        <use id="Combined-Shape" fill="#000000" fill-rule="nonzero" xlink:href="#path-1"></use>
        <g id="Color/Neutral/Black" mask="url(#mask-2)" fill="#172B4E" fill-rule="nonzero">
            <rect id="Rectangle" x="0" y="0" width="24" height="24"></rect>
        </g>
    </g>
</svg>