<?xml version="1.0" encoding="UTF-8"?>
<svg width="22px" height="22px" viewBox="0 0 22 22" version="1.1" xmlns="http://www.w3.org/2000/svg" xmlns:xlink="http://www.w3.org/1999/xlink">
    <!-- Generator: Sketch 57.1 (83088) - https://sketch.com -->
    <title>Icon/Service/social-media-kit</title>
    <desc>Created with Sketch.</desc>
    <defs>
        <path d="M18.6,7 C19.5,7 20.3,7.4 20.9,8 C21.5,8.7 21.7,9.5 21.6,10.4 L20.2,19.4 C20,20.9 18.7,22 17.2,22 L6,22 C5.4,22 5,21.6 5,21 L5,10 C5,9.9 5,9.7 5.1,9.6 L9.1,0.6 C9.2,0.2 9.6,0 10,0 C12.2,0 14,1.8 14,4 L14,7 L18.6,7 Z M7,20 L17.3,20 C17.8,20 18.2,19.6 18.3,19.1 L19.7,10.1 C19.7,9.8 19.7,9.5 19.5,9.3 C19.2,9.1 19,9 18.7,9 L13,9 C12.4,9 12,8.6 12,8 L12,4 C12,3.1 11.4,2.4 10.6,2.1 L7,10.2 L7,20 Z M5,11 L3,11 C2.4,11 2,11.4 2,12 L2,19 C2,19.6 2.4,20 3,20 L5,20 L5,11 Z M6,22 L3,22 C1.3,22 0,20.7 0,19 L0,12 C0,10.3 1.3,9 3,9 L6,9 C6.6,9 7,9.4 7,10 L7,21 C7,21.6 6.6,22 6,22 Z" id="path-1"></path>
    </defs>
    <g id="Icon/Service/social-media-kit" stroke="none" stroke-width="1" fill="none" fill-rule="evenodd">
        <mask id="mask-2" fill="white">
            <use xlink:href="#path-1"></use>
        </mask>
        <use id="Shape" fill="#172B4E" fill-rule="nonzero" xlink:href="#path-1"></use>
        <g id="Color/Neutral/Darkest" mask="url(#mask-2)" fill="#172B4E" fill-rule="nonzero">
            <rect id="Rectangle" x="0" y="0" width="24" height="24"></rect>
        </g>
    </g>
</svg>