<?xml version="1.0" encoding="UTF-8"?>
<svg width="25px" height="24px" viewBox="0 0 25 24" version="1.1" xmlns="http://www.w3.org/2000/svg" xmlns:xlink="http://www.w3.org/1999/xlink">
    <!-- Generator: Sketch 56.2 (81672) - https://sketch.com -->
    <title>Icon/Service/tour-3d</title>
    <desc>Created with Sketch.</desc>
    <defs>
        <path d="M1.1,14.6 C1.1,14.7 1,14.8 1,15 L1,21 C1,21.6 1.4,22 2,22 C2.6,22 3,21.6 3,21 L3,17.3 L5.9,20.1 C8.3,22.5 11.8,23.5 15.2,22.8 C18.6,22.1 21.3,19.6 22.4,16.4 C22.6,15.9 22.3,15.3 21.8,15.1 C21.3,14.9 20.7,15.2 20.5,15.7 C19.6,18.3 17.4,20.2 14.7,20.8 C12,21.4 9.2,20.6 7.3,18.6 L4.5,16 L8,16 C8.6,16 9,15.6 9,15 C9,14.4 8.6,14 8,14 L2,14 C1.6,14 1.2,14.3 1.1,14.6 L1.1,14.6 Z M23.9,9.4 C23.9,9.3 24,9.2 24,9 L24,3 C24,2.4 23.6,2 23,2 C22.4,2 22,2.4 22,3 L22,6.7 L19.1,3.9 C16.7,1.5 13.2,0.5 9.8,1.2 C6.4,1.9 3.7,4.4 2.6,7.7 C2.4,8.2 2.7,8.8 3.2,8.9 C3.7,9.1 4.3,8.9 4.5,8.3 C5.4,5.7 7.6,3.8 10.3,3.2 C13,2.6 15.8,3.4 17.7,5.4 L20.5,8 L17,8 C16.4,8 16,8.4 16,9 C16,9.6 16.4,10 17,10 L23,10 C23.4,10 23.8,9.7 23.9,9.4 L23.9,9.4 Z" id="path-1"></path>
    </defs>
    <g id="Icon/Service/tour-3d" stroke="none" stroke-width="1" fill="none" fill-rule="evenodd">
        <mask id="mask-2" fill="white">
            <use xlink:href="#path-1"></use>
        </mask>
        <use id="Shape" fill="#172B4E" xlink:href="#path-1"></use>
        <g id="Color/Neutral/Black" mask="url(#mask-2)" fill="#172B4E" fill-rule="nonzero">
            <rect id="Rectangle" x="0" y="0" width="25" height="24"></rect>
        </g>
    </g>
</svg>