<?xml version="1.0" encoding="UTF-8"?>
<svg width="24px" height="24px" viewBox="0 0 24 24" version="1.1" xmlns="http://www.w3.org/2000/svg" xmlns:xlink="http://www.w3.org/1999/xlink">
    <!-- Generator: Sketch 54.1 (76490) - https://sketchapp.com -->
    <title>Icon/Feather/unlock</title>
    <desc>Created with Sketch.</desc>
    <defs>
        <path d="M6.00000013,11 L6.00000051,8.001005 C5.99690257,4.91848638 8.33009128,2.33514116 11.3970052,2.02535187 C14.4639192,1.71556258 17.2665944,3.78013367 17.8800005,6.801005 C17.9899024,7.34224433 17.6402343,7.8700986 17.098995,7.98000051 C16.5577557,8.08990241 16.0299014,7.74023433 15.9199995,7.198995 C15.5110621,5.18508078 13.642612,3.80870005 11.5980027,4.01522625 C9.55339335,4.22175244 7.99793421,5.94398259 8,8 L8,11 L19,11 C20.6568542,11 22,12.3431458 22,14 L22,21 C22,22.6568542 20.6568542,24 19,24 L5,24 C3.34314575,24 2,22.6568542 2,21 L2,14 C2,12.3431458 3.34314575,11 5,11 L6.00000013,11 Z M5,13 C4.44771525,13 4,13.4477153 4,14 L4,21 C4,21.5522847 4.44771525,22 5,22 L19,22 C19.5522847,22 20,21.5522847 20,21 L20,14 C20,13.4477153 19.5522847,13 19,13 L5,13 Z" id="path-1"></path>
    </defs>
    <g id="Icon/Feather/unlock" stroke="none" stroke-width="1" fill="none" fill-rule="evenodd">
        <mask id="mask-2" fill="white">
            <use xlink:href="#path-1"></use>
        </mask>
        <use id="Combined-Shape" fill="#000000" fill-rule="nonzero" xlink:href="#path-1"></use>
        <g id="Color/Neutral/Black" mask="url(#mask-2)" fill="#172B4E" fill-rule="nonzero">
            <rect id="Rectangle" x="0" y="0" width="24" height="24"></rect>
        </g>
    </g>
</svg>