<?xml version="1.0" encoding="UTF-8"?>
<svg width="24px" height="24px" viewBox="0 0 24 24" version="1.1" xmlns="http://www.w3.org/2000/svg" xmlns:xlink="http://www.w3.org/1999/xlink">
    <!-- Generator: Sketch 54.1 (76490) - https://sketchapp.com -->
    <title>Icon/Feather/upload-cloud</title>
    <desc>Created with Sketch.</desc>
    <defs>
        <path d="M13.005461,14.4120065 L13.005461,20.997793 C13.005461,21.5500777 12.5577457,21.997793 12.005461,21.997793 C11.4531762,21.997793 11.005461,21.5500777 11.005461,20.997793 L11.005461,14.4120065 L8.71256775,16.7048997 C8.32204346,17.095424 7.68887848,17.095424 7.29835419,16.7048997 C6.9078299,16.3143754 6.9078299,15.6812105 7.29835419,15.2906862 L11.2983542,11.2906862 C11.6888785,10.9001619 12.3220435,10.9001619 12.7125678,11.2906862 L16.7125678,15.2906862 C17.103092,15.6812105 17.103092,16.3143754 16.7125678,16.7048997 C16.3220435,17.095424 15.6888785,17.095424 15.2983542,16.7048997 L13.005461,14.4120065 Z M10.0211064,2.05834929 C13.4611584,2.45113084 16.3458166,4.7759764 17.4847221,7.99779308 L18.0061212,7.99779317 C20.7483357,7.99960367 23.1403705,9.86033676 23.8167698,12.5178219 C24.4931691,15.1753071 23.2817866,17.9532039 20.8741212,19.2657932 C20.3892151,19.5301499 19.7818175,19.3513593 19.5174608,18.8664532 C19.253104,18.3815471 19.4318946,17.7741495 19.9168007,17.5097927 C21.521911,16.6347332 22.3294993,14.782802 21.8785665,13.0111452 C21.4276336,11.2394885 19.8329437,9.99899974 18.005461,9.99779296 L16.745461,9.99779296 C16.2895808,9.99779296 15.8914046,9.68946806 15.7772945,9.24810021 C15.0519905,6.44268813 12.6731719,4.37415398 9.79422259,4.04543855 C6.9152733,3.71672312 4.13139375,5.19578577 2.79236407,7.76549438 C1.4533344,10.335203 1.83598859,13.4642903 3.75479452,15.6356002 C4.12051347,16.0494457 4.08149921,16.6814075 3.66765372,17.0471265 C3.25380823,17.4128455 2.62184638,17.3738312 2.25612742,16.9599857 C-0.210908776,14.1683016 -0.702892724,10.1451893 1.01871685,6.84127821 C2.74032643,3.53736714 6.31960014,1.63571516 10.0211064,2.05834929 Z" id="path-1"></path>
    </defs>
    <g id="Icon/Feather/upload-cloud" stroke="none" stroke-width="1" fill="none" fill-rule="evenodd">
        <mask id="mask-2" fill="white">
            <use xlink:href="#path-1"></use>
        </mask>
        <use id="Combined-Shape" fill="#000000" fill-rule="nonzero" xlink:href="#path-1"></use>
        <g id="Color/Neutral/Black" mask="url(#mask-2)" fill="#172B4E" fill-rule="nonzero">
            <rect id="Rectangle" x="0" y="0" width="24" height="24"></rect>
        </g>
    </g>
</svg>