<?xml version="1.0" encoding="UTF-8"?>
<svg width="24px" height="24px" viewBox="0 0 24 24" version="1.1" xmlns="http://www.w3.org/2000/svg" xmlns:xlink="http://www.w3.org/1999/xlink">
    <!-- Generator: Sketch 54.1 (76490) - https://sketchapp.com -->
    <title>Icon/Feather/wind</title>
    <desc>Created with Sketch.</desc>
    <defs>
        <path d="M10.2991985,5.29506367 C10.6189153,4.97344693 11.1150315,4.90723891 11.5078986,5.13375945 C11.9007657,5.36027999 12.0920185,5.8228134 11.9738525,6.26064088 C11.8556865,6.69846836 11.4576878,7.00196768 11.0041985,7.00006367 L2,7.00005485 C1.44771525,7.00005485 1,7.4477701 1,8.00005485 C1,8.5523396 1.44771525,9.00005485 2,9.00005485 L11,9.00005485 C12.3562691,9.00575807 13.5502652,8.09526012 13.9047633,6.78177768 C14.2592613,5.46829524 13.6855028,4.080695 12.5069015,3.40113339 C11.3283003,2.72157177 9.83995162,2.92019583 8.88080146,3.88504604 C8.49143584,4.27672558 8.49331165,4.90988778 8.88499119,5.29925339 C9.27667073,5.68861901 9.90983293,5.6867432 10.2991985,5.29506367 Z M11.8808015,20.1150637 C12.8399516,21.0799139 14.3283003,21.2785379 15.5069015,20.5989763 C16.6855028,19.9194147 17.2592613,18.5318145 16.9047633,17.218332 C16.5502652,15.9048496 15.3562691,14.9943516 13.9958015,15.0000637 L2,15.0000549 C1.44771525,15.0000549 1,15.4477701 1,16.0000549 C1,16.5523396 1.44771525,17.0000549 2,17.0000549 L14,17.0000549 C14.4576878,16.998142 14.8556865,17.3016413 14.9738525,17.7394688 C15.0920185,18.1772963 14.9007657,18.6398297 14.5078986,18.8663503 C14.1150315,19.0928708 13.6189153,19.0266628 13.2991985,18.705046 C12.9098329,18.3133665 12.2766707,18.3114907 11.8849912,18.7008563 C11.4933116,19.0902219 11.4914358,19.7233841 11.8808015,20.1150637 Z M18.4362108,8.43805645 C18.9164771,7.95900494 19.6584728,7.86189075 20.2458489,8.20120663 C20.8332251,8.54052251 21.119777,9.23180879 20.9447146,9.88717066 C20.7696521,10.5425325 20.1765504,10.9988428 19.4982108,11.0000565 L2,11.0000549 C1.44771525,11.0000549 1,11.4477701 1,12.0000549 C1,12.5523396 1.44771525,13.0000549 2,13.0000549 L19.5,13.0000549 C21.0845815,12.9972214 22.4684856,11.9324974 22.8769646,10.4033197 C23.2854436,8.87414205 22.6168225,7.26114071 21.2462781,6.46940366 C19.8757337,5.67766661 18.1444105,5.90426639 17.0237892,7.02205325 C16.6327707,7.41208272 16.6319689,8.04524719 17.0219984,8.43626568 C17.4120279,8.82728417 18.0451923,8.82808592 18.4362108,8.43805645 Z" id="path-1"></path>
    </defs>
    <g id="Icon/Feather/wind" stroke="none" stroke-width="1" fill="none" fill-rule="evenodd">
        <mask id="mask-2" fill="white">
            <use xlink:href="#path-1"></use>
        </mask>
        <use id="Shape" fill="#000000" fill-rule="nonzero" xlink:href="#path-1"></use>
        <g id="Color/Neutral/Black" mask="url(#mask-2)" fill="#172B4E" fill-rule="nonzero">
            <rect id="Rectangle" x="0" y="0" width="24" height="24"></rect>
        </g>
    </g>
</svg>