<?xml version="1.0" encoding="UTF-8"?>
<svg width="24px" height="24px" viewBox="0 0 24 24" version="1.1" xmlns="http://www.w3.org/2000/svg" xmlns:xlink="http://www.w3.org/1999/xlink">
    <!-- Generator: Sketch 54.1 (76490) - https://sketchapp.com -->
    <title>Icon/Feather/x-circle</title>
    <desc>Created with Sketch.</desc>
    <defs>
        <path d="M13.4142136,12 L15.7071068,14.2928932 C16.0976311,14.6834175 16.0976311,15.3165825 15.7071068,15.7071068 C15.3165825,16.0976311 14.6834175,16.0976311 14.2928932,15.7071068 L12,13.4142136 L9.70710678,15.7071068 C9.31658249,16.0976311 8.68341751,16.0976311 8.29289322,15.7071068 C7.90236893,15.3165825 7.90236893,14.6834175 8.29289322,14.2928932 L10.5857864,12 L8.29289322,9.70710678 C7.90236893,9.31658249 7.90236893,8.68341751 8.29289322,8.29289322 C8.68341751,7.90236893 9.31658249,7.90236893 9.70710678,8.29289322 L12,10.5857864 L14.2928932,8.29289322 C14.6834175,7.90236893 15.3165825,7.90236893 15.7071068,8.29289322 C16.0976311,8.68341751 16.0976311,9.31658249 15.7071068,9.70710678 L13.4142136,12 Z M12,23 C5.92486775,23 1,18.0751322 1,12 C1,5.92486775 5.92486775,1 12,1 C18.0751322,1 23,5.92486775 23,12 C23,18.0751322 18.0751322,23 12,23 Z M12,21 C16.9705627,21 21,16.9705627 21,12 C21,7.02943725 16.9705627,3 12,3 C7.02943725,3 3,7.02943725 3,12 C3,16.9705627 7.02943725,21 12,21 Z" id="path-1"></path>
    </defs>
    <g id="Icon/Feather/x-circle" stroke="none" stroke-width="1" fill="none" fill-rule="evenodd">
        <mask id="mask-2" fill="white">
            <use xlink:href="#path-1"></use>
        </mask>
        <use id="Combined-Shape" fill="#000000" fill-rule="nonzero" xlink:href="#path-1"></use>
        <g id="Color/Neutral/Black" mask="url(#mask-2)" fill="#172B4E" fill-rule="nonzero">
            <rect id="Rectangle" x="0" y="0" width="24" height="24"></rect>
        </g>
    </g>
</svg>